<svg width="16" height="14" viewBox="0 0 16 14" version="1.1" xmlns="http://www.w3.org/2000/svg" xmlns:xlink="http://www.w3.org/1999/xlink">
<title>Rectangle 3</title>
<desc>Created using Figma</desc>
<g id="Canvas" transform="translate(-24541 -7454)">
<g id="Rectangle 3">
<mask id="mask0_outline_ins">
<use xlink:href="#path0_fill" fill="white" transform="translate(24541 7454)"/>
</mask>
<g mask="url(#mask0_outline_ins)">
<use xlink:href="#path1_stroke_2x" transform="translate(24541 7454)" fill="#B5B5BB"/>
</g>
</g>
</g>
<defs>
<path id="path0_fill" fill-rule="evenodd" d="M 0 0L 16 0L 8 14L 0 0Z"/>
<path id="path1_stroke_2x" d="M 0 0L 0 -1L -1.72318 -1L -0.868243 0.496139L 0 0ZM 16 0L 16.8682 0.496139L 17.7232 -1L 16 -1L 16 0ZM 8 14L 7.13176 14.4961L 8 16.0156L 8.86824 14.4961L 8 14ZM 0 1L 16 1L 16 -1L 0 -1L 0 1ZM 15.1318 -0.496139L 7.13176 13.5039L 8.86824 14.4961L 16.8682 0.496139L 15.1318 -0.496139ZM 8.86824 13.5039L 0.868243 -0.496139L -0.868243 0.496139L 7.13176 14.4961L 8.86824 13.5039Z"/>
</defs>
</svg>
