<?xml version="1.0" encoding="UTF-8"?>
<svg width="24px" height="24px" viewBox="0 0 24 24" version="1.1" xmlns="http://www.w3.org/2000/svg" xmlns:xlink="http://www.w3.org/1999/xlink">
    <!-- Generator: sketchtool 48.1 (47250) - http://www.bohemiancoding.com/sketch -->
    <title>FB9D13FE-7650-4D83-BA27-E86D3E8E3118</title>
    <desc>Created with sketchtool.</desc>
    <defs></defs>
    <g id="Symbols" stroke="none" stroke-width="1" fill="none" fill-rule="evenodd">
        <g id="ico_Phone_black">
            <rect id="Rectangle" x="0" y="0" width="24" height="24"></rect>
            <g id="Layer_1" transform="translate(2.000000, 2.000000)" fill="#3A3A3A" fill-opacity="0.869310462">
                <path d="M18.502,2.672 L16.707,0.879 C16.141,0.312 15.387,0 14.586,0 C13.785,0 13.031,0.312 12.465,0.879 L10.879,2.465 C9.709,3.635 9.709,5.537 10.879,6.707 L12.258,8.086 L8.086,12.258 L6.707,10.879 C6.141,10.312 5.387,10 4.586,10 C3.785,10 3.031,10.312 2.465,10.879 L0.879,12.465 C-0.291,13.635 -0.291,15.537 0.879,16.707 L2.673,18.5 C3.138,18.965 4.469,20.045 6.789,20.045 C9.553,20.045 12.483,18.516 15.5,15.5 C21.745,9.254 20.325,4.498 18.502,2.672 Z M12.293,3.879 L13.879,2.293 C14.074,2.098 14.33,2 14.586,2 C14.842,2 15.098,2.098 15.293,2.293 L16.376,3.375 L13.375,6.375 L12.293,5.293 C11.902,4.902 11.902,4.27 12.293,3.879 Z M2.293,15.293 C1.902,14.902 1.902,14.27 2.293,13.879 L3.879,12.293 C4.074,12.098 4.33,12 4.586,12 C4.842,12 5.098,12.098 5.293,12.293 L6.375,13.375 L3.376,16.375 L2.293,15.293 Z M14.086,14.086 C11.003,17.168 8.535,18.045 6.789,18.045 C5.44,18.045 4.522,17.522 4.087,17.086 C4.083,17.082 7.082,14.082 7.082,14.082 L7.379,14.379 C7.574,14.574 7.83,14.672 8.086,14.672 C8.342,14.672 8.598,14.574 8.793,14.379 L14.379,8.793 C14.77,8.402 14.77,7.77 14.379,7.379 L14.082,7.082 L17.083,4.082 C18.086,5.086 19.55,8.621 14.086,14.086 Z" id="Shape-Copy" transform="translate(10.029000, 10.022500) scale(-1, 1) translate(-10.029000, -10.022500) "></path>
            </g>
        </g>
    </g>
</svg>