<?xml version="1.0" encoding="UTF-8"?>
<svg width="24px" height="24px" viewBox="0 0 24 24" version="1.1" xmlns="http://www.w3.org/2000/svg" xmlns:xlink="http://www.w3.org/1999/xlink">
    <!-- Generator: sketchtool 48.1 (47250) - http://www.bohemiancoding.com/sketch -->
    <title>401193C6-0D27-4E53-B06D-620D60584CEC</title>
    <desc>Created with sketchtool.</desc>
    <defs></defs>
    <g id="09_BrandPage" stroke="none" stroke-width="1" fill="none" fill-rule="evenodd" transform="translate(-355.000000, -616.000000)">
        <g id="Contacts" transform="translate(355.000000, 576.000000)">
            <g id="Time" transform="translate(0.000000, 40.000000)">
                <g id="ico_time_black">
                    <rect id="Rectangle" x="0" y="0" width="24" height="24"></rect>
                    <g id="if_miscellaneous-23_809465" stroke-width="1" fill-rule="evenodd" fill="#3A3A3A" fill-opacity="0.869310462">
                        <g id="Layer_1">
                            <g id="Group">
                                <path d="M12,0 C5.4,0 0,5.4 0,12 C0,18.6 5.4,24 12,24 C18.6,24 24,18.6 24,12 C24,5.4 18.6,0 12,0 Z M12,22 C6.5,22 2,17.5 2,12 C2,6.5 6.5,2 12,2 C17.5,2 22,6.5 22,12 C22,17.5 17.5,22 12,22 Z" id="Shape"></path>
                                <path d="M13.9,12.5 C13.9,12.3 14,12.2 14,12 C14,11.3 13.6,10.6 13,10.3 L13,4 C13,3.4 12.6,3 12,3 C11.4,3 11,3.4 11,4 L11,10.3 C10.4,10.6 10,11.3 10,12 C10,13.1 10.9,14 12,14 C12.2,14 12.3,14 12.5,13.9 L14.3,15.7 C14.7,16.1 15.3,16.1 15.7,15.7 C16.1,15.3 16.1,14.7 15.7,14.3 L13.9,12.5 Z M12,13 C11.4,13 11,12.6 11,12 C11,11.4 11.4,11 12,11 C12.6,11 13,11.4 13,12 C13,12.6 12.6,13 12,13 Z" id="Shape"></path>
                                <circle id="Oval" cx="20" cy="12" r="1"></circle>
                                <circle id="Oval" cx="4" cy="12" r="1"></circle>
                                <circle id="Oval" cx="17.7" cy="17.7" r="1"></circle>
                                <circle id="Oval" cx="6.3" cy="6.3" r="1"></circle>
                                <circle id="Oval" cx="12" cy="20" r="1"></circle>
                                <circle id="Oval" cx="6.3" cy="17.7" r="1"></circle>
                                <circle id="Oval" cx="17.7" cy="6.3" r="1"></circle>
                            </g>
                        </g>
                    </g>
                </g>
            </g>
        </g>
    </g>
</svg>