<?xml version="1.0" encoding="UTF-8"?>
<svg width="24px" height="24px" viewBox="0 0 24 24" version="1.1" xmlns="http://www.w3.org/2000/svg" xmlns:xlink="http://www.w3.org/1999/xlink">
    <!-- Generator: sketchtool 48.1 (47250) - http://www.bohemiancoding.com/sketch -->
    <title>AB0C0DD8-2331-4555-8DC1-4BD353A30063</title>
    <desc>Created with sketchtool.</desc>
    <defs></defs>
    <g id="09_BrandPage" stroke="none" stroke-width="1" fill="none" fill-rule="evenodd" transform="translate(-355.000000, -696.000000)">
        <g id="Contacts" transform="translate(355.000000, 576.000000)">
            <g id="web" transform="translate(0.000000, 118.000000)">
                <g id="ico_internet_black" transform="translate(0.000000, 2.000000)">
                    <rect id="Rectangle" x="0" y="0" width="24" height="24"></rect>
                    <g id="Layer_1" stroke-width="1" fill-rule="evenodd" fill="#3A3A3A" fill-opacity="0.869310462">
                        <path d="M12,0 C5.32173913,0 0,5.32173913 0,12 C0,18.6782609 5.32173913,24 12,24 C18.6782609,24 24,18.6782609 24,12 C24,5.32173913 18.6782609,0 12,0 Z M20.6608696,7.2 C19.826087,6.7826087 18.8869565,6.46956522 17.9478261,6.15652174 C17.6347826,5.2173913 17.3217391,4.27826087 16.9043478,3.44347826 C18.4695652,4.27826087 19.7217391,5.53043478 20.6608696,7.2 Z M12.5217391,6.26086957 C13.5652174,6.26086957 15.6521739,6.57391304 17.0086957,6.88695652 C17.426087,8.34782609 17.6347826,9.91304348 17.7391304,11.4782609 L12.5217391,11.4782609 L12.5217391,6.26086957 Z M12.5217391,5.2173913 L12.5217391,2.08695652 C13.5652174,2.08695652 14.4,2.29565217 15.3391304,2.60869565 C15.8608696,3.54782609 16.3826087,4.59130435 16.6956522,5.73913043 C15.3391304,5.42608696 13.5652174,5.32173913 12.5217391,5.2173913 Z M11.4782609,5.2173913 C9.39130435,5.2173913 8.66086957,5.42608696 7.30434783,5.73913043 C7.72173913,4.69565217 8.13913043,3.65217391 8.66086957,2.60869565 C9.6,2.4 10.4347826,2.19130435 11.4782609,2.08695652 L11.4782609,5.2173913 Z M11.4782609,6.26086957 L11.4782609,11.4782609 L6.26086957,11.4782609 C6.26086957,9.91304348 6.57391304,8.34782609 6.88695652,6.99130435 C8.34782609,6.57391304 9.39130435,6.36521739 11.4782609,6.26086957 Z M5.2173913,11.4782609 L2.08695652,11.4782609 C2.08695652,10.5391304 2.29565217,9.6 2.60869565,8.66086957 C3.54782609,8.13913043 4.59130435,7.6173913 5.73913043,7.30434783 C5.42608696,8.66086957 5.32173913,10.0173913 5.2173913,11.4782609 Z M2.08695652,12.5217391 L5.2173913,12.5217391 C5.2173913,13.9826087 5.42608696,15.3391304 5.73913043,16.6956522 C4.69565217,16.2782609 3.65217391,15.8608696 2.60869565,15.3391304 C2.4,14.4 2.19130435,13.4608696 2.08695652,12.5217391 Z M6.26086957,12.5217391 L11.4782609,12.5217391 L11.4782609,17.7391304 C9.39130435,17.7391304 8.34782609,17.426087 6.99130435,17.1130435 C6.57391304,15.6521739 6.36521739,14.0869565 6.26086957,12.5217391 Z M11.4782609,18.7826087 L11.4782609,21.9130435 C10.4347826,21.9130435 9.6,21.7043478 8.66086957,21.3913043 C8.13913043,20.4521739 7.6173913,19.4086957 7.30434783,18.2608696 C8.66086957,18.573913 9.39130435,18.6782609 11.4782609,18.7826087 Z M12.5217391,18.7826087 C13.5652174,18.7826087 15.3391304,18.573913 16.6956522,18.2608696 C16.2782609,19.3043478 15.8608696,20.3478261 15.3391304,21.3913043 C14.4,21.6 13.5652174,21.8086957 12.5217391,21.9130435 L12.5217391,18.7826087 Z M12.5217391,17.7391304 L12.5217391,12.5217391 L17.7391304,12.5217391 C17.7391304,14.0869565 17.426087,15.6521739 17.1130435,17.0086957 C15.6521739,17.426087 13.5652174,17.6347826 12.5217391,17.7391304 Z M18.7826087,12.5217391 L21.9130435,12.5217391 C21.9130435,13.4608696 21.7043478,14.4 21.3913043,15.3391304 C20.4521739,15.8608696 19.4086957,16.3826087 18.2608696,16.6956522 C18.573913,15.3391304 18.6782609,13.9826087 18.7826087,12.5217391 Z M18.7826087,11.4782609 C18.7826087,10.0173913 18.573913,8.66086957 18.2608696,7.30434783 C19.3043478,7.72173913 20.3478261,8.13913043 21.3913043,8.66086957 C21.7043478,9.49565217 21.9130435,10.4347826 21.9130435,11.4782609 L18.7826087,11.4782609 Z M7.2,3.33913043 C6.7826087,4.27826087 6.46956522,5.11304348 6.15652174,6.05217391 C5.2173913,6.36521739 4.27826087,6.67826087 3.44347826,7.09565217 C4.27826087,5.53043478 5.53043478,4.27826087 7.2,3.33913043 Z M3.33913043,16.8 C4.27826087,17.2173913 5.11304348,17.5304348 6.05217391,17.8434783 C6.36521739,18.7826087 6.67826087,19.7217391 7.09565217,20.5565217 C5.53043478,19.7217391 4.27826087,18.4695652 3.33913043,16.8 Z M16.8,20.6608696 C17.2173913,19.826087 17.5304348,18.8869565 17.8434783,17.9478261 C18.7826087,17.6347826 19.7217391,17.3217391 20.5565217,16.9043478 C19.7217391,18.4695652 18.4695652,19.7217391 16.8,20.6608696 Z" id="Shape"></path>
                    </g>
                </g>
            </g>
        </g>
    </g>
</svg>