<svg width="24" height="24" viewBox="0 0 24 24" version="1.1" xmlns="http://www.w3.org/2000/svg" xmlns:xlink="http://www.w3.org/1999/xlink">
<title>Layer_1</title>
<desc>Created using Figma</desc>
<g id="Canvas" transform="translate(-571 -15292)">
<g id="Layer_1">
<g id="Shape">
<use xlink:href="#path0_fill" transform="translate(571 15292)" fill="#3A3A3A" fill-opacity="0.86931"/>
</g>
</g>
</g>
<defs>
<path id="path0_fill" fill-rule="evenodd" d="M 12 0C 5.32174 0 0 5.32174 0 12C 0 18.6783 5.32174 24 12 24C 18.6783 24 24 18.6783 24 12C 24 5.32174 18.6783 0 12 0ZM 20.6609 7.19988C 19.8261 6.78249 18.887 6.46945 17.9478 6.1564C 17.6348 5.21727 17.3217 4.27814 16.9044 3.44336C 18.4696 4.27814 19.7217 5.53032 20.6609 7.19988ZM 12.5217 6.26074C 13.5652 6.26074 15.6522 6.57379 17.0087 6.88683C 17.4261 8.3477 17.6348 9.91292 17.7391 11.4781L 12.5217 11.4781L 12.5217 6.26074ZM 12.5217 5.21735L 12.5217 2.08691C 13.5652 2.08691 14.4 2.29561 15.3391 2.60865C 15.8609 3.54778 16.3826 4.59126 16.6956 5.73909C 15.3391 5.42604 13.5652 5.3217 12.5217 5.21735ZM 11.4782 5.21735C 9.39128 5.21735 8.66084 5.42604 7.30432 5.73909C 7.72171 4.69561 8.1391 3.65213 8.66084 2.60865C 9.59997 2.39996 10.4348 2.19126 11.4782 2.08691L 11.4782 5.21735ZM 11.4783 6.26074L 11.4783 11.4781L 6.26086 11.4781C 6.26086 9.91292 6.57391 8.3477 6.88695 6.99118C 8.34782 6.57379 9.3913 6.36509 11.4783 6.26074ZM 5.21741 11.4786L 2.08698 11.4786C 2.08698 10.5395 2.29567 9.60034 2.60871 8.66121C 3.54784 8.13947 4.59132 7.61773 5.73915 7.30469C 5.42611 8.66121 5.32176 10.0177 5.21741 11.4786ZM 2.08698 12.5215L 5.21741 12.5215C 5.21741 13.9824 5.42611 15.3389 5.73915 16.6954C 4.69567 16.278 3.65219 15.8606 2.60871 15.3389C 2.40002 14.3997 2.19132 13.4606 2.08698 12.5215ZM 6.26086 12.5215L 11.4783 12.5215L 11.4783 17.7389C 9.3913 17.7389 8.34782 17.4258 6.9913 17.1128C 6.57391 15.6519 6.36521 14.0867 6.26086 12.5215ZM 11.4782 18.7825L 11.4782 21.9129C 10.4348 21.9129 9.59997 21.7042 8.66084 21.3912C 8.1391 20.452 7.61736 19.4086 7.30432 18.2607C 8.66084 18.5738 9.39128 18.6781 11.4782 18.7825ZM 12.5217 18.7825C 13.5652 18.7825 15.3391 18.5738 16.6956 18.2607C 16.2782 19.3042 15.8609 20.3477 15.3391 21.3912C 14.4 21.5999 13.5652 21.8086 12.5217 21.9129L 12.5217 18.7825ZM 12.5217 17.7389L 12.5217 12.5215L 17.7391 12.5215C 17.7391 14.0867 17.4261 15.6519 17.113 17.0084C 15.6522 17.4258 13.5652 17.6345 12.5217 17.7389ZM 18.7826 12.5215L 21.913 12.5215C 21.913 13.4606 21.7043 14.3997 21.3913 15.3389C 20.4522 15.8606 19.4087 16.3824 18.2609 16.6954C 18.5739 15.3389 18.6783 13.9824 18.7826 12.5215ZM 18.7826 11.4786C 18.7826 10.0177 18.5739 8.66121 18.2609 7.30469C 19.3043 7.72208 20.3478 8.13947 21.3913 8.66121C 21.7043 9.49599 21.913 10.4351 21.913 11.4786L 18.7826 11.4786ZM 7.2 3.33887C 6.78261 4.278 6.46957 5.11278 6.15652 6.05191C 5.21739 6.36495 4.27826 6.678 3.44348 7.09539C 4.27826 5.53017 5.53044 4.278 7.2 3.33887ZM 3.33911 16.7998C 4.27824 17.2172 5.11302 17.5302 6.05215 17.8433C 6.3652 18.7824 6.67824 19.7215 7.09563 20.5563C 5.53042 19.7215 4.27824 18.4694 3.33911 16.7998ZM 16.8 20.6608C 17.2174 19.826 17.5304 18.8869 17.8435 17.9478C 18.7826 17.6347 19.7217 17.3217 20.5565 16.9043C 19.7217 18.4695 18.4696 19.7217 16.8 20.6608Z"/>
</defs>
</svg>
