<svg width="24" height="24" viewBox="0 0 24 24" version="1.1" xmlns="http://www.w3.org/2000/svg" xmlns:xlink="http://www.w3.org/1999/xlink">
<title>ico_time_black</title>
<desc>Created using Figma</desc>
<g id="Canvas" transform="translate(-571 -15348)">
<g id="ico_time_black">
<g id="if_miscellaneous-23_809465">
<g id="Layer_1">
<g id="Group">
<g id="Shape">
<use xlink:href="#path0_fill" transform="translate(571 15348)" fill="#3A3A3A" fill-opacity="0.86931"/>
</g>
<g id="Shape">
<use xlink:href="#path1_fill" transform="translate(581 15351)" fill="#3A3A3A" fill-opacity="0.86931"/>
</g>
<g id="Oval">
<use xlink:href="#path2_fill" transform="translate(590 15359)" fill="#3A3A3A" fill-opacity="0.86931"/>
</g>
<g id="Oval">
<use xlink:href="#path2_fill" transform="translate(574 15359)" fill="#3A3A3A" fill-opacity="0.86931"/>
</g>
<g id="Oval">
<use xlink:href="#path2_fill" transform="translate(587.7 15364.7)" fill="#3A3A3A" fill-opacity="0.86931"/>
</g>
<g id="Oval">
<use xlink:href="#path2_fill" transform="translate(576.3 15353.3)" fill="#3A3A3A" fill-opacity="0.86931"/>
</g>
<g id="Oval">
<use xlink:href="#path2_fill" transform="translate(582 15367)" fill="#3A3A3A" fill-opacity="0.86931"/>
</g>
<g id="Oval">
<use xlink:href="#path2_fill" transform="translate(576.3 15364.7)" fill="#3A3A3A" fill-opacity="0.86931"/>
</g>
<g id="Oval">
<use xlink:href="#path2_fill" transform="translate(587.7 15353.3)" fill="#3A3A3A" fill-opacity="0.86931"/>
</g>
</g>
</g>
</g>
</g>
</g>
<defs>
<path id="path0_fill" fill-rule="evenodd" d="M 12 0C 5.4 0 0 5.4 0 12C 0 18.6 5.4 24 12 24C 18.6 24 24 18.6 24 12C 24 5.4 18.6 0 12 0ZM 12 22C 6.5 22 2 17.5 2 12C 2 6.5 6.5 2 12 2C 17.5 2 22 6.5 22 12C 22 17.5 17.5 22 12 22Z"/>
<path id="path1_fill" fill-rule="evenodd" d="M 3.9 9.5C 3.9 9.3 4 9.2 4 9C 4 8.3 3.6 7.6 3 7.3L 3 1C 3 0.4 2.6 0 2 0C 1.4 0 1 0.4 1 1L 1 7.3C 0.4 7.6 0 8.3 0 9C 0 10.1 0.9 11 2 11C 2.2 11 2.3 11 2.5 10.9L 4.3 12.7C 4.7 13.1 5.3 13.1 5.7 12.7C 6.1 12.3 6.1 11.7 5.7 11.3L 3.9 9.5ZM 2 10C 1.4 10 1 9.6 1 9C 1 8.4 1.4 8 2 8C 2.6 8 3 8.4 3 9C 3 9.6 2.6 10 2 10Z"/>
<path id="path2_fill" fill-rule="evenodd" d="M 1 2C 1.55228 2 2 1.55228 2 1C 2 0.447715 1.55228 0 1 0C 0.447715 0 0 0.447715 0 1C 0 1.55228 0.447715 2 1 2Z"/>
</defs>
</svg>
