<svg width="21" height="21" viewBox="0 0 21 21" version="1.1" xmlns="http://www.w3.org/2000/svg" xmlns:xlink="http://www.w3.org/1999/xlink">
<title>Layer_1</title>
<desc>Created using Figma</desc>
<g id="Canvas" transform="translate(-573 -15254)">
<g id="Layer_1">
<g id="Shape Copy">
<use xlink:href="#path0_fill" transform="matrix(-1 0 0 1 593.057 15254)" fill="#3A3A3A" fill-opacity="0.86931"/>
</g>
</g>
</g>
<defs>
<path id="path0_fill" fill-rule="evenodd" d="M 18.5005 2.672L 16.7055 0.879C 16.1395 0.312 15.3855 0 14.5845 0C 13.7835 0 13.0295 0.312 12.4635 0.879L 10.8775 2.465C 9.7075 3.635 9.7075 5.537 10.8775 6.707L 12.2565 8.086L 8.0845 12.258L 6.7055 10.879C 6.1395 10.312 5.3855 10 4.5845 10C 3.7835 10 3.0295 10.312 2.4635 10.879L 0.8775 12.465C -0.2925 13.635 -0.2925 15.537 0.8775 16.707L 2.6715 18.5C 3.1365 18.965 4.4675 20.045 6.7875 20.045C 9.5515 20.045 12.4815 18.516 15.4985 15.5C 21.7435 9.254 20.3235 4.498 18.5005 2.672ZM 12.2915 3.879L 13.8775 2.293C 14.0725 2.098 14.3285 2 14.5845 2C 14.8405 2 15.0965 2.098 15.2915 2.293L 16.3745 3.375L 13.3735 6.375L 12.2915 5.293C 11.9005 4.902 11.9005 4.27 12.2915 3.879ZM 2.29148 15.293C 1.90048 14.902 1.90048 14.27 2.29148 13.879L 3.87748 12.293C 4.07248 12.098 4.32848 12 4.58448 12C 4.84048 12 5.09648 12.098 5.29148 12.293L 6.37348 13.375L 3.37448 16.375L 2.29148 15.293ZM 14.0845 14.086C 11.0015 17.168 8.53351 18.045 6.78751 18.045C 5.43851 18.045 4.52051 17.522 4.08551 17.086C 4.08151 17.082 7.08051 14.082 7.08051 14.082L 7.37751 14.379C 7.57251 14.574 7.82851 14.672 8.08451 14.672C 8.34051 14.672 8.59651 14.574 8.79151 14.379L 14.3775 8.79303C 14.7685 8.40203 14.7685 7.77003 14.3775 7.37903L 14.0805 7.08203L 17.0815 4.08203C 18.0845 5.08603 19.5485 8.62103 14.0845 14.086Z"/>
</defs>
</svg>
