<svg width="24" height="24" viewBox="0 0 24 24" version="1.1" xmlns="http://www.w3.org/2000/svg" xmlns:xlink="http://www.w3.org/1999/xlink">
<title>ico_time_black</title>
<desc>Created using Figma</desc>
<g id="Canvas" transform="translate(-571 -15212)">
<g id="ico_time_black">
<g id="Group">
<g id="Shape">
<use xlink:href="#path0_fill" transform="translate(571 15212)" fill="#3A3A3A" fill-opacity="0.86931"/>
</g>
<g id="Shape">
<use xlink:href="#path1_fill" transform="translate(580.143 15214.3)" fill="#3A3A3A" fill-opacity="0.86931"/>
</g>
</g>
</g>
</g>
<defs>
<path id="path0_fill" fill-rule="evenodd" d="M 23 4L 18 5.4C 18 5.6 18 5.8 18 6C 18 2.7 15.3 0 12 0C 10.1 0 8.5 0.8 7.4 2.2L 1 4C 0.4 4 0 4.4 0 5L 0 21C 0 21.6 0.4 22 1 22L 8 20L 16 24L 23 22C 23.6 22 24 21.6 24 21L 24 5C 24 4.4 23.6 4 23 4ZM 12 1C 14.8 1 17 3.2 17 6C 17 8.8 16 9.5 12 13.5C 8 9.5 7 8.8 7 6C 7 3.2 9.2 1 12 1ZM 12 15C 13.2 13.8 14.2 12.8 15 12L 15 21.5L 9 18.5L 9 12C 9.8 12.8 10.8 13.8 12 15ZM 2 19.9996L 2 5.99961L 6.2 4.59961C 6.1 5.09961 6 5.49961 6 5.99961C 6 8.09961 6.4 9.19961 8 10.8996L 8 17.9996L 2 19.9996ZM 7.00002 2.7002C 7.00002 2.7002 7.00002 2.8002 6.90002 2.8002L 7.00002 2.7002ZM 6.7 3.2998C 6.6 3.2998 6.6 3.2998 6.7 3.2998C 6.6 3.2998 6.6 3.2998 6.7 3.2998ZM 6.40002 3.90039C 6.40002 3.90039 6.40002 4.00039 6.40002 3.90039C 6.40002 4.00039 6.40002 3.90039 6.40002 3.90039ZM 22 20L 16 22L 16 10.9C 17.2 9.6 17.7 8.6 17.9 7.3L 22 6L 22 20Z"/>
<path id="path1_fill" fill-rule="evenodd" d="M 2.85714 5.71429C 4.47619 5.71429 5.71429 4.47619 5.71429 2.85714C 5.71429 1.2381 4.47619 0 2.85714 0C 1.2381 0 0 1.2381 0 2.85714C 0 4.47619 1.2381 5.71429 2.85714 5.71429ZM 2.85715 0.952148C 3.90477 0.952148 4.76192 1.80929 4.76192 2.85691C 4.76192 3.90453 3.90477 4.76167 2.85715 4.76167C 1.80954 4.76167 0.952393 3.90453 0.952393 2.85691C 0.952393 1.80929 1.80954 0.952148 2.85715 0.952148Z"/>
</defs>
</svg>
