<?xml version="1.0" encoding="UTF-8"?>
<svg width="21px" height="21px" viewBox="0 0 21 21" version="1.1" xmlns="http://www.w3.org/2000/svg" xmlns:xlink="http://www.w3.org/1999/xlink">
    <g id="Canvas" transform="translate(21638 -3356)">
        <g id="Shape">
            <use xlink:href="#path0_fill" transform="translate(-21638 3356)" fill="#EF2028"/>
        </g>
    </g>
    <defs>
        <path id="path0_fill" fill-rule="evenodd" d="M 18.5005 2.672L 16.7055 0.879C 16.1395 0.312 15.3855 0 14.5845 0C 13.7835 0 13.0295 0.312 12.4635 0.879L 10.8775 2.465C 9.7075 3.635 9.7075 5.537 10.8775 6.707L 12.2565 8.086L 8.0845 12.258L 6.7055 10.879C 6.1395 10.312 5.3855 10 4.5845 10C 3.7835 10 3.0295 10.312 2.4635 10.879L 0.8775 12.465C -0.2925 13.635 -0.2925 15.537 0.8775 16.707L 2.6715 18.5C 3.1365 18.965 4.4675 20.045 6.7875 20.045C 9.5515 20.045 12.4815 18.516 15.4985 15.5C 21.7435 9.254 20.3235 4.498 18.5005 2.672ZM 12.2913 3.879L 13.8773 2.293C 14.0723 2.098 14.3283 2 14.5843 2C 14.8403 2 15.0963 2.098 15.2913 2.293L 16.3743 3.375L 13.3733 6.375L 12.2913 5.293C 11.9003 4.902 11.9003 4.27 12.2913 3.879ZM 2.2913 15.293C 1.9003 14.902 1.9003 14.27 2.2913 13.879L 3.8773 12.293C 4.0723 12.098 4.3283 12 4.5843 12C 4.8403 12 5.0963 12.098 5.2913 12.293L 6.3733 13.375L 3.3743 16.375L 2.2913 15.293ZM 14.0849 14.086C 11.0019 17.168 8.53394 18.045 6.78794 18.045C 5.43894 18.045 4.52094 17.522 4.08594 17.086C 4.08194 17.082 7.08094 14.082 7.08094 14.082L 7.37794 14.379C 7.57294 14.574 7.82894 14.672 8.08494 14.672C 8.34094 14.672 8.59694 14.574 8.79194 14.379L 14.3779 8.79303C 14.7689 8.40203 14.7689 7.77003 14.3779 7.37903L 14.0809 7.08203L 17.0819 4.08203C 18.0849 5.08603 19.5489 8.62103 14.0849 14.086Z"/>
    </defs>
</svg>