<svg width="26" height="24" viewBox="0 0 26 24" version="1.1" xmlns="http://www.w3.org/2000/svg" xmlns:xlink="http://www.w3.org/1999/xlink">
<title>Shape</title>
<desc>Created using Figma</desc>
<g id="Canvas" transform="translate(-23886 -8089)">
<g id="Shape">
<use xlink:href="#path0_fill" transform="translate(23886 8089)" fill="#3A3A3A" fill-opacity="0.86931"/>
<mask id="mask0_outline_ins">
<use xlink:href="#path0_fill" fill="white" transform="translate(23886 8089)"/>
</mask>
<g mask="url(#mask0_outline_ins)">
<use xlink:href="#path1_stroke_2x" transform="translate(23886 8089)" fill="#FFFFFF"/>
</g>
</g>
</g>
<defs>
<path id="path0_fill" fill-rule="evenodd" d="M 8.27273 18.6705L 2.06818 11.2727L 0 13.7386L 8.27273 23.6023L 26 2.46591L 23.9318 0L 8.27273 18.6705Z"/>
<path id="path1_stroke_2x" d="M 8.27273 18.6705L 7.88963 18.9918L 8.27273 19.4485L 8.65582 18.9918L 8.27273 18.6705ZM 2.06818 11.2727L 2.45128 10.9514L 2.06818 10.4947L 1.68509 10.9514L 2.06818 11.2727ZM 0 13.7386L -0.383096 13.4173L -0.652578 13.7386L -0.383096 14.0599L 0 13.7386ZM 8.27273 23.6023L 7.88963 23.9236L 8.27273 24.3803L 8.65582 23.9236L 8.27273 23.6023ZM 26 2.46591L 26.3831 2.78722L 26.6526 2.46591L 26.3831 2.1446L 26 2.46591ZM 23.9318 0L 24.3149 -0.321306L 23.9318 -0.778074L 23.5487 -0.321306L 23.9318 0ZM 8.65582 18.3491L 2.45128 10.9514L 1.68509 11.594L 7.88963 18.9918L 8.65582 18.3491ZM 1.68509 10.9514L -0.383096 13.4173L 0.383096 14.0599L 2.45128 11.594L 1.68509 10.9514ZM -0.383096 14.0599L 7.88963 23.9236L 8.65582 23.281L 0.383096 13.4173L -0.383096 14.0599ZM 8.65582 23.9236L 26.3831 2.78722L 25.6169 2.1446L 7.88963 23.281L 8.65582 23.9236ZM 26.3831 2.1446L 24.3149 -0.321306L 23.5487 0.321306L 25.6169 2.78722L 26.3831 2.1446ZM 23.5487 -0.321306L 7.88963 18.3491L 8.65582 18.9918L 24.3149 0.321306L 23.5487 -0.321306Z"/>
</defs>
</svg>
