<?xml version="1.0" encoding="UTF-8"?>
<svg width="24px" height="24px" viewBox="0 0 24 24" version="1.1" xmlns="http://www.w3.org/2000/svg" xmlns:xlink="http://www.w3.org/1999/xlink">
    <g id="Essencials" stroke="none" stroke-width="1" fill="none" fill-rule="evenodd" transform="translate(-339.000000, -2271.000000)">
        <g id="Group-4" transform="translate(199.000000, 1952.000000)">
            <g id="RedBar" transform="translate(0.000000, 244.000000)">
                <g id="ToptopBar-Copy" transform="translate(1.000000, 63.000000)">
                    <g id="ico_map_white" transform="translate(139.000000, 12.000000)">
                        <rect id="Rectangle" x="0" y="0" width="24" height="24"></rect>
                        <g id="Group" stroke-width="1" fill-rule="evenodd" fill="#FFFFFF">
                            <path d="M23,4 L18,5.4 L18,6 C18,2.7 15.3,0 12,0 C10.1,0 8.5,0.8 7.4,2.2 L7.4,2.2 L1,4 C0.4,4 0,4.4 0,5 L0,21 C0,21.6 0.4,22 1,22 L8,20 L16,24 L23,22 C23.6,22 24,21.6 24,21 L24,5 C24,4.4 23.6,4 23,4 Z M12,1 C14.8,1 17,3.2 17,6 C17,8.8 16,9.5 12,13.5 C8,9.5 7,8.8 7,6 C7,3.2 9.2,1 12,1 Z M12,15 C13.2,13.8 14.2,12.8 15,12 L15,21.5 L9,18.5 L9,12 C9.8,12.8 10.8,13.8 12,15 Z M2,20 L2,6 L6.2,4.6 C6.1,5.1 6,5.5 6,6 C6,8.1 6.4,9.2 8,10.9 L8,18 L2,20 Z M7,2.7 C7,2.7 7,2.8 6.9,2.8 C6.9,2.8 7,2.7 7,2.7 Z M6.7,3.3 C6.6,3.3 6.6,3.3 6.7,3.3 C6.6,3.3 6.6,3.3 6.7,3.3 Z M6.4,3.9 C6.4,3.9 6.4,4 6.4,3.9 C6.4,4 6.4,3.9 6.4,3.9 Z M22,20 L16,22 L16,10.9 C17.2,9.6 17.7,8.6 17.9,7.3 L22,6 L22,20 Z" id="Shape"></path>
                            <path d="M12,8 C13.6190476,8 14.8571429,6.76190476 14.8571429,5.14285714 C14.8571429,3.52380952 13.6190476,2.28571429 12,2.28571429 C10.3809524,2.28571429 9.14285714,3.52380952 9.14285714,5.14285714 C9.14285714,6.76190476 10.3809524,8 12,8 Z M12,3.23809524 C13.047619,3.23809524 13.9047619,4.0952381 13.9047619,5.14285714 C13.9047619,6.19047619 13.047619,7.04761905 12,7.04761905 C10.952381,7.04761905 10.0952381,6.19047619 10.0952381,5.14285714 C10.0952381,4.0952381 10.952381,3.23809524 12,3.23809524 Z" id="Shape"></path>
                        </g>
                    </g>
                </g>
            </g>
        </g>
    </g>
</svg>