<?xml version="1.0" encoding="UTF-8"?>
<svg width="24px" height="24px" viewBox="0 0 24 24" version="1.1" xmlns="http://www.w3.org/2000/svg" xmlns:xlink="http://www.w3.org/1999/xlink">
    <g id="Symbols" stroke="none" stroke-width="1" fill="none" fill-rule="evenodd">
        <g id="ico_pin-copy">
            <rect id="Rectangle" x="0" y="0" width="24" height="24"></rect>
            <g id="Adress" transform="translate(2.000000, 0.000000)" fill="#FFFFFF">
                <path d="M10,0 C4.5,0 0,4.5 0,10 C0,15.5 3,17 10,24 C17,17 20,15.5 20,10 C20,4.5 15.5,0 10,0 Z M10,21.5 C5,16.5 2,14.4 2,10 C2,5.6 5.6,2 10,2 C14.4,2 18,5.6 18,10 C18,14.4 15,16.5 10,21.5 Z" id="Shape"></path>
                <path d="M10,6 C7.8,6 6,7.8 6,10 C6,12.2 7.8,14 10,14 C12.2,14 14,12.2 14,10 C14,7.8 12.2,6 10,6 Z M10,13 C8.3,13 7,11.7 7,10 C7,8.3 8.3,7 10,7 C11.7,7 13,8.3 13,10 C13,11.7 11.7,13 10,13 Z" id="Shape"></path>
            </g>
        </g>
    </g>
</svg>