<svg width="88" height="58" viewBox="0 0 88 58" version="1.1" xmlns="http://www.w3.org/2000/svg" xmlns:xlink="http://www.w3.org/1999/xlink">
<title>icon_factoid_customer</title>
<desc>Created using Figma</desc>
<g id="Canvas" transform="translate(-484 -458)">
<g id="icon_factoid_customer">
<g id="Man">
<use xlink:href="#path0_fill" transform="translate(501 458.982)" fill="#FF696E"/>
</g>
</g>
</g>
<defs>
<path id="path0_fill" fill-rule="evenodd" d="M 33 5.91119C 33 2.64395 35.6899 0 38.9978 0C 42.3101 0 45 2.64279 45 5.91119C 45 9.18137 42.3104 11.8246 38.9978 11.8246C 35.6895 11.8246 33 9.18021 33 5.91119ZM 35 5.91119C 35 8.06799 36.7866 9.82455 38.9978 9.82455C 41.2136 9.82455 43 8.06894 43 5.91119C 43 3.75534 41.2133 2 38.9978 2C 36.7869 2 35 3.75629 35 5.91119ZM 19.9792 24.7842C 18.8892 26.577 18.3535 28.0729 18.4669 29.4311L 14.4313 35.2064L 13.2144 35.2895C 11.9382 35.3764 10.6505 35.4634 9.43286 35.5445L 9.14008 35.564C 6.99228 35.7067 5.33234 35.8133 4.35382 35.8698C 1.72021 36.0226 0 37.1461 0 39.1458C 0 41.252 1.65942 42.2506 5.07111 42.5212C 5.97073 42.5925 7.66058 42.7066 9.93747 42.8522L 10.454 42.8852C 11.7828 42.9696 13.2064 43.0582 14.6299 43.1456C 15.1281 43.1762 15.5908 43.2045 16.0059 43.2297L 16.5281 43.2614L 16.6158 43.2632C 18.0266 43.2632 19.3995 42.5175 20.2697 41.2461L 24.3513 35.4785L 30.4758 39.3317L 26.5584 48.5327C 24.8908 52.3391 24.9147 55.036 26.887 55.8307C 28.8618 56.6264 30.9101 55.2144 33.1239 51.3524L 39.5965 39.5843C 40.4734 37.7182 39.8414 35.5926 38.1423 34.4822L 30.8135 29.7041L 35.1446 23.1035L 36.0643 25.2704C 36.6074 26.4689 37.7513 27.4395 38.978 27.5839L 39.1161 27.5905L 39.4801 27.5827C 39.7693 27.5764 40.0917 27.5692 40.4387 27.5612C 41.4305 27.5386 42.4223 27.5146 43.3483 27.4902C 44.0948 27.4706 44.7671 27.4515 45.3468 27.4334C 46.1689 27.4076 46.7875 27.3842 47.1735 27.3634C 50.1562 27.2047 51.9297 26.6105 51.9974 24.7562C 52.0831 22.4972 50.8029 21.9462 47.8306 21.7359L 42.0715 21.2558L 39.1851 14.8348C 39.0699 14.2953 38.8126 13.8289 38.3776 13.5498L 33.7524 10.5956C 33.2991 10.2372 32.7786 9.98602 32.2078 9.86737L 22.8689 7.93546C 21.8851 7.74173 20.8763 7.92603 20.0516 8.45422L 12.3209 14.1327C 10.2038 15.8747 9.30118 17.3978 10.4596 19.0251C 11.3408 20.2725 13.5106 19.9947 15.0866 19.0835L 22.7841 15.1961L 26.2524 15.9151L 19.9792 24.7842ZM 38.4469 18.0706L 36.4638 21.093L 37.8956 24.4667C 38.1487 25.0249 38.6974 25.5038 39.1567 25.5892L 39.4364 25.5832C 39.725 25.5768 40.0467 25.5697 40.3931 25.5618C 41.3827 25.5392 42.3723 25.5152 43.2957 25.4909C 44.0392 25.4713 44.7082 25.4524 45.2842 25.4344C 46.0921 25.4091 46.699 25.3861 47.0665 25.3662C 48.0546 25.3137 48.8467 25.2002 49.4026 25.0139C 49.8621 24.8599 49.9968 24.7377 49.9988 24.6818C 50.0232 24.0405 49.6216 23.8676 47.6769 23.73L 40.7307 23.1509L 38.4469 18.0706ZM 18.6282 40.1036L 22.6559 34.4119L 21.0286 33.388L 20.9316 33.3185C 20.2579 32.7726 19.7282 32.2314 19.3344 31.6814L 15.5228 37.136L 15.0458 37.1689L 14.5811 37.2008L 13.3503 37.2849C 12.0731 37.3719 10.7846 37.4589 9.56583 37.5401L 9.27271 37.5596C 7.11932 37.7027 5.45529 37.8095 4.46942 37.8665C 2.75964 37.9656 2 38.4618 2 39.1458C 2 39.892 2.72601 40.3289 5.22913 40.5275C 6.11502 40.5977 7.79861 40.7114 10.0651 40.8563L 10.5808 40.8892C 11.9081 40.9735 13.3303 41.0621 14.7524 41.1494C 15.2502 41.18 15.7125 41.2082 16.1273 41.2334C 16.5219 41.2573 16.5515 41.2591 16.5809 41.2624L 16.5883 41.2632C 17.3572 41.2632 18.1168 40.8506 18.6282 40.1036ZM 28.5911 29.4455L 28.0409 30.284L 37.0495 36.1573C 37.9219 36.7277 38.235 37.7812 37.8148 38.678L 31.3801 50.3731C 29.6106 53.4597 28.4092 54.2878 27.6345 53.9756C 27.4828 53.9145 27.3617 53.6857 27.3566 53.1114C 27.3488 52.2345 27.6826 50.9505 28.3944 49.3257L 32.6498 39.3309L 32.9838 38.5466L 22.1453 31.7277C 19.9874 29.9614 19.9684 28.6508 21.6504 25.8807L 28.767 15.8233L 29.6487 14.5766L 22.5059 13.0959L 14.1351 17.3252C 13.3124 17.799 12.1475 17.9482 12.091 17.8682C 11.8235 17.4923 12.2411 16.7876 13.5488 15.7103L 21.1831 10.1021C 21.5165 9.89102 21.9999 9.8027 22.4731 9.89587L 31.8017 11.8257C 32.0679 11.881 32.3138 12.0024 32.5361 12.1839L 32.6303 12.2521C 32.6303 12.2521 37.2172 15.1863 37.2182 15.1903C 37.2468 15.3043 37.2554 15.4795 37.2367 15.6858C 37.1984 16.1084 37.052 16.5654 36.9218 16.7504L 28.5911 29.4455Z"/>
</defs>
</svg>
