<svg width="88" height="56" viewBox="0 0 88 56" version="1.1" xmlns="http://www.w3.org/2000/svg" xmlns:xlink="http://www.w3.org/1999/xlink">
<title>icon_factoid_partners</title>
<desc>Created using Figma</desc>
<g id="Canvas" transform="translate(-741 -459)">
<g id="icon_factoid_partners">
<g id="Shape">
<use xlink:href="#path0_fill" transform="translate(741.994 460.303)" fill="#F46268"/>
</g>
</g>
</g>
<defs>
<path id="path0_fill" fill-rule="evenodd" d="M 85.001 23.779L 74.693 31.629L 72.281 28.463L 69.72 30.408C 70.451 31.143 70.945 32.073 71.129 33.111C 71.362 34.444 71.062 35.775 70.284 36.86C 69.318 38.205 67.791 38.921 66.23 38.921C 65.756 38.921 65.281 38.846 64.816 38.714C 65.039 39.986 64.778 41.337 63.978 42.458C 63.011 43.806 61.48 44.52 59.919 44.52C 59.307 44.52 58.696 44.395 58.107 44.171C 58.284 45.4 58.027 46.687 57.26 47.767C 56.295 49.114 54.766 49.829 53.205 49.829C 52.171 49.829 51.122 49.516 50.095 48.78C 50.159 49.876 49.889 50.99 49.204 51.938C 48.438 53.008 47.288 53.716 45.972 53.932C 45.695 53.977 45.416 53.999 45.141 53.999C 44.077 53.999 43.043 53.667 42.161 53.029L 41.283 52.398C 40.452 52.956 39.485 53.294 38.465 53.294C 37.402 53.294 36.391 52.963 35.539 52.336C 34.503 51.573 33.869 50.471 33.641 49.284C 32.726 50.058 31.558 50.498 30.345 50.498C 29.282 50.498 28.275 50.169 27.426 49.546C 26.351 48.755 25.656 47.581 25.466 46.241C 25.405 45.815 25.417 45.39 25.463 44.97C 25.006 45.104 24.536 45.195 24.052 45.195C 22.989 45.195 21.981 44.864 21.133 44.241C 19.509 43.043 18.842 41.025 19.25 39.14C 18.922 39.206 18.59 39.26 18.252 39.26C 17.189 39.26 16.177 38.93 15.329 38.304C 14.274 37.528 13.58 36.376 13.38 35.059C 13.174 33.707 13.509 32.354 14.322 31.25L 14.629 30.828L 12.284 29.037L 10.308 31.629L 0 23.779L 18.117 0L 28.422 7.85101L 27.064 9.63501L 30.279 11.112C 32.091 8.62 35.338 8.32901 36.674 8.32901L 56.941 8.32901L 56.577 7.85199L 66.882 0.00100708L 85.001 23.779ZM 82.499 23.441L 66.544 2.50101L 59.078 8.19L 75.03 29.131L 82.499 23.441ZM 9.96997 29.132L 2.50098 23.442L 18.456 2.50201L 25.922 8.19101L 9.96997 29.132ZM 15.142 34.791C 15.271 35.636 15.713 36.374 16.385 36.869C 17.709 37.843 19.714 37.534 20.79 36.271L 22.424 34.053L 22.564 33.86C 23.098 33.134 23.316 32.253 23.184 31.373C 23.055 30.526 22.613 29.786 21.94 29.292C 21.399 28.897 20.755 28.686 20.075 28.686C 19.025 28.686 18.023 29.194 17.394 30.048L 15.762 32.302C 15.227 33.028 15.008 33.909 15.142 34.791ZM 22.189 42.804C 20.764 41.754 20.482 39.705 21.557 38.239L 22.242 37.309C 22.2603 37.2856 22.2816 37.265 22.3029 37.2444L 22.3039 37.2434C 22.3288 37.2194 22.3537 37.1953 22.374 37.167L 23.909 35.044L 26.215 31.91C 26.842 31.06 27.842 30.552 28.8911 30.552C 29.57 30.552 30.2141 30.761 30.756 31.16C 32.179 32.207 32.465 34.248 31.398 35.715L 30.213 37.324L 26.733 42.048C 25.695 43.453 23.56 43.813 22.189 42.804ZM 27.23 45.99C 27.354 46.852 27.798 47.605 28.483 48.106C 29.853 49.119 31.9901 48.758 33.022 47.355L 34.475 45.379C 34.4849 45.365 34.4929 45.3499 34.5009 45.3348L 34.5013 45.3342L 34.5015 45.3338C 34.5105 45.3169 34.5195 45.3001 34.531 45.285L 37.534 41.188C 37.5544 41.1595 37.5786 41.1354 37.6028 41.1112L 37.6036 41.1105L 37.6039 41.1101C 37.6244 41.0897 37.6449 41.0692 37.663 41.046L 40.164 37.649C 40.684 36.94 40.9041 36.072 40.782 35.203C 40.66 34.343 40.217 33.593 39.532 33.089C 38.994 32.692 38.348 32.483 37.668 32.483C 36.616 32.483 35.616 32.989 34.989 33.84C 34.989 33.84 32.829 36.777 32.828 36.779L 31.913 38.02L 27.848 43.547C 27.328 44.254 27.108 45.121 27.23 45.99ZM 36.5959 50.9C 35.199 49.873 34.9109 47.885 35.92 46.423L 39.086 42.119C 39.717 41.349 40.657 40.883 41.65 40.883C 42.327 40.883 42.97 41.092 43.508 41.487C 44.936 42.541 45.222 44.587 44.142 46.053L 41.139 50.149C 40.11 51.553 37.979 51.918 36.5959 50.9ZM 45.684 52.171C 46.528 52.033 47.266 51.58 47.757 50.895C 48.619 49.699 48.492 48.09 47.566 46.964L 46.191 45.979C 46.033 46.371 45.842 46.754 45.58 47.109L 42.614 51.157L 43.203 51.582C 43.929 52.106 44.798 52.307 45.684 52.171ZM 68.833 35.818C 67.805 37.255 65.76 37.569 64.277 36.505L 58.455 32.353L 56.366 30.857L 53.865 29.08L 52.831 30.533L 57.593 33.929L 61.712 36.883C 63.19 37.942 63.553 39.98 62.525 41.418C 61.492 42.857 59.449 43.163 57.968 42.106L 53.2 38.714L 49.128 35.789L 48.087 37.238L 54.991 42.197C 56.467 43.253 56.831 45.287 55.806 46.729C 54.777 48.167 52.733 48.474 51.249 47.414L 48.798 45.657C 48.555 45.386 48.284 45.135 47.978 44.911L 46.553 43.892C 46.499 42.416 45.83 40.983 44.564 40.047C 43.603 39.344 42.41 39.086 41.241 39.189L 41.598 38.703C 42.398 37.618 42.736 36.286 42.547 34.955C 42.358 33.614 41.662 32.441 40.587 31.651C 38.499 30.116 35.314 30.605 33.681 32.64C 33.429 31.506 32.809 30.455 31.811 29.722C 29.705 28.174 26.477 28.679 24.859 30.764C 24.598 29.591 23.958 28.562 22.994 27.853C 20.85 26.283 17.553 26.821 15.952 28.995L 15.674 29.382L 13.362 27.619L 25.955 11.089L 29.206 12.583L 27.37 15.144C 26.557 16.247 26.222 17.598 26.429 18.952C 26.631 20.269 27.323 21.422 28.375 22.192C 29.429 22.97 30.735 23.291 32.054 23.092C 33.408 22.888 34.6 22.17 35.417 21.063L 38.141 17.3L 42.686 17.284C 43.3 20.857 46.701 24.029 50.137 24.029L 57.845 24.029L 68.024 31.281C 68.74 31.796 69.217 32.553 69.369 33.415C 69.519 34.273 69.329 35.127 68.833 35.818ZM 58.417 22.246L 68.269 29.267L 71.199 27.041L 58.301 10.113L 36.675 10.113C 35.832 10.113 32.974 10.269 31.616 12.281L 28.813 16.193C 28.277 16.921 28.059 17.802 28.193 18.684C 28.324 19.526 28.763 20.263 29.433 20.754C 30.108 21.254 30.941 21.458 31.79 21.327C 32.671 21.196 33.449 20.729 33.978 20.011L 37.23 15.521L 44.339 15.497L 44.378 16.353C 44.505 19.327 47.358 22.246 50.138 22.246L 58.417 22.246Z"/>
</defs>
</svg>
