<svg width="88" height="56" viewBox="0 0 88 56" version="1.1" xmlns="http://www.w3.org/2000/svg" xmlns:xlink="http://www.w3.org/1999/xlink">
<title>icon_factoid_partners</title>
<desc>Created using Figma</desc>
<g id="Canvas" transform="translate(-2076 -932)">
<g id="icon_factoid_partners">
<g id="Shape">
<use xlink:href="#path0_fill" transform="translate(2076.99 933.303)" fill="#F46268"/>
</g>
</g>
</g>
<defs>
<path id="path0_fill" fill-rule="evenodd" d="M 85.001 23.779L 74.6931 31.629L 72.281 28.463L 69.72 30.408C 70.4509 31.143 70.9451 32.073 71.1289 33.111C 71.3621 34.444 71.062 35.775 70.2839 36.86C 69.3181 38.205 67.791 38.921 66.23 38.921C 65.7561 38.921 65.281 38.846 64.8159 38.714C 65.0391 39.986 64.7781 41.337 63.978 42.458C 63.011 43.806 61.48 44.52 59.9189 44.52C 59.3069 44.52 58.696 44.395 58.1069 44.171C 58.2839 45.4 58.0271 46.687 57.26 47.767C 56.2949 49.114 54.7661 49.829 53.2051 49.829C 52.1709 49.829 51.1221 49.516 50.095 48.78C 50.1589 49.876 49.8889 50.99 49.2041 51.938C 48.438 53.008 47.2881 53.716 45.9719 53.932C 45.6951 53.977 45.416 53.999 45.1411 53.999C 44.0769 53.999 43.043 53.667 42.1609 53.029L 41.283 52.398C 40.4519 52.956 39.4851 53.294 38.4651 53.294C 37.4021 53.294 36.3911 52.963 35.5391 52.336C 34.5029 51.573 33.8689 50.471 33.6411 49.284C 32.7261 50.058 31.5581 50.498 30.345 50.498C 29.282 50.498 28.2749 50.169 27.426 49.546C 26.3511 48.755 25.656 47.581 25.4661 46.241C 25.405 45.815 25.417 45.39 25.4629 44.97C 25.0061 45.104 24.5359 45.195 24.052 45.195C 22.989 45.195 21.981 44.864 21.1331 44.241C 19.509 43.043 18.842 41.025 19.25 39.14C 18.9221 39.206 18.5901 39.26 18.252 39.26C 17.189 39.26 16.177 38.93 15.3291 38.304C 14.2739 37.528 13.5801 36.376 13.3799 35.059C 13.1741 33.707 13.509 32.354 14.322 31.25L 14.6289 30.828L 12.2839 29.037L 10.3081 31.629L 0 23.779L 18.1169 0L 28.4221 7.85101L 27.064 9.63501L 30.2791 11.112C 32.0911 8.62 35.3379 8.32898 36.6741 8.32898L 56.9409 8.32898L 56.5769 7.85199L 66.8821 0.000976562L 85.001 23.779ZM 82.4988 23.441L 66.5439 2.50098L 59.0779 8.19L 75.0298 29.131L 82.4988 23.441ZM 9.96997 29.132L 2.50098 23.442L 18.4561 2.50201L 25.9219 8.19104L 9.96997 29.132ZM 15.1418 34.791C 15.271 35.636 15.7129 36.374 16.385 36.869C 17.709 37.843 19.7139 37.534 20.79 36.271L 22.4238 34.053L 22.564 33.86C 23.0979 33.134 23.3159 32.253 23.1838 31.373C 23.0549 30.526 22.613 29.7859 21.9399 29.292C 21.3989 28.897 20.7549 28.686 20.075 28.686C 19.0249 28.686 18.0229 29.194 17.394 30.048L 15.762 32.302C 15.2268 33.028 15.0078 33.909 15.1418 34.791ZM 22.189 42.804C 20.7639 41.754 20.4819 39.705 21.5569 38.239L 22.2419 37.309C 22.2605 37.2853 22.2822 37.2643 22.304 37.2434C 22.3289 37.2194 22.3538 37.1953 22.374 37.167L 23.9089 35.044L 26.2148 31.91C 26.842 31.06 27.842 30.552 28.8909 30.552C 29.5701 30.552 30.2139 30.761 30.7559 31.16C 32.179 32.207 32.4648 34.248 31.3979 35.715L 30.2129 37.324L 26.7329 42.048C 25.6951 43.453 23.5601 43.813 22.189 42.804ZM 27.23 45.9901C 27.354 46.8521 27.7979 47.605 28.4829 48.106C 29.8528 49.119 31.99 48.7581 33.022 47.355L 34.4749 45.379C 34.4836 45.3664 34.491 45.3528 34.4983 45.3392L 34.5005 45.3353C 34.5098 45.3179 34.519 45.3006 34.531 45.285L 37.5339 41.188C 37.5544 41.1595 37.5786 41.1353 37.6028 41.1111C 37.6235 41.0903 37.6443 41.0696 37.6628 41.046L 40.1638 37.649C 40.6838 36.94 40.9038 36.072 40.782 35.203C 40.6599 34.343 40.2168 33.593 39.532 33.0891C 38.9939 32.692 38.3479 32.483 37.668 32.483C 36.616 32.483 35.616 32.989 34.989 33.84C 34.989 33.84 32.8289 36.777 32.8279 36.7791L 31.9128 38.02L 27.8479 43.5471C 27.3279 44.254 27.1079 45.121 27.23 45.9901ZM 36.5962 50.9C 35.1992 49.873 34.9111 47.885 35.9202 46.423L 39.0862 42.119C 39.717 41.349 40.657 40.883 41.6501 40.883C 42.3271 40.883 42.9702 41.092 43.5081 41.487C 44.936 42.541 45.2222 44.587 44.1421 46.053L 41.1392 50.149C 40.1101 51.553 37.979 51.918 36.5962 50.9ZM 45.6841 52.171C 46.5281 52.033 47.2661 51.58 47.7571 50.895C 48.6189 49.699 48.4919 48.09 47.5659 46.964L 46.1909 45.979C 46.033 46.371 45.842 46.754 45.5801 47.109L 42.614 51.157L 43.2031 51.582C 43.929 52.106 44.7981 52.307 45.6841 52.171ZM 68.833 35.818C 67.8052 37.255 65.76 37.569 64.2771 36.505L 58.4551 32.353L 56.366 30.857L 53.865 29.08L 52.8311 30.533L 57.593 33.929L 61.7122 36.883C 63.1899 37.942 63.553 39.98 62.5251 41.418C 61.4919 42.857 59.449 43.163 57.968 42.106L 53.2 38.714L 49.1282 35.789L 48.0872 37.238L 54.991 42.197C 56.467 43.253 56.8311 45.287 55.8062 46.729C 54.7771 48.167 52.7332 48.474 51.249 47.414L 48.7981 45.657C 48.5552 45.386 48.2842 45.135 47.978 44.911L 46.553 43.892C 46.499 42.416 45.8301 40.983 44.564 40.047C 43.603 39.344 42.4102 39.086 41.241 39.189L 41.5981 38.703C 42.3979 37.618 42.7361 36.286 42.5471 34.955C 42.3582 33.614 41.6621 32.441 40.5872 31.651C 38.499 30.116 35.314 30.605 33.6812 32.64C 33.429 31.506 32.8091 30.455 31.811 29.722C 29.7051 28.174 26.4771 28.679 24.8591 30.764C 24.5981 29.591 23.958 28.562 22.9941 27.853C 20.8501 26.283 17.553 26.821 15.9521 28.995L 15.6741 29.382L 13.3621 27.619L 25.9551 11.089L 29.2061 12.583L 27.3701 15.144C 26.5571 16.247 26.2222 17.598 26.429 18.952C 26.6311 20.269 27.323 21.422 28.375 22.192C 29.429 22.97 30.7351 23.291 32.054 23.092C 33.408 22.888 34.6001 22.17 35.417 21.063L 38.1411 17.3L 42.686 17.284C 43.3 20.857 46.7012 24.029 50.137 24.029L 57.845 24.029L 68.0242 31.281C 68.74 31.796 69.217 32.553 69.3691 33.415C 69.519 34.273 69.3291 35.127 68.833 35.818ZM 58.417 22.246L 68.269 29.267L 71.199 27.041L 58.301 10.113L 36.675 10.113C 35.832 10.113 32.9741 10.269 31.616 12.281L 28.813 16.193C 28.2771 16.921 28.0591 17.802 28.1931 18.684C 28.324 19.526 28.7629 20.263 29.4331 20.754C 30.1082 21.254 30.9409 21.4579 31.79 21.327C 32.6711 21.196 33.449 20.729 33.978 20.011L 37.23 15.521L 44.3391 15.4969L 44.3779 16.353C 44.5051 19.327 47.3582 22.246 50.1379 22.246L 58.417 22.246Z"/>
</defs>
</svg>
