<svg width="88" height="58" viewBox="0 0 88 58" version="1.1" xmlns="http://www.w3.org/2000/svg" xmlns:xlink="http://www.w3.org/1999/xlink">
<title>icon_factoid_customer</title>
<desc>Created using Figma</desc>
<g id="Canvas" transform="translate(-1472 -931)">
<g id="icon_factoid_customer">
<g id="Man">
<use xlink:href="#path0_fill" transform="translate(1489 931.982)" fill="#FF696E"/>
</g>
</g>
</g>
<defs>
<path id="path0_fill" fill-rule="evenodd" d="M 33 5.91119C 33 2.64392 35.6899 0 38.9978 0C 42.3101 0 45 2.64276 45 5.91119C 45 9.1814 42.3104 11.8246 38.9978 11.8246C 35.6895 11.8246 33 9.18024 33 5.91119ZM 35 5.91119C 35 8.06799 36.7865 9.82458 38.9978 9.82458C 41.2136 9.82458 43 8.06897 43 5.91119C 43 3.75537 41.2133 2 38.9978 2C 36.7869 2 35 3.75629 35 5.91119ZM 19.9791 24.7842C 18.8892 26.5771 18.3533 28.0731 18.4668 29.4313L 14.4313 35.2064L 13.2144 35.2895C 11.9381 35.3765 10.6505 35.4634 9.43286 35.5445L 9.14001 35.564C 6.99231 35.7067 5.3324 35.8133 4.35376 35.8698C 1.72021 36.0225 0 37.1461 0 39.1458C 0 41.252 1.65942 42.2506 5.07104 42.5212C 5.9707 42.5925 7.66052 42.7067 9.9375 42.8522L 10.454 42.8851C 11.7828 42.9696 13.2064 43.0582 14.6299 43.1456L 16.006 43.2297L 16.5281 43.2614L 16.6158 43.2632C 18.0266 43.2632 19.3994 42.5176 20.2697 41.246L 24.3513 35.4785L 30.4757 39.3317L 26.5583 48.5327C 24.8907 52.3392 24.9147 55.0361 26.887 55.8307C 28.8617 56.6263 30.91 55.2144 33.1238 51.3524L 39.5964 39.5843C 40.4734 37.7182 39.8413 35.5926 38.1423 34.4822L 30.8135 29.7041L 35.1445 23.1035L 36.0643 25.2703C 36.6074 26.4689 37.7513 27.4395 38.978 27.5839L 39.1161 27.5905L 39.4801 27.5826L 40.4387 27.5612C 41.4305 27.5386 42.4224 27.5145 43.3483 27.4902C 44.0948 27.4706 44.7671 27.4515 45.3468 27.4333C 46.1689 27.4076 46.7876 27.3842 47.1736 27.3634C 50.1562 27.2047 51.9297 26.6105 51.9974 24.7562C 52.0831 22.4972 50.8029 21.9462 47.8306 21.736L 42.0715 21.2557L 39.1849 14.8342C 39.0697 14.295 38.8124 13.8288 38.3776 13.5498L 33.7523 10.5956C 33.2991 10.2372 32.7786 9.98602 32.2076 9.86737L 22.8688 7.93542C 21.885 7.74176 20.8762 7.92603 20.0515 8.45422L 12.3208 14.1327C 10.2037 15.8747 9.30115 17.3978 10.4595 19.0251C 11.3407 20.2725 13.5105 19.9947 15.0865 19.0835L 22.7839 15.196L 26.2523 15.915L 19.9791 24.7842ZM 38.4469 18.0706L 36.4639 21.0929L 37.8956 24.4667C 38.1487 25.0249 38.6974 25.5038 39.1567 25.5892L 39.4364 25.5831L 40.3931 25.5618C 41.3827 25.5391 42.3723 25.5152 43.2957 25.4909C 44.0392 25.4713 44.7081 25.4524 45.2842 25.4343C 46.0922 25.4091 46.699 25.3861 47.0665 25.3663C 48.0547 25.3137 48.8467 25.2002 49.4026 25.0139C 49.8621 24.8599 49.9968 24.7377 49.9989 24.6818C 50.0232 24.0405 49.6216 23.8677 47.6769 23.73L 40.7307 23.1509L 38.4469 18.0706ZM 18.6282 40.1036L 22.656 34.4119L 21.0286 33.388L 20.9315 33.3185C 20.2579 32.7726 19.7281 32.2315 19.3344 31.6815L 15.5228 37.136L 15.0458 37.1689L 14.5811 37.2008L 13.3503 37.2849C 12.0731 37.3719 10.7845 37.4589 9.5658 37.5401L 9.27271 37.5596C 7.11926 37.7027 5.45532 37.8095 4.46936 37.8665C 2.75964 37.9656 2 38.4618 2 39.1458C 2 39.892 2.72607 40.3289 5.22913 40.5275C 6.11499 40.5977 7.79858 40.7114 10.0651 40.8563L 10.5808 40.8892C 11.9081 40.9735 13.3302 41.0621 14.7524 41.1494L 16.1273 41.2334C 16.5217 41.2573 16.5514 41.2592 16.5809 41.2623L 16.5884 41.2632C 17.3572 41.2632 18.1167 40.8506 18.6282 40.1036ZM 28.5912 29.4454L 28.041 30.284L 37.0496 36.1573C 37.9219 36.7277 38.2351 37.7812 37.8148 38.678L 31.3801 50.3731C 29.6106 53.4597 28.4093 54.2878 27.6345 53.9756C 27.4828 53.9145 27.3617 53.6857 27.3566 53.1114C 27.3489 52.2344 27.6826 50.9505 28.3945 49.3257L 32.6499 39.3309L 32.9838 38.5466L 22.1454 31.7277C 19.9875 29.9614 19.9685 28.6509 21.6504 25.8807L 28.7671 15.8233L 29.6488 14.5766L 22.506 13.0959L 14.1351 17.3252C 13.3125 17.799 12.1476 17.9482 12.0911 17.8682C 11.8235 17.4924 12.2412 16.7876 13.5488 15.7103L 21.1831 10.1022C 21.5166 9.89105 22 9.80273 22.4733 9.89587L 31.8018 11.8257C 32.0679 11.881 32.3138 12.0024 32.5361 12.1839L 32.6304 12.2521C 32.6304 12.2521 37.2173 15.1863 37.2183 15.1903C 37.2468 15.3043 37.2555 15.4795 37.2367 15.6858C 37.1985 16.1083 37.0521 16.5654 36.9218 16.7504L 28.5912 29.4454Z"/>
</defs>
</svg>
