<svg width="130" height="130" viewBox="0 0 130 130" version="1.1" xmlns="http://www.w3.org/2000/svg" xmlns:xlink="http://www.w3.org/1999/xlink">
  <g fill="none" fill-rule="evenodd">
    <rect width="130" height="130" fill="#EF2028"/>
    <g fill="#FFF" transform="translate(17 76.412)">
      <polyline points="88.377 8.079 84.679 18.571 82.214 18.571 88.007 3.979 91.089 3.979 96.635 18.571 91.828 18.571 88.377 8.079"/>
      <polyline points="69.888 13.144 76.174 3.979 79.379 3.979 79.379 18.571 75.188 18.571 75.188 9.285 68.902 18.571 65.697 18.571 65.697 3.979 69.888 3.979 69.888 13.144"/>
      <path d="M69.2718345 0C70.0113915.482352941 71.4905054.964705882 72.5998408.964705882 73.8324358.964705882 75.1882902.602941176 76.0511067 0L77.0371826 1.44705882C76.6674041 1.56764706 76.2976256 1.80882353 75.9278472 1.92941176 74.8185117 2.41176471 73.7091763 2.65294118 72.5998408 2.65294118 71.4905054 2.65294118 70.3811699 2.53235294 69.2718345 2.05 68.902056 1.92941176 68.7787965 1.80882353 68.1624991 1.56764706L69.2718345 0M57.8087025 17.0029412C56.9458861 17.0029412 56.2063291 16.7617647 55.5900316 16.5205882 53.8643987 15.5558824 53.1248418 13.5058824 53.1248418 11.3352941L55.5900316 11.3352941 62.3693038 11.3352941C62.3693038 6.27058824 60.1506329 3.61764706 55.8365506 3.61764706 55.7132911 3.61764706 55.7132911 3.61764706 55.5900316 3.61764706 51.2759494 3.73823529 48.440981 6.75294118 48.440981 10.9735294 48.440981 15.4352941 51.1526899 18.5705882 55.5900316 18.9323529 55.9598101 18.9323529 56.3295886 18.9323529 56.6993671 18.9323529 58.3017405 18.9323529 59.9041139 18.45 61.2599684 17.6058824L61.8762658 15.9176471 61.5064873 15.6764706C60.5204114 16.4 59.0412975 17.0029412 57.8087025 17.0029412zM55.5900316 4.94411765C55.7132911 4.94411765 55.7132911 4.94411765 55.8365506 4.94411765 57.931962 4.94411765 58.0552215 8.44117647 58.0552215 9.76764706L55.5900316 9.76764706 53.1248418 9.76764706C53.2481013 8.2 53.4946203 5.06470588 55.5900316 4.94411765z"/>
      <polyline points="41.662 5.668 41.662 18.571 37.348 18.571 37.348 5.668 32.664 6.029 32.664 3.979 46.346 3.979 46.346 6.029 41.662 5.668"/>
      <polyline points="20.215 13.144 26.501 3.979 29.706 3.979 29.706 18.571 25.391 18.571 25.391 9.285 19.105 18.571 15.9 18.571 15.9 3.979 20.215 3.979 20.215 13.144"/>
      <path fill-rule="nonzero" d="M62.9856013,23.2735294 L56.2063291,23.2735294 L56.2063291,37.8647059 L60.1506329,37.8647059 L60.1506329,33.6441176 L63.1088608,33.6441176 C66.8066456,33.6441176 69.2718354,31.5941176 69.2718354,28.2176471 C69.1485759,24.3588235 66.0670886,23.2735294 62.9856013,23.2735294 Z M62.9856013,31.7147059 L60.0273734,31.7147059 L60.0273734,25.0823529 L62.9856013,25.0823529 C65.2042722,25.0823529 65.8205696,26.7705882 65.8205696,28.2176471 C65.8205696,29.9058824 65.3275316,31.7147059 62.9856013,31.7147059 Z"/>
      <polyline points="83.077 23.274 87.391 23.274 87.391 29.785 87.638 29.785 93.554 23.274 96.266 23.274 96.266 23.394 90.719 29.182 96.635 37.624 96.635 37.865 91.952 37.865 87.391 30.871 87.391 37.865 83.077 37.865 83.077 23.274"/>
      <path d="M40.7988924,36.4176471 C40.6756329,36.1764706 40.4291139,35.8147059 40.4291139,35.3323529 L40.4291139,26.8911765 C40.4291139,23.8764706 37.1011076,22.9117647 34.5126582,22.9117647 C34.3893987,22.9117647 34.2661392,22.9117647 34.0196203,22.9117647 C32.0474684,23.0323529 30.0753165,23.6352941 28.719462,24.9617647 L29.0892405,26.7705882 L29.3357595,26.7705882 C29.705538,25.5647059 32.0474684,24.8411765 33.1568038,24.8411765 C33.4033228,24.8411765 33.7731013,24.9617647 34.0196203,24.9617647 C35.1289557,25.3235294 36.1150316,26.4088235 36.1150316,27.4941176 C36.1150316,28.7 35.1289557,29.0617647 34.0196203,29.3029412 C33.7500541,29.3539505 33.6486983,29.3644203 33.2800633,29.4235294 C30.5683544,30.1470588 27.6101266,30.8705882 27.6101266,34.1264706 C27.6101266,36.7794118 29.459019,38.2264706 32.0474684,38.2264706 C32.7870253,38.2264706 33.4033228,38.1058824 34.0196203,37.7441176 C34.8824367,37.3823529 35.6219937,36.6588235 36.1150316,35.9352941 C36.6080696,37.2617647 37.7174051,38.2264706 39.196519,38.2264706 C39.8128165,38.2264706 40.7988924,37.9852941 42.0314873,37.3823529 L42.0314873,36.6588235 C41.5384494,36.6588235 41.0454114,36.6588235 40.7988924,36.4176471 Z M36.2382911,32.9205882 C36.1150316,34.9705882 35.4987342,36.0558824 34.1428797,36.1764706 C34.0196203,36.1764706 33.8963608,36.1764706 33.7731013,36.1764706 C33.1568038,36.1764706 32.6637658,35.9352941 32.4172468,35.4529412 C32.1707278,34.9705882 32.0474684,34.3676471 32.0474684,33.7647059 C32.0474684,32.5588235 32.4172468,31.7147059 33.0335443,31.2323529 C33.4033228,30.9911765 33.7731013,30.75 34.1428797,30.6294118 C34.7591772,30.3882353 35.6219937,30.1470588 36.2382911,29.9058824 L36.2382911,32.9205882 Z"/>
      <polyline points="0 23.274 13.682 23.274 13.682 37.865 9.861 37.865 9.861 26.047 3.944 26.047 3.944 37.865 0 37.865 0 23.274"/>
      <path fill-rule="nonzero" d="M6.90253165,3.97941176 L0,3.97941176 L0,18.5705882 L3.9443038,18.5705882 L3.9443038,14.2294118 L6.77927215,14.2294118 C10.477057,14.2294118 12.9422468,12.1794118 12.9422468,8.92352941 C12.9422468,5.06470588 9.86075949,3.97941176 6.90253165,3.97941176 Z M6.77927215,12.4205882 L3.8210443,12.4205882 L3.8210443,5.78823529 L6.77927215,5.78823529 C9.12120253,5.66764706 9.7375,7.47647059 9.7375,8.92352941 C9.7375,10.6117647 9.24446203,12.4205882 6.77927215,12.4205882 Z"/>
    </g>
    <path fill="#FFF" fill-rule="nonzero" d="M41.0455446,16 L40.1029703,16 L17.1346535,16 L17,70 L29,70 L29,54 L40.1029703,54 L40.9108911,54 C54.5108911,54 62,46.688118 62,34.2999992 C61.8653465,19.8920784 52.2217822,16 41.0455446,16 Z M40.9108911,47 L40.1029703,47 L29,47 L29,23 L40.1029703,23 L40.9108911,23 C49.2594059,22.8653465 52,29.1831676 52,34.2999992 C52,40.6287121 49.9326733,47 40.9108911,47 Z"/>
    <polygon fill="#FFF" points="68 16 113 16 113 70 101 70 101 23 80 23 80 70 68 70"/>
  </g>
</svg>
