<svg width="263" height="119" viewBox="0 0 263 119" version="1.1" xmlns="http://www.w3.org/2000/svg" xmlns:xlink="http://www.w3.org/1999/xlink">
<g id="Canvas" transform="translate(-738 -723)">
<g id="Group 11 Copy">
<g id="Group">
<g id="Shape">
<use xlink:href="#path0_fill" transform="translate(745.55 802)" fill="#3A3A3A" fill-opacity="0.867103"/>
</g>
<g id="Shape">
<use xlink:href="#path1_fill" transform="translate(739 775)" fill="#3A3A3A" fill-opacity="0.867103"/>
</g>
<g id="Rectangle-path">
<use xlink:href="#path2_fill" transform="translate(771 792)" fill="#3A3A3A" fill-opacity="0.867103"/>
</g>
<g id="Rectangle-path">
<use xlink:href="#path3_fill" transform="matrix(0.347998 -0.937495 0.937495 0.347998 762.177 796.129)" fill="#3A3A3A" fill-opacity="0.867103"/>
</g>
<g id="Rectangle-path">
<use xlink:href="#path4_fill" transform="matrix(0.937463 -0.348086 0.348086 0.937463 778.919 791.775)" fill="#3A3A3A" fill-opacity="0.867103"/>
</g>
</g>
<g id="Shape">
<use xlink:href="#path5_fill" transform="translate(742.662 747.226)" fill="#3A3A3A" fill-opacity="0.867103"/>
</g>
<g id="Shape">
<use xlink:href="#path6_fill" transform="translate(953.9 725)" fill="#3A3A3A" fill-opacity="0.867103"/>
</g>
<g id="Shape">
<use xlink:href="#path7_fill" transform="translate(829.705 767.2)" fill="#3A3A3A" fill-opacity="0.867103"/>
</g>
<g id="Group">
<g id="Shape">
<use xlink:href="#path8_fill" transform="translate(851.1 815.5)" fill="#3A3A3A" fill-opacity="0.867103"/>
</g>
<g id="Shape">
<use xlink:href="#path9_fill" transform="translate(862.6 803)" fill="#3A3A3A" fill-opacity="0.867103"/>
</g>
<g id="Shape">
<use xlink:href="#path10_fill" transform="translate(884.8 811.7)" fill="#3A3A3A" fill-opacity="0.867103"/>
</g>
</g>
<g id="Group">
<g id="Shape">
<use xlink:href="#path11_fill" transform="translate(799.3 774.1)" fill="#3A3A3A" fill-opacity="0.867103"/>
</g>
<g id="Shape">
<use xlink:href="#path12_fill" transform="translate(810.9 795.2)" fill="#3A3A3A" fill-opacity="0.867103"/>
</g>
</g>
<g id="Shape">
<use xlink:href="#path13_fill" transform="translate(874.198 737.833)" fill="#3A3A3A" fill-opacity="0.867103"/>
</g>
<g id="Group">
<g id="Shape">
<use xlink:href="#path14_fill" transform="translate(966.238 781.5)" fill="#3A3A3A" fill-opacity="0.867103"/>
</g>
<g id="Shape">
<use xlink:href="#path15_fill" transform="translate(980.8 792.4)" fill="#3A3A3A" fill-opacity="0.867103"/>
</g>
</g>
<g id="Group">
<g id="Shape">
<use xlink:href="#path16_fill" transform="translate(896.628 724.793)" fill="#3A3A3A" fill-opacity="0.867103"/>
</g>
<g id="Shape">
<use xlink:href="#path17_fill" transform="translate(939.638 741.228)" fill="#3A3A3A" fill-opacity="0.867103"/>
</g>
<g id="Shape">
<use xlink:href="#path18_fill" transform="translate(924.877 756.377)" fill="#3A3A3A" fill-opacity="0.867103"/>
</g>
<g id="Shape">
<use xlink:href="#path19_fill" transform="translate(900.01 734.386)" fill="#3A3A3A" fill-opacity="0.867103"/>
</g>
<g id="Shape">
<use xlink:href="#path20_fill" transform="translate(928.75 762.35)" fill="#3A3A3A" fill-opacity="0.867103"/>
</g>
<g id="Shape">
<use xlink:href="#path21_fill" transform="translate(942.688 744.161)" fill="#3A3A3A" fill-opacity="0.867103"/>
</g>
</g>
<g id="Shape">
<use xlink:href="#path22_fill" transform="translate(773.6 761.8)" fill="#3A3A3A" fill-opacity="0.867103"/>
</g>
<g id="Shape">
<use xlink:href="#path23_fill" transform="translate(805.6 725.8)" fill="#3A3A3A" fill-opacity="0.867103"/>
</g>
<g id="Group">
<g id="Shape">
<use xlink:href="#path24_fill" transform="translate(751.6 726.1)" fill="#3A3A3A" fill-opacity="0.867103"/>
</g>
<g id="Shape">
<use xlink:href="#path25_fill" transform="translate(751.6 725.9)" fill="#3A3A3A" fill-opacity="0.867103"/>
</g>
</g>
<g id="Group">
<g id="Shape">
<use xlink:href="#path26_fill" transform="translate(739 734)" fill="#3A3A3A" fill-opacity="0.867103"/>
</g>
<g id="Shape">
<use xlink:href="#path27_fill" transform="translate(738.8 733.7)" fill="#3A3A3A" fill-opacity="0.867103"/>
</g>
</g>
<g id="Shape">
<use xlink:href="#path28_fill" transform="translate(823.9 770.6)" fill="#3A3A3A" fill-opacity="0.867103"/>
</g>
<g id="Group">
<g id="Shape">
<use xlink:href="#path29_fill" transform="translate(810.5 809.5)" fill="#3A3A3A" fill-opacity="0.867103"/>
</g>
<g id="Shape">
<use xlink:href="#path30_fill" transform="translate(819.7 818.6)" fill="#3A3A3A" fill-opacity="0.867103"/>
</g>
</g>
<g id="Group">
<g id="Shape">
<use xlink:href="#path31_fill" transform="translate(769.785 728.985)" fill="#3A3A3A" fill-opacity="0.867103"/>
</g>
<g id="Shape">
<use xlink:href="#path32_fill" transform="translate(793.985 723.285)" fill="#3A3A3A" fill-opacity="0.867103"/>
</g>
<g id="Shape">
<use xlink:href="#path33_fill" transform="translate(786.526 725.326)" fill="#3A3A3A" fill-opacity="0.867103"/>
</g>
<g id="Shape">
<use xlink:href="#path34_fill" transform="translate(782.185 732.285)" fill="#3A3A3A" fill-opacity="0.867103"/>
</g>
<g id="Shape">
<use xlink:href="#path35_fill" transform="translate(801.185 735.185)" fill="#3A3A3A" fill-opacity="0.867103"/>
</g>
<g id="Shape">
<use xlink:href="#path36_fill" transform="translate(799.626 727.626)" fill="#3A3A3A" fill-opacity="0.867103"/>
</g>
</g>
<g id="Group">
<g id="Shape">
<use xlink:href="#path37_fill" transform="translate(918.2 805.5)" fill="#3A3A3A" fill-opacity="0.867103"/>
</g>
<g id="Shape">
<use xlink:href="#path38_fill" transform="translate(897.9 802.2)" fill="#3A3A3A" fill-opacity="0.867103"/>
</g>
<g id="Shape">
<use xlink:href="#path39_fill" transform="translate(906.3 814.1)" fill="#3A3A3A" fill-opacity="0.867103"/>
</g>
</g>
<g id="Group">
<g id="Group">
<g id="Shape">
<use xlink:href="#path40_fill" transform="translate(946.1 768.2)" fill="#3A3A3A" fill-opacity="0.867103"/>
</g>
<g id="Shape">
<use xlink:href="#path41_fill" transform="translate(946 768)" fill="#3A3A3A" fill-opacity="0.867103"/>
</g>
</g>
<g id="Group">
<g id="Shape">
<use xlink:href="#path42_fill" transform="translate(975.3 764.1)" fill="#3A3A3A" fill-opacity="0.867103"/>
</g>
<g id="Shape">
<use xlink:href="#path43_fill" transform="translate(975.3 763.9)" fill="#3A3A3A" fill-opacity="0.867103"/>
</g>
</g>
<g id="Group">
<g id="Shape">
<use xlink:href="#path44_fill" transform="translate(963.4 750.2)" fill="#3A3A3A" fill-opacity="0.867103"/>
</g>
<g id="Shape">
<use xlink:href="#path45_fill" transform="translate(963.2 750)" fill="#3A3A3A" fill-opacity="0.867103"/>
</g>
</g>
</g>
<g id="Group">
<g id="Shape">
<use xlink:href="#path46_fill" transform="translate(943.5 726.4)" fill="#3A3A3A" fill-opacity="0.867103"/>
</g>
<g id="Shape">
<use xlink:href="#path47_fill" transform="translate(943.4 726.4)" fill="#3A3A3A" fill-opacity="0.867103"/>
</g>
</g>
<g id="Group">
<g id="Shape">
<use xlink:href="#path48_fill" transform="translate(930 809)" fill="#3A3A3A" fill-opacity="0.867103"/>
</g>
</g>
</g>
</g>
<defs>
<path id="path0_fill" fill-rule="evenodd" d="M 53.75 9.29999C 53.15 8.40002 52.25 8 51.15 8L 46.55 8L 43.85 0L 10.35 0L 7.65002 8L 3.04999 8C 1.95001 8 0.950012 8.29999 0.450012 9.29999C -0.150024 10.2 -0.150024 11.3 0.450012 12.2L 1.65002 14.2L 1.65002 39L 12.65 39L 12.65 31L 41.65 31L 41.65 39L 52.65 39L 52.65 14.1L 53.95 12.1C 54.25 11.2 54.35 10.2 53.75 9.29999ZM 11.85 2L 42.25 2L 46.05 13L 8.15002 13L 11.85 2ZM 6.75 10L 1.65002 10L 3.25 13L 5.65002 13L 6.75 10ZM 10.45 37L 3.45001 37L 3.45001 31L 10.45 31L 10.45 37ZM 43.45 37L 50.45 37L 50.45 31L 43.45 31L 43.45 37ZM 50.45 29L 3.45001 29L 3.45001 15L 50.45 15L 50.45 29ZM 48.45 13L 50.85 13L 52.45 10L 47.35 10L 48.45 13Z"/>
<path id="path1_fill" fill-rule="evenodd" d="M 51.8 3L 64 3L 64 66L 66 66L 67 66L 67 0L 66 0L 1 0L 0 0L 0 1L 0 66L 1 66L 3 66L 3 3L 15.4 3L 20 12L 47.1 12L 51.8 3ZM 21.4 10L 17.8 3L 49.2 3L 45.6 10L 21.4 10Z"/>
<path id="path2_fill" d="M 0 0L 3 0L 3 5L 0 5L 0 0Z"/>
<path id="path3_fill" d="M 0 0L 5.50003 0L 5.50003 2.30001L 0 2.30001L 0 0Z"/>
<path id="path4_fill" d="M 0 0L 2.30009 0L 2.30009 5.50022L 0 5.50022L 0 0Z"/>
<path id="path5_fill" fill-rule="evenodd" d="M 23.5375 8.87384L 50.2375 13.3738C 53.2375 13.8738 55.4375 16.8738 55.0375 20.0739C 54.7375 21.5739 53.9375 22.8738 52.6375 23.7739C 51.3375 24.6738 49.8375 24.9738 48.3375 24.7739L 21.3375 20.1738L 21.0375 20.4738C 20.9191 20.5922 20.8007 20.7145 20.6808 20.8384C 20.1929 21.3423 19.6796 21.8725 19.0375 22.2739C 16.3375 24.0739 13.0375 24.8738 9.83752 24.2739C 6.53748 23.6738 3.73749 21.8738 1.83752 19.2739C 1.03748 18.0739 0.4375 16.7739 0.0374756 14.9738C -0.0625 14.6738 0.0374756 14.2739 0.337524 13.9738C 0.537476 13.7739 0.9375 13.5739 1.33752 13.6738L 7.83752 14.8738L 9.9375 11.8738L 8.83752 8.17383L 2.4375 7.17383C 2.03748 7.07385 1.73749 6.87384 1.53748 6.47382C 1.4375 6.07385 1.4375 5.67383 1.63751 5.37384C 4.23749 1.37384 9.03748 -0.62616 13.7375 0.173828L 13.8375 0.173828C 17.0375 0.773865 19.9375 2.57385 21.7375 5.17383C 22.4375 6.17383 23.0375 7.27386 23.4375 8.47382L 23.5375 8.87384ZM 49.1375 22.5738C 50.8375 22.5738 52.3375 21.3738 52.6375 19.6738C 52.9375 17.7738 51.7375 15.9738 49.6375 15.4738L 22.2375 10.8738C 21.8375 10.7738 21.4375 10.3738 21.3375 9.97382C 21.0375 8.7738 20.5375 7.47382 19.7375 6.37378C 18.2375 4.2738 15.8375 2.7738 13.2375 2.2738C 10.6375 1.87378 7.9375 2.47382 5.73749 4.07379L 4.4375 5.07379L 9.73749 5.97382C 10.1375 6.07379 10.5375 6.37378 10.6375 6.7738L 12.1375 11.7738C 12.2375 12.0738 12.1375 12.4738 11.9375 12.7738L 9.03748 16.7738C 8.83752 17.1738 8.33752 17.3738 7.9375 17.2738L 2.4375 16.2738L 3.23749 17.5738C 3.28748 17.6738 3.33746 17.7487 3.38745 17.8237C 3.43744 17.8987 3.48749 17.9738 3.53748 18.0738C 5.03748 20.1738 7.4375 21.6738 10.0375 22.1738C 12.5375 22.5738 15.3375 21.9738 17.4375 20.4738C 18.2375 19.8738 19.0375 19.0738 19.6375 18.2738L 19.9375 17.9738C 20.2375 17.7738 20.5375 17.6738 20.8375 17.7738L 48.6375 22.5738L 49.1375 22.5738Z"/>
<path id="path6_fill" fill-rule="evenodd" d="M 13.6 0L 45.3 0C 46 0 46.1 0.599976 46 1.20001L 46 40.8C 46 41.5 45.9 42 45.2 42L 1.70001 42C 1 42 0 41.5 0 40.8L 0 11.1C 0 10.8 0.400024 10.4 0.700012 10.2L 12.8 0.299988C 13 0.0999756 13.3 0 13.6 0ZM 2.09998 40L 44.1 40L 44.1 22L 2.09998 22L 2.09998 40ZM 44.1 20L 10.1 20L 10.1 15.7L 17.2 10L 44.1 10L 44.1 20ZM 16.8 8L 44.1 8L 44.2 8L 44.2 2L 14.2 2L 2.20001 11.7L 2.20001 20L 8.20001 20L 8.20001 15.1C 8.20001 14.8 8.5 14.4 8.79999 14.2L 16 8.29999C 16.2 8.09998 16.5 8 16.8 8Z"/>
<path id="path7_fill" fill-rule="evenodd" d="M 33.095 0.799988L 49.1949 12.2C 49.6949 12.6 49.895 13.3 49.6949 13.7L 45.895 19.1C 45.4949 19.6 44.7949 19.8 44.2949 19.4L 42.4949 18.2L 41.9949 18.8C 40.4949 21 39.7949 23.6 40.2949 26.3C 40.395 26.9 39.9949 27.5 39.395 27.6C 38.9949 27.6 38.6949 27.6 38.4949 27.4C 38.1949 27.3 38.095 27 37.9949 26.7C 37.395 23.5 38.1949 20.2 40.095 17.5L 40.595 16.9L 37.095 14.4L 34.1949 18.5L 34.1949 18.7C 35.095 24.6 33.595 30.7 30.095 35.6L 21.4949 47.7C 20.7949 48.7 19.7949 49.3 18.595 49.5C 17.395 49.7 16.2949 49.5 15.2949 48.8L 1.89496 39.3C -0.105042 37.9 -0.605042 35.1 0.794922 33.1L 9.39496 21C 12.895 16.1 18.095 12.7 23.9949 11.5L 24.1949 11.5L 27.095 7.29999L 26.895 7C 25.7949 5.5 25.7949 3.40002 26.895 1.90002C 27.595 0.900024 28.595 0.299988 29.7949 0.0999756C 30.095 0 30.2949 0 30.595 0C 31.4949 0 32.2949 0.299988 33.095 0.799988ZM 28.1949 34.3C 29.0949 33.1 29.7949 31.8 30.395 30.4L 30.4949 30.1L 24.7949 26L 15.9949 38.4L 22.1949 42.8L 28.1949 34.3ZM 31.4949 27L 31.295 27.8L 25.1949 23.5C 24.6949 23.1 23.9949 23.3 23.595 23.8L 13.4949 38.1C 13.295 38.3 13.295 38.7 13.295 39C 13.395 39.3 13.4949 39.6 13.795 39.7L 20.895 44.7L 19.6949 46.5C 19.395 47 18.895 47.3 18.295 47.4L 17.895 47.4C 17.4949 47.4 16.9949 47.3 16.6949 47L 3.29498 37.5C 2.79498 37.2 2.49493 36.7 2.39496 36.1C 2.29498 35.5 2.39496 35 2.79498 34.5L 11.395 22.4C 14.4949 18 19.1949 14.9 24.4949 13.8L 24.6949 13.8L 31.9949 18.9L 31.9949 19.1C 32.295 21.8 32.095 24.4 31.4949 27ZM 26.395 12.2L 32.595 16.6L 35.095 13.1L 28.895 8.70001L 26.395 12.2ZM 39.095 13.1L 29.295 6.20001C 28.295 5.5 28.095 4.20001 28.795 3.20001C 29.495 2.20001 30.795 2 31.795 2.70001L 41.595 9.59998L 39.095 13.1ZM 40.9949 14.4L 44.4949 16.9L 46.9949 13.4L 43.4949 10.9L 40.9949 14.4Z"/>
<path id="path8_fill" fill-rule="evenodd" d="M 47.1 8.5L 32.9 8.5L 32.9 6.79999C 32.9 3.09998 29.8 0 26.1 0C 24 0 21.9 1 20.7 2.70001L 20.5 3L 20.2 2.90002C 19.6 2.70001 18.8 2.70001 18.2 2.90002L 17.9 3L 17.7 2.70001C 16.4 1 14.4 0 12.3 0C 9.09998 0 6.40002 2.20001 5.70001 5.29999L 5.59998 5.59998L 5.29999 5.70001C 2.20001 6.40002 0 9.29999 0 12.5C 0 16.2 3 19.4 6.79999 19.4L 10.1 19.4L 10.1 23.1C 10.1 23.8 10.5 24.4 11.2 24.4L 47.4 24.4C 48.1 24.4 48.2 23.7 48.2 23.1L 48.2 9.5C 48.144 9.40662 48.0949 9.31317 48.0476 9.22308L 48.0465 9.22101C 47.8411 8.82947 47.6682 8.5 47.1 8.5ZM 9.90002 9.60004L 9.90002 16.5L 6.60004 16.5C 4.20001 16.5 2.20001 14.7 2.20001 12.3C 2.20001 9.90002 4.20001 8 6.60004 8C 7.29999 8 7.79999 7.5 7.79999 6.80005C 7.79999 4.40002 9.79999 2.40002 12.2 2.40002C 14 2.40002 15.6 3.5 16.2 5.10004C 16.3 5.40002 16.6 5.70001 17 5.80005C 17.4 5.90002 17.8 5.80005 18 5.60004C 18.2 5.40002 18.5 5.20001 19 5.20001C 19.5 5.20001 19.8 5.40002 20.1 5.60004C 20.4 5.90002 20.8 6 21.2 5.90002C 21.6 5.80005 21.9 5.5 22 5.20001C 22.7 3.5 24.5 2.5 26.3 2.5C 28.7 2.5 30.9 4.5 30.9 6.90002L 30.9 8.60004L 11 8.60004C 10.3 8.5 9.90002 9 9.90002 9.60004ZM 11.9 22.5L 45.9 22.5L 45.9 10.5L 11.9 10.5L 11.9 22.5Z"/>
<path id="path9_fill" fill-rule="evenodd" d="M 9.79999 5C 9.79999 7.79999 7.59998 10 4.90002 10C 2.20001 10 0 7.79999 0 5C 0 2.20001 2.20001 0 4.90002 0C 7.59998 0 9.79999 2.20001 9.79999 5ZM 7.5 5C 7.5 3.60004 6.29999 2.40002 4.89996 2.40002C 3.5 2.40002 2.29999 3.5 2.29999 5C 2.29999 6.40002 3.5 7.60004 4.89996 7.60004C 6.39996 7.60004 7.5 6.40002 7.5 5Z"/>
<path id="path10_fill" fill-rule="evenodd" d="M 4 8C 1.79999 8 0 6.20001 0 4C 0 1.79999 1.79999 0 4 0C 6.20001 0 8 1.79999 8 4C 8 6.20001 6.20001 8 4 8ZM 5.60004 4C 5.60004 3.10004 4.90002 2.40002 4 2.40002C 3.10004 2.40002 2.40002 3.10004 2.40002 4C 2.40002 4.90002 3.10004 5.60004 4 5.60004C 4.90002 5.60004 5.60004 4.90002 5.60004 4Z"/>
<path id="path11_fill" fill-rule="evenodd" d="M 14.3268 0.956848C 16.6784 4.00677 26 16.0966 26 22.2C 26 25.6 24.6 28.8 22.2 31.2C 19.8 33.6 16.5 34.9 13 34.9C 5.79999 34.9 0 29.2 0 22.2C 0 15.6 10.9 1.90002 12.1 0.400024C 12.3 0.200012 12.7 0 13 0C 13.3 0 13.7 0.0999756 13.9 0.400024C 13.9903 0.520386 14.1355 0.708679 14.3268 0.956848ZM 2.20001 22.3C 2.20001 28 7 32.7 12.9 32.7C 18.8 32.7 23.6 28 23.6 22.3C 23.6 17.3 14.9 5.69995 13.1 3.39996L 12.9 3.09998L 12.7 3.39996C 11 5.59998 2.20001 17.2 2.20001 22.3Z"/>
<path id="path12_fill" d="M 8.7 1.1C 8.7 0.5 8.2 0 7.5 0C 6.8 0 6.3 0.5 6.3 1.1C 6.3 3.8 4 6 1.2 6C 0.6 6 0 6.5 0 7.1C 0 7.7 0.5 8.2 1.2 8.2C 5.4 8.3 8.7 5.1 8.7 1.1Z"/>
<path id="path13_fill" fill-rule="evenodd" d="M 75.302 50.8672L 76.502 64.8672L 51.6021 67.2672L 50.402 53.2672L 57.802 52.5672L 58.1021 51.6672C 58.502 50.3672 59.402 49.2672 60.6021 48.6672L 61.402 48.2672L 58.502 15.3672C 58.1021 11.5672 56.302 8.0672 53.402 5.66724C 50.502 3.16724 46.802 2.0672 43.002 2.36725C 39.202 2.76721 35.702 4.5672 33.302 7.46722C 30.802 10.3672 29.702 14.0672 30.002 17.8672L 32.002 39.8672L 33.202 39.9672C 36.1021 40.1672 38.502 40.8672 40.402 42.0672C 43.1021 43.8672 44.802 46.7672 45.202 50.4672L 45.802 56.7672C 46.202 61.9672 43.6021 65.3672 38.502 66.1672L 38.002 66.2672L 37.702 66.5672C 36.202 68.0672 34.302 68.9672 32.202 69.1672C 30.1021 69.3672 28.1021 68.7672 26.402 67.5672L 26.002 67.2672L 10.702 68.6672C 7.20203 68.8672 4.90204 68.3672 3.20203 67.1672C 1.00201 65.5672 0.502014 62.7672 0.302002 60.7672L 0.00201416 57.2672C -0.0979614 53.6672 3.50201 49.7672 10.1021 46.1672C 15.702 43.0672 22.502 40.8672 28.302 40.1672L 29.6021 39.9672L 27.702 18.0672C 27.302 13.6672 28.702 9.36725 31.502 5.96722C 34.302 2.5672 38.302 0.467224 42.702 0.0671997C 47.1021 -0.332764 51.402 1.0672 54.802 3.86725C 58.202 6.66724 60.302 10.6672 60.702 15.0672L 63.6021 47.9672L 64.502 48.2672C 65.802 48.6672 66.902 49.5672 67.502 50.7672L 67.902 51.5672L 75.302 50.8672ZM 11.202 48.0673C 8.802 49.3672 6.70203 50.7673 5.20203 52.1672L 2.20203 54.8672L 12.502 53.9672C 15.702 53.7673 18.402 51.0673 20.1021 46.6672L 21.202 43.8672L 18.302 44.8672C 15.802 45.7673 13.402 46.8672 11.202 48.0673ZM 32.002 66.6672L 31.402 66.6672C 28.202 66.6672 25.402 64.1672 25.1021 60.8672C 25.002 59.1672 25.502 57.5672 26.6021 56.2672C 27.702 54.9672 29.202 54.1672 30.902 54.0672C 34.402 53.7672 37.502 56.3672 37.8021 59.7672C 38.1021 63.2672 35.502 66.3672 32.002 66.6672ZM 42.902 50.5672C 42.602 47.5672 41.302 45.2672 39.102 43.8672C 36.802 42.3672 33.502 41.8672 29.602 42.1672L 29.302 42.1672C 27.702 42.3672 26.002 42.6672 24.202 43.0672L 23.302 43.2672L 23.102 44.1672C 22.802 46.0672 22.002 48.2672 21.002 50.0672C 18.902 53.7672 15.902 55.9672 12.602 56.2672L 2.302 57.1672L 2.60199 60.2672C 2.802 62.7672 3.50201 64.1672 4.60199 65.0672C 5.50201 65.7672 7.00201 66.1672 9.10199 66.1672L 10.502 66.1672L 24.002 65.0672L 23.402 63.3672C 23.1022 62.6678 23.0022 61.9684 22.9022 61.2689L 22.9021 61.2684L 22.902 61.2678L 22.902 61.2672C 22.702 58.9672 23.402 56.7672 24.902 54.9672C 26.402 53.1672 28.502 52.0672 30.802 51.8672C 33.102 51.6672 35.302 52.3672 37.102 53.8672C 38.902 55.3672 40.002 57.4672 40.202 59.7672L 40.202 60.3672L 40.302 65.4672L 42.802 60.9672C 43.402 59.8672 43.602 58.4672 43.502 56.8672L 42.902 50.5672ZM 62.6021 50.2672C 64.1021 50.1672 65.5021 51.2672 65.702 52.8672C 65.8021 53.6672 65.5021 54.3672 65.1021 54.9672C 64.6021 55.5672 63.902 55.8672 63.202 55.9672L 62.902 55.9672C 61.5021 55.9672 60.202 54.8672 60.1021 53.3672C 59.902 51.7672 61.1021 50.4672 62.6021 50.2672ZM 58.302 55.5673L 57.902 54.7673L 52.802 55.1672L 53.602 64.5673L 73.902 62.7673L 73.102 53.3672L 68.002 53.8672L 67.702 54.7673C 67.102 56.6672 65.402 58.0673 63.302 58.2673C 61.302 58.4672 59.302 57.3672 58.302 55.5673Z"/>
<path id="path14_fill" d="M 34.1615 19.8C 34.2615 19.2 33.8615 18.6 33.2615 18.5C 32.6615 18.4 32.0615 18.8 31.9615 19.4C 30.8615 26.2 25.3615 31.3 18.4615 31.8C 14.4615 32.1 10.6615 30.9 7.66151 28.3C 4.66151 25.7 2.76151 22.1 2.46151 18.2C 2.16151 14.3 3.36151 10.4 5.96151 7.4C 8.56151 4.4 12.1615 2.5 16.0615 2.2C 20.1615 1.9 24.1615 3.2 27.1615 6L 27.3615 6.2L 25.5615 7.7C 25.3615 7.9 25.2615 8.2 25.2615 8.5C 25.2615 8.8 25.4615 9 25.7615 9.2L 32.0615 11.8C 32.3615 11.9 32.6615 11.9 32.9615 11.7C 33.1615 11.5 33.3615 11.2 33.2615 10.9L 31.9615 4.2C 31.8615 3.9 31.6615 3.7 31.4615 3.6C 31.1615 3.5 30.8615 3.5 30.6615 3.7L 29.1615 4.9L 28.9615 4.7C 25.7615 1.7 21.5615 0 17.1615 0C 16.6615 0 16.2615 0 15.7615 0.1C 6.36151 0.9 -0.738493 9.1 0.0615067 18.6C 0.861507 28 9.06151 35.1 18.5615 34.3C 26.4615 33.5 32.8615 27.6 34.1615 19.8Z"/>
<path id="path15_fill" d="M 2.3 1.1C 2.3 0.8 2.1 0.5 1.9 0.3C 1.7 0.1 1.4 0 1.2 0L 1.1 0C 0.8 0 0.5 0.2 0.3 0.4C 0.1 0.6 0 0.9 0 1.2L 0.5 7.8C 0.5 8.1 0.7 8.4 0.9 8.6C 1.1 8.8 1.4 8.9 1.7 8.9L 11.8 8.1C 12.4 8 12.9 7.5 12.8 6.9C 12.7 6.3 12.2 5.8 11.6 5.9L 2.6 6.6L 2.3 1.1Z"/>
<path id="path16_fill" fill-rule="evenodd" d="M 33.672 24.2065C 37.872 22.9065 40.172 18.4065 38.772 14.2065C 37.572 10.6065 34.172 8.40649 30.472 8.70654C 26.872 1.80652 18.772 -1.69348 11.172 0.806519C 2.672 3.50653 -1.92798 12.6065 0.771973 21.1065C 3.47198 29.6065 12.572 34.2065 21.072 31.5065C 24.872 30.3065 27.972 27.7065 29.872 24.5065C 31.272 24.6065 32.472 24.5065 33.672 24.2065ZM 36.672 14.9065C 37.672 17.9065 35.972 21.1065 32.972 22.1065C 32.372 22.3065 31.772 22.4065 31.072 22.4065C 32.472 19.0065 32.772 15.1065 31.572 11.3065C 31.572 11.2565 31.5471 11.2316 31.522 11.2065C 31.4971 11.1815 31.472 11.1566 31.472 11.1065C 33.772 11.0065 35.872 12.5065 36.672 14.9065ZM 11.972 2.90656C 4.77203 5.30652 0.671997 13.1066 3.07202 20.4066C 5.37201 27.7065 13.272 31.7065 20.572 29.3065C 27.772 26.9066 31.872 19.1066 29.472 11.8065C 27.072 4.60657 19.272 0.506531 11.972 2.90656Z"/>
<path id="path17_fill" fill-rule="evenodd" d="M 0.262451 6.67212C -0.637573 3.97217 0.862427 1.17212 3.4624 0.272156C 6.16241 -0.627869 8.9624 0.772156 9.86243 3.47217C 10.7625 6.17212 9.36243 8.97217 6.66241 9.87213C 3.9624 10.7722 1.16241 9.27216 0.262451 6.67212ZM 2.36243 5.87213C 2.76245 7.37213 4.36243 8.17212 5.86243 7.67212C 7.36243 7.27216 8.16241 5.67212 7.66241 4.17212C 7.26245 2.67212 5.66241 1.97211 4.16241 2.37213C 2.66241 2.77216 1.86243 4.37213 2.36243 5.87213Z"/>
<path id="path18_fill" fill-rule="evenodd" d="M 0.522522 13.6226C -1.27747 8.12256 1.72253 2.32251 7.22253 0.522522C 12.7225 -1.27747 18.6226 1.72253 20.3225 7.22253C 22.1226 12.7225 19.1226 18.5225 13.6226 20.3225C 8.12256 22.1226 2.32251 19.1226 0.522522 13.6226ZM 2.72253 12.8226C 4.12256 17.1226 8.72253 19.5225 13.0226 18.1226C 17.2225 16.8226 19.6226 12.1226 18.3226 7.82257C 16.9225 3.52252 12.3226 1.12256 8.02258 2.52252C 3.72253 3.92255 1.32257 8.52252 2.72253 12.8226Z"/>
<path id="path19_fill" d="M 1.8902 0.213844C -0.609796 3.11384 0.0902038 7.61384 0.0902038 7.81384C 0.190204 8.11384 0.390204 8.31384 0.690204 8.31384L 0.790204 8.31384C 1.0902 8.21384 1.1902 8.01384 1.1902 7.71384C 1.1902 7.71384 0.490204 3.51384 2.6902 1.11384C 2.8902 0.913844 2.8902 0.513844 2.5902 0.313844C 2.4902 -0.0861561 2.0902 -0.0861561 1.8902 0.213844Z"/>
<path id="path20_fill" d="M 1.25 0.15C -0.75 2.05 0.25 6.25 0.25 6.35C 0.35 6.65 0.65 6.85 0.95 6.75C 1.25 6.65 1.35 6.35 1.35 6.05C 1.05 5.05 0.75 2.05 1.95 0.95C 2.15 0.75 2.15 0.35 1.95 0.15C 1.85 -0.05 1.45 -0.05 1.25 0.15Z"/>
<path id="path21_fill" d="M 1.0125 0.0392305C -0.1875 0.73923 0.0125 2.73923 0.0125 2.93923C 0.0125 3.23923 0.3125 3.43923 0.6125 3.43923L 0.7125 3.43923C 1.0125 3.33923 1.1125 3.13923 1.1125 2.83923C 1.0125 2.33923 1.1125 1.23923 1.5125 1.03923C 1.8125 0.83923 1.9125 0.53923 1.7125 0.23923C 1.7125 0.0392305 1.3125 -0.0607695 1.0125 0.0392305Z"/>
<path id="path22_fill" fill-rule="evenodd" d="M 7.20001 4.70001C 7.70001 5.29999 7.90002 6.09998 7.90002 6.90002C 7.90002 9.09998 6.09998 10.8 3.90002 10.8C 1.79999 10.8 0 9.09998 0 6.90002C 0 6.29999 0.200012 5.70001 0.5 5.09998C 0.599976 5.09998 0.599976 5 0.599976 5L 3.20001 0.5C 3.29999 0.200012 3.70001 0 4 0C 4.29999 0 4.59998 0.200012 4.79999 0.5L 7.20001 4.70001ZM 2 6.89996C 2 8 2.90002 8.89996 4 8.89996C 5.09998 8.89996 6 8 6.09998 6.89996C 6.09998 6.39996 5.90002 6 5.70001 5.70001L 4 2.79999L 2.29999 5.79999L 2.29999 5.89996C 2.09998 6.20001 2 6.5 2 6.89996Z"/>
<path id="path23_fill" fill-rule="evenodd" d="M 89.8 41.4L 84.5 3.20001C 84.4 2.70001 84 2.29999 83.6 2.29999C 70.8 0.799988 57.8 0 44.9 0C 32 0 19 0.799988 6.20001 2.29999C 5.70001 2.40002 5.29999 2.70001 5.29999 3.20001L 0 41.3C 0 41.6 0.0999756 42 0.299988 42.2C 0.5 42.4 0.900024 42.6 1.20001 42.5C 30.3 39.4 59.7 39.4 88.8 42.5C 89.1 42.5 89.5 42.4 89.7 42.2C 89.7 42.1278 89.7261 42.0426 89.7546 41.9491C 89.8053 41.7834 89.8639 41.5917 89.8 41.4ZM 86.6 40.2C 79 39.4 71.3 38.9 63.7 38.5L 59.5 38.3L 70.2 35.2L 78.8 35.2C 79.4 35.2 79.9 34.8 79.9 34.2C 79.9 33.6 79.4 33.2 78.8 33.2L 53.7 33.2C 53.1 33.2 52.6 33.6 52.6 34.2C 52.6 34.8 53.1 35.2 53.7 35.2L 62.5 35.2L 52.4 38.2L 52.3 38.2C 43.5 38 34.7 38.2 25.9 38.6L 20.1 38.9L 32.4 35.2L 41 35.2C 41.6 35.2 42.1 34.8 42.1 34.2C 42.1 33.6 41.6 33.2 41 33.2L 15.9 33.2C 15.3 33.2 14.8 33.6 14.8 34.2C 14.8 34.8 15.3 35.2 15.9 35.2L 24.6 35.2L 9.5 39.6C 8.40234 39.6998 7.32959 39.7996 6.25684 39.8994L 6.24896 39.9001C 5.17432 40.0001 4.09961 40.1 3 40.2L 2.09998 40.3L 7.09998 4.29999L 7.59998 4.20001C 12.2 3.70001 17 3.20001 21.7 2.90002L 22.9 2.79999L 20.2 8.29999L 11.1 11.2C 10.8 11.3 10.6 11.5 10.5 11.7C 10.4879 11.7363 10.4758 11.7712 10.4641 11.8049L 10.4617 11.8115C 10.3775 12.0533 10.3129 12.2387 10.4 12.5C 10.6 13.1 11.2 13.4 11.8 13.2L 19 10.9L 15.9 17.3C 15.8 17.6 15.8 17.9 15.9 18.2C 16 18.5 16.3 18.7 16.6 18.8L 21.3 19.9L 16.9 24.7C 16.7 24.9 16.6 25.2 16.6 25.5C 16.6 25.8 16.7 26.1 17 26.2C 17.4 26.6 18.1 26.5 18.5 26.1L 24.1 19.9C 24.4 19.6 24.4 19.2 24.3 18.9C 24.2 18.5 23.9 18.3 23.5 18.2L 18.3 17L 25.3 2.59998L 25.7 2.59998C 31.4 2.29999 37 2.09998 42.7 2L 43.2 2L 43.2 7.20001L 36.4 7.20001C 35.2 7.20001 34.2 7.79999 34.2 9L 34.2 12.4C 34.2 13.6 35.2 14.2 36.4 14.2L 52.9 14.2C 54.1 14.2 55.2 13.6 55.2 12.4L 55.2 9C 55.2 7.79999 54.1 7.20001 52.9 7.20001L 46.4 7.20001L 46.4 2.09998L 46.9 2.09998C 58.7 2.20001 70.4 2.90002 82.1 4.20001L 82.6 4.29999L 87.6 40.3L 86.6 40.2ZM 53.4 12.2L 53.4 9.20001L 36.4 9.20001L 36.4 12.2L 53.4 12.2Z"/>
<path id="path24_fill" fill-rule="evenodd" d="M 11.2 4.79999L 15.6 7.20001C 15.9 7.29999 16.1 7.59998 16 8C 16 8.40002 15.9 8.59998 15.6 8.79999L 11.2 11.2L 8.79999 15.6C 8.59998 15.8 8.29999 16 8 16C 7.59998 16 7.40002 15.9 7.20001 15.6L 4.79999 11.2L 0.400024 8.79999C 0.200012 8.59998 0 8.29999 0 8C 0 7.59998 0.0999756 7.40002 0.400024 7.20001L 4.79999 4.79999L 7.20001 0.400024C 7.40002 0.200012 7.70001 0 8 0C 8.40002 0 8.59998 0.0999756 8.79999 0.400024L 11.2 4.79999ZM 10.0778 9.79999C 10.1222 9.76666 10.1667 9.73328 10.2 9.69995L 13.4 7.89996L 10.2 6.09998C 10.1334 6.09998 10.0667 6.01111 10.0001 5.92224C 9.96667 5.87781 9.93335 5.83331 9.89996 5.79999L 8.09998 2.59998L 6.29999 5.79999C 6.29999 5.86664 6.21106 5.93335 6.12219 6C 6.07776 6.03333 6.03333 6.06665 6 6.09998L 2.79999 7.89996L 6 9.69995C 6.06665 9.69995 6.13336 9.78888 6.20007 9.87781C 6.23334 9.92224 6.26666 9.96667 6.29999 10L 8.09998 13.2L 9.89996 10C 9.89996 9.93329 9.98883 9.86664 10.0778 9.79999Z"/>
<path id="path25_fill" fill-rule="evenodd" d="M 7.20001 15.7C 7.40002 16 7.70001 16.2 8.09998 16.2C 8.5 16.2 8.79999 16 9 15.7L 11.4 11.4L 15.7 9C 16 8.79999 16.2 8.5 16.2 8.09998C 16.2 7.70001 16 7.40002 15.7 7.20001L 11.4 4.79999L 9 0.5C 8.79999 0.200012 8.5 0 8.09998 0C 7.70001 0 7.40002 0.200012 7.20001 0.5L 4.79999 4.79999L 0.5 7.20001C 0.200012 7.40002 0 7.70001 0 8.09998C 0 8.5 0.200012 8.79999 0.5 9L 4.79999 11.4L 7.20001 15.7ZM 7.5 0.700012C 7.59998 0.399963 7.79999 0.299988 8.09998 0.299988C 8.39996 0.299988 8.70001 0.399963 8.70001 0.700012L 11.1 5.09998L 15.5 7.5C 15.8 7.59998 15.9 7.89996 15.9 8.09998C 15.9 8.29999 15.7 8.59998 15.5 8.70001L 11.1 11.1L 8.70001 15.5C 8.59998 15.8 8.39996 15.9 8.09998 15.9C 7.89996 15.9 7.59998 15.7 7.5 15.5L 5.09998 11.1L 0.700012 8.70001C 0.399963 8.59998 0.299988 8.29999 0.299988 8.09998C 0.299988 7.89996 0.5 7.59998 0.700012 7.5L 5.09998 5.09998L 7.5 0.700012ZM 8.09998 13.7L 6.20001 10.3L 5.90002 10L 2.5 8.09998L 5.90002 6.20001L 6.20001 5.90002L 8.09998 2.5L 10 5.90002L 10.3 6.20001L 13.7 8.09998L 10.3 10L 10 10.3L 8.09998 13.7ZM 6.09998 9.69995L 3.09998 8.09998L 6.09998 6.5C 6.29999 6.39996 6.39996 6.29999 6.5 6.09998L 8.09998 3.09998L 9.69995 6.09998C 9.79999 6.29999 9.89996 6.39996 10.1 6.5L 13.1 8.09998L 10.1 9.69995C 9.89996 9.79999 9.79999 9.89996 9.69995 10.1L 8.09998 13.1L 6.5 10.1C 6.39996 9.89996 6.29999 9.79999 6.09998 9.69995Z"/>
<path id="path26_fill" fill-rule="evenodd" d="M 8.90002 3.70001L 12.2 5.5C 12.5 5.70001 12.6 6 12.6 6.29999C 12.6 6.70001 12.5 6.90002 12.2 7.09998L 8.90002 8.90002L 7.09998 12.2C 6.90002 12.4 6.59998 12.6 6.29999 12.6C 5.90002 12.6 5.70001 12.5 5.5 12.2L 3.70001 8.90002L 0.400024 7.09998C 0.200012 6.90002 0 6.70001 0 6.29999C 0 5.90002 0.0999756 5.70001 0.400024 5.5L 3.70001 3.70001L 5.5 0.400024C 5.70001 0.200012 6 0 6.29999 0C 6.70001 0 6.90002 0.0999756 7.09998 0.400024L 8.90002 3.70001ZM 7.67786 7.59991C 7.72223 7.56659 7.76666 7.53333 7.79999 7.5L 10 6.29999L 7.79999 5.09998C 7.73328 5.09998 7.66663 5.01105 7.59998 4.92218C 7.56665 4.87775 7.53333 4.83331 7.5 4.79999L 6.29999 2.59998L 5.09998 4.79999C 5.09998 4.86664 5.01105 4.93335 4.92218 5C 4.87775 5.03333 4.83331 5.06665 4.79999 5.09998L 2.59998 6.29999L 4.79999 7.5C 4.86664 7.5 4.93335 7.58893 5.00006 7.67786C 5.03339 7.72223 5.06665 7.76666 5.09998 7.79999L 6.29999 10L 7.5 7.79999C 7.5 7.73328 7.58893 7.66656 7.67786 7.59991Z"/>
<path id="path27_fill" fill-rule="evenodd" d="M 5.59998 12.5C 5.79999 12.8 6.09998 13 6.5 13C 6.90002 13 7.20001 12.8 7.40002 12.5L 9.20001 9.20001L 12.5 7.40002C 12.8 7.20001 13 6.90002 13 6.5C 13 6.09998 12.8 5.79999 12.5 5.59998L 9.20001 3.79999L 7.40002 0.5C 7.20001 0.200012 6.90002 0 6.5 0C 6.09998 0 5.79999 0.200012 5.59998 0.5L 3.79999 3.79999L 0.5 5.59998C 0.200012 5.79999 0 6.09998 0 6.5C 0 6.90002 0.200012 7.20001 0.5 7.40002L 3.79999 9.20001L 5.59998 12.5ZM 5.89996 0.800049C 6 0.5 6.20001 0.400024 6.5 0.400024C 6.79999 0.400024 7 0.5 7.09998 0.800049L 8.89996 4.20001L 12.3 6C 12.6 6.10004 12.7 6.40002 12.7 6.60004C 12.7 6.80005 12.5 7.10004 12.3 7.20001L 8.89996 9L 7.09998 12.4C 7 12.7 6.79999 12.8 6.5 12.8C 6.29999 12.8 6 12.6 5.89996 12.4L 4.09998 9L 0.700012 7.20001C 0.399963 7.10004 0.299988 6.80005 0.299988 6.60004C 0.299988 6.40002 0.5 6.10004 0.700012 6L 4.09998 4.20001L 5.89996 0.800049ZM 6.5 10.5L 5.20001 8.09998L 4.90002 7.79999L 2.5 6.5L 4.90002 5.20001L 5.20001 4.90002L 6.5 2.5L 7.79999 4.90002L 8.09998 5.20001L 10.5 6.5L 8.09998 7.79999L 7.79999 8.09998L 6.5 10.5ZM 5.09998 7.69995L 3.09998 6.59998L 5.09998 5.5C 5.29999 5.39996 5.39996 5.29999 5.5 5.09998L 6.59998 3.09998L 7.69995 5.09998C 7.79999 5.29999 7.89996 5.39996 8.09998 5.5L 10.1 6.59998L 8.09998 7.69995C 7.89996 7.79999 7.79999 7.89996 7.69995 8.09998L 6.59998 10.1L 5.5 8.09998C 5.39996 7.89996 5.29999 7.79999 5.09998 7.69995Z"/>
<path id="path28_fill" fill-rule="evenodd" d="M 10.6 7.29999C 11.3 8.29999 11.6 9.40002 11.6 10.6C 11.6 13.8 9 16.4 5.79999 16.4C 2.59998 16.4 0 13.8 0 10.6C 0 9.59998 0.200012 8.70001 0.700012 7.79999C 0.799988 7.79999 0.799988 7.70001 0.799988 7.70001L 4.90002 0.5C 5.09998 0.200012 5.40002 0 5.79999 0C 6.20001 0 6.5 0.200012 6.70001 0.5L 10.6 7.20001L 10.6 7.29999ZM 2.09998 10.6C 2.09998 12.6 3.79999 14.3 5.79999 14.3C 7.79999 14.3 9.39996 12.7 9.5 10.6C 9.5 9.79999 9.29999 9.10004 8.79999 8.40002L 5.79999 3.20001L 2.69995 8.60004L 2.59998 8.79999C 2.29999 9.29999 2.09998 10 2.09998 10.6Z"/>
<path id="path29_fill" fill-rule="evenodd" d="M 28.4 12.3C 29.2 12.6 31.2 13.8 31.5 14C 31.8 14.2 32 14.6 32 14.9L 32 17.1C 32 17.5 31.8 17.8 31.5 18C 31.3744 18.0628 31.1009 18.2242 30.76 18.4254C 30.0153 18.8649 28.9489 19.4942 28.4 19.7L 27.4 22.1C 27.5989 22.6305 27.8858 23.8204 28.0856 24.6495C 28.1872 25.0708 28.2663 25.3989 28.3 25.5C 28.4 25.9 28.3 26.2 28 26.5L 26.5 28C 26.2 28.3 25.9 28.4 25.5 28.3C 25.1 28.3 22.9 27.7 22.1 27.4L 19.7 28.4C 19.4 29.2 18.2 31.2 18 31.5C 17.8 31.8 17.5 32 17.1 32L 14.9 32C 14.5 32 14.2 31.8 14 31.5C 13.9372 31.3744 13.7758 31.1009 13.5746 30.76C 13.1351 30.0153 12.5058 28.9489 12.3 28.4L 9.90002 27.4C 9.36951 27.5989 8.17957 27.8858 7.35046 28.0856C 6.9292 28.1872 6.60107 28.2663 6.5 28.3C 6.09998 28.4 5.79999 28.3 5.5 28L 4 26.5C 3.70001 26.2 3.59998 25.9 3.70001 25.5C 3.70001 25.1 4.29999 22.9 4.59998 22.1L 3.59998 19.7C 2.79999 19.4 0.799988 18.2 0.5 18C 0.200012 17.8 0 17.5 0 17.1L 0 14.9C 0 14.5 0.200012 14.2 0.5 14C 0.62561 13.9372 0.899109 13.7758 1.23999 13.5746C 1.98474 13.1351 3.05115 12.5058 3.59998 12.3L 4.59998 9.90002C 4.40106 9.36951 4.1142 8.17957 3.91437 7.35046C 3.81281 6.9292 3.7337 6.60107 3.70001 6.5C 3.59998 6.09998 3.70001 5.79999 4 5.5L 5.5 4C 5.79999 3.70001 6.09998 3.59998 6.5 3.70001C 6.90002 3.70001 9.09998 4.29999 9.90002 4.59998L 12.3 3.59998C 12.6 2.79999 13.8 0.799988 14 0.5C 14.2 0.200012 14.5 0 14.9 0L 17.1 0C 17.5 0 17.8 0.200012 18 0.5C 18.0628 0.62561 18.2242 0.899109 18.4254 1.23999C 18.8649 1.98474 19.4942 3.05115 19.7 3.59998L 22.1 4.59998C 22.6305 4.40106 23.8204 4.1142 24.6495 3.91437C 25.0708 3.81281 25.3989 3.7337 25.5 3.70001C 25.9 3.59998 26.2 3.70001 26.5 4L 28 5.5C 28.3 5.79999 28.4 6.09998 28.3 6.5C 28.3 6.90002 27.7 9.09998 27.4 9.90002L 28.4 12.3ZM 28.7767 17.1298C 29.1627 16.9036 29.5662 16.6669 29.9 16.5L 29.9 15.5C 29.4315 15.2657 28.8257 14.9285 28.3238 14.6492C 27.9688 14.4515 27.6657 14.2829 27.5 14.2C 27.2 14.2 26.8 13.9 26.7 13.6L 25.4 10.4C 25.2 10.1 25.3 9.70001 25.5 9.40002C 25.7 9 26.1 7.59998 26.3 6.79999L 25.6 6.09998C 25.2117 6.24561 24.682 6.39124 24.194 6.52545C 23.6765 6.66772 23.2059 6.79712 23 6.90002C 22.7 7.09998 22.3 7.09998 22 7L 18.8 5.70001C 18.5 5.59998 18.3 5.29999 18.2 4.90002C 18.1418 4.66693 17.8458 4.16223 17.5298 3.62335C 17.3036 3.23737 17.067 2.83386 16.9 2.5L 15.9 2.5C 15.6657 2.96857 15.3286 3.57434 15.0492 4.07623C 14.8516 4.43127 14.6829 4.73431 14.6 4.90002C 14.6 5.20001 14.3 5.59998 14 5.70001L 10.8 7C 10.5 7.20001 10.1 7.09998 9.80005 6.90002C 9.40002 6.70001 8 6.29999 7.20001 6.09998L 6.5 6.79999C 6.64563 7.18829 6.79126 7.71802 6.92548 8.20605C 7.06775 8.72351 7.19714 9.19415 7.30005 9.40002C 7.5 9.70001 7.5 10.1 7.40002 10.4L 6.10004 13.6C 6 13.9 5.70001 14.1 5.30005 14.2C 5.06696 14.2582 4.56226 14.5542 4.02338 14.8702C 3.63739 15.0964 3.23389 15.3331 2.90002 15.5L 2.90002 16.5C 3.36859 16.7343 3.97437 17.0715 4.47626 17.3508C 4.8313 17.5485 5.13434 17.7171 5.30005 17.8C 5.60004 17.8 6 18.1 6.10004 18.4L 7.40002 21.6C 7.60004 21.9 7.5 22.3 7.30005 22.6C 7.10004 23 6.70001 24.4 6.5 25.2L 7.20001 25.9C 7.58832 25.7544 8.11804 25.6088 8.60608 25.4745C 9.12354 25.3323 9.59418 25.2029 9.80005 25.1C 10.1 24.9 10.5 24.9 10.8 25L 14 26.3C 14.3 26.4 14.5 26.7 14.6 27.1C 14.6583 27.3331 14.9542 27.8378 15.2702 28.3766C 15.4965 28.7626 15.7331 29.1661 15.9 29.5L 16.9 29.5C 17.1343 29.0314 17.4715 28.4257 17.7509 27.9238C 17.9485 27.5687 18.1171 27.2657 18.2 27.1C 18.2 26.8 18.5 26.4 18.8 26.3L 22 25C 22.3 24.8 22.7 24.9 23 25.1C 23.4 25.3 24.8 25.7 25.6 25.9L 26.3 25.2C 26.1544 24.8117 26.0088 24.282 25.8746 23.7939C 25.7323 23.2765 25.6029 22.8058 25.5 22.6C 25.3 22.3 25.3 21.9 25.4 21.6L 26.7 18.4C 26.8 18.1 27.1 17.9 27.5 17.8C 27.7331 17.7418 28.2378 17.4458 28.7767 17.1298Z"/>
<path id="path30_fill" fill-rule="evenodd" d="M 0 6.90002C 0 3.09998 3.09998 0 6.90002 0C 10.7 0 13.8 3.09998 13.8 6.90002C 13.8 10.7 10.7 13.8 6.90002 13.8C 3.09998 13.8 0 10.7 0 6.90002ZM 2.09998 6.89996C 2.09998 9.5 4.29999 11.7 6.89996 11.7C 9.59998 11.7 11.7 9.59998 11.7 6.89996C 11.7 4.29999 9.5 2.09998 6.89996 2.09998C 4.29999 2.09998 2.09998 4.29999 2.09998 6.89996Z"/>
<path id="path31_fill" fill-rule="evenodd" d="M 29.9154 10.7155C 31.5154 11.0154 32.5154 12.4154 32.3154 14.0154C 32.2155 14.7155 31.8154 15.3154 31.3154 15.7155C 31.6154 16.3154 31.8154 17.0154 31.7155 17.7155C 31.5154 19.0154 30.5154 20.0154 29.2155 20.1154C 29.2155 20.2525 29.2272 20.3779 29.2386 20.4995L 29.2386 20.4999C 29.2605 20.7331 29.2811 20.9527 29.2155 21.2155C 29.0154 22.5154 28.0154 23.5154 26.7155 23.6154C 26.7155 23.7525 26.7272 23.8779 26.7386 23.9995L 26.7386 23.9999C 26.7605 24.2331 26.7811 24.4527 26.7155 24.7155C 26.4154 26.3154 25.0154 27.3154 23.4154 27.1154L 17.7155 26.2155C 17.6654 26.2155 17.6404 26.1904 17.6154 26.1654C 17.5904 26.1404 17.5654 26.1154 17.5154 26.1154L 11.1154 23.4154C 10.5154 24.3154 9.41541 24.9154 8.21545 24.7155L 4.31543 24.1154C 3.81543 24.0154 3.41541 23.5154 3.51544 23.0154L 3.61542 22.1154L 0.81543 21.7155C 0.31543 21.6154 -0.0845947 21.1154 0.0154419 20.6154L 2.11542 7.31543C 2.21545 6.81543 2.71545 6.41541 3.21545 6.51544C 3.41455 6.56525 5.67023 6.91229 7.93506 7.26074L 7.96313 7.26508C 10.2389 7.61517 12.5154 7.96539 12.7155 8.01544C 12.8113 8.00177 12.9595 7.98242 13.149 7.95776C 14.3436 7.80219 17.1755 7.43329 18.8154 6.91541C 20.5154 6.41541 22.3154 3.11542 22.7155 0.81543C 22.8154 0.31543 23.3154 -0.0845947 23.8154 0.0154419C 25.1154 0.215454 26.2155 1.01544 26.9154 2.11542C 27.6154 3.21545 27.8154 4.51544 27.4154 5.81543C 27.0154 7.01544 26.4154 8.71545 25.7155 10.0154L 29.9154 10.7155ZM 2.11542 20.0154L 4.01544 20.3154L 5.81543 8.91541L 3.91541 8.61542L 2.11542 20.0154ZM 9.71539 22.1154C 9.61542 22.6154 9.11542 23.0154 8.61542 22.9154L 5.61542 22.4154L 7.71539 9.11542L 11.6154 9.71539L 9.71539 22.1154ZM 29.0154 16.4154L 23.3154 15.5154C 22.8154 15.4154 22.2154 15.0154 22.3154 14.5154C 22.4154 14.0154 22.9154 13.6154 23.4154 13.7155L 29.1154 14.6154C 29.6154 14.7155 30.1154 14.3154 30.2154 13.8154C 30.3154 13.3154 29.9154 12.8154 29.4154 12.7155L 23.7154 11.8154C 23.4154 11.7155 23.1154 11.5154 23.0154 11.2155C 22.9154 10.9154 22.9154 10.6154 23.1154 10.3154C 23.7154 9.41541 24.5154 8.21545 25.4154 5.31543C 25.6154 4.61542 25.5154 3.81543 25.1154 3.21545C 24.9154 2.81543 24.6154 2.51544 24.2154 2.31543C 23.5154 4.81543 21.7154 8.01544 19.3154 8.81543C 17.8275 9.25305 15.4203 9.61407 13.9712 9.83142C 13.7646 9.86243 13.5776 9.89044 13.4154 9.91541L 11.6154 21.7155L 18.1154 24.4154L 23.7154 25.3154C 24.2154 25.4154 24.7154 25.0154 24.8154 24.5154C 24.9154 24.0154 24.5154 23.5154 24.0154 23.4154L 22.1154 23.1154C 21.6154 23.0154 21.2154 22.5154 21.3154 22.0154C 21.4154 21.5154 21.9154 21.1154 22.4154 21.2155C 22.6154 21.2654 23.4653 21.3904 24.3153 21.5154C 25.1653 21.6404 26.0154 21.7654 26.2154 21.8154C 26.7154 21.9154 27.2154 21.5154 27.3154 21.0154C 27.4154 20.5154 27.0154 20.0154 26.5154 19.9154L 22.7154 19.3154C 22.2154 19.2155 21.8154 18.7155 21.9154 18.2155C 22.0154 17.7155 22.5154 17.3154 23.0154 17.4154C 23.6154 17.5154 28.0154 18.2155 28.7154 18.3154C 29.2154 18.4154 29.7154 18.0154 29.8154 17.5154C 29.9154 17.0154 29.5154 16.5154 29.0154 16.4154Z"/>
<path id="path32_fill" d="M 1.41543 0.0154261C 0.915426 -0.0845739 0.415426 0.315426 0.315426 0.815426L 0.0154261 2.81543C -0.0845739 3.31543 0.315426 3.81543 0.815426 3.91543C 1.31543 4.01543 1.81543 3.61543 1.91543 3.11543L 2.21543 1.11543C 2.31543 0.615426 1.91543 0.115426 1.41543 0.0154261Z"/>
<path id="path33_fill" d="M 2.77443 1.97443L 1.67443 0.374433C 1.37443 -0.0255667 0.774433 -0.125567 0.374433 0.174433C -0.0255667 0.474433 -0.125567 1.07443 0.174433 1.47443L 1.27443 3.07443C 1.57443 3.47443 2.17443 3.57443 2.57443 3.27443C 2.97443 2.97443 3.07443 2.37443 2.77443 1.97443Z"/>
<path id="path34_fill" d="M 3.01543 0.315426L 1.11543 0.0154261C 0.615426 -0.0845739 0.115426 0.315426 0.0154261 0.815426C -0.0845739 1.31543 0.315426 1.81543 0.815426 1.91543L 2.71543 2.21543C 3.21543 2.31543 3.71543 1.91543 3.81543 1.41543C 3.91543 0.815426 3.61543 0.315426 3.01543 0.315426Z"/>
<path id="path35_fill" d="M 3.01543 0.315426L 1.11543 0.0154261C 0.615426 -0.0845739 0.115426 0.315426 0.0154261 0.815426C -0.0845739 1.31543 0.315426 1.81543 0.815426 1.91543L 2.71543 2.21543C 3.21543 2.31543 3.71543 1.91543 3.81543 1.41543C 3.91543 0.915426 3.61543 0.415426 3.01543 0.315426Z"/>
<path id="path36_fill" d="M 3.27443 0.374433C 2.97443 -0.0255667 2.37443 -0.125567 1.97443 0.174433L 0.374433 1.27443C -0.0255667 1.57443 -0.125567 2.17443 0.174433 2.57443C 0.474433 2.97443 1.07443 3.07443 1.47443 2.77443L 3.07443 1.67443C 3.57443 1.47443 3.67443 0.774433 3.27443 0.374433Z"/>
<path id="path37_fill" fill-rule="evenodd" d="M 8.20001 5.40002C 8.5 6 8.70001 6.70001 8.70001 7.40002C 8.70001 9.79999 6.70001 11.7 4.29999 11.7C 1.90002 11.7 0 9.79999 0 7.40002C 0 6.59998 0.200012 5.70001 0.700012 5L 3.29999 0.5C 3.5 0.200012 3.90002 0 4.29999 0C 4.70001 0 5.09998 0.200012 5.29999 0.5L 8.09998 5.29999C 8.14996 5.29999 8.17499 5.29999 8.1875 5.3125C 8.20001 5.32501 8.20001 5.34998 8.20001 5.40002ZM 2.29999 7.40002C 2.29999 8.60004 3.20001 9.5 4.39996 9.5C 5.5 9.5 6.5 8.60004 6.70001 7.40002C 6.70001 7.10004 6.59998 6.70001 6.39996 6.40002C 6.29999 6.40002 6.29999 6.29999 6.29999 6.29999L 4.5 3.20001L 2.79999 6.10004C 2.70001 6.10004 2.70001 6.20001 2.70001 6.20001C 2.39996 6.60004 2.29999 7 2.29999 7.40002Z"/>
<path id="path38_fill" fill-rule="evenodd" d="M 9.79999 6.59998C 10.2 7.40002 10.4 8.20001 10.4 9C 10.4 11.8 8.09998 14.1 5.09998 14.2C 2.29999 14.2 0 11.9 0 9.09998C 0 8.09998 0.299988 7.09998 0.900024 6.20001L 4.20001 0.5C 4.40002 0.200012 4.79999 0 5.20001 0C 5.59998 0 6 0.200012 6.20001 0.5L 9.70001 6.5C 9.75 6.5 9.77502 6.5 9.78748 6.51251C 9.79999 6.52496 9.79999 6.54999 9.79999 6.59998ZM 2.40002 9C 2.40002 10.6 3.70001 11.9 5.30005 11.9C 6.90002 11.9 8.20001 10.6 8.30005 8.89996C 8.30005 8.39996 8.10004 7.89996 7.90002 7.5C 7.80005 7.5 7.80005 7.39996 7.80005 7.39996L 5.30005 3.09998L 2.90002 7.19995L 2.90002 7.29999C 2.60004 7.79999 2.40002 8.39996 2.40002 9Z"/>
<path id="path39_fill" fill-rule="evenodd" d="M 12.8 9.20001C 13.3 10.2 13.6 11.3 13.6 12.4C 13.6 16.1 10.6 19.2 6.79999 19.2C 3 19.2 0 16.1 0 12.4C 0 11 0.400024 9.70001 1.20001 8.59998L 5.79999 0.5C 6 0.200012 6.40002 0 6.79999 0C 7.20001 0 7.59998 0.200012 7.79999 0.5L 12.7 9C 12.7 9.04999 12.725 9.07495 12.75 9.09998C 12.775 9.125 12.8 9.14996 12.8 9.20001ZM 2.29999 12.4C 2.29999 15 4.39996 17 6.89996 17C 9.39996 17 11.4 14.9 11.4 12.3C 11.4 11.6 11.2 10.8 10.8 10.1C 10.75 10.1 10.725 10.1 10.7125 10.0875C 10.7 10.075 10.7 10.05 10.7 10L 6.79999 3.29999L 3.09998 9.70001L 3.09998 9.79999C 2.59998 10.6 2.29999 11.5 2.29999 12.4Z"/>
<path id="path40_fill" fill-rule="evenodd" d="M 17.3 7.70001L 24.6 11.7C 24.9 11.9 25.1 12.1 25 12.5C 25 12.9 24.9 13.1 24.6 13.3L 17.3 17.3L 13.3 24.6C 13.1 24.8 12.8 25 12.5 25C 12.1 25 11.9 24.9 11.7 24.6L 7.70001 17.3L 0.400024 13.3C 0.200012 13.1 0 12.8 0 12.5C 0 12.1 0.0999756 11.9 0.400024 11.7L 7.70001 7.70001L 11.7 0.400024C 11.9 0.200012 12.1 0 12.5 0C 12.9 0 13.1 0.0999756 13.3 0.400024L 17.3 7.70001ZM 16.1778 15.9C 16.2222 15.8666 16.2667 15.8333 16.3 15.8L 22.4 12.5L 16.3 9.20001C 16.2333 9.20001 16.1666 9.11108 16.0999 9.02216C 16.0667 8.97772 16.0333 8.93329 16 8.89996L 12.7 2.79999L 9.40002 8.89996C 9.40002 8.96667 9.31116 9.03333 9.22223 9.09998C 9.1778 9.1333 9.1333 9.16669 9.09998 9.20001L 3 12.5L 9.09998 15.8C 9.16663 15.8 9.23328 15.8889 9.29993 15.9777C 9.33331 16.0222 9.36664 16.0667 9.40002 16.1L 12.7 22.2L 16 16.1C 16 16.0333 16.0889 15.9666 16.1778 15.9Z"/>
<path id="path41_fill" fill-rule="evenodd" d="M 11.7 24.8C 11.9 25.2 12.3 25.4 12.7 25.4C 13.1 25.4 13.5 25.1 13.7 24.8L 17.6 17.6L 24.8 13.7C 25.2 13.5 25.4 13.1 25.4 12.7C 25.4 12.3 25.2 11.9 24.8 11.7L 17.6 7.79999L 13.7 0.599976C 13.5 0.200012 13.1 0 12.7 0C 12.3 0 11.9 0.200012 11.7 0.599976L 7.79999 7.79999L 0.599976 11.7C 0.200012 11.9 0 12.3 0 12.7C 0 13.1 0.200012 13.5 0.599976 13.7L 7.79999 17.6L 11.7 24.8ZM 12.2 0.700012C 12.3 0.5 12.5 0.400024 12.7 0.400024C 12.8333 0.400024 12.9666 0.488892 13.0999 0.577759C 13.1666 0.622253 13.2333 0.666687 13.3 0.700012L 17.3 8L 24.6 12C 24.8 12.1 24.9 12.3 24.9 12.5C 24.9 12.7 24.8 12.9 24.6 13L 17.3 17L 13.3 24.3C 13.1 24.7 12.4 24.7 12.2 24.3L 8.19995 17L 0.899963 13C 0.699951 12.9 0.599976 12.7 0.599976 12.5C 0.599976 12.3 0.699951 12.1 0.899963 12L 8.19995 8L 12.2 0.700012ZM 12.7 23L 9.10004 16.5C 9.06201 16.462 9.03839 16.4239 9.01825 16.3914L 9.01801 16.391C 8.98541 16.3382 8.96179 16.3 8.90002 16.3L 2.40002 12.7L 8.90002 9.10004C 8.93823 9.06183 8.97644 9.03821 9.00909 9.01801C 9.06183 8.98541 9.10004 8.96179 9.10004 8.90002L 12.7 2.40002L 16.3 8.90002C 16.338 8.93793 16.3615 8.97583 16.3815 9.00824L 16.382 9.00903C 16.4146 9.06183 16.4382 9.10004 16.5 9.10004L 23 12.7L 16.5 16.3C 16.4618 16.3383 16.4236 16.3618 16.391 16.382C 16.3383 16.4146 16.3 16.4382 16.3 16.5L 12.7 23ZM 9.10004 15.8L 3.40002 12.7L 9.10004 9.59998C 9.13031 9.5697 9.16974 9.53943 9.21283 9.50641C 9.31195 9.4303 9.4303 9.33948 9.5 9.20001L 12.6 3.5L 15.7 9.20001C 15.7303 9.23029 15.7606 9.26978 15.7937 9.31287C 15.8698 9.41199 15.9606 9.53027 16.1 9.59998L 21.8 12.7L 16.1 15.8C 16.0698 15.8303 16.0303 15.8606 15.9872 15.8936C 15.8881 15.9697 15.7698 16.0605 15.7 16.2L 12.6 21.9L 9.5 16.2C 9.46973 16.1697 9.43951 16.1303 9.40649 16.0873C 9.33038 15.9881 9.2395 15.8698 9.10004 15.8Z"/>
<path id="path42_fill" fill-rule="evenodd" d="M 11.2 4.79999L 15.6 7.20001C 15.9 7.40002 16.1 7.70001 16 8C 16 8.40002 15.9 8.59998 15.6 8.79999L 11.2 11.2L 8.79999 15.6C 8.59998 15.8 8.29999 16 8 16C 7.59998 16 7.40002 15.9 7.20001 15.6L 4.79999 11.2L 0.400024 8.79999C 0.200012 8.59998 0 8.29999 0 8C 0 7.59998 0.0999756 7.40002 0.400024 7.20001L 4.79999 4.79999L 7.20001 0.400024C 7.40002 0.200012 7.70001 0 8 0C 8.40002 0 8.59998 0.0999756 8.79999 0.400024L 11.2 4.79999ZM 10.0778 9.79999C 10.1222 9.76666 10.1667 9.73328 10.2 9.69995L 13.4 7.89996L 10.2 6.09998C 10.1334 6.09998 10.0667 6.01111 10.0001 5.92224C 9.96667 5.87781 9.93335 5.83331 9.89996 5.79999L 8.09998 2.59998L 6.29999 5.79999C 6.29999 5.86664 6.21106 5.93335 6.12219 6C 6.07776 6.03333 6.03333 6.06665 6 6.09998L 2.79999 7.89996L 6 9.69995C 6.06665 9.69995 6.13336 9.78888 6.20007 9.87781C 6.23334 9.92224 6.26666 9.96667 6.29999 10L 8.09998 13.2L 9.89996 10C 9.89996 9.93329 9.98883 9.86664 10.0778 9.79999Z"/>
<path id="path43_fill" fill-rule="evenodd" d="M 7.20001 15.7C 7.40002 16 7.70001 16.2 8.09998 16.2C 8.5 16.2 8.79999 16 9 15.7L 11.4 11.4L 15.7 9C 16 8.79999 16.2 8.5 16.2 8.09998C 16.2 7.70001 16 7.40002 15.7 7.20001L 11.4 4.79999L 9 0.5C 8.79999 0.200012 8.5 0 8.09998 0C 7.70001 0 7.40002 0.200012 7.20001 0.5L 4.79999 4.79999L 0.5 7.20001C 0.200012 7.40002 0 7.70001 0 8.09998C 0 8.5 0.200012 8.79999 0.5 9L 4.79999 11.4L 7.20001 15.7ZM 7.5 0.700012C 7.59998 0.399963 7.79999 0.299988 8.09998 0.299988C 8.39996 0.299988 8.59998 0.5 8.70001 0.700012L 11.1 5.09998L 15.5 7.5C 15.8 7.59998 15.9 7.89996 15.9 8.09998C 15.9 8.29999 15.7 8.59998 15.5 8.70001L 11.1 11.1L 8.70001 15.5C 8.59998 15.8 8.29999 15.9 8.09998 15.9C 7.89996 15.9 7.59998 15.7 7.5 15.5L 5.09998 11.1L 0.700012 8.70001C 0.399963 8.59998 0.299988 8.29999 0.299988 8.09998C 0.299988 7.89996 0.5 7.59998 0.700012 7.5L 5.09998 5.09998L 7.5 0.700012ZM 8.09998 13.7L 6.20001 10.3L 5.90002 10L 2.5 8.09998L 5.90002 6.20001L 6.20001 5.90002L 8.09998 2.5L 10 5.90002L 10.3 6.20001L 13.7 8.09998L 10.3 10L 10 10.3L 8.09998 13.7ZM 6.09998 9.79999L 3.09998 8.20001L 6.09998 6.60004C 6.29999 6.5 6.39996 6.40002 6.5 6.20001L 8.09998 3.20001L 9.69995 6.20001C 9.79999 6.40002 9.89996 6.5 10.1 6.60004L 13.1 8.20001L 10.1 9.79999C 9.89996 9.90002 9.79999 10 9.69995 10.2L 8.09998 13.2L 6.5 10.2C 6.39996 10 6.29999 9.90002 6.09998 9.79999Z"/>
<path id="path44_fill" fill-rule="evenodd" d="M 8.90002 3.70001L 12.2 5.5C 12.4 5.70001 12.6 6 12.6 6.29999C 12.6 6.70001 12.5 6.90002 12.2 7.09998L 8.90002 8.90002L 7.09998 12.2C 6.90002 12.4 6.70001 12.6 6.29999 12.6C 5.90002 12.6 5.70001 12.5 5.5 12.2L 3.70001 8.90002L 0.400024 7.09998C 0.200012 6.90002 0 6.59998 0 6.29999C 0 5.90002 0.0999756 5.70001 0.400024 5.5L 3.70001 3.70001L 5.5 0.400024C 5.70001 0.200012 5.90002 0 6.29999 0C 6.70001 0 6.90002 0.0999756 7.09998 0.400024L 8.90002 3.70001ZM 7.67786 7.59991C 7.72223 7.56659 7.76666 7.53333 7.79999 7.5L 10 6.29999L 7.79999 5.09998C 7.73328 5.09998 7.66663 5.01105 7.59998 4.92218C 7.56665 4.87775 7.53333 4.83331 7.5 4.79999L 6.29999 2.59998L 5.09998 4.79999C 5.09998 4.86664 5.01105 4.93335 4.92218 5C 4.87775 5.03333 4.83331 5.06665 4.79999 5.09998L 2.59998 6.29999L 4.79999 7.5C 4.86664 7.5 4.93335 7.58893 5.00006 7.67786C 5.03339 7.72223 5.06665 7.76666 5.09998 7.79999L 6.29999 10L 7.5 7.79999C 7.5 7.73328 7.58893 7.66656 7.67786 7.59991Z"/>
<path id="path45_fill" fill-rule="evenodd" d="M 5.59998 12.5C 5.79999 12.8 6.09998 13 6.5 13C 6.79999 13 7.20001 12.8 7.40002 12.5L 9.20001 9.20001L 12.5 7.40002C 12.8 7.20001 13 6.90002 13 6.5C 13 6.09998 12.8 5.79999 12.5 5.59998L 9.20001 3.79999L 7.40002 0.5C 7.20001 0.200012 6.90002 0 6.5 0C 6.09998 0 5.79999 0.200012 5.59998 0.5L 3.79999 3.79999L 0.5 5.59998C 0.200012 5.79999 0 6.09998 0 6.5C 0 6.90002 0.200012 7.20001 0.5 7.40002L 3.79999 9.20001L 5.59998 12.5ZM 5.89996 0.700012C 6 0.399963 6.20001 0.299988 6.5 0.299988C 6.70001 0.299988 7 0.399963 7.09998 0.700012L 8.89996 4.09998L 12.3 5.89996C 12.6 6 12.7 6.29999 12.7 6.5C 12.7 6.70001 12.5 7 12.3 7.09998L 8.89996 8.89996L 7.09998 12.3C 7 12.6 6.79999 12.7 6.5 12.7C 6.29999 12.7 6 12.5 5.89996 12.3L 4.09998 8.89996L 0.700012 7.09998C 0.399963 7 0.299988 6.70001 0.299988 6.5C 0.299988 6.29999 0.5 6 0.700012 5.89996L 4.09998 4.09998L 5.89996 0.700012ZM 6.5 10.4L 5.20001 8L 4.90002 7.70001L 2.5 6.40002L 4.90002 5.10004L 5.20001 4.80005L 6.5 2.40002L 7.79999 4.80005L 8.09998 5.10004L 10.5 6.40002L 8.09998 7.70001L 7.79999 8L 6.5 10.4ZM 5 7.59998L 3 6.5L 5 5.40002C 5.20001 5.29999 5.29999 5.20001 5.40002 5L 6.5 3L 7.59998 5C 7.70001 5.20001 7.79999 5.29999 8 5.40002L 10 6.5L 8 7.59998C 7.79999 7.70001 7.70001 7.79999 7.59998 8L 6.5 10L 5.40002 8C 5.29999 7.79999 5.20001 7.70001 5 7.59998Z"/>
<path id="path46_fill" fill-rule="evenodd" d="M 7.59998 3.20001L 10.4 4.79999C 10.7 4.90002 10.8 5.20001 10.8 5.40002C 10.8 5.59998 10.6 5.90002 10.4 6L 7.59998 7.59998L 6 10.4C 5.90002 10.7 5.59998 10.8 5.40002 10.8C 5.20001 10.8 4.90002 10.6 4.79999 10.4L 3.20001 7.59998L 0.400024 6C 0.0999756 5.90002 0 5.70001 0 5.40002C 0 5.20001 0.200012 4.90002 0.400024 4.79999L 3.20001 3.20001L 4.79999 0.400024C 4.90002 0.0999756 5.20001 0 5.40002 0C 5.59998 0 5.90002 0.200012 6 0.400024L 7.59998 3.20001ZM 6.39996 6.80005L 6.70001 6.5L 8.5 5.5L 6.70001 4.5L 6.39996 4.20001L 5.39996 2.40002L 4.39996 4.20001L 4.09998 4.5L 2.29999 5.5L 4.09998 6.5L 4.39996 6.80005L 5.39996 8.60004L 6.39996 6.80005Z"/>
<path id="path47_fill" fill-rule="evenodd" d="M 4.70001 10.6C 4.90002 10.8 5.20001 11 5.5 11C 5.79999 11 6.09998 10.8 6.29999 10.6L 7.79999 7.79999L 10.6 6.29999C 10.8 6.09998 11 5.79999 11 5.5C 11 5.09998 10.9 4.90002 10.6 4.70001L 7.79999 3.20001L 6.29999 0.400024C 6.09998 0.200012 5.90002 0 5.5 0C 5.09998 0 4.90002 0.0999756 4.70001 0.400024L 3.20001 3.20001L 0.400024 4.70001C 0.200012 4.90002 0 5.09998 0 5.5C 0 5.90002 0.0999756 6.09998 0.400024 6.29999L 3.20001 7.79999L 4.70001 10.6ZM 5 0.5C 5.10004 0.299988 5.29999 0.200012 5.5 0.200012C 5.70001 0.200012 5.90002 0.299988 6 0.5L 7.60004 3.40002L 10.5 5C 10.7 5.10004 10.8 5.29999 10.8 5.5C 10.8 5.70001 10.7 5.90002 10.5 6L 7.60004 7.60004L 6 10.5C 5.90002 10.7 5.70001 10.8 5.5 10.8C 5.29999 10.8 5.10004 10.7 5 10.5L 3.40002 7.60004L 0.5 6C 0.299988 5.90002 0.200012 5.70001 0.200012 5.5C 0.200012 5.29999 0.299988 5.10004 0.5 5L 3.40002 3.40002L 5 0.5ZM 5.5 8.89996L 4.40002 6.89996C 4.362 6.86194 4.33838 6.82385 4.31824 6.79138L 4.31799 6.79095C 4.2854 6.73816 4.26178 6.70001 4.20001 6.70001L 2.20001 5.59998L 4.20001 4.5C 4.23822 4.46179 4.27643 4.43817 4.30908 4.41797C 4.36182 4.38538 4.40002 4.36176 4.40002 4.29999L 5.5 2.29999L 6.60004 4.29999C 6.63794 4.33789 6.66144 4.37579 6.68152 4.4082L 6.68201 4.409C 6.7146 4.46179 6.73822 4.5 6.79999 4.5L 8.79999 5.59998L 6.79999 6.70001C 6.76178 6.73822 6.72363 6.76178 6.69098 6.78198C 6.63824 6.81458 6.60004 6.8382 6.60004 6.89996L 5.5 8.89996ZM 4.19995 6.40002L 2.59998 5.5L 4.19995 4.60004C 4.26666 4.60004 4.33331 4.51117 4.39996 4.42224C 4.43329 4.37781 4.46667 4.33331 4.5 4.29999L 5.39996 2.70001L 6.29999 4.29999C 6.29999 4.36664 6.38885 4.43329 6.47772 4.49994C 6.52216 4.53333 6.56665 4.56665 6.59998 4.60004L 8.19995 5.5L 6.59998 6.40002C 6.53333 6.40002 6.46661 6.48895 6.39996 6.57782C 6.36664 6.62225 6.33331 6.66669 6.29999 6.70001L 5.39996 8.29999L 4.5 6.70001C 4.5 6.63336 4.41107 6.56665 4.32214 6.49994C 4.27771 6.46667 4.23328 6.43335 4.19995 6.40002Z"/>
<path id="path48_fill" fill-rule="evenodd" d="M 61 24.8L 61 10.9C 61 10.6 61 10.5 60.8 10.4L 49.9 0.0999756L 50 0L 49.8 0.0999756L 49.6 0.0999756L 49.2 0.0999756L 28.8 0.0999756L 28.5 0.0999756L 28.4 0.0999756L 28.3 0.0999756L 28.2 0.0999756L 17.4 10.1L 17.2 10.1L 1.5 10.1C 0.900024 10.1 0 10.5 0 11L 0 24.9C 0 25.4 0.900024 26.1 1.5 26.1L 6.59998 26.1L 6.79999 26.8C 7.5 29.8 10.2 31.9 13.3 31.9C 16.4 31.9 19.1 29.9 19.8 26.9L 20 26.2L 41.1 26.2L 41.3 26.9C 42 29.9 44.7 32 47.8 32C 50.9 32 53.6 30 54.3 27L 54.5 26.3L 60.2 26.3C 60.7 26 61 25.4 61 24.8ZM 45 3L 45 2L 48.8 2L 58 10L 56.7 10L 45 10L 45 3ZM 34 2L 34 3L 34 10L 42 10L 43 10L 43 2L 34 2ZM 29.2 2L 32 2L 32 10L 31 10L 21.4 10L 20 10L 29.2 2ZM 8.5 25C 8.5 27.7 10.7 29.8 13.3 29.8C 16 29.8 18.1 27.7 18.1 25C 18.1 22.3 16 20.2 13.3 20.2C 10.6 20.2 8.5 22.3 8.5 25ZM 47.9 29.8C 45.3 29.8 43.1 27.7 43.1 25C 43.1 22.3 45.2 20.2 47.9 20.2C 50.6 20.2 52.7 22.3 52.7 25C 52.7 27.7 50.5 29.8 47.9 29.8ZM 58 24L 59 24L 59 11.8L 2 11.8L 2 12.8L 2 23.8L 6.40002 23.8L 6.79999 23.8L 7 23C 7.90002 20.2 10.5 18.2 13.4 18.2C 16.3 18.2 19 20.2 19.8 23L 20 23.9L 20.3 23.9L 40.8 23.9L 41.2 23.9L 41.4 23.1C 42.3 20.3 44.9 18.3 47.8 18.3C 50.7 18.3 53.4 20.3 54.2 23.1L 54.4 24L 54.8 24L 58 24Z"/>
</defs>
</svg>
