<svg width="277" height="274" viewBox="0 0 277 274" version="1.1" xmlns="http://www.w3.org/2000/svg" xmlns:xlink="http://www.w3.org/1999/xlink">
<g id="Canvas" transform="translate(-427 -566)">
<g>
<g id="Fill 61">
<use xlink:href="#path0_fill" transform="translate(677 639)" fill="#3A3A3A" fill-opacity="0.86931"/>
</g>
<g id="Fill 62">
<use xlink:href="#path1_fill" transform="translate(556 745)" fill="#3A3A3A" fill-opacity="0.86931"/>
</g>
<g id="Fill 63">
<use xlink:href="#path2_fill" transform="translate(571 745)" fill="#3A3A3A" fill-opacity="0.86931"/>
</g>
<g id="Fill 64">
<use xlink:href="#path3_fill" transform="translate(571 731)" fill="#3A3A3A" fill-opacity="0.86931"/>
</g>
<g id="Fill 65">
<use xlink:href="#path4_fill" transform="translate(546 656)" fill="#3A3A3A" fill-opacity="0.86931"/>
</g>
<g id="Fill 66">
<use xlink:href="#path5_fill" transform="translate(604 566)" fill="#3A3A3A" fill-opacity="0.86931"/>
</g>
<g id="Fill 67">
<use xlink:href="#path6_fill" transform="translate(562 630)" fill="#3A3A3A" fill-opacity="0.86931"/>
</g>
<g id="Fill 68">
<use xlink:href="#path7_fill" transform="translate(524 793)" fill="#3A3A3A" fill-opacity="0.86931"/>
</g>
<g id="Fill 69">
<use xlink:href="#path8_fill" transform="translate(552 814)" fill="#3A3A3A" fill-opacity="0.86931"/>
</g>
<g id="Fill 70">
<use xlink:href="#path9_fill" transform="translate(516 766)" fill="#3A3A3A" fill-opacity="0.86931"/>
</g>
<g id="Fill 71">
<use xlink:href="#path10_fill" transform="translate(649 778)" fill="#3A3A3A" fill-opacity="0.86931"/>
</g>
<g id="Fill 72">
<use xlink:href="#path11_fill" transform="translate(677 763)" fill="#3A3A3A" fill-opacity="0.86931"/>
</g>
<g id="Fill 73">
<use xlink:href="#path12_fill" transform="translate(661 768)" fill="#3A3A3A" fill-opacity="0.86931"/>
</g>
<g id="Fill 74">
<use xlink:href="#path13_fill" transform="translate(534 605)" fill="#3A3A3A" fill-opacity="0.86931"/>
</g>
<g id="Fill 75">
<use xlink:href="#path14_fill" transform="translate(504 572)" fill="#3A3A3A" fill-opacity="0.86931"/>
</g>
<g id="Fill 76">
<use xlink:href="#path15_fill" transform="translate(496 815)" fill="#3A3A3A" fill-opacity="0.86931"/>
</g>
<g id="Fill 77">
<use xlink:href="#path16_fill" transform="translate(495 787)" fill="#3A3A3A" fill-opacity="0.86931"/>
</g>
<g id="Fill 78">
<use xlink:href="#path17_fill" transform="translate(431 712)" fill="#3A3A3A" fill-opacity="0.86931"/>
</g>
<g id="Fill 79">
<use xlink:href="#path18_fill" transform="translate(462.264 786.76)" fill="#F3B429"/>
</g>
<g id="Fill 81">
<use xlink:href="#path19_fill" transform="translate(528.722 687.361)" fill="#3A3A3A" fill-opacity="0.86931"/>
</g>
<g id="Fill 83">
<use xlink:href="#path20_fill" transform="translate(652 635)" fill="#3A3A3A" fill-opacity="0.86931"/>
</g>
<g id="Fill 84">
<use xlink:href="#path21_fill" transform="translate(677 729)" fill="#3A3A3A" fill-opacity="0.86931"/>
</g>
<g id="Fill 85">
<use xlink:href="#path22_fill" transform="translate(432 577)" fill="#3A3A3A" fill-opacity="0.86931"/>
</g>
<g id="Fill 86">
<use xlink:href="#path23_fill" transform="translate(461 622)" fill="#3A3A3A" fill-opacity="0.86931"/>
</g>
<g id="Fill 87">
<use xlink:href="#path24_fill" transform="translate(427 572)" fill="#3A3A3A" fill-opacity="0.86931"/>
</g>
<g id="Fill 88">
<use xlink:href="#path25_fill" transform="translate(438 582)" fill="#3A3A3A" fill-opacity="0.86931"/>
</g>
<g id="Fill 89">
<use xlink:href="#path26_fill" transform="translate(460 596)" fill="#3A3A3A" fill-opacity="0.86931"/>
</g>
</g>
</g>
<defs>
<path id="path0_fill" fill-rule="evenodd" d="M 2.27734 17.971L 17.9764 2.26288L 19.7254 4.01188L 4.02776 19.72L 2.27734 17.971ZM 0 17.971C 0 18.2215 0.101275 18.4582 0.28056 18.6402L 3.36398 21.7236C 3.54463 21.9028 3.78277 22 4.02774 22C 4.26998 22 4.50538 21.9028 4.69698 21.7236L 21.7071 4.69068C 21.9001 4.52372 22 4.27191 22 4.01188C 22 3.7587 21.9028 3.52194 21.7208 3.3454L 18.6442 0.264814C 18.2857 -0.0896385 17.6616 -0.0869014 17.3085 0.264814L 0.276454 17.3004C 0.101275 17.4824 0 17.7219 0 17.971Z"/>
<path id="path1_fill" fill-rule="evenodd" d="M 10.1577 1.83984L 10.1577 10.1574L 3.96117 10.1574L 2.07086 1.83984L 10.1577 1.83984ZM 11.0782 0L 0.912952 0C 0.638144 0 0.375341 0.129983 0.197917 0.348409C 0.0231599 0.570854 -0.0382051 0.853601 0.0231599 1.13367L 2.33235 11.2791C 2.43107 11.6945 2.80993 12 3.23415 12L 11.0782 12C 11.5865 12 12 11.5819 12 11.0673L 12 0.932663C 12 0.41809 11.5865 0 11.0782 0Z"/>
<path id="path2_fill" fill-rule="evenodd" d="M 1.95203 10.1574L 10.0452 10.1574L 10.0452 1.83984L 1.95203 1.83984L 1.95203 10.1574ZM 11.0226 0L 0.981676 0C 0.441187 0 0 0.41809 0 0.932663L 0 11.0673C 0 11.5819 0.441187 12 0.981676 12L 11.0226 12C 11.5645 12 12 11.5819 12 11.0673L 12 0.932663C 12 0.41809 11.5645 0 11.0226 0Z"/>
<path id="path3_fill" fill-rule="evenodd" d="M 1.95203 10.0767L 10.0452 10.0767L 10.0452 1.91772L 1.95203 1.91772L 1.95203 10.0767ZM 11.0226 0L 0.981676 0C 0.441187 0 0 0.429568 0 0.95258L 0 11.0391C 0 11.5704 0.441187 12 0.981676 12L 11.0226 12C 11.5645 12 12 11.5704 12 11.0391L 12 0.95258C 12 0.429568 11.5645 0 11.0226 0Z"/>
<path id="path4_fill" fill-rule="evenodd" d="M 2.22968 4.11006L 7.18234 2.14691C 7.24427 3.39451 6.55651 4.55893 5.4445 4.99856C 5.14014 5.11869 4.81602 5.17942 4.48532 5.17942C 3.63155 5.17942 2.79622 4.77544 2.22968 4.11006ZM 4.4682 7C 5.06241 7 5.6171 6.89438 6.1125 6.69239C 8.43665 5.76693 9.5961 3.03146 8.69358 0.595683C 8.60794 0.362007 8.4327 0.174538 8.21135 0.0808031C 7.98737 -0.0195325 7.74231 -0.0287739 7.50515 0.0662809L 0.576154 2.81231C 0.356123 2.89812 0.178254 3.07107 0.0662625 3.31663C -0.0246484 3.5503 -0.0220133 3.78926 0.0741678 4.01766C 0.840982 5.82766 2.56829 7 4.4682 7Z"/>
<path id="path5_fill" fill-rule="evenodd" d="M 35.1239 22.0492C 34.8704 22.0931 34.6542 22.2314 34.5088 22.4395C 34.3605 22.6505 34.3079 22.9011 34.3536 23.1531L 37.5013 39.0043L 28.1371 40.8108L 23.446 17.1407L 37.5581 14.4071L 38.9283 21.3124L 35.1239 22.0492ZM 14.5223 12.0816C 12.6243 12.2952 9.96285 12.691 7.49676 13.6278C 7.18088 13.7346 6.94397 14.0181 6.87608 14.3756C 6.23047 13.5004 5.89796 12.1911 5.60702 10.3751C 5.38673 9.0343 5.40059 7.725 5.63611 6.38147C 8.73951 6.13632 11.9288 6.87314 14.7496 8.47004C 14.4586 9.5109 14.388 10.675 14.5223 12.0816ZM 17.6119 13.0033C 17.4041 11.7967 17.2918 10.649 17.5274 9.6931L 18.4057 9.36304C 19.2467 10.4779 19.5723 11.946 19.7372 13.0732L 17.7019 13.4922C 17.6756 13.3731 17.6562 13.2526 17.6354 13.1279L 18.1411 12.9458L 17.6119 13.0033ZM 29.1263 9.43835L 29.0806 9.43835C 27.0385 9.49313 24.9077 9.84922 22.2074 10.5792C 22.1548 10.4148 22.1063 10.2532 22.0509 10.0889C 21.656 8.959 21.16 8.01675 20.5297 7.21145C 22.5039 4.77501 25.1515 2.95487 28.0402 2.05096C 28.7744 3.20687 29.2815 4.41756 29.5905 5.74055C 30.0241 7.55521 30.2042 8.8919 29.9354 9.93002C 29.7803 9.62872 29.4727 9.43835 29.1263 9.43835ZM 29.1263 9.76838L 29.1263 9.75879L 29.1263 9.76838ZM 2.0686 21.2781L 15.9646 18.5856L 20.6557 42.272L 11.944 43.9539L 8.80879 28.1136C 8.75891 27.8506 8.61067 27.6274 8.41394 27.5123C 8.26846 27.4 8.07173 27.3398 7.86807 27.3398C 7.82928 27.3398 7.79741 27.3411 7.68796 27.3562L 3.43327 28.1766L 2.0686 21.2781ZM 40.8402 22.5751C 40.9829 22.3642 41.0287 22.1149 40.9829 21.8821L 39.2442 13.1224C 39.1486 12.6253 38.6817 12.2815 38.1262 12.3733L 27.3294 14.466C 32.1895 12.7266 32.5234 9.77936 31.4497 5.28995C 31.0396 3.57116 30.2956 1.93043 29.2288 0.410224C 29.0072 0.0924875 28.6095 -0.0691201 28.1981 0.0281184C 24.3909 1.04296 20.9591 3.4027 18.536 6.67594C 18.3794 6.88685 18.3226 7.13611 18.3559 7.37031C 18.342 7.37579 18.3337 7.37852 18.3226 7.384C 18.2326 7.39907 18.1605 7.45111 18.1868 7.43605L 16.8499 7.93593C 16.8166 7.65244 16.6587 7.40455 16.4107 7.2539C 13.4888 5.42006 10.1693 4.45178 6.81513 4.45178C 6.11409 4.45178 5.41306 4.49287 4.72865 4.58463C 4.32687 4.62846 3.99436 4.92291 3.90708 5.3105C 3.49283 7.11557 3.43465 8.87271 3.72005 10.6723C 4.27145 14.1934 5.24403 17.6283 10.4727 17.6283C 10.6459 17.6283 10.8274 17.6255 11.0158 17.6228L 0.773208 19.6073C 0.521057 19.6484 0.307699 19.7894 0.166383 19.9976C 0.0181409 20.2058 -0.0303496 20.4633 0.0181409 20.718L 1.75133 29.4708C 1.80675 29.7228 1.95638 29.9365 2.15727 30.0611C 2.36231 30.2022 2.59507 30.2624 2.87354 30.2077L 7.11993 29.3845L 10.2593 45.2399C 10.3355 45.6782 10.7332 46 11.1959 46C 11.2541 46 11.3123 45.9904 11.3774 45.9795L 21.9469 43.9361C 22.2074 43.8909 22.4319 43.743 22.5552 43.5471C 22.7145 43.3362 22.7685 43.0733 22.7103 42.8363L 17.6562 17.2968C 17.605 17.0572 17.4692 16.8463 17.2503 16.6874C 17.0439 16.56 16.8111 16.5107 16.5368 16.5545L 15.833 16.6874C 16.0089 16.6285 16.1932 16.5682 16.3747 16.5107C 16.8028 16.3601 17.0633 15.9533 17.0106 15.5164L 17.102 15.5233C 17.1782 15.5233 17.2558 15.5109 17.3071 15.4973L 20.8608 14.7714C 20.9273 14.7604 20.9841 14.7371 21.0422 14.7056C 21.1462 15.1412 21.5188 15.4247 22.0162 15.4247C 22.1797 15.4164 22.3446 15.4096 22.5094 15.3986L 22.1478 15.4685C 21.9095 15.5109 21.6962 15.6465 21.541 15.8616C 21.3997 16.0629 21.3498 16.3176 21.3997 16.5806L 26.4566 42.0968C 26.4954 42.3447 26.6505 42.5816 26.857 42.7035C 27.0107 42.8103 27.2005 42.8706 27.389 42.8706C 27.4361 42.8706 27.479 42.8678 27.576 42.8473L 38.8092 40.6806C 39.3218 40.5711 39.6585 40.063 39.5476 39.5686L 36.4096 23.7187L 40.2265 22.9764C 40.4773 22.9271 40.6975 22.786 40.8402 22.5751Z"/>
<path id="path6_fill" fill-rule="evenodd" d="M 2.28253 14.1007C 4.20118 9.38892 9.61593 5.66484 17.6013 3.57212C 21.5146 2.53198 25.9279 1.95458 30.3661 1.89932L 31.0553 1.8938C 35.2946 1.8938 39.3971 2.35378 43.2496 3.2627C 51.7668 5.25597 57.5766 9.10022 59.6969 14.1007L 2.28253 14.1007ZM 0.0351525 14.7969C -0.0463451 15.0759 0.0171953 15.4088 0.191241 15.627C 0.365287 15.8577 0.648456 16 0.949583 16L 61.0437 16C 61.349 16 61.6363 15.8508 61.7965 15.627C 61.983 15.3936 62.0479 15.0828 61.9637 14.7844C 60.1086 8.49383 53.615 3.74756 43.6819 1.39791C 39.7051 0.46551 35.4521 0 31.0484 0L 30.3398 0.00276267C 25.8105 0.049728 21.237 0.640939 17.1124 1.72529C 7.73598 4.19235 1.67063 8.83502 0.0351525 14.7969Z"/>
<path id="path7_fill" fill-rule="evenodd" d="M 14.7838 1.8847C 16.7972 7.69779 17.5195 14.9765 16.9761 24.1098L 2.13446 24.1098C 1.40549 14.7313 2.06991 7.65259 4.22184 1.8847L 14.7838 1.8847ZM 2.73564 0.58487C 0.212495 6.91845 -0.536649 14.719 0.369855 25.1302C 0.402134 25.6178 0.809658 26 1.28712 26L 17.8382 26C 18.3251 26 18.7353 25.6124 18.7703 25.1124C 19.4454 14.9683 18.6358 6.95543 16.2955 0.619113C 16.1705 0.249289 15.8181 0 15.4294 0L 3.59373 0C 3.21848 0 2.88224 0.223264 2.73564 0.58487Z"/>
<path id="path8_fill" fill-rule="evenodd" d="M 2.22173 1.92212L 5.15718 1.95418L 5.15718 8.48715C 5.08496 8.53733 5.02211 8.59587 4.97396 8.66138L 2.00775 12.2478C 2.19498 8.6112 2.26719 5.22136 2.22173 1.92212ZM 0.586138 15.9303C 0.654342 15.9568 0.788075 16 0.919134 16C 1.18125 16 1.43 15.8829 1.62391 15.6655L 6.16951 10.143L 6.26981 10.1263C 6.69509 10.0343 7 9.63986 7 9.18826L 7 1.00775C 7 0.47809 6.58141 0.045997 6.07724 0.045997L 1.26818 0C 1.07025 0.0111508 0.818834 0.055754 0.622246 0.292708C 0.451067 0.47809 0.354778 0.726196 0.354778 0.984058C 0.445717 5.31475 0.332044 9.89355 0.00172178 14.9741C -0.0223503 15.3881 0.207671 15.7742 0.586138 15.9303Z"/>
<path id="path9_fill" fill-rule="evenodd" d="M 53.0233 59.2636L 53.0233 17.3486C 53.0233 17.0817 52.9081 16.8272 52.716 16.6497C 52.7503 15.2187 52.7531 10.9863 51.7722 6.61914C 51.7009 6.25589 51.4128 5.97107 51.041 5.9009C 50.6953 5.81972 50.3181 5.96557 50.0876 6.25589L 49.2686 7.37039C 48.3138 8.63625 47.2287 10.0672 45.9419 11.3964C 42.9348 14.4922 39.9401 16.0016 36.7848 16.0016C 32.9862 16.0016 28.7692 13.7795 24.2462 9.38476C 23.7661 8.92244 23.3724 8.64726 22.991 8.50829C 22.9334 8.48765 22.8648 8.44637 22.7934 8.46426L 22.6823 8.45875C 22.4546 8.45875 22.2104 8.5248 22.0252 8.65551C 21.5039 9.0449 21.0402 9.75075 20.556 10.8763C 20.176 11.7816 19.8426 12.8383 19.5627 14.0106C 19.4955 14.301 19.5559 14.5982 19.7383 14.8293C 19.9139 15.0536 20.1897 15.1871 20.4778 15.1871L 20.6767 15.1871L 19.9331 20.7623C 19.9085 21.032 19.9921 21.2989 20.1622 21.4943C 20.342 21.7021 20.5999 21.8218 20.8811 21.8218L 28.4358 21.8218C 32.6021 33.3218 34.0535 47.8104 32.8724 66.1143C 22.6974 67.1697 12.4415 67.1697 2.51213 66.1143C 0.944119 47.315 2.29401 33.2282 6.75387 21.8218L 13.2537 21.8218C 13.7311 21.8218 14.1303 21.4709 14.1879 21.0004L 14.9616 15.1871L 15.7778 15.1871C 16.2223 15.1871 16.6092 14.8706 16.6956 14.4385C 17.0866 12.6058 17.5516 11.0538 18.0674 9.82918C 18.7383 8.25512 19.5339 7.11997 20.4325 6.46228C 21.1212 5.95594 21.8235 5.70965 22.5822 5.70965C 22.9663 5.70965 23.3751 5.77982 23.7277 5.88164C 23.7784 5.91328 23.836 5.95043 23.8868 5.95043C 24.629 6.20636 25.3876 6.70582 26.1394 7.44057C 29.9901 11.1955 33.4513 13.0186 36.7231 13.0186C 39.2939 13.0186 41.7454 11.8312 44.0007 9.49758C 45.2121 8.24961 46.2478 6.88332 47.2081 5.59132L 47.2726 5.50326C 48.6238 3.71317 49.6939 2.29321 50.9244 1.99739C 51.2043 1.93134 51.443 1.89557 51.6405 1.89557C 52.1289 1.89557 53.4212 1.89557 54.2895 5.50326C 55.5119 10.5914 55.4707 15.41 55.4158 16.9537C 55.2704 17.134 55.1854 17.3486 55.1854 17.566L 55.1854 59.2636C 55.1854 59.7809 55.6216 60.213 56.136 60.213L 64.6908 60.213L 70.1151 66.0593L 70.1151 68.1081L 38.0799 68.1081L 38.0799 65.7332L 42.6975 60.213L 52.0685 60.213C 52.5967 60.213 53.0233 59.7892 53.0233 59.2636ZM 72 69.0424L 72 65.681C 72 65.4498 71.9163 65.22 71.7503 65.0343L 65.8007 58.6224C 65.6113 58.4229 65.3575 58.306 65.1038 58.306L 57.0799 58.306L 57.0799 18.1536C 57.1992 17.9926 57.2678 17.8165 57.2843 17.6211C 57.3172 16.9744 57.5778 11.0909 56.1264 5.05748C 55.1675 1.07692 53.3183 -0.530169 50.484 0.152293C 48.584 0.615981 47.3192 2.29324 45.7224 4.42456L 45.6538 4.51949C 44.7827 5.68078 43.7949 6.99892 42.6467 8.17672C 40.7398 10.1539 38.811 11.1143 36.7478 11.1143C 34.0151 11.1143 30.8859 9.42468 27.4536 6.08393C 26.5454 5.19095 25.5892 4.55802 24.6482 4.21266C 24.5768 4.17414 24.5082 4.16038 24.4945 4.16038C 22.6796 3.5247 20.8907 3.78888 19.3268 4.92402C 18.1388 5.78535 17.1277 7.19017 16.3211 9.09997C 15.8382 10.2489 15.3978 11.6606 15.0206 13.2966L 14.133 13.2966C 13.657 13.2966 13.2674 13.6392 13.1946 14.1125L 12.4237 19.9299L 6.11458 19.9299C 5.73046 19.9299 5.38064 20.1707 5.24071 20.5216C 0.41869 32.4426 -1.02586 47.2311 0.70129 67.0404C 0.732842 67.4986 1.07717 67.8494 1.53674 67.9072C 12.0835 69.1001 23.0321 69.1001 33.8779 67.9072C 34.3306 67.8494 34.6818 67.4862 34.7134 67.0307C 36.0248 47.7581 34.476 32.5527 29.9791 20.5394C 29.8392 20.1707 29.4853 19.9299 29.0888 19.9299L 21.9635 19.9299L 22.6905 14.3712C 22.7289 14.1207 22.6535 13.8455 22.4601 13.6075C 22.2817 13.4135 22.0115 13.2966 21.7508 13.2966L 21.7083 13.2966C 21.9113 12.6265 22.102 12.0747 22.2996 11.622C 22.4957 11.1529 22.6658 10.835 22.7989 10.6217C 22.8373 10.6561 22.8826 10.6988 22.9265 10.7483C 27.8034 15.4939 32.4663 17.9004 36.7848 17.9004C 40.4751 17.9004 43.9129 16.2025 47.3041 12.7132C 48.4592 11.5175 49.4469 10.2585 50.3277 9.10272C 50.9025 12.6911 50.8668 15.8393 50.816 17.0845L 50.816 17.1285C 50.7612 17.3844 50.816 17.6569 50.9779 17.8825C 51.0218 17.9472 51.0726 17.9926 51.1302 18.0394L 51.1302 58.306L 42.2557 58.306C 41.9814 58.306 41.718 58.4367 41.5328 58.6568L 36.4282 64.7618C 36.28 64.9173 36.1963 65.1443 36.1963 65.3741L 36.1963 69.0424C 36.1963 69.5707 36.6188 70 37.1443 70L 71.0589 70C 71.5788 70 72 69.5707 72 69.0424Z"/>
<path id="path10_fill" fill-rule="evenodd" d="M 2.16528 4.40025L 6.60603 2.16547L 8.8311 6.59346L 4.40646 8.83764L 2.16528 4.40025ZM 3.16646 10.4728C 3.27248 10.6995 3.45365 10.8605 3.69253 10.9463C 3.78513 10.9826 3.88578 11 3.9918 11C 4.12466 11 4.26557 10.9678 4.4132 10.8981L 10.5019 7.82488C 10.9462 7.5955 11.1287 7.04687 10.9032 6.5881L 7.82998 0.500789C 7.7186 0.280798 7.52937 0.119829 7.30123 0.0460511C 7.06503 -0.033092 6.79797 -0.00760524 6.59264 0.10239L 0.513282 3.16751C 0.293191 3.27482 0.128122 3.46396 0.0489428 3.69871C -0.0302365 3.93077 -0.0127902 4.18296 0.0972556 4.40563L 3.16646 10.4728Z"/>
<path id="path11_fill" fill-rule="evenodd" d="M 2.16156 4.39787L 6.5972 2.16229L 8.83314 6.59859L 4.40287 8.83283L 2.16156 4.39787ZM 3.16948 10.4998C 3.29161 10.7237 3.48085 10.882 3.6674 10.9356C 3.7694 10.9812 3.87811 11 3.99621 11C 4.14519 11 4.28745 10.9531 4.40824 10.9021L 10.4799 7.82298C 10.7 7.72508 10.8624 7.54672 10.9469 7.31739C 11.0315 7.08002 11.0141 6.81315 10.9013 6.59053L 7.82925 0.514091C 7.71383 0.278061 7.5152 0.111767 7.29509 0.046054C 7.06962 -0.0263643 6.81194 -0.0156357 6.58646 0.0943329L 0.502728 3.16407C 0.0531251 3.39607 -0.128058 3.95396 0.0960722 4.39786L 3.16948 10.4998Z"/>
<path id="path12_fill" fill-rule="evenodd" d="M 7.99493 1.90863C 10.3124 1.90863 12.3939 3.19029 13.4402 5.25566C 14.9486 8.25176 13.7427 11.9178 10.7522 13.4367C 9.87801 13.8694 8.95937 14.0928 8.01019 14.0928C 5.69693 14.0928 3.60709 12.8111 2.56911 10.7457C 1.83502 9.29346 1.71013 7.64283 2.22219 6.09485C 2.73285 4.55102 3.81247 3.29294 5.26398 2.56056C 6.12434 2.12779 7.04021 1.90863 7.99493 1.90863ZM 8.01022 16C 9.2633 16 10.4734 15.7073 11.6085 15.14C 15.5467 13.1468 17.1287 8.32527 15.1429 4.39289C 13.7733 1.68253 11.0326 0 7.99496 0C 6.73078 0 5.52211 0.287126 4.39532 0.858604C 0.457085 2.85046 -1.12903 7.66918 0.855349 11.6057C 2.22221 14.3147 4.96565 16 8.01022 16Z"/>
<path id="path13_fill" fill-rule="evenodd" d="M 1.82499 5.05738C 1.82241 5.05738 1.81855 5.05738 1.8134 5.05738C 1.62682 4.58123 2.18271 3.64865 3.22372 2.66254C 3.25589 3.55004 2.99339 4.1093 2.8171 4.38542C 2.50827 4.84325 2.11837 5.05738 1.82499 5.05738ZM 4.09876 0.0535406C 3.84141 -0.0422532 3.55574 -0.00985238 3.33055 0.153561C 2.89819 0.450803 -0.86951 3.16402 0.185653 5.83216C 0.477753 6.56611 1.10956 7 1.87263 7C 2.73992 7 3.65096 6.43369 4.25704 5.5152C 4.74087 4.76857 5.43187 3.13444 4.63921 0.646617C 4.55428 0.380367 4.35612 0.159196 4.09876 0.0535406Z"/>
<path id="path14_fill" fill-rule="evenodd" d="M 34.5666 20.1046C 34.891 19.9466 35.1022 19.61 35.0925 19.2502L 35.0097 15.9444C 35.0056 15.5833 34.7861 15.2495 34.452 15.1091L 30.8894 13.5162C 31.2193 12.4233 31.6458 11.3428 32.2173 10.314C 34.3609 6.48489 38.0299 3.90402 43.1123 2.63947C 45.1249 2.13665 47.0808 1.88593 48.9388 1.88593C 61.4116 1.88593 66.044 13.5843 66.9812 16.4023C 56.3581 27.0487 35.8227 28.2942 31.1351 28.4441C 30.8148 27.2449 30.2986 25.0197 30.086 22.3585L 34.5666 20.1046ZM 3.32802 25.9654C 3.30732 26.1385 3.33354 26.3224 3.41636 26.4941C 3.60961 26.8879 4.09825 27.1032 4.50546 26.9942L 6.7499 26.4233C 6.80787 26.4192 6.88655 26.4137 6.94867 26.3933L 14.4812 24.4392L 18.9632 29.1567L 19.935 32.5048C 20.0412 32.9109 20.4139 33.1916 20.8432 33.1916L 20.9578 33.1807C 21.4147 33.1289 21.7667 32.7664 21.7929 32.3127L 22.4127 22.0968L 27.7795 19.3974L 28.0928 19.426C 28.079 20.0447 28.0818 20.651 28.1038 21.237L 24.5439 23.0166C 24.2596 23.1692 24.0705 23.4499 24.0415 23.7661L 23.0877 33.2869L 21.0489 33.971L 14.2949 26.877C 14.1154 26.6753 13.867 26.5636 13.6006 26.5636C 13.5205 26.5636 13.4404 26.5718 13.3618 26.5949L 3.92847 29.03L 2.58401 27.3621L 3.32802 25.9654ZM 3.9906 8.443C 3.65793 8.76186 3.6041 9.26468 3.87327 9.65304L 9.679 17.908L 6.93073 23.0452L 3.71867 25.3304C 3.6883 25.3508 3.66069 25.3672 3.63447 25.3903L 7.3048 18.5062C 7.47183 18.2051 7.46078 17.8399 7.27306 17.5401L 2.09262 9.75932L 3.26729 7.97424L 4.53583 8.18682C 4.3274 8.21271 4.13691 8.30401 3.9906 8.443ZM 28.3357 16.2646L 22.3561 13.7056L 21.3084 7.99467L 22.1808 4.92734C 22.3064 4.50764 22.109 4.04979 21.7142 3.84403C 21.325 3.64508 20.8225 3.74046 20.5409 4.07295L 14.132 11.6302L 8.37317 10.6505L 5.2177 8.36259C 5.17353 8.32989 5.12798 8.304 5.08243 8.28492L 12.8786 9.60125C 13.214 9.67074 13.555 9.53993 13.7676 9.29329L 20.0895 2.01807L 22.1752 2.58357L 23.8938 11.9873C 23.9393 12.2952 24.145 12.5582 24.4349 12.6849L 28.638 14.5681C 28.5152 15.135 28.413 15.7005 28.3357 16.2646ZM 31.2331 19.6672L 29.9907 20.2913C 29.9907 20.0556 29.9825 19.8116 29.9907 19.5732L 31.2331 19.6672ZM 19.4325 8.29584L 20.5782 14.5245C 20.6293 14.8379 20.8377 15.0996 21.1317 15.229L 26.9388 17.7104L 21.0558 20.6565C 20.759 20.82 20.5658 21.113 20.5437 21.4414L 20.1669 27.6878L 15.4847 22.755C 15.3067 22.5683 15.0568 22.4647 14.7945 22.4647C 14.7269 22.4647 14.6427 22.4647 14.5461 22.4906L 8.554 24.0372L 11.6377 18.2678C 11.7909 17.9462 11.7661 17.5919 11.5714 17.3112L 8.19788 12.5242L 14.328 13.5571C 14.6427 13.6361 14.9768 13.5271 15.2418 13.2464L 19.4325 8.29584ZM 33.1738 18.7011L 32.7584 18.9055C 32.8232 18.4858 32.5969 18.081 32.2048 17.9203L 30.155 17.0427C 30.2213 16.4881 30.3055 15.9253 30.4187 15.3666L 33.1324 16.5808L 33.1738 18.7011ZM 68.969 16.4023C 68.7757 15.7319 64.0646 0 48.9388 0C 46.9456 0 44.8295 0.276619 42.6541 0.816231C 34.5293 2.83977 30.7362 7.64314 29.1267 12.7286L 25.6689 11.1792L 23.9421 1.67062C 23.8745 1.3136 23.615 1.02608 23.2492 0.925243L 20.0178 0.0490556C 19.6658 -0.0517809 19.2724 0.0694954 19.0364 0.342027L 12.6799 7.6663L 2.97189 6.01612C 2.60334 5.96162 2.24445 6.11696 2.02221 6.43037L 0.155986 9.24426C -0.0538267 9.56584 -0.051066 9.96101 0.158747 10.2771L 5.37231 18.1151L 0.61426 27.0228C 0.441717 27.3567 0.480367 27.7559 0.710885 28.0407L 2.82281 30.6679C 3.05195 30.9527 3.42878 31.0876 3.80562 30.9936L 13.2914 28.5531L 20.0827 35.7043C 20.2635 35.891 20.5202 36 20.777 36C 20.8874 36 21.0061 35.9741 21.0806 35.9428L 24.2899 34.8622C 24.6406 34.7409 24.8876 34.4248 24.9235 34.0718L 25.8815 24.4651L 28.2529 23.2755C 28.2791 23.5508 28.3109 23.8233 28.3426 24.0918C 29.1405 30.315 30.0736 30.315 30.427 30.315C 31.4843 30.315 56.4672 30.1678 68.744 17.3044C 68.9621 17.0741 69.0532 16.7348 68.969 16.4023Z"/>
<path id="path15_fill" fill-rule="evenodd" d="M 6.13578 1.82941L 6.48167 1.82941C 8.56398 1.82941 11.5603 2.92174 13.4968 4.38662L 13.8705 7.53324C 12.3771 6.93185 10.6018 6.53005 8.47091 6.28923L 6.08716 6.03377C 2.41013 5.59338 1.91422 4.81903 1.91422 4.11653C 1.91422 1.85735 6.09272 1.82941 6.13578 1.82941ZM 6.48168 0L 6.13579 0C 3.0797 0 0 1.27594 0 4.11655C 0 7.13944 3.79927 7.60245 5.8663 7.85524L 8.24726 8.10538C 10.8866 8.40607 12.9453 8.98084 14.5345 9.87094C 14.6901 9.95476 14.8484 10 15.0207 10L 15.0568 10C 15.5777 10 16 9.57823 16 9.07664C 16 8.99548 15.9875 8.87174 15.9417 8.74534L 15.3179 3.47658C 15.2735 3.13997 15.0276 2.84593 14.7026 2.7355C 14.5734 2.68228 14.4275 2.66631 14.2941 2.67429C 12.0215 1.09367 8.82792 0 6.48168 0Z"/>
<path id="path16_fill" fill-rule="evenodd" d="M 3.4974 1.79388C 4.43775 1.79388 5.20643 2.5601 5.20643 3.50063C 5.20643 4.44246 4.43775 5.20477 3.4974 5.20477C 2.55704 5.20477 1.79227 4.44246 1.79227 3.50063C 1.79227 2.5601 2.55704 1.79388 3.4974 1.79388ZM 3.4974 7C 5.42494 7 7 5.42985 7 3.50065C 7 1.56885 5.42494 0 3.4974 0C 1.56726 0 0 1.56885 0 3.50065C 0 5.42985 1.56726 7 3.4974 7Z"/>
<path id="path17_fill" fill-rule="evenodd" d="M 62.8601 118.055L 62.8601 118.061L 62.8601 118.055ZM 40.9074 62.1612C 37.7194 65.528 36.407 69.9326 35.9695 71.8407C 35.9094 72.117 35.9763 72.4071 36.1527 72.6353C 36.3318 72.8566 36.6052 72.99 36.8882 72.99L 65.3947 72.99C 65.6791 72.99 65.9525 72.8594 66.148 72.6271C 66.3148 72.3975 66.3722 72.1019 66.3093 71.8352C 65.5574 68.5496 62.2299 57.8377 51.1415 57.8377C 50.0218 57.8377 48.9979 57.9738 48.0327 58.1759L 47.4585 57.0101C 48.5946 56.7503 49.8058 56.5908 51.1415 56.5908C 63.3988 56.5908 66.8931 68.573 67.6723 72.2504C 67.7694 72.6848 68.1453 72.99 68.5951 72.99L 74.0621 72.99L 76.9056 98.2287C 74.8974 97.3846 72.9083 96.9571 70.9889 96.9571L 70.6348 96.9571C 63.6626 97.0506 58.7917 101.151 58.7917 106.936C 58.7917 110.478 60.666 114.932 69.6204 116.016L 71.9267 116.262C 75.7832 116.753 76.542 117.643 76.542 119.009C 76.542 119.919 76.0129 120.622 74.9753 121.103L 68.0373 121.103C 66.1439 120.479 64.4925 119.375 63.6148 118.116C 63.4466 117.893 63.2047 117.754 62.949 117.733L 62.8602 117.733C 62.6168 117.733 62.3885 117.817 62.2108 117.985L 58.8395 121.103L 22.8017 121.103L 28.2331 72.99L 33.6933 72.99C 34.1431 72.99 34.5218 72.6793 34.6147 72.2463C 35.0864 70.0343 36.5587 64.8062 40.3305 60.9927L 40.9074 62.1612ZM 42.3552 60.836L 41.7878 59.6895C 42.8979 58.8206 44.1789 58.0865 45.6334 57.5463L 46.1926 58.6804C 44.7202 59.2111 43.4516 59.9534 42.3552 60.836ZM 49.4011 65.165C 49.9357 66.2579 49.4955 67.5804 48.4127 68.129C 48.1188 68.2802 47.8003 68.3517 47.4681 68.3517C 46.6246 68.3517 45.8412 67.8705 45.4735 67.1405L 43.1905 62.5269C 44.2623 61.621 45.5254 60.8566 47.0265 60.3658L 49.4011 65.165ZM 43.7906 67.9805C 44.4851 69.3855 45.8836 70.257 47.4421 70.257C 48.071 70.257 48.6766 70.1154 49.2508 69.8309C 51.2618 68.8108 52.082 66.3404 51.0772 64.3264L 48.9035 59.9245C 49.6076 59.8118 50.3458 59.7362 51.1414 59.7362C 59.5709 59.7362 62.9121 66.6703 64.1807 71.0956L 38.1035 71.0956C 38.7119 68.9359 39.8233 66.1768 41.7769 63.9154L 43.7906 67.9805ZM 16.7154 27.8658L 9.13763 12.5541C 8.60173 11.4721 9.0433 10.1386 10.1192 9.59013C 10.4145 9.45128 10.7248 9.37567 11.057 9.37567C 11.9156 9.37567 12.7016 9.85408 13.0625 10.5909L 18.695 21.9765C 18.8276 22.2487 19.1092 22.4521 19.4222 22.492L 19.5166 22.4975C 19.8173 22.4975 20.0962 22.3586 20.2644 22.1387C 20.71 21.5957 21.1872 21.1008 21.6861 20.6677C 22.0224 20.3804 22.1181 19.9116 21.9199 19.5171L 16.6252 8.80791C 16.36 8.28826 16.323 7.69437 16.509 7.13348C 16.6935 6.57122 17.0859 6.11893 17.6081 5.85773C 17.9048 5.71064 18.2165 5.63503 18.5555 5.63503C 19.399 5.63503 20.1837 6.11068 20.5474 6.85029L 25.8489 17.5622C 26.0403 17.9361 26.5188 18.1451 26.8811 18.0585C 27.5988 17.9155 28.2837 17.8289 28.9153 17.8179C 29.2543 17.8083 29.5496 17.6323 29.6918 17.3711C 29.8654 17.0865 29.8846 16.7415 29.7383 16.4569L 24.1073 5.06314C 23.5727 3.98122 24.0116 2.65598 25.0902 2.11159C 25.3828 1.96862 25.6958 1.89301 26.0349 1.89301C 26.8811 1.89301 27.6726 2.36591 28.0308 3.10552L 37.8028 22.8549C 39.6811 26.6602 38.5355 31.447 35.0221 34.5126C 34.6967 34.7876 34.6024 35.2495 34.7938 35.6413L 44.7804 55.8279C 43.3381 56.3846 42.0708 57.127 40.9416 57.9793L 30.8689 37.6003C 30.713 37.291 30.3822 37.0848 30.0281 37.0848C 29.9543 37.0848 29.8873 37.0958 29.8313 37.1164C 29.0657 37.2759 28.281 37.357 27.5004 37.357C 26.1729 37.357 24.9111 37.1054 23.76 36.6558C 22.3902 32.6018 19.8488 29.4179 16.7154 27.8658ZM 18.9109 32.3145L 18.4448 31.3659C 19.4714 32.3722 20.3696 33.6246 21.086 35.0667C 20.1933 34.3065 19.4441 33.384 18.9109 32.3145ZM 12.4337 98.2686C 11.2224 98.2686 10.2409 97.2829 10.2409 96.0649L 10.2409 58.6777C 10.2409 58.2873 10.0044 57.9381 9.63524 57.791C 5.07053 56.0244 1.88248 50.1585 1.88248 43.5254C 1.88248 35.3595 6.61534 28.7126 12.4337 28.7126C 13.4303 28.7126 14.3968 28.9244 15.31 29.2873L 17.2226 33.153C 18.2971 35.3224 20.0716 36.9954 22.233 38.0416C 22.7183 39.7407 22.9917 41.5911 22.9917 43.5254C 22.9917 50.1516 19.7982 56.0189 15.2171 57.7937C 14.8589 57.9381 14.6279 58.2873 14.6279 58.6777L 14.6279 96.0649C 14.6279 97.2829 13.6449 98.2686 12.4337 98.2686ZM 32.9469 71.0956L 27.391 71.0956C 26.9139 71.0956 26.512 71.4558 26.4518 71.9273L 20.8112 121.941C 20.7825 122.208 20.8618 122.472 21.0436 122.684C 21.2172 122.88 21.4811 123 21.749 123L 59.2196 123C 59.4479 123 59.6735 122.912 59.8512 122.75L 62.7603 120.042C 63.9442 121.294 65.6969 122.347 67.6573 122.964C 67.727 122.985 67.809 123 67.8897 123L 75.1721 123C 75.2938 123 75.421 122.971 75.529 122.927C 77.3923 122.146 78.4245 120.761 78.4245 119.009C 78.4245 115.185 74.1906 114.644 72.1468 114.38L 69.8337 114.137C 63.7583 113.389 60.6796 110.967 60.6796 106.936C 60.6796 102.187 64.6866 98.9353 70.6485 98.8515L 70.9889 98.8515C 73.1065 98.8515 75.3307 99.455 77.6083 100.65C 77.7423 100.716 77.8804 100.749 78.0663 100.749C 78.583 100.749 79 100.318 79 99.8C 79 99.6928 78.9822 99.5856 78.9398 99.4687L 75.8379 71.9273C 75.7778 71.4558 75.3758 71.0956 74.9015 71.0956L 69.3415 71.0956C 68.3176 66.9261 64.1917 54.6937 51.1414 54.6937C 49.4845 54.6937 47.9712 54.8972 46.589 55.2477L 36.7884 35.4378C 40.5738 31.7632 41.6607 26.399 39.4938 22.0163L 29.7192 2.25593C 29.0438 0.883952 27.5933 0 26.0212 0C 25.3951 0 24.8031 0.138848 24.2522 0.415169C 22.2466 1.42422 21.425 3.88637 22.4257 5.90722L 27.4416 16.0486C 27.365 16.0541 27.2926 16.0665 27.2201 16.0747L 22.233 5.99933C 21.5576 4.63422 20.1099 3.75302 18.5377 3.75302C 17.913 3.75302 17.3183 3.88637 16.7687 4.16131C 14.7618 5.16212 13.9402 7.63251 14.9368 9.66024L 19.9185 19.7288C 19.8693 19.7838 19.8173 19.8278 19.7667 19.8855L 14.7482 9.7386C 14.0728 8.36937 12.6182 7.48816 11.0502 7.48816C 10.4282 7.48816 9.83621 7.62151 9.28801 7.89921C 7.27018 8.90826 6.44719 11.3732 7.4479 13.4009L 14.1877 27.0135C 13.6135 26.9035 13.0297 26.8279 12.4337 26.8279C 5.57636 26.8279 0 34.3216 0 43.5254C 0 50.6822 3.348 56.9936 8.36112 59.3073L 8.36112 96.0649C 8.36112 98.3208 10.1889 100.159 12.4337 100.159C 14.6812 100.159 16.5117 98.3208 16.5117 96.0649L 16.5117 59.3073C 21.5221 56.9813 24.8742 50.6712 24.8742 43.5254C 24.8742 41.9018 24.6951 40.3333 24.3684 38.8485C 25.3636 39.1056 26.4163 39.2513 27.5004 39.2513C 28.1579 39.2513 28.8319 39.2019 29.5018 39.0946L 39.461 59.2289C 35.3229 63.1579 33.5634 68.5867 32.9469 71.0956Z"/>
<path id="path18_fill" fill-rule="evenodd" d="M 3.69738 1.89154C 4.69151 1.89154 5.49863 2.69946 5.49863 3.69119C 5.49863 4.68428 4.69151 5.48809 3.69738 5.48809C 2.69913 5.48809 1.88513 4.68428 1.88513 3.69119C 1.88513 2.69946 2.69913 1.89154 3.69738 1.89154ZM 0 3.69119C 0 5.7254 1.65688 7.38102 3.69738 7.38102C 5.73238 7.38102 7.39475 5.7254 7.39475 3.69119C 7.39475 1.65425 5.73238 0 3.69738 0C 1.65688 0 0 1.65425 0 3.69119Z"/>
<path id="path19_fill" fill-rule="evenodd" d="M 153.702 118.148C 157.576 111.688 162.04 104.876 165.744 102.323C 161.6 106.673 157.326 112.601 153.702 118.148ZM 126.516 146.299C 126.467 146.048 126.413 145.791 126.358 145.527L 126.265 145.084C 125.487 141.253 124.521 136.488 126.464 134.12C 127.494 132.857 129.288 132.318 131.979 132.477C 132.309 132.795 132.78 133.116 133.338 133.421L 129.675 146.696C 128.392 146.581 127.295 146.441 126.516 146.299ZM 135.684 146.969C 134.265 146.969 132.88 146.922 131.604 146.847L 135.08 134.196C 135.887 134.493 136.777 134.74 137.702 134.934C 138.85 135.165 139.864 135.283 140.79 135.283C 145.882 135.283 147.68 131.994 149.766 128.186C 150.322 127.162 150.783 126.358 151.249 125.576C 155.447 118.681 161.631 109.268 167.406 103.327C 169.529 105.744 170.523 107.778 170.427 109.532C 170.363 110.972 169.568 112.348 167.995 113.73C 167.83 113.874 167.714 114.072 167.678 114.283C 165.957 124.35 165.059 133.171 164.592 144.667C 164.578 144.664 164.566 144.664 164.552 144.662L 162.603 121.221C 162.572 120.822 162.301 120.493 161.891 120.373C 161.505 120.292 161.102 120.44 160.871 120.761C 158.825 123.759 157.069 127.868 155.499 131.543C 153.285 136.691 150.997 142.009 148.034 144.671C 145.974 146.155 141.589 146.969 135.684 146.969ZM 91.7084 126.202C 92.1855 126.202 92.5829 125.857 92.653 125.37L 93.115 121.552L 127.795 131.045C 126.64 131.428 125.708 132.046 124.992 132.917C 122.473 136.01 123.556 141.271 124.429 145.515C 124.554 146.122 124.671 146.714 124.774 147.264C 124.84 147.64 125.115 147.932 125.487 148.01C 126.206 148.183 127.365 148.36 128.777 148.502C 127.892 149.674 126.57 150.406 125.14 150.406C 124.774 150.406 124.427 150.362 124.069 150.255L 79.2894 137.998C 78.2307 137.706 77.3328 136.988 76.7498 135.979C 76.0953 134.836 75.9289 133.421 76.2974 132.081L 77.9103 126.202L 91.7084 126.202ZM 78.43 117.181L 76.4692 124.311L 62.5006 124.311L 61.6412 117.181L 78.43 117.181ZM 80.1611 118.007L 91.2629 121.048L 90.871 124.311L 78.43 124.311L 80.1611 118.007ZM 91.4939 119.147L 84.3287 117.181L 91.7235 117.181L 91.4939 119.147ZM 140.32 130.435C 139.678 130.435 139.044 130.374 138.443 130.252C 143.817 127.923 147.03 122.032 150.142 116.32C 152.837 111.363 155.62 106.235 159.75 103.528C 160.834 102.819 161.927 102.448 162.844 102.26C 158.166 106.696 152.94 115.657 149.062 122.306C 147.832 124.402 146.564 126.572 145.571 128.134C 144.649 129.572 142.685 130.435 140.32 130.435ZM 89.8122 99.8008C 89.3008 99.6527 88.7673 99.58 88.242 99.58C 85.3174 99.58 82.7021 101.676 81.8744 104.678L 80.4843 109.717C 80.3481 110.223 80.6396 110.729 81.1484 110.877L 90.6909 113.49L 59.6007 113.485L 57.211 93.5706L 96.1675 93.5706L 95.238 101.29L 89.8122 99.8008ZM 83.7017 105.176C 84.2944 103.001 86.1644 101.478 88.242 101.478C 88.6146 101.478 88.9735 101.525 89.3062 101.624L 95.0056 103.186L 93.896 112.411L 82.5605 109.3L 83.7017 105.176ZM 120.399 118.198C 120.497 118.415 120.693 118.591 120.952 118.689C 121.052 118.719 121.151 118.733 121.245 118.733C 121.408 118.733 121.556 118.698 121.678 118.631L 132.149 113.357L 134.086 113.887C 135.218 114.202 136.15 114.983 136.722 116.083C 137.305 117.196 137.433 118.519 137.081 119.799L 135.941 123.923L 95.744 112.911L 96.8536 103.692L 115.662 108.843L 120.399 118.198ZM 144.77 69.7829L 116.024 84.2569C 115.797 84.3694 115.622 84.5683 115.548 84.8124C 115.47 85.0525 115.489 85.3062 115.605 85.5243C 116.329 86.9591 116.449 88.5914 115.946 90.1194C 115.44 91.6489 114.367 92.8944 112.927 93.6145C 112.464 93.8463 112.276 94.4128 112.508 94.8874L 118.799 107.307C 118.909 107.534 119.107 107.714 119.362 107.795C 119.607 107.868 119.871 107.842 120.079 107.726C 120.924 107.301 121.84 107.083 122.799 107.083C 125.044 107.083 127.076 108.319 128.129 110.298L 116.977 107.249L 106.796 87.1155L 141.229 69.7829L 144.77 69.7829ZM 118.125 109.516L 129.43 112.616L 121.671 116.526L 118.125 109.516ZM 161.353 67.746C 161.077 67.8379 160.781 67.9023 160.471 67.9023L 151.862 67.9023C 151.767 67.746 151.664 67.5841 151.573 67.4154C 151.458 67.185 151.264 67.0162 151.031 66.9422C 150.791 66.8599 150.518 66.89 150.304 66.997L 148.508 67.9023L 144.972 67.9023L 158.096 61.2963L 161.353 67.746ZM 129.656 110.721L 163.739 93.5555C 164.2 93.3223 164.392 92.7517 164.161 92.2922C 163.43 90.856 163.309 89.2279 163.816 87.6943C 164.322 86.1635 165.389 84.9167 166.822 84.1924C 167.285 83.9675 167.478 83.4202 167.252 82.9318L 160.952 70.4921C 160.834 70.2657 160.648 70.1011 160.416 70.0284C 160.17 69.9393 159.878 69.9681 159.686 70.0806C 158.814 70.5154 157.897 70.7348 156.959 70.7348C 155.779 70.7348 154.664 70.3905 153.714 69.7829L 160.471 69.7829C 161.09 69.7829 161.674 69.6581 162.213 69.4413L 172.967 90.6942L 131.944 111.346L 129.656 110.721ZM 150.888 69.7829C 152.382 71.5716 154.577 72.6154 156.959 72.6154C 157.887 72.6154 158.793 72.459 159.666 72.1436L 165.148 82.9922C 162.096 85.014 160.836 88.8342 162.09 92.2771L 129.392 108.725C 127.923 106.504 125.473 105.194 122.798 105.194C 121.863 105.194 120.952 105.353 120.087 105.674L 114.608 94.8271C 117.613 92.8217 118.898 88.9357 117.675 85.5435L 148.969 69.7829L 150.888 69.7829ZM 101.813 27.959C 101.813 26.4323 103.06 25.1854 104.591 25.1854L 126.111 25.1854L 138.467 51.5368C 134.064 52.08 116.555 54.1457 102.484 54.1457C 102.26 54.1457 102.036 54.1457 101.813 54.1457L 101.813 27.959ZM 79.1835 45.367L 82.8823 45.367C 83.4062 45.367 83.8338 44.9445 83.8338 44.4178L 83.8338 36.4607C 83.8338 35.9367 83.4062 35.5142 82.8823 35.5142L 74.0273 35.5142L 90.5892 3.2948L 115.849 3.2948L 125.227 23.2953L 104.591 23.2953C 102.015 23.2953 99.9185 25.3926 99.9185 27.959L 99.9185 54.1293C 92.4413 54.0168 84.1432 53.4462 77.4648 52.8852L 79.1835 45.367ZM 71.203 44.629C 71.2676 44.3464 71.1893 44.0502 71.0105 43.8362C 70.8386 43.6085 70.5691 43.4809 70.2804 43.4809L 69.9325 43.4809L 73.0538 37.4126L 81.9376 37.4126L 81.9376 43.4809L 78.4328 43.4809C 77.9941 43.4809 77.6188 43.7731 77.5005 44.2161L 75.5631 52.7192C 73.2421 52.5148 71.1783 52.3145 69.4815 52.1445L 71.203 44.629ZM 65.6879 51.7412L 68.9659 45.367L 69.0869 45.367L 67.5785 51.947C 66.8167 51.866 66.1746 51.7974 65.6879 51.7412ZM 63.3806 52.0924C 63.2321 52.3667 63.2349 52.7 63.3861 52.9716C 63.5016 53.1856 63.701 53.3186 63.9183 53.3913L 58.4554 53.3913L 58.4554 45.367L 66.836 45.367L 63.3806 52.0924ZM 35.6318 18.4231C 36.1323 17.5109 37.1704 16.9156 38.2814 16.9156C 38.7489 16.9156 39.204 17.0253 39.5959 17.2366C 40.1418 17.5342 40.5543 17.98 40.8141 18.4916L 35.596 18.4916L 35.6318 18.4231ZM 56.5372 17.2475C 56.9346 17.0336 57.3966 16.9183 57.8641 16.9183C 58.9669 16.9183 60.0009 17.5109 60.4945 18.4203L 60.5316 18.4917L 55.3259 18.4917C 55.5926 17.969 56.0051 17.5315 56.5372 17.2475ZM 53.1437 20.3791C 53.2152 20.9744 53.3885 21.5505 53.68 22.0882L 60.9331 35.5142L 35.2014 35.5142L 42.4531 22.0882C 42.7446 21.5505 42.9179 20.9744 42.9866 20.3791L 53.1437 20.3791ZM 7.90349 23.1101C 7.14724 23.1101 6.52849 22.4969 6.52849 21.7411L 6.52849 19.4298C 6.52849 18.9141 6.10912 18.4916 5.58799 18.4916C 3.55024 18.4916 1.89612 16.8346 1.89612 14.8004L 1.89612 5.55804C 1.89612 3.52932 3.55024 1.8833 5.58799 1.8833L 9.27299 1.8833L 9.27299 10.1929C 9.27299 10.706 9.69924 11.1284 10.2217 11.1284L 70.4687 11.1284C 70.994 11.1284 71.4285 10.706 71.4285 10.1929L 71.4285 1.8833L 75.1107 1.8833C 77.1471 1.8833 78.7999 3.52932 78.7999 5.55804L 78.7999 14.8004C 78.7999 16.8346 77.1471 18.4916 75.1107 18.4916C 74.5896 18.4916 74.162 18.9141 74.162 19.4298L 74.162 21.7411C 74.162 22.4969 73.5501 23.1101 72.7994 23.1101C 72.0417 23.1101 71.4285 22.4969 71.4285 21.7411L 71.4285 19.4298C 71.4285 18.9141 70.994 18.4916 70.4687 18.4916L 62.6945 18.4916L 62.172 17.5232C 61.3209 15.9718 59.6901 15.0075 57.9109 15.0075C 57.0969 15.0075 56.3131 15.2106 55.6476 15.5809C 54.5105 16.1886 53.6841 17.1981 53.3115 18.4285C 53.3046 18.4546 53.3046 18.4752 53.2991 18.4916L 42.834 18.4916C 42.8285 18.4752 42.8285 18.4546 42.8216 18.434C 42.4531 17.1981 41.6199 16.1831 40.4937 15.5809C 39.8159 15.2106 39.0294 15.0075 38.2319 15.0075C 36.4402 15.0075 34.804 15.9773 33.9652 17.5369L 33.4496 18.4916L 10.2217 18.4916C 9.69924 18.4916 9.27299 18.9141 9.27299 19.4298L 9.27299 21.7411C 9.27299 22.4969 8.65699 23.1101 7.90349 23.1101ZM 66.6669 64.4238L 67.9003 59.0015C 67.9649 58.7148 67.9003 58.4254 67.7201 58.1977C 67.5483 57.9741 67.276 57.8411 66.979 57.8411L 57.5108 57.8411C 56.9883 57.8411 56.5634 58.269 56.5634 58.7958L 56.5634 68.0903L 55.8511 70.2109L 50.6701 73.6689C 50.4034 73.8335 50.2439 74.1312 50.2439 74.4563L 50.2439 76.1928L 25.1859 76.1928L 19.0685 49.4217L 25.2835 49.4217L 26.4495 54.549C 26.5389 54.9688 26.9308 55.2829 27.379 55.2829L 38.863 55.2829C 39.3869 55.2829 39.8131 54.8604 39.8131 54.3378L 39.8131 44.4178C 39.8131 43.8911 39.3965 43.4809 38.863 43.4809L 14.63 43.4809L 14.63 37.4126L 24.8325 37.4126C 25.1831 37.4126 25.5008 37.2165 25.6616 36.9065L 34.5813 20.3791L 41.063 20.3791C 41.008 20.6617 40.9228 20.9374 40.7825 21.2007L 32.7718 36.0272C 32.6301 36.3276 32.6398 36.6747 32.7979 36.9449C 32.9711 37.2371 33.2778 37.4126 33.6174 37.4126L 62.5199 37.4126C 62.8609 37.4126 63.1593 37.2371 63.3215 36.9504C 63.5016 36.6692 63.514 36.3139 63.3504 36.0149L 55.3451 21.2007C 55.2063 20.9401 55.1238 20.6644 55.0701 20.3791L 61.5519 20.3791L 70.4715 36.9092C 70.5856 37.1177 70.7671 37.2425 70.972 37.318L 67.8081 43.4809L 57.5108 43.4809C 56.9883 43.4809 56.5634 43.9034 56.5634 44.4178L 56.5634 54.3378C 56.5634 54.8604 56.9883 55.2829 57.5108 55.2829L 68.0089 55.2829C 68.4489 55.2829 68.8298 54.9825 68.9301 54.5545L 69.0553 53.9963C 70.7575 54.1691 72.8228 54.3694 75.1341 54.571L 72.8819 64.4238L 66.6669 64.4238ZM 58.4733 64.4237C 58.4678 64.4237 58.4609 64.4292 58.4554 64.4292L 58.4554 59.7244L 65.7965 59.7244L 64.7336 64.4237L 58.4733 64.4237ZM 63.8674 68.2384L 58.5131 68.2384L 59.1539 66.3112L 64.3019 66.3112L 63.8674 68.2384ZM 71.2181 71.6841C 70.6998 71.6841 70.2804 72.1121 70.2804 72.6388L 70.2804 75.8307L 70.1965 76.1928L 52.1373 76.1928L 52.1373 74.9624L 57.1876 71.6004C 57.3581 71.4783 57.4805 71.3165 57.552 71.1231L 57.8834 70.1245L 64.6209 70.1245C 65.0568 70.1245 65.4459 69.8118 65.538 69.381L 66.2406 66.3112L 72.4543 66.3112L 71.2278 71.6841L 71.2181 71.6841ZM 72.7361 73.5797L 81.2116 73.5797L 81.2116 75.3272L 72.3387 75.3272L 72.7361 73.5797ZM 52.1373 78.0871L 70.9528 78.0871C 71.3886 78.0871 71.7668 77.7867 71.8754 77.3464L 71.9043 77.2188L 82.1494 77.2188C 82.6746 77.2188 83.0995 76.7936 83.0995 76.2696L 83.0995 72.6388C 83.0995 72.1121 82.6746 71.6841 82.1494 71.6841L 73.1679 71.6841L 74.3971 66.3112L 94.2178 66.3112L 95.8279 71.108C 95.8843 71.3028 96.0108 71.4756 96.2005 71.6059L 101.239 74.9624L 101.239 80.7756L 52.1373 80.7756L 52.1373 78.0871ZM 101.813 56.0332C 102.036 56.0332 102.263 56.0332 102.484 56.0332C 117.624 56.0332 136.327 53.7233 140.001 53.2432C 140.29 53.2089 140.557 53.0292 140.717 52.748C 140.858 52.4737 140.858 52.1554 140.73 51.9126L 128.202 25.1854L 160.471 25.1854C 162 25.1854 163.247 26.4323 163.247 27.959L 163.247 36.307L 147.434 36.307C 144.853 36.307 142.755 38.5881 142.755 41.3822L 142.755 51.7041C 142.755 54.5024 144.853 56.7766 147.434 56.7766L 163.247 56.7766L 163.247 65.1329C 163.247 65.6418 163.097 66.1191 162.852 66.5334L 159.353 59.6146C 159.127 59.1524 158.544 58.9548 158.08 59.1867L 140.76 67.9023L 104.591 67.9023C 103.06 67.9023 101.813 66.6582 101.813 65.1329L 101.813 56.0332ZM 58.355 89.8643L 57.7239 84.5518L 95.6546 84.5518L 95.0208 89.8643L 58.355 89.8643ZM 125.14 152.295C 127.548 152.295 129.729 150.863 130.889 148.688C 132.377 148.79 134.016 148.858 135.684 148.858C 140.143 148.858 146.109 148.389 149.226 146.135C 152.593 143.117 154.958 137.591 157.252 132.249L 157.318 132.096C 158.474 129.407 159.666 126.643 160.962 124.274L 162.712 145.386C 162.738 145.652 162.866 145.885 163.061 146.028C 163.461 146.349 164.101 146.546 164.772 146.546C 165.201 146.546 165.608 146.461 165.919 146.315C 166.239 146.161 166.444 145.851 166.464 145.504C 166.906 133.893 167.777 125.026 169.482 114.922C 171.31 113.253 172.238 111.519 172.325 109.625C 172.446 107.127 171.11 104.48 168.124 101.311C 167.958 101.126 167.72 101.016 167.454 101.004L 167.394 101.001L 167.328 101.022C 167.285 101.042 167.243 101.048 167.2 101.059C 167.069 101.094 166.909 101.134 166.766 101.27C 166.719 101.319 166.682 101.363 166.639 101.4C 166.669 101.279 166.679 101.157 166.657 101.037C 166.591 100.651 166.284 100.339 165.884 100.258C 165.868 100.255 165.418 100.179 164.681 100.179C 163.464 100.179 161.07 100.408 158.714 101.95C 154.151 104.946 151.137 110.51 148.456 115.465C 144.907 121.964 141.552 128.111 135.395 129.225C 135.003 129.295 134.692 129.592 134.618 129.971C 134.541 130.348 134.714 130.742 135.048 130.956C 136.444 131.832 138.364 132.33 140.32 132.33C 142.974 132.33 145.199 131.456 146.583 129.913C 145.206 132.07 143.711 133.386 140.79 133.386C 139.985 133.386 139.076 133.285 138.087 133.079C 137.13 132.883 136.296 132.631 135.587 132.362L 135.626 132.214C 135.768 131.723 135.472 131.204 134.967 131.06L 93.3391 119.653L 93.7393 116.346C 93.7626 116.057 93.676 115.804 93.5041 115.629C 93.4161 115.522 93.3006 115.434 93.1728 115.379L 94.6083 115.379C 94.9933 115.379 95.3219 115.142 95.469 114.8L 136.382 126.004C 136.439 126.016 136.516 126.04 136.606 126.04C 137.03 126.04 137.397 125.761 137.522 125.344L 138.907 120.298C 139.382 118.556 139.204 116.753 138.398 115.212C 137.596 113.655 136.267 112.552 134.656 112.098L 174.665 91.9507C 174.906 91.8286 175.066 91.6379 175.126 91.4116C 175.211 91.1784 175.191 90.9178 175.076 90.6915L 163.794 68.3907C 164.623 67.5498 165.137 66.4004 165.137 65.1329L 165.137 55.8302C 165.137 55.3158 164.714 54.8892 164.194 54.8892L 147.434 54.8892C 145.9 54.8892 144.654 53.4572 144.654 51.7042L 144.654 41.3823C 144.654 39.6292 145.9 38.2027 147.434 38.2027L 164.194 38.2027C 164.714 38.2027 165.137 37.7775 165.137 37.2535L 165.137 27.959C 165.137 25.3926 163.045 23.2953 160.471 23.2953L 127.321 23.2953L 117.307 1.94916C 117.155 1.61721 116.817 1.40323 116.449 1.40323L 90.0116 1.40323C 89.6514 1.40323 89.331 1.60212 89.1715 1.92035L 71.9015 35.5142L 71.8699 35.5142L 63.7093 20.3791L 69.5296 20.3791L 69.5296 21.7411C 69.5296 23.5381 70.9981 25.0003 72.7994 25.0003C 74.5965 25.0003 76.0567 23.5381 76.0567 21.7411L 76.0567 20.2981C 78.7174 19.8373 80.6933 17.5205 80.6933 14.8004L 80.6933 5.55805C 80.6933 2.49372 78.1852 0 75.1107 0L 70.4688 0C 69.9531 0 69.5296 0.415619 69.5296 0.936858L 69.5296 9.23553L 11.1678 9.23553L 11.1678 0.936858C 11.1678 0.415619 10.7443 0 10.2218 0L 5.588 0C 2.508 0 0 2.49372 0 5.55805L 0 14.8004C 0 17.5205 1.97312 19.8373 4.63375 20.2981L 4.63375 21.7411C 4.63375 23.5381 6.10225 25.0003 7.9035 25.0003C 9.702 25.0003 11.1678 23.5381 11.1678 21.7411L 11.1678 20.3791L 32.4308 20.3791L 24.2619 35.5142L 13.6881 35.5142C 13.1711 35.5142 12.7325 35.9518 12.7325 36.4607L 12.7325 44.4178C 12.7325 44.9445 13.1615 45.367 13.6881 45.367L 37.9142 45.367L 37.9142 53.3913L 28.1297 53.3913L 26.9569 48.2667C 26.8538 47.8388 26.4756 47.5342 26.0315 47.5342L 17.8764 47.5342C 17.5931 47.5342 17.3236 47.6646 17.1311 47.8964C 16.951 48.1158 16.8891 48.4053 16.951 48.7002L 23.507 77.3464C 23.5964 77.7743 23.9827 78.0871 24.4228 78.0871L 50.2439 78.0871L 50.2439 81.722C 50.2439 82.2392 50.6674 82.6616 51.1816 82.6616L 102.189 82.6616C 102.715 82.6616 103.139 82.2392 103.139 81.722L 103.139 74.4562C 103.139 74.1311 102.978 73.8335 102.715 73.6744L 97.5205 70.2109L 95.7976 65.063C 95.6615 64.6789 95.3013 64.4238 94.897 64.4238L 74.8275 64.4238L 77.0385 54.7424C 83.8172 55.3213 92.2694 55.9001 99.9185 56.0099L 99.9185 65.1329C 99.9185 67.6966 102.015 69.7829 104.591 69.7829L 137.019 69.7829L 105.086 85.8618C 104.856 85.9838 104.697 86.1814 104.622 86.4091C 104.545 86.6436 104.567 86.9042 104.676 87.1265L 114.514 106.571L 97.0778 101.797L 98.1722 92.7408C 98.2066 92.4746 98.1241 92.2072 97.9316 91.9904C 97.7446 91.7915 97.4958 91.6846 97.2262 91.6846L 96.2129 91.6846C 96.5195 91.5542 96.7505 91.2758 96.8027 90.9288L 97.6676 83.7247C 97.7006 83.4572 97.6113 83.1856 97.4339 82.9895C 97.2565 82.7892 96.9925 82.6712 96.7258 82.6712L 56.65 82.6712C 56.3901 82.6712 56.1344 82.7837 55.9268 83.0004C 55.7562 83.2089 55.6779 83.4696 55.7095 83.7247L 56.5799 90.9288C 56.6198 91.2758 56.8549 91.5542 57.1656 91.6846L 56.1399 91.6846C 55.8827 91.6846 55.627 91.7915 55.4345 91.9932C 55.2558 92.188 55.1746 92.4417 55.2007 92.7366L 57.827 114.544C 57.8834 115.018 58.2835 115.371 58.762 115.371L 60.2374 115.371C 60.0971 115.426 59.9679 115.501 59.8744 115.614C 59.6901 115.817 59.6035 116.083 59.6338 116.364L 60.7241 125.37C 60.7832 125.842 61.1875 126.202 61.6646 126.202L 75.9481 126.202L 74.4672 131.58C 73.9695 133.389 74.1991 135.33 75.1025 136.91C 75.9344 138.357 77.2434 139.393 78.7944 139.826L 123.568 152.084C 124.069 152.225 124.6 152.295 125.14 152.295Z"/>
<path id="path20_fill" fill-rule="evenodd" d="M 1.90551 13.8923C 1.89997 13.8392 1.91521 13.7889 1.95679 13.7358C 1.97757 13.7037 2.00944 13.6744 2.08427 13.6688C 5.05943 13.2791 7.19761 12.1128 8.44337 10.1978C 10.6065 6.83578 9.2471 2.20689 9.24432 2.19851C 9.22354 2.13007 9.22631 2.07699 9.26372 2.01832C 9.29282 1.96245 9.34548 1.93592 9.38844 1.92055C 9.4023 1.92055 9.41061 1.91217 9.44664 1.91217C 9.53255 1.91217 9.61293 1.97363 9.63648 2.05324C 9.86374 2.87035 10.892 7.1305 8.79119 10.4073C 7.48861 12.4396 5.22572 13.6772 2.02192 14.0487C 1.95679 14.0222 1.91521 13.9663 1.90551 13.8923ZM 1.25285 15.8072C 1.52445 15.9316 1.821 16 2.10923 16C 2.11339 16 2.3545 15.993 2.38083 15.979C 6.08072 15.5041 8.77458 13.9775 10.3973 11.4437C 12.9692 7.44199 11.7414 2.45692 11.4643 1.48756C 11.201 0.629943 10.3335 0 9.39954 0C 9.20415 0 9.01431 0.0293322 8.84109 0.0824094C 8.30066 0.238848 7.85445 0.603405 7.58701 1.09926C 7.30432 1.60629 7.24751 2.18595 7.41379 2.73069C 7.52326 3.12876 8.42814 6.67377 6.8498 9.14046C 5.93107 10.5722 4.24464 11.4437 1.84179 11.751C 1.29858 11.8209 0.787247 12.11 0.438044 12.5556C 0.0957698 13.0081 -0.0552744 13.5738 0.0181691 14.1395C 0.112399 14.8882 0.576617 15.5125 1.25285 15.8072Z"/>
<path id="path21_fill" fill-rule="evenodd" d="M 4.49536 7.17852C 3.02467 7.17852 1.82776 5.97701 1.82776 4.49335C 1.82776 3.02294 3.02467 1.81879 4.49536 1.81879C 5.97662 1.81879 7.17618 3.02294 7.17618 4.49335C 7.17618 5.97701 5.97662 7.17852 4.49536 7.17852ZM 0 4.49338C 0 6.97719 2.0169 9 4.49537 9C 6.97913 9 9 6.97719 9 4.49338C 9 2.01487 6.97913 0 4.49537 0C 2.0169 0 0 2.01487 0 4.49338Z"/>
<path id="path22_fill" fill-rule="evenodd" d="M 1.89362 39.118L 62.1064 39.118L 62.1064 1.87787L 1.89362 1.87787L 1.89362 39.118ZM 0.941318 41L 63.0559 41C 63.574 41 64 40.5832 64 40.0665L 64 0.934831C 64 0.41548 63.574 0 63.0559 0L 0.941318 0C 0.421875 0 0 0.41548 0 0.934831L 0 40.0665C 0 40.5832 0.421875 41 0.941318 41Z"/>
<path id="path23_fill" fill-rule="evenodd" d="M 1.87552 4.11771L 4.11492 4.11771L 4.11492 1.87952L 1.87552 1.87952L 1.87552 4.11771ZM 5.05746 0L 0.935705 0C 0.413133 0 0 0.412047 0 0.939083L 0 5.06776C 0 5.59343 0.413133 6 0.935705 6L 5.05746 6C 5.58003 6 6 5.58248 6 5.06776L 6 0.939083C 6 0.421629 5.58003 0 5.05746 0Z"/>
<path id="path24_fill" fill-rule="evenodd" d="M 121.962 36.9444C 121.731 38.7793 120.075 39.8799 118.612 39.8799C 117.962 39.8799 117.418 39.6424 117.074 39.217C 116.438 38.4348 116.124 37.5579 115.963 36.7976C 116.371 37.7692 116.987 38.5981 117.925 38.7449C 118.05 38.7683 118.17 38.7793 118.29 38.7793C 119.46 38.7793 120.825 37.8447 121.012 36.4545C 121.114 35.6792 120.883 34.3919 118.847 33.3146C 120.181 33.9336 122.188 35.17 121.962 36.9444ZM 55.5044 133.799L 55.0006 133.799L 51.5343 132.271C 51.1392 132.098 50.6615 132.218 50.4013 132.566C 50.1095 132.936 49.8521 133.359 49.6084 133.799L 47.9386 133.799C 47.9262 133.069 47.9097 132.349 47.8959 131.62L 47.8753 130.554C 47.867 130.224 47.8615 129.894 47.856 129.567C 49.8714 127.495 52.5172 126.311 55.3667 126.162C 55.4342 128.768 55.4824 131.328 55.5044 133.799ZM 54.1429 141.106L 49.8232 140.576C 49.8644 138.804 50.2058 137.108 50.7895 135.689L 53.9089 135.689C 53.8098 137.505 53.9612 139.404 54.1429 141.106ZM 71.7799 162.992L 71.8983 162.926C 72.2589 162.723 72.6623 162.493 73.0821 162.248L 66.6176 187.195C 66.5571 187.451 66.5956 187.709 66.7264 187.935C 66.8585 188.142 67.0637 188.293 67.3018 188.348L 77.4487 190.962C 77.3551 190.986 77.267 191.017 77.183 191.069C 76.9628 191.2 76.8072 191.408 76.7508 191.64L 75.7954 195.336C 75.7321 195.583 75.7624 195.837 75.8987 196.054C 76.0267 196.269 76.229 196.419 76.4658 196.48L 80.162 197.449L 80.4111 197.462C 80.5915 197.462 80.7594 197.421 80.893 197.342C 81.1049 197.206 81.2591 196.995 81.3183 196.76L 82.2792 193.078C 82.3687 192.719 82.2516 192.361 81.9901 192.132L 92.2898 194.79C 92.5789 194.842 92.784 194.754 92.9409 194.67C 93.1667 194.537 93.3222 194.326 93.3773 194.089L 101.242 163.759C 101.371 163.255 101.064 162.734 100.56 162.607L 80.5075 157.436C 80.6823 157.306 80.8517 157.188 81.032 157.051C 81.5675 156.654 82.0617 156.212 82.5297 155.746L 82.315 156.583C 82.2489 156.831 82.2861 157.086 82.4155 157.306C 82.5435 157.523 82.7486 157.676 82.9923 157.737L 92.7633 160.247C 92.8349 160.259 92.9051 160.267 92.9795 160.267C 93.1763 160.267 93.3333 160.224 93.4448 160.149C 93.6623 160.036 93.8233 159.827 93.9004 159.568L 94.2666 158.16C 94.3299 157.914 94.2927 157.66 94.1647 157.436C 94.0353 157.222 93.8288 157.063 93.5824 157.005L 83.8334 154.498C 83.7811 154.483 83.7246 154.493 83.6723 154.493C 83.7811 154.35 83.8926 154.217 84.0013 154.078L 100.79 158.402C 102.569 158.861 103.638 160.672 103.179 162.438L 94.067 197.626C 93.6884 199.059 92.3201 200.108 90.8141 200.108C 90.5429 200.108 90.2662 200.066 90.0033 200.003L 66.5199 193.947C 65.6582 193.728 64.9341 193.18 64.4839 192.421C 64.031 191.651 63.9044 190.759 64.1315 189.908L 70.987 163.443C 71.2306 163.304 71.4935 163.156 71.7799 162.992ZM 79.8949 155.547C 79.2796 156.009 78.6945 156.424 78.1219 156.826L 75.6371 156.186C 75.3976 156.116 75.1388 156.155 74.9103 156.29C 74.6914 156.424 74.5372 156.635 74.4794 156.865L 73.7539 159.665C 72.983 160.132 72.2837 160.531 71.6464 160.899L 73.2432 154.733C 73.6273 153.27 74.9543 152.246 76.4727 152.246C 76.7852 152.246 77.0536 152.281 77.3042 152.353L 81.997 153.562C 81.3775 154.29 80.6823 154.958 79.8949 155.547ZM 78.4867 158.875L 99.1714 164.199L 91.7749 192.705L 68.688 186.756L 75.4017 160.878C 76.3406 160.302 77.3702 159.636 78.4867 158.875ZM 80.2088 193.512L 79.7201 195.374L 77.8658 194.887L 78.3435 193.035L 80.2088 193.512ZM 73.6521 134.971C 77.1307 134.971 79.8578 135.968 81.7602 137.942C 84.0522 140.322 85.17 143.422 84.9002 146.679C 84.7516 148.541 84.1445 150.318 83.1781 151.915L 77.7791 150.523C 77.3758 150.413 76.9311 150.358 76.4727 150.358C 74.0939 150.358 72.0084 151.962 71.411 154.261L 69.3461 162.216C 68.8161 162.535 68.3811 162.821 68.0424 163.101C 67.5083 163.55 67.1091 164.207 66.6534 164.972L 66.9301 165.139L 66.5998 165.064C 66.3258 165.519 66.0381 165.987 65.7132 166.433C 64.8446 167.604 63.3345 167.85 62.2167 167.85C 59.1854 167.85 55.5526 166.037 54.7307 164.124C 54.5766 163.771 54.2365 163.547 53.8607 163.547C 53.7809 163.547 53.6969 163.556 53.6074 163.576C 53.3652 163.643 53.0871 163.683 52.7595 163.683C 50.4578 163.683 47.231 161.955 45.5764 159.821C 44.928 158.994 44.2246 157.726 44.5673 156.406C 44.6912 155.936 44.8564 155.477 45.0147 155.031L 45.0973 154.806C 45.396 153.985 45.6824 153.218 45.6879 152.495C 45.6989 151.662 45.5571 150.556 45.3575 149.076C 45.0643 146.85 44.6169 143.483 44.42 138.723C 44.3278 136.367 44.9032 134.06 46.0086 132.072C 46.0251 132.975 46.0417 133.869 46.0678 134.77C 46.0802 135.284 46.4973 135.689 47.0135 135.689L 48.7742 135.689C 48.1726 137.421 47.867 139.409 47.9331 141.442C 47.9455 141.919 48.3007 142.298 48.7659 142.342L 55.1341 143.13L 55.2167 143.13C 55.4782 143.13 55.7123 143.031 55.8761 142.864C 56.0853 142.661 56.1886 142.371 56.1569 142.087L 56.1046 141.622C 55.9187 139.936 55.6944 137.708 55.821 135.689L 56.4997 135.689C 57.0242 135.689 57.4481 135.265 57.4481 134.746C 57.4481 134.665 57.4371 134.587 57.4151 134.497C 57.3876 131.829 57.3421 129.052 57.2706 126.224C 63.0344 126.929 66.3134 133.218 67.1931 135.163C 67.3775 135.568 67.8029 135.803 68.3012 135.689C 70.1266 135.221 71.9822 134.971 73.6521 134.971ZM 42.8603 108C 42.4914 116.474 42.7805 119.548 43.1563 123.508C 43.2485 124.474 43.3477 125.512 43.4371 126.704C 41.0432 128.612 36.6078 129.894 31.4649 130.172L 31.4649 81.5205C 32.4891 81.3874 33.7982 81.1897 34.6806 80.9908C 34.7715 80.9757 34.8541 80.9441 34.9325 80.9002L 38.8985 80.0123C 39.3101 79.9135 39.6047 79.5718 39.6405 79.1436C 39.6694 78.6605 39.7024 78.0265 39.6887 77.4035C 39.6639 75.4383 39.3252 73.7009 38.7058 72.1927L 41.1974 72.1927C 41.7109 73.7503 41.9876 75.4822 42.0137 77.3802C 42.0358 78.5219 41.9614 79.7227 41.7907 80.9564L 41.6847 81.7606L 40.7858 81.9692C 40.388 82.0996 40.1182 82.4646 40.1182 82.8777C 40.1182 83.2867 40.4017 83.6544 40.8051 83.7807C 42.976 84.4216 45.0299 85.1654 46.9888 85.9984L 47.9125 90.4077C 47.9964 90.7837 48.2855 91.0678 48.6462 91.135L 52.2474 91.8788C 54.2173 102.937 55.0102 114.03 55.3172 124.266C 52.5543 124.393 49.9539 125.369 47.8009 127.08C 47.6302 119.889 47.2806 112.759 45.6727 107.32C 45.586 107.057 45.4029 106.848 45.1661 106.741C 44.9032 106.605 44.5508 106.624 44.3622 106.741L 44.2466 106.791L 44.1695 106.489L 44.153 106.836L 43.4 107.178C 43.0778 107.331 42.8727 107.647 42.8603 108ZM 13.7439 106.736C 13.4961 106.859 13.3158 107.071 13.2442 107.32C 11.3831 113.593 11.2055 122.139 11.0362 130.401L 11.0362 130.554C 11.0169 131.637 10.9976 132.717 10.9701 133.799L 3.39606 133.799C 3.54335 120.025 4.1408 103.887 7.33725 88.2243C 10.3603 86.535 13.7907 85.0982 17.542 83.9495C 17.9508 83.8191 18.2261 83.428 18.2137 82.9999C 18.1862 82.5772 17.8916 82.2204 17.4759 82.1257L 15.8763 81.7606L 15.7675 80.9523C 15.5968 79.6267 15.5225 78.4575 15.5459 77.3802C 15.6065 73.4635 16.7077 70.2564 18.8112 67.8686C 20.8348 65.5521 23.7422 64.085 26.9703 63.6816L 26.9703 66.053C 26.7335 66.0873 26.4898 66.123 26.2586 66.1737L 23.7614 66.1737C 23.2383 66.1737 22.8102 66.5937 22.8102 67.1097L 22.8102 67.5268C 21.9691 68.0442 21.2051 68.6618 20.5622 69.3932C 18.8236 71.3707 17.9178 74.066 17.8696 77.4035C 17.86 77.9566 17.8792 78.5412 17.926 79.1518C 17.9563 79.5773 18.2454 79.9107 18.6584 80.0123L 22.4509 80.8577C 23.6651 81.0896 25.5703 81.3174 27.1245 81.3325L 27.1245 130.149C 22.1357 129.848 17.8228 128.568 15.4784 126.707L 15.5748 125.69C 16.1392 119.69 16.3966 116.949 16.047 108.012C 16.0442 107.652 15.8391 107.331 15.4977 107.172C 15.3174 107.091 15.1315 107.007 14.9485 106.921L 14.753 106.836L 14.742 106.457L 14.6539 106.786L 14.5616 106.747C 14.3194 106.616 14.055 106.605 13.7439 106.736ZM 68.2572 59.8034L 67.9116 59.1927C 67.6969 58.8125 67.2633 58.6273 66.8145 58.7494C 66.3864 58.8757 66.1055 59.2901 66.1427 59.7416L 66.162 59.9598L 61.9207 59.9598L 61.7293 57.4718L 65.6581 55.2404L 70.1018 58.3144C 69.704 59.0211 69.0501 59.5563 68.2572 59.8034ZM 49.1266 86.9576C 49.9677 87.3597 50.7813 87.7824 51.5714 88.2243C 51.6843 88.7719 51.771 89.3277 51.877 89.8752L 49.6401 89.4141L 49.1266 86.9576ZM 87.1565 80.4638L 95.8015 90.1648L 95.0595 89.7503C 94.9136 89.679 94.7856 89.62 94.641 89.646L 82.1512 89.2467C 81.7946 89.2467 81.4863 89.4141 81.3101 89.7105L 74.4918 101.314L 74.8332 99.2427C 74.8607 99.1096 74.8552 98.9628 74.8098 98.7912L 71.4357 87.9608C 71.3297 87.637 71.053 87.3886 70.6979 87.3103L 58.2562 85.0748L 59.63 84.8607C 59.7842 84.8401 59.9219 84.7853 60.0306 84.6988L 69.2222 78.22C 69.4947 78.0238 69.6434 77.7013 69.6131 77.3802L 68.4155 63.9368L 69.1451 65.2186C 69.2056 65.3352 69.3048 65.445 69.4342 65.5342L 78.6615 71.932C 78.9038 72.1036 79.2245 72.153 79.5453 72.0363L 92.0131 67.1151L 90.8568 68.0936C 90.7287 68.2034 90.6269 68.3571 90.5677 68.5163L 86.9596 79.5457C 86.8619 79.8586 86.9335 80.2154 87.1565 80.4638ZM 43.4839 82.6348L 43.6684 81.2048C 43.8487 79.8764 43.9258 78.585 43.9093 77.3541C 43.8818 75.4932 43.6257 73.7764 43.1673 72.1927L 48.6489 72.1927C 49.1748 72.1927 49.6015 71.7673 49.6015 71.2431L 49.6015 67.1096C 49.6015 66.5936 49.1748 66.1737 48.6489 66.1737L 45.4497 66.1737L 45.4497 61.855L 60.1683 61.855L 61.1044 73.9328L 47.1044 83.7875C 47.0438 83.8328 46.9956 83.8822 46.9502 83.9344C 45.8228 83.4774 44.6775 83.0369 43.4839 82.6348ZM 28.8548 65.9116L 28.8548 63.5608C 32.7616 63.5773 36.371 65.1445 38.7581 67.8685C 39.4023 68.6068 39.9433 69.422 40.3976 70.3085L 37.6981 70.3085C 37.4833 69.9902 37.2548 69.6773 37.0029 69.3932C 35.0715 67.1988 32.1063 65.9308 28.8548 65.9116ZM 24.703 68.6618C 25.2757 68.4038 25.8786 68.1979 26.5119 68.0566L 27.9146 68.0566C 28.1514 68.0566 28.3703 67.9605 28.5369 67.8068C 28.6153 67.8068 28.6979 67.7986 28.7791 67.7986C 31.3369 67.7986 33.6537 68.7071 35.2395 70.3086L 24.703 70.3086L 24.703 68.6618ZM 94.2115 79.1093L 104.956 92.1505L 102.96 96.2085L 85.6931 95.65C 85.3641 95.65 85.053 95.827 84.8782 96.122L 76.2662 110.765L 71.751 110.243L 66.5172 93.3897C 66.4056 93.0563 66.1276 92.8134 65.7999 92.753L 53.8772 90.2924C 53.6969 89.3359 53.5427 88.3821 53.3445 87.4352C 53.2936 87.1539 53.1187 86.9192 52.8888 86.7984C 51.643 86.0862 50.3215 85.4261 48.9532 84.7976L 62.6214 75.1597C 62.9063 74.9744 63.0646 74.6506 63.0316 74.3144L 62.0694 61.855L 66.3327 61.855L 67.6762 77.0014L 59.1235 83.0314L 52.3644 84.062C 51.9073 84.1348 51.5659 84.5259 51.5659 84.9911C 51.5659 85.4522 51.8936 85.8515 52.3423 85.9325L 69.7934 89.0696L 72.9266 99.1412L 71.8019 105.927C 71.7303 106.387 71.9946 106.822 72.442 106.976C 72.5343 107.002 72.6444 107.021 72.7394 107.021C 73.0794 107.021 73.3919 106.843 73.5557 106.559L 75.5972 103.107C 75.6605 103.041 75.7087 102.974 75.7596 102.905L 82.6646 91.146L 94.3547 91.5316L 99.7427 94.5013C 100.123 94.7209 100.666 94.6166 100.942 94.2749C 101.239 93.9112 101.225 93.3952 100.911 93.048L 88.9378 79.6033L 92.2953 69.3561L 97.5979 64.8576C 97.9449 64.553 98.0288 64.0493 97.7976 63.6418C 97.5567 63.2561 97.0473 63.0942 96.633 63.2616L 79.325 70.0766L 70.6924 64.1015L 69.2084 61.4845C 70.2381 61.0673 71.093 60.3331 71.6601 59.3917L 79.5659 64.8631C 79.8261 65.0374 80.1675 65.069 80.4318 64.9674L 96.0245 59.1172L 99.2925 62.2228L 94.0573 78.2145C 93.9458 78.5219 94.0064 78.8595 94.2115 79.1093ZM 5.09477 1.8938L 67.3183 1.8938C 69.0804 1.8938 70.5175 3.32377 70.5175 5.0776L 70.5175 56.2916L 66.2487 53.3328C 65.9527 53.1421 65.5742 53.1187 65.2383 53.2862L 60.2784 56.1296C 59.9563 56.3121 59.7677 56.6621 59.7966 57.023L 60.0251 59.9598L 44.504 59.9598C 43.985 59.9598 43.5569 60.3852 43.5569 60.9081L 43.5569 67.1096C 43.5569 67.6311 43.985 68.0565 44.504 68.0565L 47.7032 68.0565L 47.7032 70.3085L 42.4983 70.3085C 41.9077 68.954 41.141 67.7148 40.1828 66.6266C 37.4434 63.4908 33.3205 61.6876 28.8548 61.667L 28.8548 60.9081C 28.8548 60.3852 28.435 59.9598 27.9146 59.9598L 5.09477 59.9598C 3.33135 59.9598 1.89969 58.5285 1.89969 56.7691L 1.89969 5.0776C 1.89969 3.32377 3.33135 1.8938 5.09477 1.8938ZM 75.2365 122.917C 75.5765 123.094 76.0212 123.033 76.291 122.781C 77.8631 121.372 79.431 120.685 81.0857 120.685C 85.349 120.685 89.7211 125.375 93.2823 129.312C 91.6717 129.857 89.6591 130.149 87.5474 130.149C 82.2861 130.149 77.4377 128.418 75.1966 125.723C 74.9805 125.486 74.6487 125.375 74.3569 125.405C 74.0306 125.442 73.7443 125.653 73.6135 125.943C 72.7339 127.824 71.4165 129.556 70.1651 131.067C 71.6161 126.511 71.8597 122.42 69.3915 117.281L 73.5584 116.283C 74.4945 118.254 74.8717 120.127 74.7148 122C 74.6831 122.387 74.8979 122.758 75.2365 122.917ZM 220.757 43.99C 221.384 43.7993 222.068 43.7018 222.784 43.7018C 225.546 43.7018 228.196 45.022 228.488 45.1689C 228.588 45.2238 228.697 45.2649 228.796 45.3075C 228.986 45.3802 233.435 47.086 234.861 50.2492C 234.948 50.4372 235.04 50.6321 235.141 50.8338C 233.023 47.5636 229.031 45.9909 228.472 45.7892C 228.171 45.63 225.115 44.06 221.728 44.06C 221.109 44.06 220.518 44.1328 219.943 44.2398C 220.229 44.1588 220.506 44.0751 220.757 43.99ZM 263.698 19.8699C 263.712 19.778 263.72 19.6792 263.706 19.5804C 263.654 19.1179 263.275 18.768 262.805 18.735L 250.062 18.2149L 246.405 12.1931L 246.032 8.36571C 245.991 7.91971 245.64 7.56427 245.204 7.5231L 245.12 7.51761C 244.696 7.51761 244.331 7.77287 244.197 8.15849L 240.346 19.3636L 233.454 20.7386L 228.949 19.5118C 228.512 19.3951 228.033 19.6243 227.843 20.0237C 227.638 20.4381 227.779 20.9445 228.167 21.2107L 238.193 27.9996L 237.361 35.0163L 234.938 38.6846C 234.924 38.6791 234.911 38.6667 234.896 38.6613C 234.751 38.5981 234.59 38.5775 234.439 38.5309L 235.489 29.6986C 235.529 29.3692 235.377 29.033 235.101 28.8326L 225.957 22.288L 226.544 19.5804L 237.949 17.3174C 238.282 17.2447 238.545 17.0224 238.655 16.7067L 242.525 5.84475L 245.282 5.56616L 251.27 15.4181C 251.431 15.6734 251.707 15.8435 252.029 15.8696L 263.373 16.5242L 264.425 19.0685L 263.698 19.8699ZM 245.889 36.3256L 236.552 42.9924C 236.554 42.9869 236.563 42.9745 236.568 42.969C 236.922 42.1635 236.941 41.2701 236.62 40.459C 236.563 40.3026 236.477 40.1585 236.399 40.0226L 238.33 38.6407C 238.411 38.6091 238.488 38.557 238.539 38.5227L 246.093 33.1239L 253.167 36.5342L 255.697 39.8799C 255.96 40.2395 256.438 40.3836 256.9 40.1585C 257.305 39.9375 257.498 39.46 257.357 39.0291L 253.627 27.3039L 258.478 21.9381L 263.025 20.5918C 263.039 20.585 263.044 20.585 263.054 20.585L 256.721 27.588C 256.5 27.8254 256.413 28.1643 256.496 28.4772L 259.575 39.5766L 257.448 41.351L 246.865 36.2474C 246.551 36.084 246.16 36.117 245.889 36.3256ZM 239.733 26.7604L 233.633 22.627L 241.257 21.1119C 241.569 21.046 241.839 20.8141 241.962 20.5012L 244.592 12.8409C 244.613 12.9026 244.642 12.9548 244.675 12.9918L 248.71 19.627C 248.871 19.9029 249.16 20.0676 249.481 20.0813L 257.318 20.412C 257.293 20.4326 257.275 20.4546 257.256 20.482L 251.855 26.4365C 251.628 26.6849 251.551 27.0321 251.65 27.3629L 254.039 34.8489L 246.411 31.1725C 246.109 31.027 245.729 31.0558 245.44 31.2534L 239.115 35.778C 239.169 35.6792 239.2 35.5749 239.213 35.4651L 240.142 27.6524C 240.186 27.2929 240.028 26.9512 239.733 26.7604ZM 234.211 40.4453C 234.5 40.5922 234.729 40.8296 234.852 41.137C 234.977 41.4581 234.963 41.7998 234.845 42.1209L 234.064 41.6639L 234.211 40.4453ZM 238.036 53.0515L 238.272 52.8086C 237.591 51.498 237.005 50.3713 236.586 49.4656C 234.879 45.6752 230.046 43.7567 229.47 43.5426C 229.433 43.5193 229.384 43.4987 229.333 43.4781C 228.532 43.076 225.756 41.8135 222.784 41.8135C 221.856 41.8135 220.98 41.9411 220.181 42.1936C 219.182 42.512 217.848 42.8647 216.456 43.2297C 213.551 43.9708 209.581 44.9781 206.125 46.4739C 206.043 46.5069 205.984 46.5206 205.932 46.5206C 205.752 46.5206 205.592 46.4163 205.52 46.2434C 205.468 46.1363 205.468 46.006 205.515 45.8866C 205.559 45.7768 205.64 45.6958 205.746 45.6464C 209.255 44.1272 213.282 43.0939 216.223 42.3405L 216.73 42.2046C 217.976 41.878 219.055 41.5967 219.9 41.3277C 221.516 40.8089 223.433 40.7595 225.551 41.2152C 225.933 41.2728 226.306 41.104 226.515 40.8035C 226.734 40.4768 226.725 40.0569 226.504 39.7495C 226.162 39.2486 226.096 38.6173 226.341 38.0643C 226.706 37.2491 227.798 36.8196 228.627 37.1874C 229.499 37.573 229.892 38.6036 229.513 39.4723C 229.316 39.8909 228.986 40.2037 228.556 40.3725C 228.196 40.5139 227.959 40.8666 227.959 41.2467C 227.959 41.631 228.193 41.9823 228.551 42.1209C 229.134 42.361 229.553 42.5642 229.846 42.7055C 230.014 42.7714 230.412 42.9306 230.936 43.1803C 231.282 43.345 231.716 43.2736 231.952 43.0472C 232.087 42.9402 232.185 42.7974 232.233 42.6328C 232.319 42.7755 232.427 42.899 232.572 42.9868L 233.275 43.3972C 233.213 43.4987 233.164 43.6058 233.138 43.7306C 233.063 44.0806 233.211 44.4593 233.512 44.6734C 235.375 45.9799 236.689 47.4647 237.423 49.0855C 237.826 49.9692 238.402 51.0657 239.065 52.342L 239.137 52.4792C 240.637 55.3296 242.507 58.8825 243.702 62.4396C 243.74 62.5562 243.733 62.677 243.678 62.7813C 243.625 62.898 243.538 62.9734 243.411 63.0215C 243.309 63.0571 243.174 63.0475 243.095 63.0132C 242.975 62.9583 242.885 62.8568 242.839 62.7237C 241.692 59.3134 239.821 55.7564 238.322 52.9019L 238.036 53.0515ZM 238.045 75.7745C 236.889 77.3747 235.355 78.5123 233.487 79.2136L 237.091 75.6208C 237.718 74.995 238.388 74.4447 239.089 73.9329C 238.791 74.5696 238.461 75.1982 238.045 75.7745ZM 211.382 98.5771C 211.195 98.7569 211.1 98.9943 211.1 99.2509C 211.1 99.5007 211.2 99.7381 211.382 99.9179L 217.4 105.919C 216.698 108.325 215.943 110.617 215.465 112.03L 191.428 112.03C 190.623 109.656 188.34 102.717 187.815 98.9161C 187.794 98.6993 187.685 98.4852 187.52 98.3342L 179.635 91.0472L 191.712 83.9289C 192.715 86.7778 196.048 94.1884 203.447 94.1884C 210.86 94.1884 214.178 86.7806 215.18 83.9289L 222.024 87.9608L 211.382 98.5771ZM 219.373 98.337C 219.215 98.4907 219.112 98.6842 219.08 98.8983C 218.894 100.256 218.482 102.013 217.988 103.835L 213.39 99.2428L 223.712 88.9544L 227.262 91.0472L 219.373 98.337ZM 247.278 90.4132C 248.868 91.9969 250.981 92.8683 253.232 92.8683C 255.488 92.8683 257.601 91.9969 259.192 90.4132C 260.619 88.9777 261.485 87.0963 261.633 85.1009L 265.69 81.0484C 268.531 87.6425 267.073 95.3783 261.997 100.445L 238.29 124.064L 219.537 105.372C 220.121 103.276 220.651 101.163 220.904 99.5008L 229.487 91.5742C 229.703 91.3752 229.815 91.0733 229.781 90.7728C 229.75 90.4804 229.574 90.2169 229.32 90.0687L 225.096 87.5766L 230.921 81.773C 234.628 81.2776 237.603 79.6267 239.587 76.8861C 240.581 75.5083 241.247 73.9384 241.666 72.3465C 244.08 71.1484 246.751 70.4966 249.537 70.4966C 251.996 70.4966 254.449 71.0057 256.655 71.9787L 252.516 76.1094C 250.546 76.2686 248.69 77.1291 247.278 78.5357C 243.996 81.8101 243.996 87.1361 247.278 90.4132ZM 200.366 65.0305C 199.652 63.4798 199.403 62.0526 199.403 60.8038C 199.421 55.6713 203.625 51.4678 206.461 50.2382C 209.539 48.9029 213.11 47.9766 215.987 47.2328C 217.398 46.8746 218.551 46.5755 219.46 46.2832C 220.133 46.0581 220.896 45.9538 221.728 45.9538C 224.274 45.9538 226.701 47.0105 227.633 47.473L 227.722 47.5141C 227.769 47.532 232.46 49.2542 234.041 52.7276C 234.386 53.4947 234.861 54.4128 235.406 55.4654L 235.682 55.9896C 237.05 58.5902 238.754 61.8316 239.817 64.9962C 240.357 66.5854 240.46 68.8292 240.01 71.0811C 238.469 71.9389 237.033 72.9983 235.753 74.2773L 230.051 79.9574C 225.968 80.3128 220.807 79.1806 214.734 76.495C 207.395 73.2467 203.429 69.8653 201.374 66.8091C 201.073 66.1998 200.731 65.6097 200.366 65.0305ZM 125.678 100.6L 138.565 91.1926C 139.725 92.2164 139.265 94.0663 139.089 94.6193C 138.963 94.9967 138.758 95.381 138.552 95.757L 138.491 95.8709C 137.942 96.8494 137.269 98.0625 138.018 99.5117C 138.239 99.9344 138.552 100.294 138.926 100.6L 125.678 100.6ZM 119.884 102.497L 117.501 104.234L 112.044 105.223C 111.575 104.327 111.141 103.449 110.733 102.58C 110.984 102.525 111.244 102.497 111.514 102.497L 119.884 102.497ZM 113.828 112.166L 107.816 112.166L 107.816 106.173C 107.816 105.087 108.298 104.124 109.048 103.449C 109.555 104.523 110.099 105.612 110.689 106.718C 110.852 107.028 111.177 107.213 111.533 107.213C 111.577 107.213 111.646 107.213 111.697 107.201L 118.046 106.055C 118.195 106.029 118.335 105.964 118.444 105.883L 123.083 102.497L 171.831 102.497C 173.868 102.497 175.528 104.143 175.528 106.173L 175.528 112.166L 169.52 112.166C 168.996 112.166 168.567 112.589 168.567 113.109L 168.567 121.421L 114.781 121.421L 114.781 113.109C 114.781 112.589 114.355 112.166 113.828 112.166ZM 129.518 74.877C 129.536 74.2115 129.589 73.5624 129.679 72.9201L 138.609 78.0005L 135.003 78.0005L 129.518 74.877ZM 129.521 78.0004L 129.513 77.048L 131.177 78.0004L 129.521 78.0004ZM 115.726 80.2291L 115.459 81.2076C 115.393 81.4944 115.457 81.7922 115.626 82.009C 115.801 82.2382 116.075 82.3796 116.358 82.3864C 117.235 82.4125 118.891 82.4125 119.78 82.3864C 120.063 82.3796 120.328 82.241 120.509 82.009C 120.685 81.784 120.744 81.4889 120.672 81.1966L 120.405 80.2291C 121.333 80.0493 122.155 79.2918 122.575 78.2036C 123.126 76.7791 122.83 75.2764 121.811 74.3734C 120.813 73.4663 118.853 73.3647 118.051 73.3647C 117.455 73.3647 115.421 73.432 114.386 74.3034C 114.163 74.4942 113.966 74.7233 113.805 74.9662C 114.226 73.0148 114.792 71.0469 115.503 69.0776L 127.601 75.9598L 127.641 78.9556C 127.644 79.4798 128.065 79.8902 128.595 79.8902L 134.502 79.8902L 139.676 82.8352L 115.421 96.649C 113.842 92.3386 113.006 88.0075 112.94 83.7752C 112.897 81.6975 113.032 79.5951 113.353 77.4707C 113.392 77.7013 113.454 77.9222 113.533 78.1473C 113.945 79.263 114.778 80.0411 115.726 80.2291ZM 118.067 78.8142L 118.521 80.5104L 117.61 80.5104L 118.067 78.8142ZM 120.448 77.0069C 120.268 76.7901 119.998 76.6624 119.723 76.6624C 119.681 76.6624 119.635 76.6652 119.606 76.672L 118.634 76.7818C 118.418 76.8079 118.219 76.8998 118.067 77.0618C 117.918 76.9122 117.713 76.8134 117.494 76.7791L 116.544 76.672C 116.216 76.6309 115.904 76.7558 115.704 76.9987C 115.498 77.221 115.421 77.5599 115.509 77.8811L 115.517 77.9044C 115.44 77.7891 115.368 77.6491 115.312 77.4941C 115.119 76.9643 115.079 76.2 115.62 75.7485C 115.852 75.5508 116.686 75.2531 118.051 75.2531C 119.299 75.2531 120.268 75.5193 120.549 75.7677C 121.058 76.237 121.006 77.0041 120.8 77.5256C 120.75 77.6587 120.692 77.774 120.627 77.8783C 120.717 77.5833 120.646 77.2525 120.448 77.0069ZM 171.616 30.64C 171.869 31.0737 172.103 31.5307 172.303 32.0343L 170.318 32.6395C 170.139 32.2196 169.935 31.8435 169.708 31.4963C 170.376 31.1889 171.012 30.8994 171.616 30.64ZM 162.634 31.8668C 163.238 31.2218 164.13 30.8911 165.293 30.8911C 165.408 30.8911 165.521 30.8939 165.632 30.8993C 165.851 30.9172 166.059 30.9666 166.264 31.0242C 164.896 31.6816 163.446 32.4048 161.935 33.198C 162.063 32.6724 162.301 32.2085 162.634 31.8668ZM 158.047 32.4144C 158.307 31.1752 158.891 30.0512 159.732 29.1579C 161.25 27.5413 163.347 26.7947 165.884 26.9484C 167.459 27.05 168.918 27.6689 170.098 28.7352L 170.147 28.7777C 170.251 28.8738 170.346 28.9863 170.445 29.0879C 169.798 29.3774 169.105 29.6876 168.387 30.0197C 167.635 29.4378 166.736 29.0879 165.755 29.0206C 163.887 28.8916 162.312 29.4433 161.248 30.57C 160.667 31.1889 160.259 31.9656 160.076 32.8192C 159.976 33.2858 159.951 33.7634 159.989 34.2465C 159.342 34.5937 158.693 34.9614 158.037 35.3347C 157.845 34.3713 157.845 33.3723 158.047 32.4144ZM 104.369 39.8456C 104.718 41.078 105.669 41.9412 107.196 42.405C 111.038 43.5042 113.295 40.997 114.536 38.6174C 114.805 39.2775 115.165 39.8799 115.598 40.4069C 116.32 41.2838 117.385 41.771 118.612 41.771C 120.902 41.771 123.49 40.0487 123.844 37.1737C 124.049 35.5379 123.285 34.0297 121.631 32.7699C 133.762 31.5458 144.856 23.0552 146.526 21.7267L 147.874 21.7954C 149.87 21.8914 153.697 22.0767 159.777 22.3896C 169.074 22.8575 173.615 25.5473 175.413 27.0061C 174.628 27.3108 173.554 27.7444 172.282 28.2865C 171.996 27.9475 171.699 27.6236 171.378 27.33L 171.306 27.2874C 169.825 25.959 167.989 25.1905 166.004 25.0697C 162.974 24.8557 160.239 25.8602 158.346 27.8583C 157.266 29.007 156.523 30.4479 156.194 32.0261C 155.893 33.4245 155.957 34.9039 156.336 36.3256C 153.215 38.1604 150.019 40.2271 146.95 42.5258C 134.678 51.7094 127.177 54.5885 112.051 55.9293C 111.159 56.0048 110.278 56.0418 109.424 56.0418C 98.9153 56.0418 92.2567 50.2616 90.1051 48.0549C 95.2673 44.7668 100.615 40.4247 104.5 37.0776C 104.186 38.1261 104.144 39.0579 104.369 39.8456ZM 163.485 45.1743L 163.494 42.3844C 163.494 42.0372 163.3 41.7188 162.996 41.5528C 160.563 40.2422 159.308 38.5679 158.647 37.1613C 159.258 36.8114 159.864 36.4696 160.466 36.1362C 161.215 37.8475 162.776 39.2692 164.938 40.19L 165.567 40.4535L 165.562 45.1634C 165.562 45.4186 165.665 45.6697 165.832 45.8344C 166.012 46.0142 166.249 46.113 166.499 46.113L 169.324 46.113L 169.324 51.8878C 169.324 52.3887 169.703 52.7976 170.209 52.8402C 173.311 53.057 176.343 53.5057 179.225 54.1837C 188.577 56.3753 195.299 60.5705 198.819 66.1627C 199.049 66.6321 199.317 67.1096 199.63 67.5954C 200.881 70.0423 201.572 72.7252 201.616 75.6153L 201.647 78.0004L 142.425 78.0004L 130.066 70.9563C 132.046 63.3495 139.214 57.4869 150.469 54.5336C 153.126 53.8365 155.938 53.3273 158.821 53.0282C 159.312 52.9801 159.678 52.5712 159.678 52.0854L 159.678 46.113L 162.539 46.113C 163.062 46.113 163.485 45.6958 163.485 45.1743ZM 115.993 65.1294L 127.901 71.9032C 127.792 72.5317 127.71 73.1685 127.661 73.8203L 115.474 66.8805C 115.234 66.7501 114.933 66.7281 114.695 66.8201C 114.432 66.9093 114.226 67.1096 114.128 67.3704C 111.981 72.8817 110.939 78.4204 111.032 83.8136C 111.119 88.6333 112.132 93.5284 114.04 98.3603C 114.149 98.6183 114.355 98.8173 114.644 98.9134C 114.719 98.9326 114.811 98.9559 114.931 98.9559C 115.096 98.9559 115.26 98.9161 115.393 98.8297L 142.051 83.6544C 142.352 83.4884 142.54 83.1728 142.54 82.8352C 142.54 82.4935 142.352 82.1833 142.054 82.0159L 138.322 79.8902L 141.93 79.8902L 145.297 81.8046L 145.297 84.2761C 144.801 85.7143 144.248 86.8616 143.719 87.9238C 142.635 90.1415 141.699 92.0572 142.701 95.193C 142.887 95.7776 143.176 96.2991 143.444 96.7918C 143.971 97.7469 144.148 98.1545 143.894 98.6348C 143.488 99.4047 142.545 99.6778 141.795 99.6778C 141.083 99.6778 140.106 99.4047 139.703 98.6348C 139.442 98.1462 139.619 97.74 140.176 96.7424C 140.427 96.2895 140.713 95.7721 140.891 95.1985C 141.466 93.3925 141.423 90.9607 139.566 89.5651C 139.361 89.4182 139.164 89.2961 138.961 89.1918C 138.662 89.0505 138.264 89.0793 137.98 89.2783L 122.476 100.6L 111.514 100.6C 110.973 100.6 110.458 100.702 109.965 100.847C 107.439 95.0311 106.221 89.646 106.125 83.8877C 105.973 76.1066 107.909 68.1224 111.877 60.1451L 116.238 62.5961C 116.018 63.0338 115.806 63.4702 115.607 63.9025C 115.403 64.3513 115.563 64.8741 115.993 65.1294ZM 118.316 36.8868L 118.245 36.8868C 118.058 36.8552 117.61 36.1512 117.301 34.6664C 118.804 35.2743 119.177 35.9083 119.136 36.2034C 119.093 36.5533 118.617 36.8868 118.316 36.8868ZM 5.09478 61.855L 26.4004 61.855C 22.8556 62.3792 19.644 64.0384 17.3782 66.6197C 14.9719 69.3561 13.7137 72.9681 13.6448 77.3541C 13.6297 78.548 13.7054 79.8449 13.8857 81.1993L 14.0729 82.6554C 14.0922 82.7967 14.1445 82.9395 14.223 83.0575C 11.2482 84.1293 8.48947 85.3849 6.01573 86.7998C 5.78446 86.937 5.6234 87.1621 5.57246 87.4256C 2.1998 103.686 1.61888 120.466 1.49498 134.735C 1.4881 134.984 1.5941 135.239 1.77168 135.412C 1.95064 135.592 2.18741 135.689 2.43933 135.689L 11.8965 135.689C 12.4073 135.689 12.834 135.276 12.845 134.767L 12.9345 130.397C 13.0708 123.702 13.2126 116.8 14.256 111.216C 14.424 117.62 14.1748 120.3 13.6806 125.505L 13.5416 127.028C 13.514 127.336 13.6352 127.642 13.8541 127.813C 16.5852 130.274 21.8865 131.871 28.0757 132.088C 28.318 132.088 28.5437 132.002 28.7392 131.816C 28.9154 131.634 29.0159 131.388 29.0159 131.14L 29.0159 80.3595C 29.0159 80.1015 28.9127 79.8586 28.7103 79.6596C 28.53 79.5004 28.3001 79.4126 28.0206 79.4098C 26.3728 79.5114 24.1166 79.2561 22.8377 79.0023L 19.7734 78.3216C 19.761 78.0238 19.761 77.7191 19.761 77.4378C 19.8134 74.5518 20.5622 72.2627 21.9884 70.6352C 22.2375 70.3552 22.5211 70.0972 22.8102 69.8474L 22.8102 71.2431C 22.8102 71.7673 23.2383 72.1927 23.7614 72.1927L 36.6078 72.1927C 37.3581 73.6282 37.7628 75.3779 37.7876 77.4378C 37.7958 77.7246 37.7958 78.0265 37.7821 78.3271L 34.2883 79.1093C 34.1974 79.1203 34.1107 79.1518 34.0253 79.1957C 32.8759 79.4277 31.2267 79.6623 30.4104 79.757C 29.93 79.8147 29.572 80.2154 29.572 80.6861L 29.572 131.156C 29.572 131.409 29.6739 131.654 29.857 131.829C 30.0594 132.025 30.3016 132.066 30.5439 132.098C 36.8336 131.929 42.2629 130.323 45.0546 127.816C 45.2749 127.624 45.3905 127.333 45.3575 127.049C 45.2694 125.749 45.1661 124.638 45.0698 123.603L 45.0299 123.224C 44.7229 119.924 44.4682 117.244 44.6389 111.167C 45.6177 116.325 45.8131 122.616 45.9412 128.873C 43.6312 131.568 42.3854 135.137 42.5272 138.796C 42.7227 143.511 43.1673 146.945 43.4633 149.22L 43.4757 149.327C 43.656 150.683 43.7978 151.771 43.7923 152.484C 43.7923 152.842 43.5789 153.429 43.3545 154.049L 43.2912 154.229C 43.1054 154.747 42.8906 155.335 42.7323 155.925C 42.3152 157.564 42.7764 159.312 44.069 160.982C 46.211 163.733 50.4674 165.838 53.3555 165.545C 54.8601 167.866 58.7752 169.728 62.2167 169.728C 64.444 169.728 66.1785 168.976 67.2344 167.56C 67.6281 167.03 67.9626 166.469 68.2462 165.985L 68.3012 165.904C 68.3521 165.814 68.4072 165.727 68.4568 165.64L 62.2841 189.431C 61.5752 192.21 63.2574 195.056 66.0436 195.785L 89.5283 201.83C 89.9688 201.945 90.3942 202 90.832 202C 93.219 202 95.3004 200.394 95.8965 198.089L 105.014 162.916C 105.736 160.143 104.051 157.295 101.257 156.576L 85.0929 152.408C 86.0387 150.691 86.6292 148.795 86.7875 146.832C 87.0986 143.02 85.7991 139.393 83.1285 136.633C 80.3396 133.742 76.207 132.572 70.7667 133.287C 72.1227 131.701 73.5832 129.927 74.7079 127.944C 78.0296 130.96 83.4741 132.043 87.5474 132.043C 90.536 132.043 93.2906 131.503 95.3128 130.528C 95.5757 130.395 95.7657 130.141 95.8194 129.854C 95.8744 129.562 95.7877 129.264 95.595 129.046L 95.4215 128.855C 90.9531 123.908 86.3236 118.792 81.0857 118.792C 79.5576 118.792 78.0475 119.258 76.5993 120.174C 76.441 118.387 75.8753 116.557 74.9103 114.725C 74.6983 114.371 74.2743 114.175 73.8475 114.274L 67.7974 115.718C 67.5111 115.778 67.266 115.973 67.1352 116.257C 67.0237 116.534 67.0348 116.829 67.1697 117.084C 70.1995 122.71 69.7191 126.918 67.7767 132.181C 66.0243 129.17 62.5856 124.813 57.2224 124.304C 56.914 114.16 56.1431 103.206 54.2503 92.2919L 64.868 94.4862L 70.1197 111.399C 70.2298 111.752 70.5423 112.01 70.9223 112.059L 76.7012 112.727L 76.7783 112.727C 77.1183 112.727 77.4267 112.552 77.5877 112.258L 86.2314 97.5644L 103.524 98.1202C 103.908 98.1202 104.229 97.9226 104.39 97.5932L 105.783 94.7703C 106.405 97.0305 107.23 99.321 108.249 101.664C 106.843 102.682 105.919 104.318 105.919 106.173L 105.919 113.109C 105.919 113.63 106.349 114.05 106.875 114.05L 112.885 114.05L 112.885 122.361C 112.885 122.882 113.308 123.305 113.828 123.305L 169.52 123.305C 170.044 123.305 170.467 122.882 170.467 122.361L 170.467 114.05L 176.478 114.05C 177.003 114.05 177.425 113.63 177.425 113.109L 177.425 106.173C 177.425 103.102 174.916 100.6 171.831 100.6L 144.665 100.6C 145.041 100.294 145.352 99.9344 145.572 99.5117C 146.331 98.0708 145.647 96.8494 145.063 95.8064C 144.854 95.4153 144.639 95.016 144.51 94.6139C 143.736 92.2109 144.332 90.9868 145.442 88.717C 145.984 87.6136 146.597 86.3634 147.133 84.7194C 147.168 84.6233 147.184 84.5218 147.184 84.4271L 147.184 81.2542C 147.184 80.907 146.997 80.5914 146.705 80.4377L 145.743 79.8901L 202.616 79.8901C 202.869 79.8901 203.121 79.7859 203.286 79.6033C 203.464 79.4249 203.559 79.1848 203.556 78.9268L 203.509 75.592C 203.489 74.1964 203.338 72.8419 203.055 71.5381C 205.54 73.7709 209.039 76.0435 213.962 78.22C 219.325 80.5942 224.062 81.8334 228.081 81.9198L 223.408 86.583L 215.132 81.7057C 214.881 81.5548 214.58 81.5205 214.267 81.6412C 213.996 81.7606 213.783 82.009 213.726 82.2821C 213.611 82.6897 210.837 92.2864 203.447 92.2864C 195.88 92.2864 193.201 82.3864 193.175 82.2766C 193.091 81.9802 192.886 81.7469 192.616 81.6357C 192.333 81.5287 192.004 81.5575 191.782 81.703L 177.567 90.0687C 177.317 90.2224 177.143 90.4886 177.117 90.7782C 177.083 91.0856 177.194 91.3862 177.412 91.5769L 185.991 99.5007C 186.738 104.388 189.824 113.202 189.856 113.301C 190.001 113.677 190.357 113.917 190.755 113.917L 216.149 113.917C 216.547 113.917 216.908 113.666 217.041 113.286L 217.077 113.184C 217.429 112.155 218.174 109.94 218.93 107.444L 237.628 126.084C 237.808 126.256 238.038 126.348 238.29 126.348C 238.542 126.348 238.78 126.256 238.962 126.079L 263.333 101.779C 269.291 95.838 270.721 86.4705 266.811 79.0023C 266.673 78.7388 266.415 78.548 266.114 78.5041C 265.811 78.4574 265.501 78.5617 265.305 78.7703L 260.05 84.0099C 259.877 84.1718 259.778 84.3955 259.761 84.659C 259.711 86.3291 259.033 87.8977 257.849 89.0697C 256.618 90.3034 254.975 90.9813 253.232 90.9813C 251.496 90.9813 249.859 90.3034 248.619 89.0697C 246.079 86.5377 246.079 82.4125 248.622 79.8709C 249.778 78.7127 251.321 78.0375 252.984 77.9716C 253.214 77.9565 253.425 77.8605 253.605 77.693L 258.93 72.3808C 259.146 72.1722 259.248 71.8689 259.199 71.5821C 259.168 71.2925 258.993 71.0318 258.712 70.8698C 255.89 69.3905 252.72 68.6069 249.537 68.6069C 246.937 68.6069 244.417 69.1132 242.09 70.0629C 242.321 67.9605 242.142 65.9432 241.617 64.3911C 241.589 64.3156 241.557 64.2374 241.531 64.1619C 241.75 64.4034 242.018 64.6024 242.333 64.7438C 242.628 64.8686 242.947 64.9331 243.258 64.9331C 243.509 64.9331 243.759 64.8947 244.022 64.8055C 244.624 64.6024 245.099 64.1852 245.37 63.6418C 245.652 63.0942 245.705 62.4341 245.506 61.8413C 244.285 58.1991 242.404 54.6146 240.896 51.7341L 240.825 51.601C 240.116 50.2616 239.54 49.1637 239.149 48.3129C 238.636 47.167 237.875 46.0746 236.886 45.0563C 236.944 45.0275 237.005 45.0097 237.055 44.9699L 246.539 38.1837L 257.184 43.3244C 257.503 43.4726 257.91 43.4178 258.188 43.1913L 261.255 40.6388C 261.546 40.3959 261.665 40.0103 261.562 39.6631L 258.464 28.4717L 266.228 19.896C 266.48 19.6188 266.548 19.2359 266.406 18.9038L 264.907 15.2479C 264.766 14.9117 264.439 14.688 264.085 14.6716L 252.636 14.0142L 246.594 4.07307C 246.425 3.79175 246.122 3.62158 245.783 3.62158L 241.744 4.02916C 241.383 4.05798 241.07 4.30225 240.946 4.64671L 237.05 15.5691L 225.558 17.8499C 225.192 17.9254 224.903 18.2149 224.823 18.5855L 223.972 22.5021C 223.895 22.8726 224.049 23.2637 224.349 23.4655L 233.535 30.0348L 232.517 38.6064C 232.164 38.7216 231.824 38.8781 231.535 39.1045C 231.586 38.5515 231.509 37.9929 231.304 37.4605C 230.953 36.5602 230.277 35.8507 229.399 35.4651C 228.951 35.2689 228.472 35.1673 227.975 35.1673C 226.526 35.1673 225.173 36.0236 224.601 37.2972C 224.349 37.8708 224.254 38.487 224.312 39.099C 222.503 38.8932 220.814 39.0428 219.322 39.5299C 218.471 39.8072 217.385 40.0857 215.927 40.459L 215.747 40.5112C 212.551 41.3332 208.578 42.3556 204.981 43.9187C 203.802 44.4333 203.261 45.8152 203.778 47.0009C 204.156 47.8696 205.05 48.3993 205.969 48.3966C 205.88 48.4405 205.79 48.4666 205.703 48.5036C 202.31 49.9802 197.528 54.7765 197.509 60.801C 197.509 61.0192 197.522 61.2471 197.533 61.4707C 193.457 57.3044 187.406 54.1549 179.654 52.3365C 176.971 51.7094 174.138 51.2716 171.224 51.0259L 171.224 45.1688C 171.224 44.6419 170.794 44.2247 170.267 44.2247L 167.455 44.2247L 167.47 39.8305C 167.47 39.4545 167.245 39.1155 166.892 38.9536L 165.676 38.4444C 163.898 37.6938 162.66 36.5534 162.144 35.2304C 164.209 34.1285 166.179 33.15 167.976 32.2978C 168.319 32.7822 168.604 33.3723 168.823 34.0983C 168.9 34.3329 169.074 34.536 169.279 34.6321C 169.485 34.7501 169.708 34.794 170.004 34.7186L 173.793 33.5548C 174.029 33.4903 174.228 33.3353 174.35 33.1116C 174.479 32.8892 174.506 32.623 174.434 32.376C 174.152 31.4648 173.787 30.6427 173.362 29.8838C 175.513 28.9808 176.982 28.4251 177.452 28.2535C 177.742 28.1588 177.96 27.9269 178.042 27.6456C 178.133 27.356 178.081 27.05 177.904 26.8071C 177.478 26.2334 173.356 21.1874 159.871 20.5012C 150.269 20.0031 146.288 19.8247 146.211 19.8247C 146.039 19.8411 145.813 19.8823 145.607 20.0415C 145.477 20.1485 132.192 31.0297 118.747 31.0297C 118.598 31.0297 118.449 31.027 118.303 31.0242L 118.009 31.0215C 117.513 31.0819 117.157 31.3948 117.097 31.8065C 117.031 32.1701 117.199 32.5269 117.494 32.7355C 117.157 32.6107 116.801 32.4981 116.397 32.3911C 116.108 32.3074 115.794 32.3678 115.543 32.5709C 115.305 32.7698 115.176 33.08 115.203 33.3723C 115.214 33.5315 115.242 33.806 115.284 34.16C 115.203 34.1161 115.114 34.0763 115.016 34.0557C 114.522 33.9748 114.04 34.3096 113.931 34.8078C 113.919 34.8723 112.601 40.7856 108.956 40.7856C 108.593 40.7856 108.185 40.7198 107.742 40.5921C 106.862 40.3286 106.368 39.9265 106.195 39.3241C 105.65 37.4248 108.177 34.0118 109.109 32.9647C 109.43 32.5791 109.409 32.011 109.051 31.6583C 108.693 31.3138 108.123 31.2822 107.706 31.6871C 105.939 33.3353 96.6811 41.7998 88.1449 47.0599C 87.9163 47.1889 87.7498 47.4332 87.7043 47.6967C 87.6603 47.9602 87.7236 48.2291 87.9095 48.4748C 88.712 49.445 96.1277 57.9329 109.424 57.9329L 109.434 57.9329C 110.345 57.9329 111.28 57.8917 112.209 57.808C 127.773 56.4329 135.487 53.4659 148.086 44.0339C 151.007 41.8547 154.044 39.8771 157.01 38.1164C 157.959 40.0336 159.539 41.7119 161.597 42.9347L 161.59 44.2247L 158.738 44.2247C 158.211 44.2247 157.786 44.6419 157.786 45.1688L 157.786 51.2428C 155.058 51.5666 152.439 52.0593 149.994 52.7016C 138.245 55.7879 130.65 61.9332 128.343 69.9751L 117.699 63.9135C 117.908 63.499 118.118 63.0709 118.341 62.6427C 118.573 62.183 118.407 61.6382 117.962 61.3925L 111.961 58.0138C 111.734 57.8807 111.413 57.8574 111.225 57.9274C 110.984 57.9878 110.776 58.1552 110.643 58.3954C 106.221 66.9354 104.064 75.5248 104.229 83.9179C 104.255 85.5469 104.385 87.1429 104.59 88.7279L 96.0121 78.3133L 101.278 62.2406C 101.386 61.8934 101.297 61.5229 101.033 61.2676L 96.9041 57.351C 96.6577 57.0985 96.2544 57.0093 95.9157 57.1397L 80.2336 63.0283L 72.336 57.5527C 72.3732 57.2961 72.4117 57.0354 72.4117 56.7691L 72.4117 5.07762C 72.4117 2.27532 70.1266 0 67.3183 0L 5.09478 0C 2.28515 0 0 2.27532 0 5.07762L 0 56.7691C 0 59.5769 2.28515 61.855 5.09478 61.855Z"/>
<path id="path25_fill" fill-rule="evenodd" d="M 51.605 0.109991L 0.492213 28.2293C 0.281714 28.3363 0.119057 28.527 0.0466128 28.767C -0.0312988 29.0111 -0.0135295 29.2772 0.114956 29.52C 0.294016 29.8148 0.61113 30 0.941913 30C 1.10867 30 1.26313 29.9589 1.39571 29.8848L 52.4989 1.76544C 52.7272 1.64338 52.8844 1.44999 52.9595 1.20585C 53.0333 0.957604 53.006 0.699754 52.8789 0.474822C 52.6411 0.0427859 52.0437 -0.132771 51.605 0.109991Z"/>
<path id="path26_fill" fill-rule="evenodd" d="M 18.5994 0.108797L 0.474099 10.2352C 0.021275 10.4991 -0.133783 11.0584 0.125562 11.5238C 0.290225 11.8081 0.609946 12 0.94339 12C 1.10394 12 1.25625 11.9537 1.40445 11.8707L 19.5147 1.74709C 19.9634 1.50624 20.1363 0.937467 19.8824 0.455777C 19.6244 0.0339586 19.0248 -0.126605 18.5994 0.108797Z"/>
</defs>
</svg>
