<svg width="25" height="25" viewBox="0 0 25 25" version="1.1" xmlns="http://www.w3.org/2000/svg" xmlns:xlink="http://www.w3.org/1999/xlink">
<title>Group 6</title>
<desc>Created using Figma</desc>
<g id="Canvas" transform="translate(19095 -2189)">
<g id="Group 6">
<g id="Shape">
<use xlink:href="#path0_fill" transform="translate(-19095 2189)" fill="#FFFFFF"/>
</g>
<g id="Shape">
<use xlink:href="#path1_fill" transform="translate(-19088.6 2195.53)" fill="#FFFFFF"/>
</g>
<g id="Oval">
<use xlink:href="#path2_fill" transform="translate(-19077.2 2193.86)" fill="#FFFFFF"/>
</g>
</g>
</g>
<defs>
<path id="path0_fill" fill-rule="evenodd" d="M 17.3611 0L 7.63889 0C 3.42005 0 6.16791e-16 3.42005 2.08519e-30 7.63889L 2.08519e-30 17.3611C -3.08395e-15 21.58 3.42005 25 7.63889 25L 17.3611 25C 19.3871 25 21.3301 24.1952 22.7626 22.7626C 24.1952 21.3301 25 19.3871 25 17.3611L 25 7.63889C 25 3.42005 21.58 0 17.3611 0ZM 22.9173 17.361C 22.9138 20.4278 20.4286 22.9131 17.3618 22.9166L 7.63954 22.9166C 4.57273 22.9131 2.08746 20.4278 2.08398 17.361L 2.08398 7.63881C 2.08743 4.57199 4.57272 2.0867 7.63954 2.08325L 17.3618 2.08325C 20.4286 2.0867 22.9139 4.57199 22.9173 7.63881L 22.9173 17.361Z"/>
<path id="path1_fill" fill-rule="evenodd" d="M 6.27324 4.09358e-31C 2.80862 -1.23817e-15 0 2.80862 0 6.27324C 0 9.73785 2.80862 12.5465 6.27324 12.5465C 9.73785 12.5465 12.5465 9.73785 12.5465 6.27324C 12.5465 2.80862 9.73785 4.09358e-31 6.27324 4.09358e-31ZM 6.27396 10.4554C 3.96421 10.4554 2.0918 8.58296 2.0918 6.27322C 2.0918 3.96348 3.96421 2.09106 6.27396 2.09106C 8.5837 2.09106 10.4561 3.96348 10.4561 6.27322C 10.4535 8.58188 8.58261 10.4528 6.27396 10.4554Z"/>
<path id="path2_fill" fill-rule="evenodd" d="M 1.39405 2.78811C 2.16397 2.78811 2.78811 2.16397 2.78811 1.39405C 2.78811 0.624139 2.16397 0 1.39405 0C 0.624139 0 0 0.624139 0 1.39405C 0 2.16397 0.624139 2.78811 1.39405 2.78811Z"/>
</defs>
</svg>
