<svg width="277" height="273" viewBox="0 0 277 273" version="1.1" xmlns="http://www.w3.org/2000/svg" xmlns:xlink="http://www.w3.org/1999/xlink">
<title>Shape</title>
<desc>Created using Figma</desc>
<g id="Canvas" transform="translate(-427 -566)">
<g id="Shape">
<use xlink:href="#path0_fill" transform="translate(427 566)" fill="url(#paint0_linear)"/>
</g>
</g>
<defs>
<linearGradient id="paint0_linear" x1="0" y1="0" x2="1" y2="0" gradientUnits="userSpaceOnUse" gradientTransform="matrix(-189.671 -277.453 281.595 -186.881 242.555 287.61)">
<stop offset="0" stop-color="#D82C08"/>
<stop offset="1" stop-color="#EF591D"/>
</linearGradient>
<path id="path0_fill" fill-rule="evenodd" d="M 179.9 29.926C 179.6 30.026 179.4 29.926 179.2 29.826L 178.9 29.526L 177.2 20.726C 177.1 20.526 177.2 20.226 177.3 20.026C 177.4 19.826 177.6 19.626 177.9 19.626L 188.1 17.626L 187.6 17.626C 182.3 17.626 181.4 14.126 180.8 10.626C 180.5 8.82599 180.6 7.026 181 5.22601C 181.1 4.82599 181.4 4.526 181.8 4.526C 182.5 4.42603 183.2 4.42603 183.9 4.42603C 187.3 4.42603 190.6 5.42603 193.5 7.22601C 193.7 7.42603 193.9 7.62604 193.9 7.92603L 195.2 7.42603C 195.1 7.42603 195.2 7.32599 195.3 7.32599C 195.3 7.12604 195.3 6.82599 195.5 6.62604C 198 3.42603 201.4 1.026 205.2 0.0260012C 205.6 -0.0739744 206 0.126038 206.2 0.426026C 207.2 1.92603 208 3.62604 208.4 5.32599C 209.5 9.82599 209.2 12.826 204.3 14.526L 215.1 12.426C 215.6 12.326 216.1 12.626 216.2 13.126L 217.9 21.926C 218 22.126 217.9 22.426 217.8 22.626C 217.7 22.826 217.5 23.026 217.2 23.026L 213.4 23.726L 216.5 39.526C 216.6 40.026 216.3 40.526 215.8 40.626L 204.6 42.826L 204.4 42.826C 204.254 42.826 204.161 42.7724 204.043 42.7045C 204 42.6796 203.954 42.6528 203.9 42.626C 203.7 42.526 203.5 42.226 203.5 42.026L 198.4 16.526C 198.3 16.326 198.4 16.026 198.5 15.826C 198.6 15.626 198.9 15.426 199.1 15.426L 199.5 15.326L 199 15.326C 198.5 15.326 198.1 15.026 198 14.626C 197.942 14.6835 197.918 14.7079 197.889 14.7183C 197.867 14.726 197.842 14.726 197.8 14.726L 194.2 15.426L 194 15.426L 193.9 15.426C 194 15.826 193.7 16.226 193.3 16.426C 193.244 16.4822 193.156 16.5068 193.055 16.5353L 193.054 16.5355C 192.975 16.5577 192.887 16.5823 192.8 16.626L 193.5 16.526C 193.8 16.426 194 16.526 194.2 16.626C 194.362 16.7068 194.458 16.918 194.542 17.1016L 194.544 17.1063C 194.563 17.1483 194.581 17.1889 194.6 17.226L 199.7 42.726C 199.7 42.926 199.7 43.226 199.5 43.426C 199.4 43.626 199.2 43.826 198.9 43.826L 188.3 45.826L 188.1 45.826C 187.7 45.826 187.3 45.426 187.2 45.026L 184.1 29.126L 179.9 29.926ZM 250 90.726C 250 91.026 250.1 91.226 250.3 91.426L 253.4 94.526C 253.6 94.726 253.8 94.826 254.1 94.826C 254.3 94.826 254.6 94.726 254.8 94.526L 271.8 77.526C 272 77.326 272.1 77.126 272.1 76.826C 272.1 76.526 272 76.326 271.8 76.126L 268.7 73.026C 268.3 72.626 267.7 72.626 267.4 73.026L 250.4 90.026C 250.1 90.226 250 90.426 250 90.726ZM 268 75.026L 269.7 76.726L 254 92.426L 252.2 90.726L 268 75.026ZM 214.6 14.126L 216 21.0261L 212.2 21.726C 211.9 21.726 211.7 21.926 211.6 22.126C 211.5 22.3261 211.4 22.626 211.4 22.8261L 214.5 38.726L 205.1 40.5261L 200.4 16.8261L 214.6 14.126ZM 206.6 5.526C 206.2 4.22601 205.7 3.026 205 1.82599C 202.2 2.72601 199.5 4.526 197.5 6.92596C 198.1 7.72601 198.6 8.72601 199 9.82599C 199.05 9.9256 199.075 10.0004 199.1 10.0751L 199.1 10.0759C 199.125 10.1509 199.15 10.226 199.2 10.326C 201.9 9.62598 204.1 9.32599 206.1 9.22601C 206.4 9.22601 206.7 9.42596 206.9 9.72601C 207.2 8.72601 207 7.32599 206.6 5.526ZM 194.5 9.42603L 195.4 9.12604C 196.2 10.226 196.6 11.726 196.7 12.8261L 194.7 13.226C 194.7 13.126 194.7 13.0261 194.6 12.8261L 195.1 12.626L 194.6 12.726C 194.4 11.5261 194.3 10.3261 194.5 9.42603ZM 183.9 14.026C 183.9 13.726 184.2 13.426 184.5 13.326C 186.951 12.4438 189.497 12.0421 191.386 11.744L 191.5 11.726C 191.3 10.326 191.4 9.12604 191.7 8.12604C 188.9 6.526 185.7 5.82599 182.6 6.026C 182.4 7.32599 182.4 8.72601 182.6 10.026C 182.9 11.826 183.3 13.126 183.9 14.026ZM 193 18.326L 197.7 42.026L 189 43.726L 185.9 27.926C 185.9 27.626 185.7 27.426 185.5 27.326C 185.4 27.226 185.2 27.126 185 27.126L 184.8 27.126L 180.5 27.926L 179.1 21.026L 193 18.326ZM 155 176.726C 155.6 176.726 156 176.226 156 175.726L 156 165.726C 156 165.126 155.6 164.726 155 164.726L 145 164.726C 144.4 164.726 144 165.226 144 165.726L 144 175.726C 144 176.326 144.5 176.726 145 176.726L 155 176.726ZM 156 179.626L 156 189.726C 156 190.226 155.6 190.626 155 190.626L 145 190.626C 144.5 190.626 144 190.226 144 189.726L 144 179.626C 144 179.126 144.4 178.726 145 178.726L 155 178.726C 155.6 178.726 156 179.126 156 179.626ZM 126.5 89.8261C 126.7 89.726 127 89.726 127.2 89.8261C 127.4 89.926 127.6 90.126 127.7 90.3261C 128.6 92.726 127.4 95.5261 125.1 96.426C 124.6 96.626 124.1 96.726 123.5 96.726C 121.6 96.726 119.9 95.5261 119.1 93.726C 119 93.5261 119 93.226 119.1 93.0261C 119.2 92.8261 119.4 92.626 119.6 92.5261L 126.5 89.8261ZM 124.4 94.726C 124.1 94.826 123.8 94.926 123.4 94.926C 122.5 94.926 121.7 94.526 121.1 93.826L 126.1 91.826C 126.2 93.126 125.6 94.326 124.4 94.726ZM 97.3 251.826C 96.4 241.426 97.2 233.626 99.7 227.326C 99.9 226.926 100.2 226.726 100.5 226.726L 112.3 226.726C 112.7 226.726 113.1 226.926 113.2 227.326C 115.6 233.626 116.4 241.726 115.7 251.826C 115.7 252.326 115.3 252.726 114.8 252.726L 98.2 252.726C 97.7 252.726 97.3 252.326 97.3 251.826ZM 111.8 228.626C 113.8 234.426 114.5 241.726 114 250.826L 99.2 250.826C 98.5 241.426 99.1 234.326 101.3 228.626L 111.8 228.626ZM 197 78.526C 197.1 78.826 197 79.126 196.8 79.326C 196.6 79.626 196.3 79.726 196 79.726L 136.1 79.726C 135.8 79.726 135.5 79.526 135.3 79.326C 135.1 79.126 135 78.826 135.1 78.526C 136.8 72.526 142.8 67.926 152.2 65.426C 156.3 64.326 160.9 63.726 165.4 63.726L 166.1 63.726C 170.5 63.726 174.7 64.226 178.7 65.126C 188.7 67.526 195.1 72.226 197 78.526ZM 137.3 77.8261C 139.2 73.126 144.6 69.426 152.6 67.3261C 156.5 66.3261 160.9 65.726 165.4 65.626L 166.1 65.626C 170.3 65.626 174.4 66.126 178.3 67.0261C 186.8 69.0261 192.6 72.8261 194.7 77.8261L 137.3 77.8261ZM 129.9 178.726L 140.1 178.726C 140.6 178.726 141 179.126 140.9 179.626L 140.9 189.726C 140.9 190.226 140.5 190.626 140 190.626L 132.2 190.626C 131.8 190.626 131.4 190.326 131.3 189.926L 129 179.826C 129 179.526 129 179.226 129.2 179.026C 129.4 178.826 129.6 178.726 129.9 178.726ZM 139.2 188.926L 133 188.926L 131.1 180.626L 139.2 180.626L 139.2 188.926ZM 75 224.226C 75 226.126 73.4 227.726 71.5 227.726C 69.6 227.726 68 226.126 68 224.226C 68 222.326 69.6 220.726 71.5 220.726C 73.4 220.726 75 222.326 75 224.226ZM 71.5 222.526C 72.4 222.526 73.2 223.326 73.2 224.226C 73.2 225.126 72.4 225.926 71.5 225.926C 70.6 225.926 69.8 225.126 69.8 224.226C 69.8 223.326 70.6 222.526 71.5 222.526ZM 154.1 258.026C 154.4 258.026 154.6 258.126 154.8 258.326L 160.8 264.926C 160.9 265.026 161 265.326 161 265.526L 161 268.926C 161 269.526 160.6 269.926 160.1 269.926L 126.2 269.926C 125.7 269.926 125.3 269.426 125.3 268.926L 125.3 265.226C 125.3 265.026 125.4 264.826 125.5 264.626L 126.2 263.826L 126 263.826C 125.95 263.826 125.9 263.801 125.85 263.776C 125.8 263.751 125.75 263.726 125.7 263.726C 125.3 263.526 125.1 263.126 125.1 262.726C 125.5 257.626 125.6 253.026 125.5 248.726C 125.5 248.426 125.6 248.226 125.8 248.026C 126 247.826 126.2 247.726 126.4 247.726L 131.2 247.726C 131.7 247.726 132.1 248.226 132.1 248.726L 132.1 257.026C 132.1 257.426 131.8 257.826 131.4 257.926L 131.3 257.926L 131.1 258.126C 131.2 258.026 131.3 258.026 131.4 258.026L 140.3 258.026L 140.3 217.726C 140.262 217.688 140.224 217.664 140.191 217.644L 140.191 217.644C 140.138 217.611 140.1 217.588 140.1 217.526C 139.9 217.226 139.8 217.026 139.9 216.726C 139.9 216.586 139.901 216.426 139.903 216.246L 139.903 216.234L 139.903 216.234C 139.914 214.738 139.934 211.93 139.4 208.726C 139.138 209.046 138.876 209.384 138.606 209.731L 138.605 209.732C 137.95 210.576 137.25 211.476 136.4 212.326C 133 215.826 129.6 217.526 125.9 217.526C 121.5 217.526 116.9 215.026 112 210.326L 111.9 210.226C 111.872 210.282 111.836 210.346 111.794 210.42L 111.794 210.421C 111.688 210.611 111.544 210.867 111.4 211.226C 111.2 211.726 111 212.226 110.8 212.926C 111.1 212.926 111.3 213.026 111.5 213.226C 111.7 213.526 111.7 213.726 111.7 214.026L 111 219.626L 117.9 219.626C 118.3 219.626 118.7 219.826 118.8 220.226C 123.3 232.226 124.8 247.426 123.5 266.726C 123.5 267.226 123.2 267.526 122.7 267.626C 111.9 268.826 100.9 268.826 90.4 267.626C 90 267.526 89.6 267.226 89.6 266.726C 87.8 246.926 89.3 232.126 94.1 220.226C 94.3 219.826 94.6 219.626 95 219.626L 101.3 219.626L 102.1 213.826C 102.1 213.326 102.5 213.026 103 213.026L 103.9 213.026C 104.3 211.426 104.7 209.926 105.2 208.826C 106 206.926 107 205.526 108.2 204.626C 109.8 203.426 111.6 203.226 113.4 203.826C 113.45 203.826 113.475 203.851 113.5 203.876C 113.525 203.901 113.55 203.926 113.6 203.926C 114.5 204.326 115.5 204.926 116.4 205.826C 119.8 209.126 123 210.826 125.7 210.826C 127.8 210.826 129.7 209.926 131.6 207.926C 132.7 206.726 133.7 205.426 134.6 204.226L 134.7 204.126C 136.3 201.926 137.6 200.326 139.5 199.826C 142.3 199.126 144.1 200.726 145.1 204.726C 146.471 210.3 146.338 215.707 146.305 217.056L 146.305 217.064C 146.302 217.187 146.3 217.275 146.3 217.326C 146.3 217.472 146.246 217.565 146.178 217.683L 146.178 217.683C 146.153 217.726 146.127 217.773 146.1 217.826L 146.1 258.026L 154.1 258.026ZM 127.2 249.626L 130.1 249.626L 130.1 256.126L 129.9 256.326L 126.9 259.926C 127.2 256.326 127.3 252.926 127.2 249.626ZM 127.1 267.826L 159.1 267.826L 159.2 267.826L 159.2 265.926L 153.8 260.126L 145.2 260.126C 144.6 260.126 144.2 259.726 144.2 259.226L 144.2 217.526C 144.2 217.326 144.3 217.126 144.4 216.926C 144.5 215.326 144.5 210.526 143.3 205.426C 142.5 201.826 141.2 201.826 140.7 201.826C 140.5 201.826 140.3 201.826 140 201.926C 138.795 202.204 137.847 203.428 136.599 205.04C 136.502 205.166 136.402 205.295 136.3 205.426L 136.2 205.526C 136.045 205.728 135.889 205.932 135.733 206.138L 135.712 206.165L 135.686 206.2L 135.667 206.226L 135.665 206.228C 134.838 207.318 133.987 208.44 133 209.426C 130.7 211.726 128.3 212.926 125.7 212.926C 122.4 212.926 119 211.126 115.1 207.326C 114.3 206.626 113.5 206.126 112.8 205.826C 112.75 205.826 112.725 205.801 112.7 205.776C 112.675 205.751 112.65 205.726 112.6 205.726C 112.3 205.626 111.9 205.526 111.5 205.526C 110.8 205.526 110.1 205.826 109.4 206.326C 108.5 207.026 107.7 208.126 107 209.726C 106.5 210.926 106 212.526 105.6 214.326C 105.5 214.726 105.1 215.026 104.7 215.026L 103.9 215.026L 103.1 220.826C 103.1 221.226 102.7 221.626 102.2 221.626L 95.7 221.626C 91.3 233.026 89.9 247.126 91.5 265.926C 101.5 267.026 111.7 267.026 121.9 265.926C 123.1 247.626 121.7 233.126 117.5 221.626L 109.9 221.626C 109.6 221.626 109.4 221.526 109.2 221.326C 109.1 221.126 109 220.926 109 220.626L 109.7 215.026L 109.5 215.026C 109.3 215.026 109 214.826 108.8 214.626C 108.6 214.426 108.5 214.126 108.6 213.826C 108.9 212.726 109.2 211.626 109.6 210.726C 110.1 209.626 110.6 208.926 111.1 208.526C 111.3 208.426 111.6 208.326 111.8 208.326L 111.9 208.326C 111.962 208.264 111.985 208.279 112.018 208.299C 112.038 208.311 112.062 208.326 112.1 208.326C 112.5 208.526 112.9 208.726 113.4 209.226C 117.9 213.626 122.1 215.826 125.9 215.826C 129.1 215.826 132.1 214.326 135.1 211.226C 136.181 210.145 137.055 208.994 137.894 207.89L 137.894 207.889C 138.064 207.666 138.232 207.445 138.4 207.226L 139.2 206.126C 139.5 205.826 139.9 205.626 140.2 205.726C 140.5 205.826 140.8 206.026 140.9 206.426C 141.8 210.726 141.8 215.026 141.8 216.426C 142 216.626 142.1 216.826 142.1 217.126L 142.1 259.026C 142.1 259.526 141.6 259.926 141.1 259.926L 131.7 259.926L 127.1 265.426L 127.1 267.826ZM 82.4 23.8261L 77.6 32.726C 77.4 33.0261 77.5 33.426 77.7 33.726L 79.8 36.3261C 80 36.626 80.4 36.726 80.8 36.626L 90.3 34.226L 97.1 41.426C 97.3 41.626 97.5 41.726 97.8 41.726C 97.9 41.726 98 41.726 98.1 41.626L 101.3 40.5261C 101.7 40.426 101.9 40.126 101.9 39.726L 102.9 30.126L 105.3 28.926C 105.3 29.0761 105.325 29.2011 105.35 29.3261C 105.375 29.4511 105.4 29.5761 105.4 29.726C 106.2 35.926 107.1 35.926 107.5 35.926C 108.6 35.926 133.5 35.8261 145.8 22.926C 146 22.726 146.1 22.3261 146 22.0261C 145.8 21.3261 141.1 5.62604 126 5.62604C 124 5.62604 121.9 5.92603 119.7 6.42603C 111.6 8.42603 107.8 13.226 106.2 18.3261L 102.7 16.8261L 101 7.32605C 100.9 6.92603 100.7 6.72601 100.3 6.62604L 97 5.72601C 96.6 5.62604 96.3 5.72601 96 6.02606L 89.6 13.3261L 80 11.726C 79.6 11.626 79.3 11.8261 79.1 12.126L 77.2 14.926C 77 15.226 77 15.626 77.2 15.926L 82.4 23.8261ZM 120.1 8.32599C 115 9.62598 111.3 12.226 109.2 16.026C 108.755 16.7683 108.419 17.5658 108.113 18.2956C 108.006 18.549 107.903 18.7941 107.8 19.026L 111.4 20.626C 111.8 20.726 112 21.026 112 21.426L 112.1 24.726C 112.1 25.126 111.9 25.426 111.6 25.626L 107.1 27.926C 107.3 30.626 107.8 32.826 108.1 34.026C 112.7 33.926 133.3 32.626 143.9 22.026C 143 19.226 138.4 7.526 125.9 7.526C 124.1 7.526 122.1 7.82599 120.1 8.32599ZM 107.4 21.126L 110.1 22.3261L 110.1 24.426L 109.7 24.626C 109.8 24.226 109.5 23.8261 109.1 23.626L 107.1 22.726C 107.149 22.4806 107.198 22.2111 107.247 21.9412L 107.247 21.9402L 107.248 21.9391L 107.248 21.9381L 107.248 21.9371L 107.248 21.936L 107.248 21.935L 107.25 21.926C 107.3 21.651 107.35 21.376 107.4 21.126ZM 108.2 25.426L 107 25.326L 107 26.026L 108.2 25.426ZM 101.5 28.726C 101.2 28.926 101 29.126 101 29.426L 100 38.926L 98 39.626L 91.2 32.526C 91 32.3261 90.8 32.226 90.5 32.226L 90.3 32.226L 80.9 34.726L 79.6 33.026L 80.3 31.626C 80.3 31.8261 80.3 32.026 80.4 32.126C 80.6 32.526 81.1 32.726 81.5 32.626L 83.7 32.026L 83.9 32.026L 91.4 30.026L 95.9 34.726L 96.9 38.026C 97 38.426 97.4 38.726 97.8 38.726L 97.9 38.726C 98.4 38.626 98.7 38.3261 98.7 37.8261L 99.3 27.626L 104.7 24.926L 105 24.926L 105 26.726L 101.5 28.726ZM 85.2 18.226L 88.6 23.026C 88.8 23.3261 88.8 23.626 88.6 23.726L 85.5 29.526L 91.5 28.026L 91.7 28.026C 92 28.026 92.2 28.126 92.4 28.3261L 97.1 33.226L 97.5 27.026C 97.5 26.726 97.7 26.426 98 26.226L 103.9 23.3261L 98.1 20.8261C 97.8 20.726 97.6 20.426 97.5 20.126L 96.4 13.926L 92.2 18.926C 91.9 19.226 91.6 19.3261 91.3 19.226L 85.2 18.226ZM 89.9 15.326C 90.2 15.426 90.6 15.226 90.8 15.026L 97.1 7.72601L 99.2 8.32599L 100.9 17.726C 100.9 18.026 101.2 18.326 101.4 18.426L 105.6 20.326C 105.55 20.6266 105.5 20.9021 105.45 21.1777C 105.4 21.4521 105.35 21.7266 105.3 22.026L 99.3 19.426L 98.3 13.726L 99.2 10.626C 99.3 10.226 99.1 9.72601 98.7 9.526C 98.3 9.32599 97.8 9.42603 97.5 9.72601L 91.1 17.326L 85.3 16.326L 82.1 14.026L 82 13.926L 89.9 15.326ZM 81.6 13.926L 80.3 13.726L 79.1 15.426L 84.3 23.226C 84.5 23.526 84.5 23.926 84.3 24.226L 80.6457 31.0408C 80.6222 31.054 80.6 31.0789 80.6 31.126L 80.6457 31.0408C 80.6721 31.026 80.7 31.026 80.7 31.026L 83.9 28.726L 86.8 23.726L 81 15.426C 80.7 15.026 80.8 14.526 81.1 14.226C 81.2 14.026 81.4 13.926 81.6 13.926ZM 111.1 38.826C 110.8 38.726 110.6 38.726 110.3 38.926L 110.252 38.9615C 109.665 39.3966 106.135 42.0113 107.2 44.626C 107.5 45.326 108.1 45.826 108.9 45.826C 109.8 45.826 110.7 45.226 111.3 44.326C 111.8 43.626 112.5 41.926 111.7 39.426C 111.6 39.126 111.4 38.926 111.1 38.826ZM 108.8 43.8261C 109.1 43.8261 109.5 43.626 109.8 43.126C 110 42.8261 110.3 42.226 110.2 41.426C 109.2 42.426 108.6 43.3261 108.8 43.8261ZM 257.8 197.226C 257.7 197.026 257.5 196.826 257.3 196.726C 257.1 196.626 256.8 196.626 256.6 196.726L 250.5 199.826C 250.1 200.026 249.9 200.626 250.1 201.026L 253.2 207.126C 253.3 207.326 253.5 207.526 253.7 207.526C 253.75 207.526 253.8 207.551 253.85 207.576L 253.851 207.576C 253.9 207.601 253.95 207.626 254 207.626C 254.1 207.626 254.3 207.626 254.4 207.526L 260.5 204.426C 260.7 204.326 260.9 204.126 261 203.926C 261.1 203.726 261.1 203.426 261 203.226L 257.8 197.226ZM 252.2 201.126L 254.4 205.526L 258.8 203.326L 256.6 198.926L 252.2 201.126ZM 84.3 252.226C 84.3 251.926 84 251.626 83.7 251.526C 83.6 251.426 83.4 251.426 83.3 251.426C 81 249.826 77.8 248.726 75.5 248.726L 75.2 248.726C 72.1 248.726 69.1 250.026 69.1 252.826C 69.1 255.826 72.9 256.326 75 256.526L 77.4 256.826C 80 257.126 82.1 257.726 83.7 258.626C 83.9 258.726 84 258.726 84.2 258.726C 84.7 258.726 85.1 258.326 85.1 257.826C 85.1 257.726 85.1 257.626 85 257.526L 84.3 252.226ZM 75.1 254.726L 77.5 255.026C 79.6 255.226 81.4 255.626 82.8 256.226L 82.4 253.126C 80.5 251.626 77.5 250.526 75.4 250.526L 75.1 250.526C 75.1 250.526 70.9 250.526 70.9 252.826C 70.9 253.526 71.4 254.326 75.1 254.726ZM 229.8 212.226C 229.7 212.026 229.5 211.826 229.3 211.726C 229.1 211.626 228.8 211.626 228.6 211.826L 222.5 214.926C 222.3 215.026 222.1 215.226 222 215.426C 221.9 215.626 221.9 215.926 222 216.126L 225.1 222.226C 225.2 222.426 225.4 222.626 225.6 222.726C 225.65 222.726 225.7 222.751 225.75 222.776C 225.8 222.801 225.85 222.826 225.9 222.826C 226 222.826 226.2 222.826 226.3 222.726L 232.4 219.626C 232.8 219.426 233 218.826 232.8 218.426L 229.8 212.226ZM 224.2 216.126L 226.4 220.526L 230.8 218.326L 228.6 213.926L 224.2 216.126ZM 242 201.726C 240.7 201.726 239.5 202.026 238.4 202.626C 234.5 204.626 232.9 209.426 234.9 213.326C 236.3 216.026 239 217.726 242.1 217.726C 243.4 217.726 244.6 217.426 245.7 216.826C 249.6 214.826 251.2 210.026 249.2 206.126C 247.8 203.426 245 201.726 242 201.726ZM 242.1 215.826C 243 215.826 243.9 215.526 244.8 215.126C 247.7 213.626 248.9 210.026 247.5 206.926C 246.5 204.926 244.4 203.626 242.1 203.626C 241.2 203.626 240.3 203.926 239.4 204.326C 238 205.026 236.9 206.326 236.4 207.826C 235.8 209.426 236 211.026 236.7 212.526C 237.7 214.526 239.8 215.826 242.1 215.826ZM 76.1 260.126L 73.8 259.926C 67.7 259.226 64.6 256.726 64.6 252.726C 64.6 248.026 68.6 244.726 74.6 244.626L 75 244.626C 77.1 244.626 79.3 245.226 81.6 246.426C 81.7 246.526 81.9 246.526 82.1 246.526C 82.6 246.526 83 246.126 83 245.626C 83 245.526 83 245.426 82.9 245.326L 79.8 217.826C 79.7 217.326 79.3 217.026 78.9 217.026L 73.3 217.026C 72.3 212.826 68.2 200.626 55.1 200.626C 53.4 200.626 51.9 200.826 50.5 201.226L 40.7 181.426C 44.5 177.726 45.6 172.426 43.4 168.026L 33.6 148.226C 32.9 146.826 31.5 145.926 29.9 145.926C 29.3 145.926 28.7 146.026 28.1 146.326C 26.1 147.326 25.3 149.826 26.3 151.826L 31.3 161.926L 31.1 161.926L 26.1 151.826C 25.4 150.426 24 149.626 22.4 149.626C 21.8 149.626 21.2 149.726 20.6 150.026C 18.6 151.026 17.8 153.526 18.8 155.526L 23.8 165.626C 23.8 165.688 23.7618 165.711 23.709 165.744C 23.6764 165.764 23.6382 165.788 23.6 165.826L 18.6 155.726C 17.9 154.326 16.5 153.426 14.9 153.426C 14.3 153.426 13.7 153.526 13.1 153.826C 11.1 154.826 10.3 157.326 11.3 159.326L 17.9989 172.926C 17.3993 172.826 16.7996 172.726 16.2 172.726C 9.29999 172.726 3.79999 180.226 3.79999 189.426C 3.79999 196.626 7.09998 202.926 12.2 205.226L 12.2 242.026C 12.2 244.326 14 246.126 16.3 246.126C 18.5 246.126 20.4 244.326 20.4 242.026L 20.4 205.226C 25.4 202.926 28.8 196.626 28.8 189.426C 28.8 187.826 28.6 186.226 28.3 184.726C 29.3 185.026 30.3 185.126 31.4 185.126C 32.1 185.126 32.7 185.126 33.4 184.926L 43.4 205.026C 39.3 208.926 37.5 214.426 36.9 216.926L 31.3 216.926C 30.8 216.926 30.4 217.326 30.4 217.726L 24.8 267.726C 24.8 268.026 24.9 268.226 25 268.426C 25.2 268.626 25.4 268.726 25.7 268.726L 63.2 268.726C 63.4 268.726 63.7 268.626 63.8 268.426L 66.7 265.726C 67.9 267.026 69.6 268.026 71.6 268.626L 71.8 268.626L 79.1 268.626C 79.2 268.626 79.3 268.626 79.5 268.526C 81.4 267.726 82.4 266.326 82.4 264.626C 82.4 260.926 78.2 260.326 76.1 260.126ZM 53.4 210.926L 51 206.126C 49.5 206.626 48.3 207.326 47.2 208.326L 49.5 212.926C 49.9 213.626 50.7 214.126 51.5 214.126C 51.8 214.126 52.1 214.126 52.4 213.926C 53.5 213.326 53.9 212.026 53.4 210.926ZM 55.1 210.026L 52.9 205.626C 53.6 205.526 54.3 205.426 55.1 205.426C 63.5 205.426 66.9 212.326 68.1 216.826L 42.1 216.826C 42.7 214.626 43.8 211.926 45.8 209.626L 47.8 213.726C 48.5 215.126 49.9 216.026 51.5 216.026C 52.1 216.026 52.7 215.926 53.3 215.626C 55.3 214.526 56.1 212.026 55.1 210.026ZM 46.4 206.626C 47.5 205.726 48.7 204.926 50.2 204.426L 49.6 203.426C 48.2 203.926 46.9 204.626 45.8 205.526L 46.4 206.626ZM 19.2 203.526C 18.8 203.626 18.6 204.026 18.6 204.426L 18.6 241.826C 18.6 243.026 17.6 244.026 16.4 244.026C 15.2 244.026 14.2 243.026 14.2 241.826L 14.2 204.426C 14.2 204.026 14 203.726 13.6 203.526C 9 201.726 5.79999 195.926 5.79999 189.226C 5.79999 181.026 10.5 174.426 16.4 174.426C 17.4 174.426 18.4 174.626 19.3 175.026L 21.2 178.926C 22.3 181.126 24 182.726 26.2 183.826C 26.7 185.526 27 187.326 27 189.326C 27 195.926 23.8 201.726 19.2 203.526ZM 25 180.826C 24.3 179.426 23.4 178.126 22.4 177.126L 22.8 178.026C 23.4 179.126 24.1 180.026 25 180.826ZM 34.9 183.326C 34.7 183.026 34.4 182.826 34.1 182.826L 33.9 182.826C 33.1 183.026 32.3 183.026 31.6 183.026C 30.3 183.026 29 182.726 27.9 182.326C 26.5 178.226 24 175.126 20.9 173.526L 13.3 158.226C 12.8 157.126 13.2 155.826 14.3 155.226L 14.3004 155.226C 14.6003 155.126 14.9001 155.026 15.2 155.026C 16.1 155.026 16.8 155.526 17.2 156.226L 22.8 167.626C 22.9 167.926 23.2 168.126 23.5 168.126L 23.6 168.126C 23.9 168.126 24.2 168.026 24.3 167.726C 24.7 167.226 25.2 166.726 25.7 166.226C 26 165.926 26.1 165.426 25.9 165.026L 20.6 154.326C 20.3 153.826 20.3 153.226 20.5 152.626C 20.7 152.026 21.1 151.626 21.6 151.326C 21.9 151.226 22.2 151.126 22.5 151.126C 23.3 151.126 24.1 151.626 24.5 152.326L 29.8 163.026C 30 163.426 30.5 163.626 30.8 163.526C 31.5 163.426 32.2 163.326 32.8 163.326C 33.1 163.326 33.4 163.126 33.6 162.926C 33.8 162.626 33.8 162.326 33.6 162.026L 28 150.626C 27.5 149.526 27.9 148.226 29 147.626C 29.3 147.526 29.6 147.426 29.9 147.426C 30.7 147.426 31.5 147.926 31.9 148.626L 41.7 168.326C 43.6 172.126 42.4 176.926 38.9 180.026C 38.6 180.326 38.5 180.726 38.7 181.126L 48.7 201.326C 47.3 201.926 46 202.626 44.9 203.526L 34.9 183.326ZM 72 266.826L 79 266.826C 80 266.326 80.5 265.626 80.5 264.626C 80.5 263.326 79.8 262.426 75.9 261.926L 73.6 261.726C 64.7 260.626 62.8 256.126 62.8 252.626C 62.8 246.826 67.6 242.726 74.6 242.626L 75 242.626C 76.9 242.626 78.9 243.126 80.9 243.926L 78.1 218.726L 72.6 218.726C 72.2 218.726 71.8 218.426 71.7 218.026C 71 214.326 67.5 202.326 55.2 202.326C 53.8 202.326 52.6 202.426 51.5 202.726L 52.1 203.926C 53.1 203.726 54.1 203.626 55.2 203.626C 66.3 203.626 69.6 214.326 70.4 217.626C 70.4 217.926 70.4 218.226 70.2 218.426C 70 218.726 69.7 218.826 69.4 218.826L 40.9 218.826C 40.7 218.826 40.4 218.626 40.2 218.426C 40 218.226 39.9 217.926 40 217.626C 40.4 215.726 41.7 211.326 44.9 207.926L 44.3 206.726C 40.5 210.626 39.1 215.826 38.6 218.026C 38.5 218.426 38.1 218.726 37.7 218.726L 32.2 218.726L 26.8 266.826L 62.8 266.826L 66.2 263.726C 66.3 263.526 66.6 263.426 66.8 263.426L 66.9 263.426C 67.2 263.426 67.4 263.626 67.6 263.826C 68.5 265.126 70.1 266.226 72 266.826ZM 39 220.526C 37 220.526 35.3 222.226 35.3 224.226C 35.3 226.226 37 227.926 39 227.926C 41 227.926 42.7 226.226 42.7 224.226C 42.7 222.126 41 220.526 39 220.526ZM 37.2 224.126C 37.2 225.126 38 225.926 39 225.926C 40 225.926 40.8 225.126 40.8 224.126C 40.8 223.126 40 222.326 39 222.326C 38 222.326 37.2 223.126 37.2 224.126ZM 276.8 211.826L 265.5 189.526C 266.3 188.726 266.8 187.526 266.8 186.226L 266.8 176.926C 266.8 176.426 266.4 176.026 265.9 176.026L 249.1 176.026C 247.6 176.026 246.3 174.626 246.3 172.826L 246.3 162.526C 246.3 160.726 247.5 159.326 249.1 159.326L 265.9 159.326C 266.4 159.326 266.8 158.926 266.8 158.426L 266.8 149.126C 266.8 146.526 264.7 144.426 262.1 144.426L 229 144.426L 219 123.126C 218.8 122.826 218.5 122.626 218.1 122.626L 191.7 122.626C 191.3 122.626 191 122.826 190.9 123.126L 173.6 156.726L 165.4 141.626L 171.2 141.626L 171.2 143.026C 171.2 144.826 172.7 146.326 174.5 146.326C 176.3 146.326 177.8 144.826 177.8 143.026L 177.8 141.626C 180.5 141.126 182.4 138.826 182.4 136.126L 182.4 126.926C 182.4 123.826 179.9 121.326 176.8 121.326L 172.2 121.326C 171.7 121.326 171.3 121.726 171.3 122.226L 171.3 130.526L 112.9 130.526L 112.9 128.326C 112.9 128.826 113.3 129.226 113.8 129.226L 169.5 129.226C 170 129.226 170.4 128.826 170.4 128.326L 170.4 120.026L 176.4 120.026C 176.9 120.026 177.3 119.626 177.3 119.126L 177.3 112.226C 177.3 109.126 174.8 106.626 171.7 106.626L 144.5 106.626C 144.9 106.326 145.2 105.926 145.4 105.526C 146.2 104.126 145.5 102.826 144.9 101.826L 144.3 100.626C 143.51 98.2574 144.084 97.0576 145.157 94.8158L 145.2 94.726C 145.317 94.4689 145.445 94.2009 145.578 93.9207C 146.016 93.002 146.517 91.952 146.9 90.726C 146.9 90.676 146.925 90.626 146.95 90.5761L 146.95 90.5755C 146.975 90.5256 147 90.4758 147 90.426L 147 87.226C 147 86.926 146.8 86.526 146.5 86.426L 145.5 85.926L 202.4 85.926C 202.7 85.926 202.9 85.826 203.1 85.626C 203.3 85.426 203.4 85.226 203.4 84.926L 203.4 81.626C 203.4 80.226 203.2 78.826 202.9 77.526C 205.4 79.726 208.9 82.026 213.8 84.226C 219.2 86.626 223.9 87.826 227.9 87.926L 223.2 92.626L 214.9 87.726C 214.6 87.526 214.3 87.526 214 87.626C 213.7 87.726 213.5 88.026 213.5 88.226C 213.4 88.626 210.6 98.226 203.2 98.226C 196.25 98.226 193.482 89.9476 192.982 88.4546L 192.982 88.4528C 192.935 88.3142 192.909 88.2345 192.9 88.226C 192.8 87.926 192.6 87.726 192.3 87.626C 192 87.526 191.7 87.526 191.5 87.726L 177.3 96.126C 177 96.326 176.9 96.526 176.8 96.826C 176.8 97.126 176.9 97.426 177.1 97.626L 185.7 105.526C 186.4 110.426 189.5 119.226 189.6 119.326C 189.7 119.726 190.1 119.926 190.5 119.926L 215.9 119.926C 216.3 119.926 216.7 119.626 216.8 119.326L 216.8 119.226C 217.182 118.272 217.837 116.224 218.591 113.865L 218.7 113.526L 237.4 132.126C 237.6 132.326 237.8 132.426 238.1 132.426C 238.4 132.426 238.6 132.326 238.8 132.126L 263.2 107.826C 269.2 101.926 270.6 92.526 266.7 85.026C 266.6 84.726 266.3 84.526 266 84.526C 265.7 84.526 265.4 84.626 265.2 84.826L 259.9 90.026C 259.7 90.226 259.6 90.426 259.6 90.626C 259.6 92.326 258.9 93.826 257.7 95.026C 256.5 96.226 254.8 96.926 253.1 96.926C 251.4 96.926 249.7 96.226 248.5 95.026C 246 92.526 246 88.326 248.5 85.826C 249.7 84.626 251.2 84.026 252.9 83.926C 253.1 83.926 253.3 83.826 253.5 83.626L 258.8 78.326C 259 78.126 259.1 77.826 259.1 77.526C 259.1 77.226 258.9 76.926 258.6 76.826C 255.8 75.326 252.6 74.526 249.4 74.526C 246.8 74.526 244.3 75.026 242 76.026C 242.2 73.926 242.1 71.926 241.5 70.326C 241.5 70.226 241.4 70.126 241.4 70.126C 241.6 70.3259 241.9 70.5258 242.199 70.7256L 242.2 70.726L 242.201 70.7262C 242.5 70.8261 242.8 70.926 243.1 70.926C 243.4 70.926 243.6 70.926 243.9 70.826C 244.5 70.626 245 70.226 245.2 69.626C 245.5 69.126 245.5 68.426 245.3 67.826C 244.161 64.4091 242.391 60.9922 240.932 58.1738L 240.932 58.1733L 240.7 57.726L 240.6 57.626L 240.436 57.3223C 239.807 56.1538 239.268 55.155 238.9 54.326C 238.4 53.226 237.6 52.126 236.6 51.026C 236.643 51.026 236.667 51.026 236.689 51.0183C 236.718 51.0079 236.742 50.9835 236.8 50.926L 246.3 44.126L 256.9 49.226C 257.2 49.326 257.6 49.326 257.9 49.126L 261 46.526C 261.3 46.326 261.4 45.926 261.3 45.526L 258.2 34.326L 266 25.726C 266.3 25.426 266.3 25.026 266.2 24.726L 264.7 21.026C 264.6 20.726 264.2 20.426 263.9 20.426L 252.6 19.726L 246.6 9.82599C 246.4 9.526 246.1 9.32599 245.8 9.32599L 241.8 9.72601C 241.4 9.72601 241.1 10.026 241 10.326L 237 21.326L 225.5 23.626C 225.1 23.726 224.8 24.026 224.8 24.326L 223.9 28.226C 223.8 28.626 224 29.026 224.3 29.226L 233.5 35.826L 232.5 44.426C 232.1 44.526 231.8 44.726 231.5 44.926C 231.6 44.326 231.5 43.826 231.3 43.326C 230.9 42.426 230.3 41.726 229.4 41.326C 229 41.126 228.5 41.026 228 41.026C 226.6 41.026 225.2 41.926 224.6 43.126C 224.3 43.726 224.3 44.326 224.3 44.926C 222.5 44.726 220.8 44.826 219.3 45.326C 218.4 45.626 217.4 45.926 215.9 46.226L 215.7 46.326L 215.699 46.3262L 215.698 46.3264C 212.499 47.1264 208.499 48.1263 204.9 49.726C 203.7 50.226 203.2 51.626 203.7 52.826C 204.1 53.726 205 54.226 205.9 54.226C 205.85 54.226 205.8 54.251 205.75 54.276C 205.7 54.301 205.65 54.326 205.6 54.326C 202.2 55.826 197.4 60.626 197.4 66.626L 197.4 67.326C 193.3 63.126 187.3 60.026 179.5 58.226C 176.8 57.626 174 57.126 171.1 56.926L 171.1 51.026C 171.1 50.526 170.7 50.126 170.1 50.126L 167.3 50.126L 167.3 45.726C 167.3 45.326 167.1 45.026 166.7 44.826L 165.5 44.326C 163.7 43.526 162.5 42.426 162 41.126L 162.195 41.0241C 164.218 39.9642 166.056 39.0012 167.8 38.226C 168.1 38.726 168.4 39.326 168.6 40.026C 168.7 40.226 168.9 40.426 169.1 40.526C 169.3 40.626 169.5 40.726 169.8 40.626L 173.6 39.426C 173.8 39.326 174 39.226 174.2 39.026C 174.3 38.826 174.4 38.526 174.3 38.326C 174 37.426 173.7 36.626 173.2 35.826C 173.598 35.6632 173.97 35.5102 174.315 35.3682L 174.335 35.36L 174.338 35.3587L 174.341 35.3576C 175.888 34.7208 176.893 34.3074 177.3 34.226C 177.6 34.126 177.8 33.926 177.9 33.626C 178 33.326 177.9 33.026 177.8 32.826C 177.4 32.226 173.3 27.226 159.8 26.526C 150.2 26.026 146.2 25.826 146.1 25.826C 145.9 25.826 145.7 25.926 145.5 26.026C 145.4 26.126 132.1 37.026 118.6 37.026L 118.2 37.026L 117.9 37.026C 117.4 37.126 117 37.426 117 37.826C 116.9 38.226 117.1 38.526 117.4 38.726C 117.1 38.626 116.7 38.526 116.3 38.426C 116 38.326 115.7 38.426 115.4 38.626C 115.2 38.826 115 39.126 115.1 39.426C 115.1 39.626 115.1 39.826 115.2 40.226C 115.15 40.226 115.1 40.201 115.05 40.176C 115 40.151 114.95 40.126 114.9 40.126C 114.4 40.026 113.9 40.426 113.8 40.926C 113.8 41.026 112.5 46.926 108.8 46.926C 108.4 46.926 108 46.8261 107.601 46.7262L 107.6 46.726C 106.7 46.426 106.2 46.026 106.1 45.426C 105.6 43.526 108.1 40.126 109 39.026C 109.3 38.626 109.3 38.026 108.9 37.726C 108.5 37.426 108 37.326 107.6 37.726C 107.451 37.8581 107.252 38.0372 107.007 38.2576L 107.005 38.2603L 107.004 38.2606C 104.278 40.7136 95.8868 48.2655 88 53.126C 87.8 53.226 87.6 53.526 87.6 53.726C 87.6 54.026 87.6 54.226 87.8 54.526C 88.6 55.526 96 64.026 109.3 64.026C 109.808 64.026 110.317 64.026 110.843 64.008C 110.695 64.092 110.548 64.2044 110.4 64.426C 106 72.926 103.8 81.526 104 89.926C 104 91.526 104.2 93.126 104.4 94.726L 96 84.026L 101.3 67.926C 101.4 67.626 101.3 67.226 101.1 66.926L 97 63.026C 96.8 62.726 96.4 62.726 96 62.826L 80.2 68.726L 72.3 63.226C 72.3 63.0761 72.325 62.9511 72.35 62.8261C 72.375 62.7011 72.4 62.5761 72.4 62.426L 72.4 10.826C 72.4 8.026 70.1 5.72601 67.3 5.72601L 5.10001 5.72601C 2.29999 5.72601 0 8.026 0 10.826L 0 62.526C 0 65.326 2.29999 67.626 5.10001 67.626L 26.4 67.626C 22.9 68.126 19.6 69.826 17.4 72.426C 15 75.126 13.7 78.726 13.7 83.126C 13.7 84.326 13.8 85.626 13.9 86.926L 14.1 88.426C 14.1 88.526 14.2 88.726 14.3 88.826C 11.3 89.926 8.60001 91.126 6.10001 92.526C 5.89999 92.626 5.70001 92.926 5.70001 93.126C 2.29999 109.426 1.70001 126.126 1.60001 140.426C 1.60001 140.626 1.70001 140.926 1.89999 141.126C 2.10001 141.326 2.29999 141.426 2.60001 141.426L 12.1 141.426C 12.6 141.426 13 141.026 13 140.526L 13.1 136.126C 13.2 129.426 13.4 122.526 14.4 116.926C 14.5908 123.032 14.3265 125.77 13.8677 130.524L 13.8 131.226L 13.7 132.726C 13.7 133.026 13.8 133.326 14 133.526C 16.7 136.026 22 137.626 28.2 137.826C 28.4 137.826 28.7 137.726 28.9 137.526C 29.1 137.326 29.2 137.126 29.2 136.826L 29.2 86.126C 29.2 85.826 29.1 85.626 28.9 85.426C 28.7 85.226 28.5 85.226 28.2 85.226C 26.6 85.326 24.3 85.026 23 84.826L 19.9 84.126L 19.9 83.226C 20 80.326 20.7 78.026 22.1 76.426C 22.2307 76.23 22.404 76.0767 22.5922 75.9103L 22.5931 75.9095C 22.6926 75.8215 22.7963 75.7297 22.9 75.626L 22.9 77.026C 22.9 77.526 23.3 77.926 23.9 77.926L 36.7 77.926C 37.5 79.326 37.9 81.126 37.9 83.126L 37.9 84.026L 34.4 84.826C 34.3 84.826 34.2 84.826 34.1 84.926C 33 85.126 31.3 85.426 30.5 85.526C 30 85.626 29.7 86.026 29.7 86.426L 29.7 136.926C 29.7 137.226 29.8 137.426 30 137.626C 30.1464 137.772 30.2928 137.812 30.4784 137.861C 30.5464 137.88 30.6196 137.899 30.7 137.926C 37 137.726 42.4 136.126 45.2 133.626C 45.4 133.426 45.5 133.126 45.5 132.826C 45.4 131.526 45.3 130.426 45.2 129.426L 45.2 129.026C 45.1831 128.84 45.1663 128.657 45.1495 128.474L 45.1429 128.403C 44.8639 125.369 44.6127 122.638 44.8 116.926C 45.8 122.126 46 128.326 46.1 134.626C 43.8 137.326 42.5 140.926 42.7 144.526C 42.9 149.226 43.3 152.626 43.6 154.926L 43.6 155.026C 43.8 156.426 43.9 157.426 43.9 158.226C 43.9 158.519 43.7928 158.865 43.6569 159.305C 43.6071 159.465 43.5536 159.639 43.5 159.826L 43.4 160.026C 43.2001 160.526 43.0002 161.125 42.8004 161.725L 42.8 161.726C 42.4 163.326 42.8 165.126 44.1 166.826C 46.2 169.626 50.5 171.726 53.4 171.426C 54.9 173.726 58.8 175.626 62.3 175.626C 64.5 175.626 66.3 174.826 67.3 173.426C 67.5932 173.06 67.8327 172.639 68.0579 172.244L 68.0585 172.243C 68.1403 172.099 68.2201 171.959 68.3 171.826L 68.4 171.726C 68.45 171.676 68.475 171.626 68.5 171.576C 68.525 171.526 68.55 171.476 68.6 171.426L 62.4 195.226C 61.7 198.026 63.4 200.826 66.2 201.626L 89.7 207.626C 90.1 207.726 90.6 207.826 91 207.826C 93.4 207.826 95.5 206.226 96.1 203.926L 105.2 168.726C 105.9 165.926 104.2 163.126 101.4 162.426L 85.2 158.226C 86.1 156.526 86.7 154.626 86.9 152.626C 87.2 148.826 85.9 145.226 83.2 142.426C 80.4 139.526 76.3 138.326 70.8 139.126C 72.2 137.526 73.6 135.726 74.7 133.826C 78 136.826 83.5 137.926 87.5 137.926C 90.5 137.926 93.2 137.426 95.3 136.426C 95.6 136.326 95.8 136.026 95.8 135.726C 95.9 135.426 95.8 135.126 95.6 134.926L 95.4 134.726L 94.9734 134.261C 90.6089 129.503 86.1358 124.626 81.1 124.626C 79.6 124.626 78.1 125.126 76.6 126.026C 76.4 124.226 75.9 122.426 74.9 120.626C 74.7 120.226 74.3 120.026 73.8 120.126L 67.7 121.526C 67.4 121.626 67.2 121.826 67 122.026C 66.9 122.326 66.9 122.626 67 122.826C 70 128.426 69.5 132.626 67.6 137.926C 65.8 134.926 62.4 130.526 57 130.026C 56.7 119.926 55.9 108.926 54 98.026L 64.6 100.226L 69.9 117.126C 70 117.526 70.3 117.726 70.7 117.826L 76.5 118.526L 76.6 118.526C 76.9 118.526 77.2 118.326 77.4 118.026L 86 103.326L 103.3 103.926C 103.7 103.926 104 103.726 104.2 103.426L 105.6 100.626C 106.2 102.926 107 105.226 108.1 107.526C 106.7 108.526 105.8 110.226 105.8 112.026L 105.8 118.926C 105.8 119.426 106.2 119.826 106.8 119.826L 112.8 119.826L 112.8 122.026C 112.8 121.526 112.4 121.126 111.9 121.126L 107.3 121.126C 104.2 121.126 101.7 123.626 101.7 126.726L 101.7 135.926C 101.7 138.626 103.7 140.926 106.3 141.426L 106.3 142.826C 106.3 144.626 107.8 146.126 109.6 146.126C 111.4 146.126 112.9 144.626 112.9 142.826L 112.9 141.426L 134.2 141.426L 126 156.526L 115.4 156.526C 114.9 156.526 114.4 156.926 114.4 157.426L 114.4 165.426C 114.4 165.926 114.8 166.326 115.4 166.326L 139.6 166.326L 139.6 174.326L 129.8 174.326L 128.6 169.226C 128.5 168.826 128.1 168.526 127.7 168.526L 119.5 168.526C 119.2 168.526 118.9 168.626 118.8 168.926C 118.6 169.126 118.6 169.426 118.6 169.726L 125.2 198.326C 125.3 198.726 125.7 199.026 126.1 199.026L 152 199.026L 152 202.626C 152 203.126 152.4 203.526 152.9 203.526L 158.161 203.526C 158.069 203.575 157.985 203.641 157.9 203.726C 157.7 203.926 157.7 204.226 157.7 204.426L 158.6 211.626C 158.6 211.926 158.9 212.226 159.2 212.426L 158.2 212.426C 157.9 212.426 157.7 212.526 157.5 212.726C 157.3 212.926 157.2 213.126 157.3 213.426L 159.9 235.226C 160 235.726 160.4 236.026 160.8 236.026L 162.3 236.026C 162.25 236.076 162.175 236.101 162.1 236.126C 162.025 236.151 161.95 236.176 161.9 236.226C 161.7 236.426 161.6 236.726 161.7 237.026L 162.8 246.026C 162.9 246.526 163.3 246.826 163.7 246.826L 178 246.826L 176.5 252.226C 176 254.026 176.2 256.026 177.1 257.526C 177.9 258.926 179.2 260.026 180.8 260.426L 225.6 272.726L 225.601 272.726C 226.1 272.826 226.6 272.926 227.2 272.926C 229.6 272.926 231.8 271.526 232.9 269.326C 234.4 269.426 236 269.526 237.7 269.526C 242.2 269.526 248.1 269.026 251.2 266.826C 254.534 263.884 256.811 258.537 259.067 253.239L 259.2 252.926L 259.3 252.726C 259.605 252.041 259.903 251.349 260.199 250.66L 260.208 250.641C 261.077 248.624 261.933 246.637 262.9 244.926L 264.7 266.026C 264.7 266.326 264.9 266.526 265 266.626C 265.4 266.926 266 267.126 266.7 267.126C 267.1 267.126 267.5 267.026 267.8 266.926C 268.1 266.726 268.3 266.426 268.3 266.126C 268.7 254.526 269.6 245.626 271.3 235.526C 273.1 233.826 274.1 232.126 274.1 230.226C 274.2 227.726 272.9 225.126 269.9 221.926C 269.7 221.726 269.5 221.626 269.2 221.626L 269.1 221.626L 269 221.626L 268.9 221.626C 268.8 221.626 268.6 221.726 268.5 221.826L 268.4 221.926L 268.4 221.526C 268.3 221.126 268 220.826 267.6 220.726C 267.6 220.726 267.1 220.626 266.4 220.626C 265.2 220.626 262.8 220.826 260.4 222.426C 255.926 225.344 252.966 230.721 250.323 235.522L 250.1 235.926C 246.6 242.426 243.2 248.526 237 249.726C 236.6 249.826 236.3 250.126 236.2 250.426C 236.1 250.826 236.3 251.226 236.6 251.426C 238 252.326 239.9 252.826 241.9 252.826C 244.6 252.826 246.8 251.926 248.2 250.426C 246.8 252.626 245.3 253.926 242.4 253.926C 241.6 253.926 240.7 253.826 239.7 253.626C 238.7 253.426 237.9 253.226 237.2 252.926L 237.2 252.826C 237.3 252.326 237 251.826 236.5 251.626L 195.1 240.726L 195.5 237.426C 195.5 237.126 195.4 236.926 195.3 236.726C 195.2 236.626 195.1 236.526 195 236.526L 196.4 236.526C 196.8 236.526 197.1 236.326 197.3 235.926L 238.2 247.126L 238.4 247.126C 238.8 247.126 239.2 246.826 239.3 246.426L 240.7 241.426C 241.2 239.726 241 237.926 240.2 236.326C 239.4 234.726 238.1 233.626 236.5 233.226L 276.5 213.126C 276.7 213.026 276.9 212.826 277 212.626C 276.962 212.473 276.938 212.35 276.918 212.244C 276.885 212.073 276.862 211.95 276.8 211.826ZM 112.1 63.926C 111.923 63.9438 111.748 63.9583 111.576 63.9703C 111.62 63.988 111.662 64.007 111.7 64.026L 117.7 67.426C 118.2 67.726 118.3 68.226 118.1 68.726C 117.9 69.226 117.7 69.626 117.5 70.026L 128.1 76.126C 130.5 68.026 138.1 61.926 149.8 58.826C 152.3 58.126 154.9 57.626 157.6 57.326L 157.6 51.226C 157.6 50.726 158.1 50.326 158.6 50.326L 161.5 50.326L 161.5 49.026C 159.4 47.826 157.8 46.126 156.9 44.226C 154 45.926 150.9 47.926 148 50.126C 135.4 59.626 127.7 62.526 112.1 63.926ZM 203.9 203.526L 199.139 203.526C 199.231 203.575 199.315 203.641 199.4 203.726C 199.5 203.926 199.6 204.126 199.6 204.426L 198.7 211.626C 198.6 212.026 198.4 212.326 198.1 212.426L 199.1 212.426C 199.4 212.426 199.6 212.526 199.8 212.726C 200 213.026 200 213.226 200 213.526L 198.9 222.626L 216.3 227.426L 206.5 208.026C 206.3 207.826 206.3 207.526 206.4 207.326C 206.5 207.126 206.7 206.926 206.9 206.826L 238.8 190.726L 206.4 190.726C 203.8 190.726 201.7 188.626 201.7 186.026L 201.7 176.926C 194 176.826 185.6 176.226 178.8 175.626L 176.6 185.326L 196.7 185.326C 197.1 185.326 197.5 185.526 197.6 185.926L 199.3 191.026L 204.5 194.526C 204.7 194.726 204.9 195.026 204.9 195.326L 204.9 202.626C 204.9 203.126 204.4 203.526 203.9 203.526ZM 1.89999 62.5261C 1.89999 64.3261 3.29999 65.726 5.10001 65.726L 5.10001 65.626L 28 65.626C 28.5 65.626 28.9 66.0261 28.9 66.5261L 28.9 67.3261C 33.3 67.426 37.5 69.226 40.2 72.3261C 41.1 73.426 41.9 74.626 42.5 76.0261L 47.7 76.0261L 47.7 73.726L 44.5 73.726C 44 73.726 43.6 73.3261 43.6 72.8261L 43.6 66.626C 43.6 66.126 44 65.726 44.5 65.726L 60 65.726L 59.7 62.726C 59.7 62.3261 59.9 62.0261 60.2 61.8261L 65.2 59.0261C 65.5 58.8261 65.9 58.8261 66.2 59.0261L 70.5 62.0261L 70.5 10.8261C 70.5 9.02606 69.1 7.62604 67.3 7.62604L 5.10001 7.62604C 3.29999 7.62604 1.89999 9.02606 1.89999 10.8261L 1.89999 62.5261ZM 87.2 86.226L 95.8 95.926L 95.1 95.526C 95 95.426 94.8 95.426 94.7 95.426L 82.2 95.026C 81.8 95.026 81.5 95.226 81.4 95.526L 74.6 107.126L 74.9 105.026L 74.9 104.526L 71.4 93.726C 71.3 93.426 71 93.126 70.7 93.026L 58.3 90.826L 59.7 90.626C 59.9 90.626 60 90.526 60.1 90.426L 69.3 83.926C 69.6 83.726 69.7 83.426 69.7 83.126L 68.5 69.726L 69.2 71.026L 69.5 71.326L 78.7 77.726C 78.9 77.926 79.3 77.926 79.6 77.826L 92.1 72.926L 90.9 73.926C 90.8502 73.9758 90.8004 74.0504 90.7506 74.1251L 90.7501 74.1259L 90.7491 74.1273C 90.6994 74.2018 90.6497 74.2763 90.6 74.326L 87 85.326C 86.9 85.626 86.9 85.926 87.2 86.226ZM 68 64.926L 68.3 65.526C 69.1 65.326 69.7 64.726 70.1 64.126L 65.7 61.026L 61.8 63.226L 62 65.726L 66.2 65.726L 66.2 65.526C 66.2 65.026 66.5 64.626 66.9 64.526C 67.4 64.326 67.8 64.526 68 64.926ZM 43.2 77.926L 48.7 77.926C 49.2 77.926 49.7 77.526 49.7 77.026L 49.7 72.926C 49.7 72.426 49.3 72.026 48.7 72.026L 45.5 72.026L 45.5 67.726L 60.2 67.726L 61.1 79.826L 47.1 89.726C 47.05 89.726 47.025 89.751 47 89.776C 46.975 89.801 46.95 89.826 46.9 89.826C 45.8018 89.3267 44.6039 88.9273 43.4058 88.5278L 43.4052 88.5276L 43.4044 88.5274L 43.4033 88.527L 43.4019 88.5266L 43.4 88.526L 43.6 87.126C 43.8 85.826 43.9 84.526 43.8 83.226C 43.9 81.226 43.6 79.526 43.2 77.926ZM 22.8 73.226L 22.8 72.8261C 22.8 72.3261 23.2 71.926 23.9 71.926L 26.4 71.926C 26.4989 71.926 26.6222 71.9015 26.7458 71.8769L 26.7467 71.8767L 26.7474 71.8766L 26.7489 71.8763L 26.75 71.876L 26.7511 71.8758L 26.7526 71.8755L 26.7533 71.8754L 26.7542 71.8752C 26.8778 71.8506 27.0011 71.8261 27.1 71.8261L 27.1 69.426C 23.8 69.8261 20.9 71.3261 18.9 73.626C 16.8 76.026 15.7 79.226 15.6 83.126C 15.6 84.226 15.6 85.426 15.8 86.726L 16.1 87.426L 17.7 87.8261C 18.1 87.926 18.4 88.3261 18.4 88.726C 18.4 89.126 18.1 89.526 17.7 89.626C 14 90.8261 10.5 92.226 7.5 93.926C 4.30002 109.626 3.70001 125.726 3.60001 139.526L 11.2 139.526C 11.3 138.526 11.3 137.426 11.3 136.326L 11.3 136.126C 11.3107 135.682 11.3211 135.237 11.3315 134.792C 11.5158 126.923 11.7017 118.989 13.5 113.026C 13.6 112.726 13.8 112.526 14 112.426C 14.3 112.326 14.6 112.326 14.8 112.426L 14.9 112.426L 15 112.126L 15 112.526L 15.2 112.626C 15.3 112.726 15.5 112.826 15.7 112.926C 16 113.026 16.2 113.326 16.2 113.726C 16.5 122.726 16.3 125.426 15.7 131.426L 15.6 132.426C 17.9 134.226 22.2 135.526 27.2 135.826L 27.2 87.026C 25.6 87.026 23.7 86.726 22.5 86.526L 18.7 85.726C 18.3 85.626 18 85.226 18 84.8261C 17.9 84.226 17.9 83.726 17.9 83.126C 18 79.8261 18.9 77.126 20.6 75.126C 21.2 74.3261 22 73.726 22.8 73.226ZM 24.7 76.0261L 24.7 74.426C 25.3 74.126 25.9 73.926 26.5 73.8261L 27.9 73.8261C 28.1 73.8261 28.4 73.726 28.5 73.626L 28.7 73.626C 31.3 73.626 33.6 74.5261 35.2 76.126L 24.7 76.126L 24.7 76.0261ZM 37 75.126C 37.3 75.426 37.5 75.726 37.7 76.026L 37.7 75.926L 40.4 75.926C 40 75.126 39.4 74.226 38.8 73.526C 36.4 70.826 32.8 69.226 28.9 69.226L 28.9 71.626C 32.1 71.626 35.1 72.926 37 75.126ZM 100.8 164.126C 102.6 164.626 103.6 166.426 103.2 168.126L 94.1 203.326C 93.7 204.726 92.4 205.826 90.8 205.826C 90.5 205.826 90.3 205.826 90 205.726L 66.5 199.626C 65.6 199.426 64.9 198.826 64.5 198.126C 64 197.326 63.9 196.426 64.1 195.626L 71 169.126C 71.2 169.026 71.5 168.826 71.8 168.626L 71.9 168.526C 72.3 168.326 72.7 168.126 73.1 167.826L 66.6 192.726C 66.5 193.026 66.6 193.226 66.7 193.426C 66.8 193.626 67 193.826 67.3 193.826L 77.4 196.426C 77.3538 196.426 77.3076 196.448 77.2614 196.47L 77.261 196.47L 77.2605 196.47L 77.26 196.471L 77.2596 196.471L 77.2591 196.471L 77.2587 196.471L 77.2582 196.472L 77.2578 196.472L 77.2573 196.472L 77.2568 196.472L 77.2564 196.473L 77.2559 196.473L 77.2555 196.473L 77.255 196.473L 77.2545 196.474L 77.2541 196.474L 77.2536 196.474L 77.2532 196.474L 77.2527 196.475L 77.2523 196.475L 77.2518 196.475L 77.2513 196.475L 77.2509 196.476L 77.2504 196.476L 77.25 196.476C 77.2 196.501 77.15 196.526 77.1 196.526C 76.9 196.626 76.7 196.826 76.7 197.126L 75.7 200.826C 75.6 201.026 75.7 201.326 75.8 201.526C 75.9 201.726 76.1 201.926 76.4 201.926L 80.1 202.926L 80.3 202.926C 80.5 202.926 80.6 202.926 80.8 202.826C 81 202.726 81.2 202.526 81.2 202.226L 82.2 198.526C 82.3 198.126 82.2 197.826 81.9 197.626L 92.2 200.326C 92.5 200.426 92.7 200.326 92.9 200.226C 93.1 200.126 93.3 199.926 93.3 199.626L 101.2 169.326C 101.3 168.826 101 168.326 100.5 168.126L 80.4 162.926C 80.6 162.826 80.7 162.726 80.9 162.526L 80.9009 162.525C 81.4006 162.125 81.9003 161.726 82.4 161.226L 82.2 162.026C 82.1 162.226 82.2 162.526 82.3 162.726C 82.4 162.926 82.6 163.126 82.9 163.126L 92.7 165.626L 92.9 165.626C 93.1 165.626 93.3 165.626 93.4 165.526C 93.6 165.426 93.8 165.226 93.9 164.926L 94.3 163.526C 94.4 163.326 94.3 163.026 94.2 162.826C 94.1 162.626 93.9 162.426 93.6 162.426L 83.9 159.926L 83.7 159.926C 83.7498 159.876 83.7997 159.801 83.8496 159.727L 83.8499 159.726L 83.8503 159.726C 83.9002 159.651 83.9501 159.576 84 159.526L 100.8 164.126ZM 75.4 166.626L 68.7 192.526L 91.8 198.426L 99.2 169.926L 78.5 164.626C 77.8187 165.121 77.1374 165.54 76.5036 165.93C 76.1141 166.169 75.7426 166.398 75.4 166.626ZM 80.2 199.226L 79.7 201.126L 77.8 200.626L 78.3 198.726L 80.2 199.226ZM 75.6 161.926L 78.1 162.526C 78.7 162.126 79.3 161.726 79.9 161.226C 80.7 160.626 81.4 159.926 82 159.226L 77.3 158.026C 77.1 157.926 76.8 157.926 76.5 157.926C 75 157.926 73.7 158.926 73.3 160.426L 71.7 166.626C 72.3 166.326 73 165.926 73.8 165.426L 74.5 162.626C 74.5 162.326 74.7 162.126 74.9 162.026C 75.1 161.926 75.4 161.826 75.6 161.926ZM 73.6 122.026C 74.5 124.026 74.9 125.826 74.8 127.726C 74.8 128.126 75 128.526 75.3 128.626C 75.6 128.826 76.1 128.726 76.4 128.526C 78 127.126 79.5 126.426 81.2 126.426C 85.4623 126.426 89.7245 131.044 93.3052 134.923L 93.4 135.026C 91.8 135.526 89.8 135.826 87.7 135.826C 82.4 135.826 77.6 134.126 75.3 131.426C 75.1 131.226 74.8 131.126 74.5 131.126C 74.2 131.126 73.9 131.326 73.8 131.626C 72.9 133.526 71.6 135.226 70.4 136.726C 71.9 132.126 72.1 128.126 69.6 122.926L 73.6 122.026ZM 56.5 141.426L 55.8 141.426C 55.7 143.426 55.9 145.626 56.2 147.226L 56.3 147.726C 56.3 148.026 56.2 148.326 56 148.526C 55.8 148.726 55.6 148.826 55.3 148.826L 55.2 148.826L 48.8 148.026C 48.4 148.026 48 147.626 48 147.126C 47.9 145.026 48.2 143.026 48.8 141.326L 47 141.326C 46.5 141.326 46.1 140.926 46.1 140.426C 46 139.526 46 138.626 46 137.726C 44.9 139.726 44.3 142.026 44.4 144.426C 44.6 149.226 45 152.626 45.3 154.826C 45.5 156.326 45.6 157.426 45.6 158.226C 45.6 158.926 45.3 159.726 45 160.526L 44.9 160.726C 44.85 160.976 44.775 161.201 44.7 161.426C 44.625 161.651 44.55 161.876 44.5 162.126C 44.1 163.426 44.9 164.726 45.5 165.526C 47.2 167.726 50.4 169.426 52.7 169.426C 53 169.426 53.3 169.426 53.5 169.326L 53.8 169.326C 54.2 169.326 54.5 169.526 54.7 169.926C 55.5 171.826 59.2 173.626 62.2 173.626C 63.3 173.626 64.8 173.426 65.7 172.226C 65.85 171.976 66 171.751 66.15 171.526C 66.3 171.301 66.45 171.076 66.6 170.826L 66.9 170.926L 66.6 170.726C 66.6588 170.632 66.7162 170.539 66.7725 170.448C 67.1954 169.766 67.5588 169.179 68 168.826C 68.3 168.526 68.8 168.226 69.3 167.926L 71.4 159.926C 72 157.626 74.1 156.026 76.5 156.026C 77 156.026 77.4 156.126 77.8 156.226L 83.2 157.626C 84.1 156.026 84.8 154.326 84.9 152.426C 85.2 149.226 84.1 146.126 81.8 143.726C 79.9 141.726 77.2 140.726 73.7 140.726C 72 140.726 70.1 140.926 68.3 141.426C 67.8 141.526 67.4 141.326 67.2 140.926C 66.3 139.026 63.1 132.726 57.3 132.026C 57.3 133.501 57.3259 134.923 57.3513 136.321L 57.3513 136.325C 57.3759 137.674 57.4 139 57.4 140.326L 57.4 140.526C 57.4 141.026 57 141.426 56.5 141.426ZM 54.1 146.826L 49.8 146.326C 49.8 144.526 50.2 142.826 50.8 141.426L 53.9 141.426C 53.8227 142.818 53.9247 144.269 54.0211 145.642C 54.0495 146.044 54.0773 146.44 54.1 146.826ZM 55 139.526L 55.5 139.526C 55.5 138.301 55.476 137.075 55.4514 135.826L 55.4514 135.825L 55.4514 135.825C 55.426 134.526 55.4 133.202 55.4 131.826C 52.6 131.926 49.9 133.126 47.9 135.226L 47.9 136.226L 47.9 137.326L 47.9 139.526L 49.6 139.526C 49.75 139.326 49.875 139.126 50 138.926L 50.0006 138.925C 50.1254 138.725 50.2502 138.526 50.4 138.326C 50.6 137.926 51.1 137.826 51.5 138.026L 55 139.526ZM 55.3 130.026C 52.5 130.126 49.9 131.126 47.8 132.826C 47.6 125.626 47.3 118.526 45.7 113.026C 45.6 112.726 45.4 112.526 45.2 112.426C 44.9 112.326 44.6 112.326 44.4 112.426L 44.3 112.426L 44.2 112.126L 44.2 112.426L 43.4 112.726C 43.1 112.926 42.9 113.226 42.9 113.526C 42.5 122.026 42.8 125.026 43.2 129.026L 43.2005 129.031C 43.3003 130.029 43.4001 131.028 43.5 132.226C 41.1 134.126 36.7 135.426 31.5 135.726L 31.5 87.226C 32.5 87.126 33.8 86.926 34.7 86.726C 34.8 86.726 34.9 86.726 35 86.626L 39 85.726C 39.4 85.626 39.7 85.3261 39.7 84.8261C 39.7 84.6672 39.7101 84.4983 39.7206 84.3225L 39.7207 84.3218L 39.7207 84.3209L 39.7208 84.32L 39.7209 84.3191C 39.7435 83.9424 39.768 83.5342 39.7 83.126C 39.7 81.126 39.3 79.426 38.7 77.926L 41.2 77.926C 41.7 79.526 42 81.226 42 83.126C 42 84.1406 41.9149 85.2404 41.8232 86.425L 41.8232 86.4261L 41.8 86.726L 41.7 87.526L 40.8 87.726C 40.4 87.8261 40.1 88.226 40.1 88.626C 40.1 89.026 40.4 89.426 40.8 89.526C 43 90.126 45 90.926 47 91.726L 47.9 96.126C 48 96.526 48.3 96.8261 48.6 96.8261L 52.2 97.526C 54.2 108.626 55 119.726 55.3 130.026ZM 49.5853 92.9647C 49.4211 92.8846 49.2586 92.8053 49.1 92.726L 49.6 95.226L 51.8 95.726L 51.7998 95.7249C 51.6999 95.1253 51.5999 94.5257 51.5 94.026C 50.9388 93.6251 50.249 93.2886 49.5853 92.9647ZM 103 101.926L 85.7 101.326C 85.4 101.326 85.1 101.526 84.9 101.826L 76.3 116.426L 71.8 115.926L 66.6 99.0261C 66.5 98.726 66.2 98.426 65.9 98.426L 54 95.926C 53.9 95.4261 53.825 94.9512 53.7501 94.4763C 53.675 94.0012 53.6 93.5261 53.5 93.0261C 53.4 92.726 53.3 92.5261 53 92.426C 51.8 91.726 50.4 91.0261 49.1 90.426L 62.8 80.8261C 63.1 80.626 63.2 80.3261 63.2 80.0261L 62.2 67.5261L 66.5 67.5261L 67.7 82.726L 59.1 88.726L 52.3 89.726C 51.8 89.8261 51.5 90.226 51.5 90.626C 51.5 91.126 51.8 91.5261 52.3 91.5261L 69.8 94.626L 72.9 104.726L 71.8 111.526C 71.7 112.026 72 112.426 72.4 112.526L 72.7 112.526C 73 112.526 73.4 112.326 73.5 112.026L 75.5 108.526L 75.7 108.326L 82.6 96.5261L 94.3 96.926L 99.7 99.926C 100.1 100.126 100.6 100.026 100.9 99.726C 101.2 99.3261 101.2 98.8261 100.9 98.5261L 88.9 85.126L 92.3 74.926L 97.6 70.426C 97.9 70.126 98 69.626 97.8 69.226C 97.6 68.8261 97 68.726 96.6 68.8261L 79.3 75.626L 70.7 69.626L 69.2 67.0261C 70.2 66.626 71.1 65.8261 71.7 64.926L 79.6 70.426C 79.9 70.626 80.2 70.626 80.5 70.5261L 96.1 64.626L 99.4 67.726L 94.2 83.726C 94.1 84.0261 94.1 84.3261 94.4 84.626L 105.1 97.626L 103 101.926ZM 239.389 172.719C 239.694 172.684 239.966 172.653 240.2 172.626L 227.8 146.226L 206.3 146.226C 204.7 146.226 203.5 147.526 203.5 149.026L 203.5 175.226L 204.2 175.226C 217.549 175.226 233.945 173.344 239.388 172.719L 239.389 172.719ZM 215.5 117.726L 191.5 117.726C 190.7 115.326 188.4 108.426 187.9 104.626C 187.9 104.426 187.8 104.226 187.6 104.026L 179.7 96.726L 191.8 89.626C 192.8 92.426 196.1 99.926 203.5 99.926C 210.9 99.926 214.2 92.5261 215.2 89.626L 222 93.626L 211.4 104.226C 211.2 104.426 211.1 104.626 211.1 104.926C 211.1 105.126 211.2 105.426 211.4 105.626L 217.4 111.626C 217.019 112.931 216.609 114.207 216.25 115.324L 216.248 115.33C 215.947 116.265 215.682 117.089 215.5 117.726ZM 218 109.526C 218.5 107.726 218.9 106.026 219.1 104.626C 219.1 104.426 219.2 104.226 219.4 104.026L 227.3 96.726L 223.7 94.626L 213.4 104.926L 218 109.526ZM 241.7 78.026C 244.1 76.826 246.8 76.226 249.6 76.226C 252.1 76.226 254.5 76.726 256.7 77.726L 252.6 81.826C 250.6 82.026 248.8 82.826 247.4 84.226C 244.1 87.526 244.1 92.826 247.4 96.126C 249 97.726 251.1 98.626 253.4 98.626C 255.7 98.626 257.8 97.726 259.4 96.126C 260.8 94.726 261.7 92.826 261.8 90.826L 265.9 86.726C 268.7 93.326 267.3 101.026 262.2 106.126L 238.5 129.726L 219.7 111.026C 220.3 108.926 220.8 106.826 221.1 105.126L 229.7 97.226C 229.9 97.026 230 96.726 230 96.426C 230 96.126 229.8 95.826 229.5 95.726L 225.3 93.226L 231.1 87.426C 234.8 86.926 237.8 85.326 239.8 82.526C 240.6 81.226 241.2 79.626 241.7 78.026ZM 234.2 70.726L 234.2 70.926C 234.2 70.926 235.6 75.5261 233.5 78.726C 232.2 80.626 230.1 81.8261 227.1 82.226L 227 82.3261C 226.943 82.3835 226.918 82.408 226.908 82.4374C 226.9 82.4591 226.9 82.4835 226.9 82.5261C 226.9 82.626 226.9 82.726 227 82.726C 230.2 82.426 232.5 81.126 233.8 79.126C 235.883 75.8528 234.818 71.5958 234.605 70.7462L 234.6 70.726C 234.6 70.726 234.5 70.626 234.4 70.626L 234.3 70.626C 234.3 70.626 234.2 70.626 234.2 70.726ZM 237.1 81.3261C 237.7 80.726 238.4 80.126 239.1 79.626C 239.041 79.7445 238.982 79.8668 238.922 79.9908C 238.678 80.4946 238.421 81.0247 238.1 81.426C 236.9 83.0261 235.4 84.126 233.5 84.8261L 237.1 81.3261ZM 256.5 34.226C 256.4 33.926 256.5 33.526 256.7 33.326L 263.2 26.526L 258.7 27.826L 253.8 33.226L 257.5 44.926C 257.6 45.326 257.4 45.826 257 46.026C 256.5 46.226 256.1 46.126 255.8 45.726L 253.3 42.426L 246.2 39.026L 238.6 44.426C 238.6 44.426 238.5 44.526 238.4 44.526L 236.5 45.926C 236.562 45.9878 236.585 46.0496 236.618 46.1349L 236.618 46.1356C 236.638 46.1883 236.662 46.2499 236.7 46.326C 237 47.126 237 48.026 236.6 48.826L 245.9 42.126C 246.2 41.926 246.6 41.826 246.9 42.026L 257.5 47.126L 259.6 45.326L 256.5 34.226ZM 251.7 33.126L 254.1 40.626L 246.5 36.926C 246.2 36.8261 245.8 36.8261 245.5 37.0261L 239.2 41.5261C 239.3 41.426 239.3 41.3261 239.3 41.226L 240.2 33.426C 240.2 33.0261 240.1 32.726 239.8 32.5261L 233.7 28.426L 241.3 26.926C 241.6 26.8261 241.9 26.626 242 26.3261L 244.6 18.626C 244.6 18.6685 244.6 18.6929 244.608 18.7147C 244.618 18.7441 244.643 18.7685 244.7 18.8261L 248.7 25.426C 248.9 25.726 249.2 25.8261 249.5 25.926L 257.3 26.226L 257.2 26.3261L 251.8 32.3261C 251.6 32.426 251.6 32.726 251.7 33.126ZM 226.6 25.326L 226 28.026L 235.3 34.826C 235.6 35.026 235.7 35.426 235.7 35.726L 234.6 44.526C 234.8 44.526 235 44.526 235.1 44.626L 237.5 40.926L 238.3 33.926L 228.3 27.126C 227.9 26.826 227.8 26.326 228 25.926C 228.2 25.526 228.7 25.326 229.1 25.426L 233.6 26.626L 240.5 25.226L 244.4 14.026C 244.5 13.726 244.9 13.426 245.3 13.426L 245.4 13.426C 245.8 13.426 246.2 13.826 246.2 14.226L 246.6 18.026L 250.3 24.026L 263 24.526C 263.5 24.526 263.8 24.826 263.9 25.326L 263.9 25.626L 264.6 24.826L 263.5 22.326L 252.2 21.626C 251.8 21.526 251.6 21.426 251.4 21.126L 245.4 11.226L 242.6 11.526L 238.7 22.426C 238.6 22.726 238.3 22.926 238 23.026L 226.6 25.326ZM 234.8 47.8261L 234 47.3261L 234.1 46.126C 234.4 46.226 234.6 46.5261 234.7 46.8261C 235 47.226 235 47.5261 234.8 47.8261ZM 205.5 51.926C 205.6 52.126 205.7 52.2261 205.9 52.2261C 205.924 52.2261 205.943 52.2261 205.961 52.2246C 206.018 52.22 206.074 52.2015 206.3 52.126C 209.7 50.626 213.7 49.626 216.6 48.926C 217.903 48.6469 219.119 48.2811 220.087 47.9899L 220.3 47.926C 221.1 47.626 222 47.5261 222.9 47.5261C 225.8 47.5261 228.6 48.8261 229.4 49.2261C 229.4 49.3261 229.5 49.3261 229.5 49.3261C 230.1 49.5261 234.9 51.426 236.6 55.2261C 236.969 56.0558 237.508 57.0556 238.138 58.2253L 238.139 58.228L 238.3 58.5261L 238.1 58.7261L 238.4 58.626C 239.9 61.426 241.8 65.0261 242.9 68.426L 243.2 68.7261L 243.5 68.7261C 243.646 68.7261 243.686 68.6725 243.735 68.6045L 243.736 68.6036C 243.754 68.579 243.774 68.5525 243.8 68.5261L 243.8 68.2261C 242.725 65.002 241.089 61.8582 239.682 59.1537C 239.518 58.8384 239.357 58.5289 239.2 58.2261L 239.1 58.126C 238.8 57.4769 238.501 56.8777 238.226 56.3283L 238.225 56.3263L 238.223 56.3224C 237.949 55.7739 237.7 55.2751 237.5 54.8261C 236.8 53.2261 235.5 51.7261 233.6 50.426C 233.3 50.2261 233.1 49.8261 233.2 49.5261C 233.2 49.426 233.2 49.3261 233.3 49.2261L 232.6 48.8261C 232.55 48.7761 232.5 48.701 232.45 48.626L 232.45 48.6254C 232.4 48.5507 232.35 48.4759 232.3 48.426C 232.2 48.626 232.1 48.7261 232 48.8261C 231.8 49.0261 231.3 49.126 231 48.926C 230.659 48.7217 230.365 48.6102 230.149 48.5282L 230.148 48.5278L 230.148 48.5276L 230.147 48.5274L 230.146 48.5269C 230.046 48.4891 229.963 48.4576 229.9 48.426C 229.6 48.2261 229.2 48.0261 228.6 47.8261C 228.2 47.626 228 47.3261 228 46.926C 228 46.5261 228.2 46.126 228.6 46.0261C 229.1 45.8261 229.4 45.5261 229.6 45.126C 230 44.2261 229.6 43.2261 228.7 42.8261C 227.9 42.5261 226.8 42.926 226.4 43.7261C 226.2 44.3261 226.3 44.926 226.6 45.426C 226.8 45.8261 226.8 46.2261 226.6 46.5261C 226.4 46.8261 226 47.0261 225.6 46.926C 223.4 46.426 221.5 46.5261 219.9 47.0261C 219 47.3261 217.9 47.626 216.7 47.926L 216.2 48.0261C 213.2 48.7261 209.2 49.8261 205.7 51.3261C 205.6 51.3261 205.5 51.426 205.5 51.5261C 205.4 51.7261 205.4 51.8261 205.5 51.926ZM 235.1 56.526C 233 53.226 229 51.726 228.4 51.526C 228.1 51.326 225 49.826 221.7 49.826C 221.1 49.826 220.501 49.9259 219.901 50.0259L 219.9 50.026L 219.901 50.0258C 220.201 49.9258 220.5 49.826 220.7 49.826C 221.3 49.626 222 49.526 222.7 49.526C 225.5 49.526 228.1 50.826 228.4 51.026C 228.5 51.126 228.6 51.126 228.7 51.126C 228.714 51.1327 228.746 51.1467 228.796 51.168L 228.803 51.1712C 229.508 51.4737 233.406 53.1454 234.8 56.026C 234.9 56.1259 235 56.3255 235.1 56.5253L 235.1 56.526ZM 216 52.926C 213.1 53.626 209.6 54.626 206.5 55.926C 203.6 57.226 199.4 61.426 199.2 66.326C 199.2 67.526 199.5 68.926 200.2 70.526C 200.6 71.126 200.9 71.726 201.2 72.326C 203.3 75.426 207.3 78.826 214.6 82.026C 220.7 84.726 225.8 85.926 229.9 85.526L 233.2 82.326C 231.7 83.526 229.7 84.326 227.3 84.626L 227 84.626C 226.7 84.626 226.4 84.5261 226.101 84.4262L 226.1 84.426C 225.5 84.126 225 83.426 224.9 82.726C 224.8 82.126 225 81.626 225.3 81.126C 225.6 80.726 226.2 80.426 226.7 80.326C 229.1 80.026 230.8 79.126 231.7 77.726C 233.284 75.2512 232.418 71.7965 232.303 71.3391L 232.3 71.326C 232.2 70.826 232.2 70.226 232.5 69.726C 232.8 69.226 233.3 68.926 233.8 68.726C 234 68.626 234.2 68.626 234.4 68.626C 235.4 68.626 236.2 69.226 236.5 70.126C 236.512 70.1874 236.529 70.2638 236.548 70.3541C 236.845 71.7357 237.841 76.3714 235.4 80.126C 235.346 80.2065 235.3 80.2797 235.257 80.3477C 235.139 80.5331 235.047 80.6793 234.901 80.8255L 235.8 79.926C 237.1 78.626 238.6 77.626 240.1 76.726C 240.5 74.426 240.4 72.226 239.9 70.626C 238.9 67.426 237.2 64.226 235.8 61.626L 235.5 61.126C 234.9 60.126 234.4 59.226 234.1 58.426C 232.5 54.926 227.8 53.226 227.8 53.226L 227.7 53.226C 226.8 52.826 224.3 51.726 221.8 51.726C 220.9 51.726 220.2 51.826 219.5 52.026C 218.6 52.226 217.4 52.526 216 52.926ZM 161.9 38.926C 162 38.426 162.3 37.926 162.6 37.626C 163.2 37.0261 164.1 36.626 165.3 36.626L 165.6 36.626C 165.7 36.626 165.8 36.651 165.9 36.676C 166 36.7011 166.1 36.726 166.2 36.726C 165.55 37.0761 164.85 37.4261 164.125 37.7887C 163.4 38.1511 162.65 38.5261 161.9 38.926ZM 169.7 37.226C 169.9 37.526 170.1 37.926 170.3 38.326L 172.3 37.726C 172.1 37.226 171.9 36.726 171.6 36.326L 171.599 36.3265C 170.999 36.6263 170.4 36.9261 169.7 37.226ZM 117.3 40.426C 118.8 41.026 119.2 41.626 119.1 41.926C 119.1 42.226 118.6 42.626 118.3 42.626L 118.2 42.626C 118 42.626 117.6 41.926 117.3 40.426ZM 118.3 44.426L 117.9 44.426C 117 44.326 116.4 43.526 115.9 42.426C 116.1 43.126 116.4 44.026 117 44.826C 117.3 45.326 117.9 45.526 118.5 45.526C 120 45.526 121.7 44.426 121.9 42.626C 122.1 40.926 120.1 39.626 118.8 39.026C 120.9 40.026 121.1 41.326 121 42.126C 120.8 43.526 119.5 44.426 118.3 44.426ZM 156.3 42.026C 153.2 43.826 150 45.926 146.9 48.226C 134.6 57.426 127.1 60.326 112 61.626C 111.1 61.726 110.2 61.726 109.4 61.726C 98.9 61.726 92.2 55.926 90.1 53.726C 95.3 50.426 100.6 46.126 104.5 42.726C 104.2 43.726 104.1 44.726 104.4 45.526C 104.7 46.726 105.7 47.626 107.2 48.126C 111 49.226 113.3 46.726 114.5 44.326C 114.8 45.026 115.1 45.626 115.6 46.126C 116.3 47.026 117.4 47.526 118.6 47.526C 120.9 47.526 123.5 45.826 123.8 42.926C 124 41.326 123.2 39.826 121.6 38.526C 133.682 37.3278 144.768 28.8508 146.492 27.5317L 146.5 27.526L 147.8 27.626C 148.409 27.6565 149.186 27.6962 150.144 27.7453C 152.33 27.8572 155.459 28.0175 159.7 28.226C 169 28.726 173.5 31.426 175.3 32.826L 175.129 32.8901C 174.346 33.1826 173.316 33.5677 172.2 34.126C 172.05 33.976 171.9 33.8009 171.75 33.6259C 171.6 33.4509 171.45 33.2759 171.3 33.126L 171.2 33.126C 169.7 31.826 167.9 31.026 165.9 30.926C 162.9 30.726 160.1 31.726 158.2 33.726C 157.1 34.826 156.4 36.326 156 37.926C 155.9 39.126 156 40.626 156.3 42.026ZM 159.7 34.8261C 158.8 35.726 158.3 36.926 158 38.126C 157.8 39.126 157.8 40.126 157.9 40.8261C 158.6 40.426 159.3 40.026 159.9 39.726C 159.9 39.226 159.9 38.8261 160 38.3261C 160.2 37.526 160.6 36.726 161.2 36.126C 162.3 35.026 163.8 34.526 165.7 34.626C 166.6 34.726 167.5 35.026 168.3 35.626C 169.1 35.3261 169.8 35.026 170.4 34.726L 170.1 34.426C 168.9 33.3261 167.5 32.726 165.9 32.626C 163.3 32.426 161.2 33.226 159.7 34.8261ZM 150.5 60.226C 153.2 59.526 156 59.026 158.9 58.726C 159.4 58.726 159.8 58.226 159.8 57.8261L 159.8 51.8261L 162.7 51.8261C 163.2 51.8261 163.6 51.426 163.6 50.926L 163.6 48.126C 163.6 47.8261 163.4 47.426 163.1 47.3261C 160.7 46.026 159.4 44.3261 158.8 42.926C 159.1 42.776 159.4 42.601 159.7 42.426C 160 42.251 160.3 42.0761 160.6 41.926C 161.3 43.626 162.9 45.026 165.1 46.026L 165.7 46.3261L 165.7 51.026C 165.7 51.3261 165.8 51.526 166 51.726C 166.2 51.926 166.4 52.026 166.7 52.026L 169.5 52.026L 169.5 57.8261C 169.5 58.3261 169.9 58.726 170.4 58.8261C 173.5 59.026 176.5 59.526 179.4 60.126C 188.8 62.3261 195.5 66.526 199 72.126C 199.144 72.4859 199.34 72.7939 199.55 73.1248L 199.55 73.1252C 199.632 73.2539 199.716 73.386 199.8 73.526C 201.1 75.926 201.7 78.626 201.8 81.526L 201.8 83.926L 142.6 83.926L 130.2 76.926C 132 69.026 139.2 63.226 150.5 60.226ZM 138.6 83.726L 129.7 78.626L 129.673 78.8144L 129.667 78.8581C 129.579 79.4619 129.5 80.0045 129.5 80.626L 135 83.726L 138.6 83.726ZM 131.2 83.726L 129.5 83.726L 129.5 82.726L 131.2 83.726ZM 134.5 85.626L 128.6 85.626C 128.1 85.626 127.6 85.226 127.4 84.726L 127.4 81.726L 115.3 74.826C 114.6 76.826 114 78.726 113.6 80.726C 113.8 80.426 114 80.226 114.2 80.026C 115.3 79.226 117.3 79.126 117.9 79.126C 118.7 79.126 120.7 79.226 121.7 80.126C 122.8 81.026 123.1 82.526 122.5 83.926C 122 85.026 121.2 85.726 120.3 85.926L 120.6 86.926C 120.6 87.226 120.6 87.526 120.4 87.726C 120.2 88.026 120 88.126 119.7 88.126L 116.3 88.126C 116 88.126 115.8 87.926 115.6 87.726C 115.4 87.526 115.3 87.226 115.4 86.926L 115.7 85.926C 114.7 85.726 113.9 84.926 113.5 83.826C 113.4 83.626 113.3 83.326 113.3 83.126C 113 85.226 112.9 87.326 112.9 89.426C 113 93.726 113.8 98.026 115.4 102.326L 139.7 88.526L 134.5 85.626ZM 120.4 82.726C 120.2 82.526 119.9 82.426 119.7 82.426L 119.6 82.426L 118.6 82.526C 118.4 82.526 118.2 82.626 118 82.826C 117.933 82.7593 117.778 82.6926 117.622 82.626C 117.544 82.5927 117.467 82.5593 117.4 82.526L 116.5 82.426C 116.2 82.426 115.9 82.526 115.7 82.726C 115.5 82.926 115.4 83.326 115.5 83.626C 115.45 83.576 115.425 83.501 115.4 83.426C 115.375 83.351 115.35 83.276 115.3 83.226C 115.1 82.726 115.1 81.926 115.6 81.526C 115.8 81.326 116.7 81.026 118 81.026C 119.2 81.026 120.2 81.326 120.5 81.526C 121 82.026 121 82.726 120.8 83.326C 120.738 83.3878 120.715 83.4496 120.682 83.535L 120.682 83.5356C 120.662 83.5883 120.638 83.6499 120.6 83.726C 120.7 83.326 120.6 83.026 120.4 82.726ZM 117.6 86.226L 118.5 86.226L 118.1 84.526L 117.6 86.226ZM 106.1 89.626C 105.9 81.8261 107.9 73.8261 111.9 65.926L 116.3 68.426C 116.2 68.626 116.1 68.8509 116 69.0759L 115.999 69.0775C 115.9 69.302 115.8 69.5265 115.7 69.726C 115.5 70.126 115.7 70.726 116.1 70.926L 128 77.726C 127.9 78.3261 127.8 79.026 127.8 79.626L 115.6 72.726C 115.4 72.626 115.1 72.526 114.8 72.626C 114.5 72.726 114.3 72.926 114.2 73.226C 112.1 78.726 111 84.226 111.1 89.626C 111.2 94.426 112.2 99.3261 114.1 104.126C 114.2 104.426 114.4 104.626 114.7 104.726L 115 104.726C 115.2 104.726 115.3 104.726 115.5 104.626L 142.2 89.426C 142.5 89.226 142.7 88.926 142.7 88.626C 142.7 88.3261 142.5 87.926 142.2 87.8261L 138.5 85.726L 142.1 85.726L 145.5 87.626L 145.5 90.126C 145 91.526 144.5 92.726 143.9 93.726C 142.8 95.926 141.9 97.8261 142.9 101.026C 143.019 101.384 143.174 101.707 143.323 102.015L 143.323 102.016C 143.423 102.224 143.52 102.425 143.6 102.626C 144.1 103.626 144.3 104.026 144.1 104.426C 143.7 105.226 142.8 105.426 142 105.426C 141.3 105.426 140.3 105.126 139.9 104.426C 139.6 103.926 139.8 103.526 140.4 102.526C 140.7 102.026 140.9 101.526 141.1 101.026C 141.7 99.226 141.6 96.8261 139.8 95.426C 139.7 95.3762 139.6 95.3013 139.501 95.2265L 139.5 95.226L 139.499 95.2254C 139.399 95.1506 139.3 95.0759 139.2 95.026C 138.9 94.926 138.5 94.926 138.2 95.126L 122.7 106.426L 111.7 106.426C 111.2 106.426 110.6 106.526 110.2 106.626C 107.4 100.726 106.2 95.3261 106.1 89.626ZM 138.9 106.326C 138.5 106.026 138.2 105.626 138 105.226C 137.3 103.826 137.9 102.526 138.5 101.526L 138.6 101.426C 138.8 101.126 139 100.726 139.1 100.326C 139.3 99.8261 139.8 97.926 138.6 96.926L 125.7 106.326L 138.9 106.326ZM 119.9 108.226L 117.5 109.926L 112 110.926C 111.662 110.318 111.37 109.71 111.093 109.133L 111.087 109.121C 110.956 108.848 110.828 108.582 110.7 108.326C 111 108.226 111.2 108.226 111.5 108.226L 119.9 108.226ZM 107.8 111.926L 107.8 117.926L 107.8 118.026L 113.5 118.026C 114.1 118.026 114.5 118.426 114.5 118.926L 114.5 127.226L 168.3 127.226L 168.3 118.926C 168.3 118.426 168.8 118.026 169.3 118.026L 175.3 118.026L 175.3 112.026C 175.3 109.926 173.6 108.326 171.6 108.326L 122.9 108.326L 118.3 111.726C 118.2 111.826 118 111.926 117.9 111.926L 111.6 113.026L 111.4 113.026C 111.1 113.026 110.8 112.826 110.6 112.526C 110.35 111.976 110.075 111.426 109.8 110.876L 109.799 110.874C 109.524 110.324 109.25 109.775 109 109.226C 108.3 109.926 107.8 110.826 107.8 111.926ZM 111.9 139.626C 111.4 139.626 111 140.026 111 140.526L 111 142.826C 111 143.626 110.4 144.226 109.6 144.226C 108.8 144.226 108.2 143.626 108.2 142.826L 108.2 140.526C 108.2 140.026 107.8 139.626 107.3 139.626C 105.3 139.626 103.6 137.926 103.6 135.926L 103.6 126.726C 103.6 124.726 105.3 123.026 107.3 123.026L 111 123.026L 111 131.326C 111 131.826 111.4 132.226 111.9 132.226L 172.1 132.226C 172.6 132.226 173.1 131.826 173.1 131.326L 173.1 123.026L 176.8 123.026C 178.8 123.026 180.5 124.626 180.5 126.726L 180.5 135.926C 180.5 137.926 178.8 139.626 176.8 139.626C 176.3 139.626 175.9 140.026 175.9 140.526L 175.9 142.826C 175.9 143.626 175.3 144.226 174.5 144.226C 173.7 144.226 173.1 143.626 173.1 142.826L 173.1 140.526C 173.1 140.026 172.7 139.626 172.1 139.626L 164.3 139.626L 163.8 138.626C 162.9 137.026 161.3 136.126 159.5 136.126C 158.7 136.126 157.9 136.326 157.2 136.726C 156.1 137.326 155.2 138.326 154.9 139.526L 154.9 139.626L 144.4 139.626L 144.4 139.526C 144 138.326 143.2 137.226 142.1 136.626C 141.4 136.226 140.6 136.026 139.8 136.026C 138 136.026 136.4 137.026 135.5 138.526L 135 139.526L 111.9 139.526L 111.9 139.626ZM 157 139.626L 162.3 139.626C 161.7 138.626 160.7 138.026 159.5 138.126C 159.1 138.126 158.6 138.226 158.2 138.426C 157.7 138.626 157.3 139.126 157 139.626ZM 162.7 156.626L 137 156.626L 144.3 143.226C 144.6 142.726 144.8 142.126 144.8 141.526L 155 141.526C 155.1 142.126 155.2 142.726 155.5 143.226L 162.7 156.626ZM 137.3 139.526L 137.3 139.626L 142.5 139.626C 142.3 139.026 141.9 138.626 141.2 138.326C 140.8 138.126 140.4 138.026 139.9 138.026C 138.8 138.026 137.8 138.626 137.3 139.526ZM 195.9 187.426L 197.5 192.226C 197.6 192.426 197.7 192.626 197.9 192.726L 202.9 196.126L 202.9 201.926L 153.8 201.926L 153.8 199.226L 172.6 199.226C 173 199.226 173.4 198.926 173.5 198.526L 173.5 198.426L 183.7 198.426C 184.2 198.426 184.7 198.026 184.7 197.526L 184.7 193.726C 184.7 193.226 184.3 192.726 183.7 192.726L 174.7 192.726L 175.9 187.326L 195.9 187.326L 195.9 187.426ZM 160.2 180.826L 160.2 185.526L 166.4 185.526L 167.5 180.826L 160.2 180.826ZM 166 187.426L 165.6 189.326L 160.2 189.326L 160.8 187.426L 166 187.426ZM 167.2 190.526C 167.1 190.926 166.7 191.226 166.3 191.226L 166.3 191.326L 159.6 191.326L 159.3 192.326C 159.2 192.526 159.1 192.726 158.9 192.826L 153.8 196.226L 153.8 197.426L 171.9 197.426L 172 197.026L 172 193.826C 172 193.226 172.4 192.826 172.9 192.826L 174.1 187.426L 167.9 187.426L 167.2 190.526ZM 174.5 194.626L 183 194.626L 183 196.326L 174.1 196.326L 174.5 194.626ZM 168.4 185.526L 174.6 185.526L 176.7 175.626C 174.4 175.426 172.3 175.226 170.6 175.026L 170.5 175.626C 170.4 176.026 170 176.326 169.6 176.326L 159.1 176.326C 158.6 176.326 158.2 175.926 158.2 175.426L 158.2 165.526C 158.2 165.026 158.6 164.626 159.1 164.626L 169.4 164.626L 172.6 158.426C 172.4 158.326 172.2 158.226 172.1 158.026L 163.2 141.526L 156.7 141.526C 156.75 141.676 156.8 141.801 156.85 141.926C 156.9 142.051 156.95 142.176 157 142.326L 165 157.126C 165.2 157.426 165.2 157.726 165 158.026C 164.8 158.326 164.5 158.526 164.2 158.526L 135.3 158.526C 135 158.526 134.7 158.326 134.5 158.026C 134.4 157.726 134.4 157.426 134.5 157.126L 142.5 142.326C 142.638 142.188 142.681 142.002 142.727 141.802L 142.727 141.801C 142.748 141.711 142.769 141.619 142.8 141.526L 136.3 141.526L 127.4 158.026C 127.3 158.326 127 158.526 126.6 158.526L 116.4 158.526L 116.4 164.626L 140.6 164.626C 141.2 164.626 141.6 165.026 141.6 165.526L 141.6 175.426C 141.6 175.926 141.1 176.326 140.6 176.326L 129.1 176.326C 128.7 176.326 128.3 176.026 128.2 175.626L 127 170.526L 120.8 170.526L 126.9 197.326L 152 197.326L 152 195.626C 152 195.326 152.1 195.026 152.4 194.826L 157.6 191.326L 158.3 189.226L 158.3 179.926C 158.3 179.326 158.7 178.926 159.2 178.926L 168.7 178.926C 169 178.926 169.2 179.126 169.4 179.326C 169.6 179.526 169.7 179.826 169.6 180.126L 168.4 185.526ZM 165.1 174.026C 165.2 174.226 165.4 174.326 165.6 174.426L 160.1 174.426L 160.1 166.426L 168.5 166.426L 165 173.126C 165 173.426 165 173.826 165.1 174.026ZM 154.045 175.077L 145.952 175.077L 145.952 166.918L 154.045 166.918L 154.045 175.077ZM 170.7 166.426L 170.8 166.426L 169.3 173.026C 168.953 172.983 168.643 172.958 168.363 172.936L 168.357 172.935L 168.355 172.935L 168.354 172.935L 168.353 172.935L 168.352 172.935L 168.351 172.935L 168.35 172.935C 167.99 172.906 167.68 172.882 167.4 172.826L 170.7 166.426ZM 171.2 173.226C 172.9 173.426 175 173.626 177.3 173.826L 179.3 165.226C 179.4 164.826 179.8 164.526 180.2 164.526L 183.7 164.526L 183.7 158.426L 174.8 158.426L 171.7 164.526L 172 164.526C 172.3 164.526 172.5 164.726 172.7 164.926C 172.9 165.126 173 165.426 172.9 165.726L 171.2 173.226ZM 201.6 149.026L 201.6 175.226C 194.1 175.126 185.8 174.526 179.1 174.026L 180.8 166.526L 184.5 166.526C 185 166.526 185.5 166.126 185.5 165.626L 185.5 157.626C 185.5 157.126 185.1 156.726 184.5 156.726L 175.6 156.726L 192.2 124.526L 217.5 124.526L 226.9 144.526L 206.3 144.526C 203.7 144.426 201.6 146.526 201.6 149.026ZM 203.5 186.226C 203.5 187.826 204.8 189.026 206.3 189.026L 206.3 189.126L 242.5 189.126L 259.8 180.426C 260.3 180.126 260.9 180.326 261.1 180.826L 264.6 187.726C 264.9 187.326 265 186.826 265 186.326L 265 177.926L 249.2 177.926C 246.6 177.926 244.5 175.626 244.5 172.826L 244.5 162.526C 244.5 159.726 246.6 157.426 249.2 157.426L 265 157.426L 265 149.126C 265 147.526 263.7 146.326 262.2 146.326L 229.9 146.326L 242.4 173.026C 242.5 173.226 242.5 173.526 242.4 173.826C 242.3 174.126 242 174.326 241.7 174.326C 238 174.826 219.3 177.126 204.2 177.126L 203.5 177.126L 203.5 186.226ZM 263.8 213.326L 231.1 229.726C 229.6 227.526 227.2 226.226 224.5 226.226C 223.6 226.226 222.7 226.426 221.8 226.726L 216.3 215.926C 219.3 213.926 220.6 210.026 219.4 206.626L 250.7 190.826L 252.6 190.826C 254.1 192.626 256.3 193.626 258.7 193.626C 259.6 193.626 260.5 193.426 261.4 193.126L 266.9 203.926C 263.8 206.126 262.6 209.926 263.8 213.326ZM 219.9 230.626L 223.4 237.626L 231.2 233.726L 219.9 230.626ZM 253.3 188.526C 253.2 188.326 253 188.126 252.8 188.026C 252.6 187.926 252.3 187.926 252.1 188.126L 250.3 189.026L 246.8 189.026L 259.9 182.426L 263.2 188.826C 262.9 188.926 262.6 189.026 262.3 189.026L 253.7 189.026C 253.583 188.909 253.5 188.792 253.431 188.695C 253.383 188.626 253.341 188.567 253.3 188.526ZM 242.9 190.926L 208.5 208.226L 218.6 228.526L 229.8 231.526C 228.8 229.526 226.7 228.326 224.5 228.326C 223.6 228.326 222.6 228.526 221.8 228.926C 221.6 229.026 221.3 229.126 221.1 229.026C 220.8 228.926 220.6 228.726 220.5 228.526L 214.2 216.126C 213.9 215.626 214.1 215.026 214.6 214.826C 216 214.126 217.1 212.826 217.6 211.326C 218.1 209.826 218 208.126 217.3 206.726C 217.1 206.526 217.1 206.226 217.2 206.026C 217.3 205.726 217.5 205.526 217.7 205.426L 246.4 190.926L 242.9 190.926ZM 197.4 205.626L 196.8 210.926L 160.1 210.926L 159.5 205.626L 197.4 205.626ZM 163.3 238.326L 164.2 245.426L 178.1 245.426L 180.1 238.326L 163.3 238.326ZM 193 242.126L 192.6 245.426L 180.2 245.426L 181.9 239.126L 193 242.126ZM 193.5 238.226L 186.1 238.226L 193.3 240.226L 193.5 238.226ZM 267.5 223.426C 263.4 227.726 259.1 233.726 255.5 239.226C 259.3 232.726 263.8 225.926 267.5 223.426ZM 242 251.526C 244.4 251.526 246.4 250.626 247.3 249.226C 248.3 247.626 249.6 245.526 250.7 243.326C 250.894 242.997 251.092 242.662 251.292 242.322C 255.117 235.841 260.034 227.507 264.5 223.326C 263.6 223.526 262.5 223.926 261.4 224.626C 257.3 227.326 254.5 232.426 251.8 237.426L 251.78 237.462C 248.686 243.151 245.489 249.031 240.1 251.326C 240.7 251.426 241.4 251.526 242 251.526ZM 236.8 255.326C 237.6 255.626 238.5 255.826 239.4 256.026C 240.5 256.226 241.6 256.326 242.5 256.326C 247.577 256.326 249.383 253.056 251.471 249.279L 251.5 249.226C 251.781 248.757 252.019 248.332 252.243 247.93C 252.497 247.476 252.734 247.051 253 246.626C 257.2 239.726 263.4 230.326 269.2 224.426C 271.3 226.826 272.3 228.926 272.2 230.626C 272.1 232.026 271.3 233.426 269.8 234.826C 269.6 234.926 269.5 235.126 269.5 235.426C 267.8 245.526 266.9 254.326 266.4 265.826L 264.5 242.426C 264.5 242.026 264.2 241.726 263.8 241.626C 263.4 241.526 263 241.726 262.8 242.026C 260.8 245.026 259 249.126 257.4 252.826L 257.3 253.059C 255.13 258.089 252.854 263.366 249.9 265.926C 247.8 267.426 243.5 268.226 237.5 268.226C 236.1 268.226 234.7 268.226 233.4 268.126L 236.8 255.326ZM 154.045 189.157L 145.952 189.157L 145.952 180.84L 154.045 180.84L 154.045 189.157ZM 233.7 253.526C 234 253.826 234.5 254.126 235.1 254.426L 231.4 267.726C 230.495 267.656 229.687 267.538 229.009 267.439L 229.007 267.439L 229.004 267.438C 228.711 267.396 228.442 267.356 228.2 267.326C 228.2 267.089 228.137 266.914 228.062 266.703C 228.042 266.647 228.021 266.589 228 266.526L 227.9 266.126C 227.1 262.326 226.2 257.526 228.1 255.126C 229.2 253.926 231 253.426 233.7 253.526ZM 226.7 254.026C 227.4 253.126 228.3 252.526 229.5 252.126L 194.8 242.726L 194.3 246.526C 194.3 247.026 193.9 247.326 193.4 247.326L 179.6 247.326L 178 253.226C 177.7 254.526 177.8 256.026 178.5 257.126C 179 258.126 179.9 258.826 181 259.126L 225.7 271.226C 226.1 271.426 226.4 271.426 226.8 271.426C 228.2 271.426 229.5 270.726 230.4 269.526C 229.964 269.464 229.548 269.411 229.16 269.362L 229.148 269.361L 229.147 269.361C 228.294 269.253 227.58 269.163 227.1 269.026C 226.7 269.026 226.5 268.726 226.4 268.326C 226.3 267.826 226.2 267.226 226.1 266.626L 226.033 266.277C 225.242 262.136 224.269 257.041 226.7 254.026ZM 195.6 233.526L 184.3 230.426L 185.4 226.326C 186 224.126 187.9 222.626 189.9 222.626C 190.3 222.626 190.6 222.626 191 222.726L 196.7 224.326L 195.6 233.526ZM 191.6 220.926L 197 222.426L 197.9 214.726L 158.9 214.726L 161.3 234.626L 192.4 234.626L 182.9 232.026C 182.4 231.826 182.1 231.326 182.2 230.826L 183.6 225.826C 184.5 222.826 187.1 220.726 190 220.726C 190.6 220.726 191.1 220.826 191.6 220.926ZM 238.4 237.126C 239 238.226 239.1 239.526 238.8 240.826L 237.7 244.926L 197.5 233.926L 198.6 224.726L 217.4 229.926L 222.1 239.326C 222.2 239.526 222.4 239.726 222.7 239.826L 223 239.826C 223.2 239.826 223.3 239.826 223.4 239.726L 233.9 234.426L 235.8 234.926C 236.9 235.326 237.9 236.026 238.4 237.126ZM 231.4 231.826L 233.7 232.426L 274.9 211.826L 264.1 190.526C 263.6 190.726 263 190.826 262.4 190.826L 255.6 190.826C 256.5 191.526 257.6 191.826 258.8 191.826C 259.7 191.826 260.6 191.526 261.5 191.126C 261.7 190.926 262 190.926 262.2 191.026C 262.4 191.126 262.6 191.326 262.7 191.526L 269 203.926C 269.3 204.426 269.1 205.026 268.6 205.226C 267.2 205.926 266.1 207.226 265.6 208.726C 265 210.226 265.2 211.926 265.9 213.326C 266.2 213.826 266 214.426 265.5 214.626L 231.4 231.826ZM 40 56.626L 40 60.726C 40 61.226 39.6 61.626 39.1 61.626L 35 61.626C 34.5 61.626 34.1 61.226 34.1 60.726L 34.1 56.626C 34.1 56.126 34.5 55.726 35 55.726L 39.1 55.726C 39.6 55.726 40 56.126 40 56.626ZM 254.5 171.726C 252 171.726 250 169.726 250 167.226C 250 164.726 252 162.726 254.5 162.726C 257 162.726 259 164.726 259 167.226C 259 169.726 257 171.726 254.5 171.726ZM 257.2 167.226C 257.2 168.726 256 169.926 254.5 169.926C 253 169.926 251.8 168.726 251.8 167.226C 251.8 165.726 253 164.526 254.5 164.526C 256 164.526 257.2 165.726 257.2 167.226ZM 5.89999 51.726L 68.1 51.726C 68.6 51.726 69 51.326 68.9 50.726L 68.9 11.626C 68.9 11.126 68.5 10.726 68 10.726L 5.89999 10.726C 5.39999 10.726 5 11.126 5 11.626L 5 50.826C 5 51.326 5.39999 51.726 5.89999 51.726ZM 6.89362 50.118L 67.1064 50.118L 67.1064 12.8779L 6.89362 12.8779L 6.89362 50.118ZM 38.1149 60.1177L 35.8755 60.1177L 35.8755 57.8795L 38.1149 57.8795L 38.1149 60.1177ZM 62.605 16.11L 11.4922 44.2294C 11.2817 44.3363 11.119 44.527 11.0466 44.767C 10.9687 45.0111 10.9865 45.2772 11.115 45.52C 11.294 45.8148 11.6111 46 11.9419 46C 12.1087 46 12.2631 45.9589 12.3957 45.8848L 63.4989 17.7654C 63.7272 17.6434 63.8844 17.45 63.9595 17.2059C 64.0334 16.9576 64.006 16.6998 63.8789 16.4748C 63.6411 16.0428 63.0437 15.8672 62.605 16.11ZM 33.4741 40.2352L 51.5994 30.1088C 52.0248 29.8734 52.6245 30.0339 52.8824 30.4557C 53.1363 30.9374 52.9634 31.5062 52.5147 31.7471L 34.4044 41.8707C 34.2563 41.9537 34.1039 42 33.9434 42C 33.61 42 33.2902 41.8082 33.1255 41.5237C 32.8662 41.0584 33.0213 40.4991 33.4741 40.2352Z"/>
</defs>
</svg>
