<svg width="262" height="119" viewBox="0 0 262 119" version="1.1" xmlns="http://www.w3.org/2000/svg" xmlns:xlink="http://www.w3.org/1999/xlink">
<title>Shape</title>
<desc>Created using Figma</desc>
<g id="Canvas" transform="translate(-738 -723)">
<g id="Shape">
<use xlink:href="#path0_fill" transform="translate(738 723)" fill="url(#paint0_linear)"/>
</g>
</g>
<defs>
<linearGradient id="paint0_linear" x1="0" y1="0" x2="1" y2="0" gradientUnits="userSpaceOnUse" gradientTransform="matrix(91.7949 171.514 -379.421 41.495 103.311 -28.6699)">
<stop offset="0" stop-color="#46ACC7"/>
<stop offset="1" stop-color="#547FB3"/>
</linearGradient>
<path id="path0_fill" fill-rule="evenodd" d="M 55.2 2.81542L 55.5 0.815423C 55.6 0.315423 56.1 -0.0846009 56.6 0.0154357C 57.1 0.115411 57.5 0.615411 57.4 1.11541L 57.1 3.11541C 57 3.61541 56.5 4.01544 56 3.9154C 55.5 3.9154 55.1 3.4154 55.2 2.81542ZM 215.2 42.5154C 215.2 43.2154 216.2 43.7154 216.9 43.7154L 242.2 43.7154L 241.2 45.5154L 236.9 47.9155C 236.811 47.975 236.73 48.0434 236.661 48.1207C 236.468 48.2909 236.4 48.4849 236.4 48.8154C 236.4 49.2154 236.6 49.5154 236.9 49.7154L 241.2 52.1155L 243.6 56.4155L 241.2 52.0154L 236.8 49.6155C 236.6 49.4155 236.4 49.1155 236.4 48.8154C 236.4 48.5345 236.499 48.3029 236.661 48.1207C 236.702 48.0849 236.748 48.0502 236.8 48.0154L 241.2 45.6155L 242.3 43.7154L 242.4 43.7154L 243.5 41.7154L 243.6 41.7154L 244 41.3154C 244.054 41.261 244.116 41.2067 244.183 41.1563C 244.149 41.2017 244.12 41.2544 244.1 41.3154L 243.9 41.7154L 243.8 41.7154L 242.7 43.7154L 242.8 43.7154L 241.7 45.7154L 237.3 48.1154C 237.1 48.2154 236.9 48.5154 236.9 48.7154C 236.9 48.9154 237 49.2154 237.3 49.3154L 241.7 51.7154L 244.1 56.1154C 244.2 56.3154 244.5 56.5154 244.7 56.5154C 244.9 56.5154 245.2 56.4154 245.3 56.1154L 247.7 51.7154L 252.1 49.3154C 252.206 49.2627 252.311 49.1544 252.387 49.0344C 252.352 49.296 252.24 49.4557 252 49.6155L 247.6 52.0154L 245.2 56.4155C 245 56.6155 244.7 56.8154 244.4 56.8154C 244.099 56.8154 243.911 56.7587 243.751 56.6022C 243.941 56.7956 244.19 56.9155 244.5 56.9155C 244.9 56.9155 245.2 56.7154 245.4 56.4155L 247.8 52.1155L 252.1 49.7154C 252.4 49.5154 252.6 49.2154 252.6 48.8154C 252.6 48.4155 252.4 48.1155 252.1 47.9155L 247.8 45.5154L 246.8 43.7154L 246.7 43.7154L 245.6 41.7154L 245.5 41.7154L 245.3 41.3154C 245.207 41.1287 244.939 40.9419 244.741 40.918C 244.761 40.9163 244.78 40.9155 244.8 40.9155C 245.2 40.9155 245.4 41.0154 245.6 41.3154L 245.8 41.7154L 246.9 43.7154L 260.5 43.7154C 261.2 43.7154 261.3 43.2154 261.3 42.5154L 261.3 2.91546C 261.3 2.21545 261.2 1.71545 260.5 1.71545L 228.8 1.71545C 228.5 1.71545 228.2 1.81542 228 2.01544L 215.9 11.9155C 215.6 12.1155 215.2 12.5154 215.2 12.8154L 215.2 42.5154ZM 247.32 45.0254L 246.6 43.7154L 246.7 43.7154L 247.32 45.0254ZM 247.664 45.6506L 247.6 45.6155L 247.32 45.0254L 247.664 45.6506ZM 252.086 48.1075L 247.7 45.7154L 247.664 45.6506L 252 48.0154C 252.029 48.0442 252.057 48.0749 252.086 48.1075ZM 252.086 48.1075C 252.253 48.3016 252.4 48.5585 252.4 48.8154C 252.4 48.896 252.396 48.9684 252.387 49.0344C 252.455 48.9269 252.5 48.8099 252.5 48.7154C 252.5 48.5154 252.4 48.2154 252.1 48.1154L 252.086 48.1075ZM 244.741 40.918C 244.543 40.9347 244.347 41.0336 244.183 41.1563C 244.318 40.9788 244.541 40.9154 244.7 40.9154C 244.713 40.9154 244.727 40.9163 244.741 40.918ZM 243.5 41.7154L 217.2 41.7154L 217.2 23.7154L 259.2 23.7154L 259.2 41.7154L 245.9 41.7154L 245.6 41.2154C 245.4 40.9155 245.1 40.7154 244.7 40.7154C 244.3 40.7154 244 40.9155 243.8 41.2154L 243.5 41.7154ZM 205 9.31542L 207.8 10.8154L 209.3 13.6154C 209.5 13.9155 209.7 14.0154 210.1 14.0154C 210.5 14.0154 210.7 13.8154 210.9 13.6154L 212.4 10.8154L 215.2 9.31542C 215.5 9.11541 215.6 8.91546 215.6 8.51544C 215.6 8.21545 215.4 7.91546 215.2 7.71545L 212.4 6.21545L 210.9 3.41546C 210.7 3.11541 210.5 3.01544 210.1 3.01544C 209.7 3.01544 209.5 3.21545 209.3 3.41546L 207.8 6.21545L 205 7.71545C 204.7 7.91546 204.6 8.11541 204.6 8.51544C 204.6 8.91546 204.7 9.21545 205 9.31542ZM 210.7 13.6155C 210.6 13.8154 210.3 14.0154 210.1 14.0154C 209.9 14.0154 209.6 13.9155 209.5 13.6155L 207.9 10.8154L 205.1 9.21545C 204.8 9.11547 204.7 8.81542 204.7 8.61547C 204.7 8.31542 204.8 8.11547 205.1 8.01544L 207.9 6.41546L 209.5 3.61547C 209.6 3.41546 209.9 3.21545 210.1 3.21545C 210.3 3.21545 210.6 3.31542 210.7 3.61547L 212.3 6.41546L 215.1 8.01544C 215.3 8.11547 215.5 8.41546 215.5 8.61547C 215.5 8.91546 215.4 9.11547 215.1 9.21545L 212.3 10.8154L 210.7 13.6155ZM 224.8 52.4154L 220.9 45.2154C 220.7 44.8154 220.3 44.6154 219.9 44.6154C 219.5 44.6154 219.1 44.8154 218.9 45.2154L 215 52.4154L 207.8 56.3154C 207.4 56.5154 207.2 56.9154 207.2 57.3154C 207.2 57.7154 207.4 58.1154 207.8 58.3154L 215 62.2154L 218.9 69.4154C 219.1 69.8154 219.5 70.0154 219.9 70.0154C 220.3 70.0154 220.7 69.8154 220.9 69.4154L 224.8 62.2154L 232 58.3154C 232.4 58.1154 232.6 57.7154 232.6 57.3154C 232.6 56.9154 232.4 56.5154 232 56.3154L 224.8 52.4154ZM 232.4 57.4154C 232.4 57.7154 232.2 58.0154 232 58.2154L 224.7 62.2154L 220.7 69.5154C 220.5 69.8154 220.3 69.9154 219.9 69.9154C 219.6 69.9154 219.3 69.7154 219.1 69.5154L 215.1 62.2154L 207.8 58.2154C 207.5 58.0154 207.4 57.8154 207.4 57.4154C 207.4 57.1154 207.6 56.8154 207.8 56.6154L 215.1 52.6154L 219.1 45.3154C 219.3 45.0154 219.5 44.9154 219.9 44.9154C 220.3 44.9154 220.5 45.1154 220.7 45.3154L 224.7 52.6154L 232 56.6154C 232.2 56.8154 232.4 57.0154 232.4 57.4154ZM 254.8 75.9155C 254.8 75.3154 254.2 74.9155 253.6 74.9155L 244.7 75.5154L 244.3 70.1154C 244.3 69.8154 244.1 69.5154 243.9 69.3154C 243.7 69.1154 243.5 69.0154 243.2 69.0154L 243.1 69.0154C 242.8 69.0154 242.5 69.2154 242.3 69.4155C 242.1 69.6154 242 69.9155 242 70.2154L 242.5 76.8154C 242.5 77.1154 242.7 77.4155 242.9 77.6154C 243.1 77.8154 243.4 77.9155 243.7 77.9155L 253.8 77.1154C 254.4 77.1154 254.8 76.5154 254.8 75.9155ZM 224.5 52.8154L 220.5 45.5154C 220.4 45.3154 220.2 45.2154 220 45.2154C 219.8 45.2154 219.6 45.3154 219.5 45.5154L 215.5 52.8154L 208.2 56.8154C 208 56.9155 207.9 57.1155 207.9 57.3154C 207.9 57.5154 208 57.7154 208.2 57.8154L 215.5 61.8154L 219.5 69.1155C 219.7 69.5154 220.4 69.5154 220.6 69.1155L 224.6 61.8154L 231.9 57.8154C 232.1 57.7154 232.2 57.5154 232.2 57.3154C 232.2 57.1155 232.1 56.9155 231.9 56.8154L 224.5 52.8154ZM 223.591 60.9974C 223.624 60.9772 223.662 60.9537 223.7 60.9155L 230.2 57.3154L 223.7 53.7154C 223.638 53.7154 223.615 53.6772 223.582 53.6244L 223.581 53.6237C 223.561 53.5912 223.538 53.5533 223.5 53.5154L 219.9 47.0154L 216.3 53.5154C 216.3 53.5772 216.262 53.6008 216.209 53.6334C 216.176 53.6536 216.138 53.6772 216.1 53.7154L 209.6 57.3154L 216.1 60.9155C 216.162 60.9155 216.185 60.9536 216.218 61.0064L 216.218 61.0068C 216.238 61.0393 216.262 61.0774 216.3 61.1154L 219.9 67.6154L 223.5 61.1154C 223.5 61.0536 223.538 61.03 223.591 60.9974ZM 234.2 87.7154L 234.2 88.8154C 233.8 88.5154 233.3 88.1155 232.9 87.7154L 234.2 87.7154ZM 236.2 90.1155C 235.671 89.813 235.141 89.4532 234.655 89.1229L 234.654 89.1223L 234.652 89.1211C 234.497 89.0152 234.345 88.9124 234.2 88.8154L 234.2 95.7154L 233.2 95.7154L 225.2 95.7154L 225.2 88.7154L 225.2 87.7154L 232.9 87.7154C 232.2 87.1155 231.6 86.4155 231.1 85.7154L 220 85.7154L 219.7 85.7154L 219.6 85.7154L 219.5 85.7154L 219.4 85.7154L 208.6 95.7154L 208.4 95.7154L 192.7 95.7154C 192.1 95.7154 191.2 96.1155 191.2 96.6155L 191.2 110.515C 191.2 111.015 192.1 111.715 192.7 111.715L 197.8 111.715L 198 112.415C 198.7 115.415 201.4 117.515 204.5 117.515C 207.6 117.515 210.3 115.515 211 112.515L 211.2 111.815L 232.3 111.815L 232.5 112.515C 233.2 115.515 235.9 117.615 239 117.615C 242.1 117.615 244.8 115.615 245.5 112.615L 245.7 111.915L 251.4 111.915C 251.8 111.915 252.1 111.315 252.1 110.715L 252.1 96.8154C 252.1 96.5154 252.1 96.4155 251.9 96.3154L 247.6 92.3154C 247 92.4155 246.4 92.5154 245.9 92.5154C 245.8 92.3154 245.5 92.3154 245.3 92.3154L 242.645 90.0397C 243.578 90.1304 244.581 90.2073 245.5 90.1155L 241 85.8154L 241.2 85.7154L 241 85.7154L 240.8 85.7154L 240.4 85.7154L 234.2 85.7154C 231.6 83.2154 230.1 79.9155 230 76.2154C 229.7 72.3154 230.9 68.4155 233.5 65.4155C 236.1 62.4155 239.7 60.5154 243.6 60.2154C 247.6 59.9155 251.7 61.3154 254.7 64.0154L 254.9 64.2154L 253.1 65.7154C 252.9 65.9155 252.8 66.2154 252.8 66.5154C 252.8 66.8154 253 67.1154 253.3 67.2154L 259.6 69.8154C 259.9 69.9155 260.3 69.9155 260.5 69.7154C 260.7 69.5154 260.9 69.2154 260.8 68.9155L 259.5 62.2154C 259.5 61.9155 259.3 61.7154 259 61.6154C 258.7 61.5154 258.4 61.5154 258.2 61.7154L 256.7 62.9155L 256.5 62.7154C 253.3 59.7154 249.1 58.0154 244.7 58.0154C 244.45 58.0154 244.225 58.0404 244 58.0654C 243.775 58.0904 243.55 58.1154 243.3 58.1154C 233.9 58.9155 226.8 67.2154 227.6 76.6154C 227.9 80.0154 229.2 83.2154 231.2 85.7154L 234.1 85.7154C 234.25 85.8655 234.4 85.9905 234.55 86.1155L 234.551 86.1164C 234.701 86.2411 234.85 86.3658 235 86.5154C 235.219 86.7349 235.458 86.9158 235.691 87.0921L 235.691 87.0926L 235.692 87.0929C 235.953 87.2904 236.206 87.482 236.415 87.7154L 236.2 87.7154L 236.2 88.7154L 236.2 90.1155ZM 236.752 87.8154L 236.5 87.8154C 236.473 87.7812 236.444 87.7479 236.415 87.7154L 236.6 87.7154C 236.651 87.7491 236.701 87.7825 236.752 87.8154ZM 242.242 89.8765C 242.328 89.8902 242.414 89.9031 242.5 89.9155L 242.645 90.0397C 242.563 90.0317 242.481 90.0236 242.4 90.0154L 242.242 89.8765ZM 242.242 89.8765L 239.9 87.8154L 236.752 87.8154C 238.438 88.9064 240.295 89.5666 242.242 89.8765ZM 236.2 90.1155L 236.2 95.7154L 247.9 95.7154L 249.2 95.7154L 245.3 92.3154C 242 92.4155 238.9 91.6155 236.2 90.1155ZM 204 23.9154C 204 23.8996 203.999 23.8719 203.997 23.8342C 203.977 23.3931 203.895 21.568 205 21.0154C 205.3 20.9154 205.6 20.9154 205.8 21.2154C 205.9 21.5154 205.9 21.8154 205.6 22.0154C 205.1 22.3154 205.1 23.4154 205.2 23.8154C 205.2 24.1154 205.1 24.3154 204.8 24.4154L 204.7 24.4154C 204.3 24.4154 204 24.2154 204 23.9154ZM 211.4 9.61541L 211.1 9.91546L 210.1 11.7154L 210.077 11.6747L 211.1 9.81542C 211.1 9.75366 211.138 9.73004 211.191 9.69744C 211.224 9.67724 211.262 9.65368 211.3 9.61547L 213.159 8.59283L 213.2 8.61541L 211.4 9.61541ZM 213.3 8.51544L 213.159 8.59283L 211.4 7.61541L 211.1 7.31542L 210.1 5.51544L 209.1 7.31542L 208.8 7.61541L 207 8.61541L 208.8 9.61541C 208.9 9.61541 209 9.71545 209.1 9.91546L 210.077 11.6747L 210 11.8154L 208.9 9.81542C 208.862 9.7774 208.838 9.73931 208.818 9.70684L 208.818 9.70641C 208.785 9.65362 208.762 9.61547 208.7 9.61547L 206.7 8.51544L 208.7 7.41546C 208.738 7.37725 208.776 7.35363 208.809 7.33343C 208.862 7.30084 208.9 7.27722 208.9 7.21545L 210 5.21545L 211.1 7.21545C 211.138 7.25335 211.161 7.29125 211.182 7.32366L 211.182 7.32446C 211.215 7.37725 211.238 7.41546 211.3 7.41546L 213.3 8.51544ZM 208.9 7.71545C 208.933 7.68212 208.978 7.64874 209.022 7.61541C 209.111 7.54876 209.2 7.48211 209.2 7.4154L 210.1 5.81542L 211 7.4154C 211.033 7.44872 211.067 7.49316 211.1 7.53759C 211.167 7.62652 211.233 7.71545 211.3 7.71545L 212.9 8.61541L 211.3 9.51544C 211.267 9.54876 211.222 9.58209 211.178 9.61541C 211.089 9.68206 211 9.74877 211 9.81542L 210.1 11.4154L 209.2 9.81542C 209.176 9.79125 209.152 9.76055 209.127 9.72967L 209.127 9.72924L 209.127 9.72875L 209.126 9.72827L 209.126 9.72778L 209.125 9.72729L 209.125 9.7268L 209.125 9.72631L 209.124 9.72582L 209.124 9.72534L 209.124 9.72485L 209.123 9.72436L 209.123 9.72387L 209.123 9.72338L 209.122 9.72289L 209.122 9.72241L 209.121 9.72192L 209.121 9.72143L 209.121 9.72094L 209.12 9.72045L 209.12 9.71996L 209.12 9.71948L 209.119 9.71899L 209.119 9.7185L 209.119 9.71801L 209.118 9.71752L 209.118 9.71703L 209.117 9.71655L 209.117 9.71606L 209.117 9.71557L 209.116 9.71508L 209.116 9.71459L 209.116 9.71411L 209.115 9.71362L 209.115 9.71313L 209.115 9.71264L 209.114 9.71215L 209.114 9.71166L 209.113 9.71118L 209.113 9.71069L 209.113 9.7102L 209.112 9.70971L 209.112 9.70922L 209.112 9.70873L 209.111 9.70825L 209.111 9.70776L 209.11 9.70727L 209.11 9.70678L 209.11 9.70629L 209.109 9.7058L 209.109 9.70532L 209.109 9.70483L 209.108 9.70434L 209.108 9.70385L 209.108 9.70336L 209.107 9.70287L 209.107 9.70239L 209.106 9.7019L 209.106 9.70141L 209.106 9.70092L 209.105 9.70043L 209.105 9.69994L 209.105 9.69946L 209.104 9.69897L 209.104 9.69848L 209.104 9.69799L 209.103 9.6975L 209.103 9.69702L 209.102 9.69653L 209.102 9.69604L 209.101 9.69482L 209.1 9.69317C 209.033 9.6043 208.967 9.51544 208.9 9.51544L 207.3 8.61541L 208.9 7.71545ZM 184.7 82.7154L 187.5 87.5154C 187.5 87.5154 187.6 87.6155 187.5 87.6155C 187.8 88.2154 188 88.9155 188 89.6155C 188 92.0154 186.1 93.9155 183.7 93.9155C 181.3 93.9155 179.4 92.0154 179.4 89.6155C 179.4 88.8154 179.6 87.9155 180.1 87.2154L 182.7 82.7154C 182.9 82.4155 183.3 82.2154 183.7 82.2154C 184.1 82.2154 184.5 82.4155 184.7 82.7154ZM 183.8 91.7154C 182.6 91.7154 181.7 90.8154 181.7 89.6154C 181.7 89.2154 181.8 88.8154 182.1 88.4154C 182.1 88.4154 182.1 88.3154 182.2 88.3154L 183.9 85.4154L 185.7 88.5154C 185.7 88.5154 185.7 88.6154 185.8 88.6154C 186 88.9154 186.1 89.3154 186.1 89.6154C 185.9 90.8154 184.9 91.7154 183.8 91.7154ZM 239.3 48.8154L 242.5 47.0154C 242.7 46.9155 242.8 46.8154 242.9 46.7154L 244.5 43.7154L 244.6 43.7154L 243 46.7154C 242.9 46.9155 242.8 47.0154 242.6 47.1155L 239.6 48.7154L 242.6 50.3154C 242.8 50.4155 242.9 50.5154 243 50.7154L 244.6 53.7154L 246.2 50.7154C 246.3 50.5154 246.4 50.4155 246.6 50.3154L 249.6 48.7154L 246.6 47.1155C 246.4 47.0154 246.3 46.9155 246.2 46.7154L 244.6 43.7154L 244.5 43.5154L 244.4 43.7154L 244.3 43.7154L 242.7 46.6154L 242.4 46.9155L 239 48.8154L 242.4 50.7154L 242.7 51.0154L 244.6 54.4155L 246.5 51.0154L 246.8 50.7154L 250.2 48.8154L 246.8 46.9155L 246.5 46.6154L 245.41 44.8597L 244.8 43.7154L 244.7 43.7154L 245.41 44.8597L 246.4 46.7154C 246.4 46.7821 246.489 46.8488 246.578 46.9155C 246.622 46.9488 246.667 46.9821 246.7 47.0154L 249.9 48.8154L 246.7 50.6155C 246.633 50.6155 246.567 50.7043 246.5 50.7933L 246.499 50.7942C 246.466 50.8384 246.433 50.8824 246.4 50.9155L 244.6 54.1155L 242.8 50.9155C 242.8 50.8487 242.711 50.7821 242.622 50.7154C 242.578 50.6821 242.533 50.6488 242.5 50.6155L 239.3 48.8154ZM 232.1 31.7154L 230.9 29.5154L 229.7 31.7154C 229.667 31.7488 229.633 31.7932 229.6 31.8376C 229.533 31.9265 229.467 32.0154 229.4 32.0154L 227.2 33.2154L 229.4 34.4155C 229.433 34.4488 229.478 34.4821 229.522 34.5154L 229.523 34.5162L 229.524 34.5169L 229.525 34.5176L 229.526 34.5184L 229.527 34.5191L 229.528 34.5198L 229.529 34.5206L 229.53 34.5213L 229.531 34.522L 229.532 34.5228C 229.573 34.5539 229.614 34.585 229.645 34.6161C 229.664 34.6463 229.682 34.6793 229.7 34.7154L 230.9 36.9155L 232.1 34.7154C 232.133 34.6825 232.166 34.6388 232.199 34.595L 232.2 34.5933C 232.267 34.5044 232.333 34.4155 232.4 34.4155L 234.6 33.2154L 232.4 32.0154C 232.2 31.9155 232.1 31.8154 232.1 31.7154ZM 229.7 34.7154C 229.7 34.6823 229.678 34.6492 229.645 34.6161C 229.56 34.4792 229.464 34.3973 229.3 34.3154L 227.3 33.2154L 229.3 32.1155C 229.5 32.0154 229.6 31.9155 229.7 31.7154L 230.8 29.7154L 231.9 31.7154C 232 31.9155 232.1 32.0154 232.3 32.1155L 234.3 33.2154L 232.3 34.3154C 232.1 34.4155 232 34.5154 231.9 34.7154L 230.8 36.7154L 229.7 34.7154ZM 223.2 87.7154L 220.4 87.7154L 211.2 95.7154L 212.6 95.7154L 222.2 95.7154L 223.2 95.7154L 223.2 87.7154ZM 204.5 115.515C 201.9 115.515 199.7 113.415 199.7 110.715C 199.7 108.015 201.8 105.915 204.5 105.915C 207.2 105.915 209.3 108.015 209.3 110.715C 209.3 113.415 207.2 115.515 204.5 115.515ZM 234.3 110.715C 234.3 113.415 236.5 115.515 239.1 115.515C 241.7 115.515 243.9 113.415 243.9 110.715C 243.9 108.015 241.8 105.915 239.1 105.915C 236.4 105.915 234.3 108.015 234.3 110.715ZM 250.2 109.715L 249.2 109.715L 246 109.715L 245.6 109.715L 245.4 108.815C 244.6 106.015 241.9 104.015 239 104.015C 236.1 104.015 233.5 106.015 232.6 108.815L 232.4 109.615L 232 109.615L 211.5 109.615L 211.2 109.615L 211 108.715C 210.2 105.915 207.5 103.915 204.6 103.915C 201.7 103.915 199.1 105.915 198.2 108.715L 198 109.515L 197.6 109.515L 193.2 109.515L 193.2 98.5154L 193.2 97.5154L 250.2 97.5154L 250.2 109.715ZM 231.7 27.2154C 231.5 27.0154 231.3 26.8154 230.9 26.8154C 230.5 26.8154 230.3 26.9154 230.1 27.2154L 228.3 30.5154L 225 32.3154C 224.8 32.5154 224.6 32.8154 224.6 33.1154C 224.6 33.5154 224.7 33.7154 225 33.9154L 228.3 35.7154L 230.1 39.0154C 230.3 39.2154 230.5 39.4154 230.9 39.4154C 231.3 39.4154 231.5 39.3154 231.7 39.0154L 233.5 35.7154L 236.8 33.9154C 237 33.8154 237.2 33.5154 237.2 33.1154C 237.2 32.8138 237.143 32.6259 236.987 32.466C 237.18 32.6558 237.3 32.9056 237.3 33.2154C 237.3 33.6155 237.1 33.9155 236.8 34.1155L 233.5 35.9155L 231.7 39.2154C 231.5 39.5154 231.2 39.7154 230.8 39.7154C 230.4 39.7154 230.1 39.5154 229.9 39.2154L 228.1 35.9155L 224.8 34.1155C 224.5 33.9155 224.3 33.6155 224.3 33.2154C 224.3 32.8154 224.5 32.5154 224.8 32.3154L 228.1 30.5154L 229.9 27.2154C 230.1 26.9155 230.4 26.7154 230.8 26.7154C 231.2 26.7154 231.5 26.9155 231.7 27.2154ZM 236.8 32.3154C 236.868 32.3605 236.93 32.4107 236.987 32.466C 236.935 32.4138 236.874 32.3646 236.8 32.3154ZM 233.3 30.7154L 231.5 27.3154C 231.4 27.1154 231.1 26.9154 230.9 26.9154C 230.6 26.9154 230.4 27.0154 230.3 27.3154L 228.5 30.7154L 225.1 32.5154C 224.9 32.6154 224.7 32.9154 224.7 33.1154C 224.7 33.3154 224.8 33.6154 225.1 33.7154L 228.5 35.5154L 230.3 38.9154C 230.4 39.1154 230.7 39.3154 230.9 39.3154C 231.2 39.3154 231.4 39.2154 231.5 38.9154L 233.3 35.5154L 236.7 33.7154C 236.9 33.6154 237.1 33.3154 237.1 33.1154C 237.1 32.9154 237 32.6154 236.7 32.5154L 233.3 30.7154ZM 232.2 34.8154L 232.5 34.5154L 234.9 33.2154L 232.5 31.9155L 232.2 31.6155L 230.9 29.2154L 229.6 31.6155L 229.3 31.9155L 226.9 33.2154L 229.3 34.5154L 229.6 34.8154L 230.9 37.2154L 232.2 34.8154ZM 245.6 90.0154L 245.8 90.0154C 252.6 89.4155 258.2 84.3154 259.3 77.6154C 259.4 77.0154 260 76.5154 260.6 76.7154C 261.2 76.8154 261.6 77.4155 261.5 78.0154C 260.4 85.2154 254.8 90.7154 247.8 92.0154L 245.6 90.0154ZM 220 47.6154L 223.3 53.7154C 223.3 53.7505 223.325 53.7856 223.352 53.8249C 223.403 53.8979 223.465 53.9856 223.4 54.1154L 229.5 57.4154L 223.4 60.7154C 223.333 60.7154 223.267 60.8043 223.2 60.8931C 223.167 60.9376 223.133 60.982 223.1 61.0154L 219.8 67.1154L 216.5 61.0154C 216.5 60.9488 216.411 60.8821 216.322 60.8155L 216.321 60.8143L 216.319 60.8133L 216.319 60.813L 216.318 60.8126L 216.318 60.8122L 216.317 60.8119L 216.317 60.8115L 216.316 60.8112L 216.316 60.8108L 216.315 60.8104L 216.315 60.8101L 216.315 60.8097L 216.314 60.8093L 216.314 60.809L 216.313 60.8086L 216.313 60.8082L 216.312 60.8079L 216.312 60.8075L 216.311 60.8071L 216.311 60.8068L 216.31 60.8064L 216.31 60.806L 216.309 60.8057L 216.309 60.8053L 216.308 60.8049L 216.308 60.8046L 216.307 60.8042L 216.307 60.8038L 216.306 60.8035L 216.306 60.8031L 216.305 60.8027L 216.305 60.8024L 216.304 60.802L 216.304 60.8016L 216.303 60.8013L 216.303 60.8009L 216.302 60.8005L 216.302 60.8002L 216.301 60.7998L 216.301 60.7994L 216.3 60.7991L 216.3 60.7987L 216.299 60.7983L 216.299 60.798L 216.298 60.7976L 216.298 60.7972L 216.297 60.7969L 216.297 60.7965L 216.296 60.7961L 216.296 60.7958L 216.295 60.7954L 216.295 60.795L 216.294 60.7947L 216.294 60.7943L 216.294 60.7939L 216.293 60.7936L 216.293 60.7932L 216.292 60.7928L 216.292 60.7925L 216.291 60.7921L 216.291 60.7917L 216.29 60.7914L 216.29 60.791L 216.289 60.7906L 216.289 60.7903L 216.288 60.7899L 216.288 60.7895L 216.287 60.7892L 216.287 60.7888L 216.286 60.7884L 216.286 60.7881C 216.255 60.7638 216.224 60.7396 216.2 60.7154L 210.3 57.3154L 216.4 54.0154C 216.467 54.0154 216.533 53.9266 216.6 53.8376C 216.633 53.7932 216.667 53.7487 216.7 53.7154L 220 47.6154ZM 223.5 60.5154C 223.361 60.5852 223.27 60.7035 223.194 60.8027C 223.161 60.8457 223.13 60.8852 223.1 60.9155L 220 66.6155L 216.9 60.9155C 216.83 60.7761 216.712 60.6852 216.613 60.6091L 216.612 60.6085C 216.569 60.5757 216.53 60.5456 216.5 60.5154L 210.8 57.4155L 216.5 54.3154C 216.639 54.2457 216.73 54.1274 216.806 54.0283C 216.839 53.9852 216.87 53.9457 216.9 53.9155L 220 48.2154L 223.1 53.9155C 223.17 54.0549 223.288 54.1458 223.387 54.2219L 223.388 54.2225C 223.431 54.2553 223.47 54.2853 223.5 54.3154L 229.2 57.4155L 223.5 60.5154ZM 225.2 21.7154L 259.2 21.7154L 259.2 11.7154L 232.3 11.7154L 225.2 17.4155L 225.2 21.7154ZM 217.2 13.4155L 229.2 3.71545L 259.2 3.71545L 259.2 9.71545L 231.9 9.71545C 231.6 9.71545 231.3 9.81542 231.1 10.0154L 223.9 15.9155C 223.6 16.1155 223.3 16.5154 223.3 16.8154L 223.3 21.7154L 217.3 21.7154L 217.3 13.4155L 217.2 13.4155ZM 209.6 13.6154L 208 10.7154L 205.1 9.11541C 204.9 9.01544 204.8 8.81542 204.8 8.61541C 204.8 8.4154 204.9 8.21545 205.1 8.11541L 208 6.51544L 209.6 3.61541C 209.7 3.4154 209.9 3.31542 210.1 3.31542C 210.3 3.31542 210.5 3.4154 210.6 3.61541L 212.2 6.51544L 215.1 8.11541C 215.3 8.21545 215.4 8.4154 215.4 8.61541C 215.4 8.81542 215.3 9.01544 215.1 9.11541L 212.2 10.7154L 210.6 13.6154C 210.5 13.8154 210.3 13.9154 210.1 13.9154C 209.9 13.9154 209.7 13.8154 209.6 13.6154ZM 25.6 73.6155L 27.5 68.5154L 25.4 67.7154L 23.5 72.8154L 25.6 73.6155ZM 159.4 100.715L 145.2 100.715L 145.2 99.0154C 145.2 95.3154 142.1 92.2154 138.4 92.2154C 136.3 92.2154 134.2 93.2154 133 94.9155L 132.8 95.2154L 132.5 95.1155C 131.9 94.9155 131.1 94.9155 130.5 95.1155L 130.2 95.2154L 130 94.9155C 128.7 93.2154 126.7 92.2154 124.6 92.2154C 121.4 92.2154 118.7 94.4155 118 97.5154L 117.9 97.8154L 117.6 97.9155C 114.5 98.6155 112.3 101.515 112.3 104.715C 112.3 108.415 115.3 111.615 119.1 111.615L 122.4 111.615L 122.4 115.315C 122.4 116.015 122.8 116.615 123.5 116.615L 159.7 116.615C 160.4 116.615 160.5 115.915 160.5 115.315L 160.5 101.715C 160.444 101.622 160.395 101.529 160.348 101.439L 160.346 101.436C 160.141 101.045 159.968 100.715 159.4 100.715ZM 122.2 108.715L 122.2 101.815C 122.2 101.215 122.6 100.715 123.3 100.815L 143.2 100.815L 143.2 99.1154C 143.2 96.7154 141 94.7154 138.6 94.7154C 136.8 94.7154 135 95.7154 134.3 97.4154C 134.2 97.7154 133.9 98.0154 133.5 98.1154C 133.1 98.2154 132.7 98.1154 132.4 97.8154C 132.1 97.6154 131.8 97.4154 131.3 97.4154C 130.8 97.4154 130.5 97.6154 130.3 97.8154C 130.1 98.0154 129.7 98.1154 129.3 98.0154C 128.9 97.9154 128.6 97.6154 128.5 97.3154C 127.9 95.7154 126.3 94.6154 124.5 94.6154C 122.1 94.6154 120.1 96.6154 120.1 99.0154C 120.1 99.7154 119.6 100.215 118.9 100.215C 116.5 100.215 114.5 102.115 114.5 104.515C 114.5 106.915 116.5 108.715 118.9 108.715L 122.2 108.715ZM 158.2 114.715L 124.2 114.715L 124.2 102.715L 158.2 102.715L 158.2 114.715ZM 53.3 86.7154L 57.9 86.7154C 59 86.7154 60 87.0154 60.7 87.9155C 61.2 88.8154 61.1 89.8154 60.6 90.8154L 59.3 92.8154L 59.3 117.715L 48.3 117.715L 48.3 109.715L 19.3 109.715L 19.3 117.715L 8.30005 117.715L 8.30005 92.9155L 7.10004 90.9155C 6.5 90.0154 6.5 88.9155 7.10004 88.0154C 7.60004 87.0154 8.60004 86.7154 9.70001 86.7154L 14.3 86.7154L 17 78.7154L 50.6 78.7154L 53.3 86.7154ZM 18.6 80.7154L 49 80.7154L 52.8 91.7154L 14.9 91.7154L 18.6 80.7154ZM 13.5 88.7154L 8.40002 88.7154L 10 91.7154L 12.4 91.7154L 13.5 88.7154ZM 17.2 109.715L 17.2 115.715L 10.2 115.715L 10.2 109.715L 17.2 109.715ZM 50.2 109.715L 50.2 115.715L 57.2 115.715L 57.2 109.715L 50.2 109.715ZM 57.2 107.715L 10.2 107.715L 10.2 93.7154L 57.2 93.7154L 57.2 107.715ZM 55.2 91.7154L 57.6 91.7154L 59.2 88.7154L 54.1 88.7154L 55.2 91.7154ZM 51.2 101.715L 45.2 101.715L 45.2 98.7154L 51.2 98.7154L 51.2 101.715ZM 16.2 101.715L 22.2 101.715L 22.2 98.7154L 16.2 98.7154L 16.2 101.715ZM 154 92.4154C 154 90.2154 152.2 88.4154 150 88.4154C 147.8 88.4154 146 90.2154 146 92.4154C 146 94.6154 147.8 96.4154 150 96.4154C 152.2 96.4154 154 94.6154 154 92.4154ZM 150 90.8154C 149.1 90.8154 148.4 91.5154 148.4 92.4154C 148.4 93.2154 149.1 94.0154 150 94.0154C 150.9 94.0154 151.6 93.3154 151.6 92.4154C 151.6 91.5154 150.9 90.8154 150 90.8154ZM 5.70001 22.9155C 5.90002 23.1155 6.10004 23.3154 6.5 23.3154C 6.90002 23.3154 7.10004 23.2154 7.29999 22.9155L 9.10004 19.6155L 12.4 17.8154C 12.6 17.6155 12.8 17.3154 12.8 17.0154C 12.8 16.6155 12.7 16.4155 12.4 16.2154L 9.10004 14.4155L 7.29999 11.1155C 7.10004 10.9155 6.90002 10.7154 6.5 10.7154C 6.10004 10.7154 5.90002 10.8154 5.70001 11.1155L 3.90002 14.4155L 0.600037 16.2154C 0.299988 16.4155 0.200012 16.7154 0.200012 16.9155C 0.200012 16.9404 0.200439 16.9646 0.201233 16.988C 0.200439 16.9974 0.200012 17.0065 0.200012 17.0154C 0.200012 17.0642 0.205933 17.1188 0.219238 17.175C 0.260559 17.4128 0.373108 17.5641 0.600037 17.7154L 3.89801 19.6143L 0.599976 17.8154C 0.200012 17.7154 0 17.3154 0 17.0154C 0 16.6154 0.200012 16.3154 0.5 16.1154L 3.79999 14.3154L 5.59998 11.0154C 5.79999 10.7154 6.09998 10.5154 6.5 10.5154C 6.90002 10.5154 7.20001 10.7154 7.40002 11.0154L 9.20001 14.3154L 12.6 16.0154C 12.9 16.2154 13.1 16.5154 13.1 16.9155C 13.1 17.3154 12.9 17.6154 12.6 17.8154L 9.29999 19.6154L 7.5 22.9155C 7.29999 23.2154 7 23.4155 6.59998 23.4155C 6.20001 23.4155 5.90002 23.2154 5.70001 22.9155ZM 0.219238 17.175C 0.209351 17.118 0.203552 17.0561 0.201233 16.988C 0.217957 16.789 0.408997 16.5109 0.600037 16.4154L 4 14.6154L 5.79999 11.2154C 5.90002 10.9154 6.10004 10.8154 6.40002 10.8154C 6.60004 10.8154 6.90002 11.0154 7 11.2154L 8.79999 14.6154L 12.2 16.4154C 12.5 16.5154 12.6 16.8154 12.6 17.0154C 12.6 17.2154 12.4 17.5154 12.2 17.6154L 8.79999 19.4154L 7 22.8154C 6.90002 23.1154 6.70001 23.2154 6.40002 23.2154C 6.20001 23.2154 5.90002 23.0154 5.79999 22.8154L 4 19.4154L 0.600037 17.6154C 0.373108 17.5398 0.26062 17.3497 0.219238 17.175ZM 192 39.3154C 192.2 39.5154 192.2 39.9155 192 40.1155C 190.7 41.3154 191.1 44.2154 191.4 45.2154C 191.5 45.5154 191.3 45.8154 191 45.9155C 190.7 46.0154 190.4 45.8154 190.3 45.5154C 190.3 45.4932 190.286 45.4227 190.265 45.3124C 190.095 44.4308 189.434 41.0042 191.3 39.3154C 191.4 39.0154 191.8 39.0154 192 39.3154ZM 72.2 79.1154C 72.2 79.7154 72.8 80.2154 73.4 80.2154C 77.5 80.2154 80.8 77.0154 80.9 73.1154C 80.9 72.5154 80.4 72.0154 79.7 72.0154C 79 72.0154 78.5 72.5154 78.5 73.1154C 78.5 75.8154 76.2 78.0154 73.4 78.0154C 72.7 78.0154 72.2 78.5154 72.2 79.1154ZM 120.9 79.5154C 124.4 74.6154 125.9 68.5154 125 62.6154L 125 62.4154L 127.9 58.3154L 131.4 60.8154L 130.9 61.4154C 129 64.1154 128.2 67.4154 128.8 70.6154C 128.9 70.9154 129 71.2154 129.3 71.3154C 129.5 71.5154 129.8 71.5154 130.2 71.5154C 130.8 71.4154 131.2 70.8154 131.1 70.2154C 130.6 67.5154 131.3 64.9154 132.8 62.7154L 133.3 62.1154L 135.1 63.3154C 135.6 63.7154 136.3 63.5154 136.7 63.0154L 140.5 57.6154C 140.9 57.1154 140.7 56.4154 140.2 56.0154L 124 44.7154C 123.2 44.2154 122.4 43.9154 121.5 43.9154C 121.2 43.9154 121 43.9154 120.7 44.0154C 119.5 44.2154 118.5 44.8154 117.8 45.8154C 116.7 47.3154 116.7 49.4154 117.8 50.9154L 118 51.2154L 115.1 55.4154L 114.9 55.4154C 109 56.6154 103.8 60.0154 100.3 64.9154L 91.7 77.0154C 90.3 79.0154 90.8 81.8154 92.8 83.2154L 106.2 92.7154C 107.2 93.4154 108.3 93.6154 109.5 93.4154C 110.7 93.2154 111.7 92.6154 112.4 91.6154L 120.9 79.5154ZM 135.4 60.8154L 137.9 57.3154L 134.4 54.8154L 131.9 58.3154L 135.4 60.8154ZM 119.7 47.1154C 120.4 46.1154 121.7 45.9154 122.7 46.6154L 132.5 53.5154L 130 57.0154L 120.2 50.1154C 119.3 49.4154 119 48.1154 119.7 47.1154ZM 126 57.0154L 119.8 52.6154L 117.3 56.1154L 123.5 60.5154L 126 57.0154ZM 110.5 90.3154C 110.2 90.8154 109.7 91.1154 109.1 91.2154L 108.7 91.2154C 108.3 91.2154 107.8 91.1154 107.5 90.8154L 94.1 81.3154C 93.6 81.0154 93.3 80.5154 93.2 79.9154C 93.1 79.3154 93.2 78.8154 93.6 78.3154L 102.2 66.2154C 105.3 61.8154 110 58.7154 115.3 57.6154L 115.5 57.6154L 122.8 62.7154L 122.8 62.9154C 123.2 65.6154 123 68.3154 122.4 70.9154L 122.2 71.7154L 116.1 67.4154C 115.6 67.0154 114.9 67.2154 114.5 67.7154L 104.4 82.0154C 104.2 82.2154 104.2 82.6154 104.2 82.9154C 104.3 83.2154 104.4 83.5154 104.7 83.6154L 111.8 88.6154L 110.5 90.3154ZM 115.7 69.9154L 106.9 82.3154L 113 86.8154L 119 78.3154C 119.9 77.1154 120.6 75.8154 121.2 74.4154L 121.4 74.0154L 115.7 69.9154ZM 87.8 95.3154C 84 95.3154 80.9 98.4154 80.9 102.215C 80.9 106.015 84 109.115 87.8 109.115C 91.6 109.115 94.7 106.015 94.7 102.215C 94.7 98.4154 91.6 95.3154 87.8 95.3154ZM 83 102.215C 83 104.815 85.2 107.015 87.8 107.015C 90.5 107.015 92.6 104.915 92.6 102.215C 92.6 99.6154 90.4 97.4154 87.8 97.4154C 85.2 97.4154 83 99.6154 83 102.215ZM 35.2 68.7154L 35.2 73.7154L 32.2 73.7154L 32.2 68.7154L 35.2 68.7154ZM 86.4 73.0154C 86.4 76.4154 85.1 79.6154 82.6 82.0154C 80.2 84.4154 76.9 85.7154 73.4 85.7154C 71.2 85.7154 69.1 85.2154 67.2 84.2154L 67.2 117.715L 64.2 117.715L 64.2 82.0154C 61.9 79.7154 60.4 76.5154 60.4 73.0154C 60.4 70.4154 62.1 66.7154 64.2 63.1154L 64.2 54.7154L 51.9 54.7154L 47.3 63.7154L 20.2 63.7154L 15.6 54.7154L 3.20001 54.7154L 3.20001 117.715L 0.200012 117.715L 0.200012 51.7154L 67.2 51.7154L 67.2 58.4154C 69.0641 55.6566 70.817 53.3981 71.7953 52.1375C 72.1292 51.7075 72.3728 51.3935 72.5 51.2154C 72.7 51.0154 73.1 50.8154 73.4 50.8154C 73.7 50.8154 74.1 50.9154 74.3 51.2154C 74.3868 51.3312 74.5244 51.5098 74.705 51.744L 74.7078 51.7477L 74.7265 51.7719L 74.7268 51.7723C 77.0784 54.8223 86.4 66.9119 86.4 73.0154ZM 46 61.7154L 21.6 61.7154L 18 54.7154L 49.4 54.7154L 46 61.7154ZM 62.7 73.0154C 62.7 74.9155 63.3 76.7154 64.2 78.3154L 64.2 68.0154C 63.3 69.9155 62.7 71.7154 62.7 73.0154ZM 67.2 62.7154C 69.3715 59.1868 71.7886 55.9855 72.8958 54.5191C 73.0123 54.3648 73.1143 54.2297 73.2 54.1154L 73.4 53.8154L 73.6 54.1154C 75.4 56.4154 84.1 68.0154 84.1 73.0154C 84.1 78.8154 79.3 83.4154 73.4 83.4154C 71.1 83.4154 68.9 82.7154 67.2 81.4154L 67.2 62.7154ZM 100.1 98.5154C 100.9 98.8154 102.9 100.015 103.2 100.215C 103.5 100.415 103.7 100.815 103.7 101.115L 103.7 103.315C 103.7 103.715 103.5 104.015 103.2 104.215C 103.074 104.278 102.801 104.44 102.46 104.641C 101.715 105.08 100.649 105.71 100.1 105.915L 99.1 108.315C 99.299 108.846 99.5858 110.036 99.7856 110.865L 99.7858 110.866L 99.7878 110.874L 99.7885 110.877L 99.7903 110.885L 99.7908 110.886L 99.7915 110.889C 99.8903 111.299 99.9669 111.616 100 111.715C 100.1 112.115 100 112.415 99.7 112.715L 98.2 114.215C 97.9 114.515 97.6 114.615 97.2 114.515C 96.8 114.515 94.6 113.915 93.8 113.615L 91.4 114.615C 91.1 115.415 89.9 117.415 89.7 117.715C 89.5 118.015 89.2 118.215 88.8 118.215L 86.6 118.215C 86.2 118.215 85.9 118.015 85.7 117.715C 85.6372 117.59 85.4758 117.316 85.2747 116.975C 84.8351 116.231 84.2058 115.164 84 114.615L 81.6 113.615C 81.0695 113.814 79.8796 114.101 79.0505 114.301L 79.0497 114.301L 79.0416 114.303L 79.0387 114.304L 79.0309 114.306L 79.0292 114.306L 79.0261 114.307C 78.6166 114.406 78.2991 114.482 78.2 114.515C 77.8 114.615 77.5 114.515 77.2 114.215L 75.7 112.715C 75.4 112.415 75.3 112.115 75.4 111.715C 75.4 111.315 76 109.115 76.3 108.315L 75.3 105.915C 74.5 105.615 72.5 104.415 72.2 104.215C 71.9 104.015 71.7 103.715 71.7 103.315L 71.7 101.115C 71.7 100.715 71.9 100.415 72.2 100.215C 72.3256 100.153 72.5991 99.9913 72.94 99.7901C 73.6848 99.3506 74.7512 98.7212 75.3 98.5154L 76.3 96.1155C 76.1011 95.585 75.8142 94.395 75.6144 93.5659L 75.6142 93.5651L 75.6122 93.557L 75.6116 93.5541L 75.6097 93.5464L 75.6093 93.5446L 75.6085 93.5416C 75.5097 93.132 75.4331 92.8146 75.4 92.7154C 75.3 92.3154 75.4 92.0154 75.7 91.7154L 77.2 90.2154C 77.5 89.9155 77.8 89.8154 78.2 89.9155C 78.6 89.9155 80.8 90.5154 81.6 90.8154L 84 89.8154C 84.3 89.0154 85.5 87.0154 85.7 86.7154C 85.9 86.4155 86.2 86.2154 86.6 86.2154L 88.8 86.2154C 89.2 86.2154 89.5 86.4155 89.7 86.7154C 89.7628 86.8411 89.9242 87.1146 90.1254 87.4554C 90.5649 88.2002 91.1942 89.2666 91.4 89.8154L 93.8 90.8154C 94.3305 90.6165 95.5204 90.3296 96.3495 90.1298L 96.3503 90.1296L 96.3585 90.1277L 96.3613 90.127L 96.3691 90.1251L 96.3708 90.1247L 96.3739 90.124C 96.7834 90.0251 97.1009 89.9485 97.2 89.9155C 97.6 89.8154 97.9 89.9155 98.2 90.2154L 99.7 91.7154C 100 92.0154 100.1 92.3154 100 92.7154C 100 93.1155 99.4 95.3154 99.1 96.1155L 100.1 98.5154ZM 100.481 103.343L 100.477 103.345L 100.476 103.346C 99.9374 103.661 99.433 103.957 99.2 104.015C 98.8 104.115 98.5 104.315 98.4 104.615L 97.1 107.815C 97 108.115 97 108.515 97.2 108.815C 97.3029 109.021 97.4323 109.492 97.5745 110.009L 97.5751 110.011C 97.7091 110.499 97.8546 111.028 98 111.415L 97.3 112.115C 96.5 111.915 95.1 111.515 94.7 111.315C 94.4 111.115 94 111.015 93.7 111.215L 90.5 112.515C 90.2 112.615 89.9 113.015 89.9 113.315C 89.8171 113.481 89.6484 113.784 89.4508 114.139C 89.1714 114.641 88.8343 115.247 88.6 115.715L 87.6 115.715C 87.4337 115.383 87.1982 114.981 86.9727 114.596L 86.9702 114.592L 86.9699 114.592C 86.654 114.053 86.3582 113.548 86.3 113.315C 86.2 112.915 86 112.615 85.7 112.515L 82.5 111.215C 82.2 111.115 81.8 111.115 81.5 111.315C 81.2941 111.418 80.8235 111.548 80.306 111.69L 80.3041 111.691C 79.8166 111.825 79.2878 111.97 78.9 112.115L 78.2 111.415C 78.4 110.615 78.8 109.215 79 108.815C 79.2 108.515 79.3 108.115 79.1 107.815L 77.8 104.615C 77.7 104.315 77.3 104.015 77 104.015C 76.8343 103.933 76.5312 103.764 76.1762 103.566C 75.6743 103.287 75.0685 102.95 74.6 102.715L 74.6 101.715C 74.9326 101.549 75.3344 101.314 75.719 101.088L 75.7233 101.086L 75.7238 101.085C 76.2625 100.769 76.767 100.474 77 100.415C 77.4 100.315 77.7 100.115 77.8 99.8154L 79.1 96.6155C 79.2 96.3154 79.2 95.9155 79 95.6155C 78.8971 95.4096 78.7677 94.939 78.6254 94.4215L 78.6249 94.4196C 78.4908 93.9321 78.3454 93.4033 78.2 93.0154L 78.9 92.3154C 79.7 92.5154 81.1 92.9155 81.5 93.1155C 81.8 93.3154 82.2 93.4155 82.5 93.2154L 85.7 91.9155C 86 91.8154 86.3 91.4155 86.3 91.1155C 86.3829 90.9498 86.5515 90.6467 86.7491 90.2917C 87.0285 89.7898 87.3657 89.184 87.6 88.7154L 88.6 88.7154C 88.7663 89.0481 89.0018 89.4498 89.2273 89.8345L 89.2298 89.8388L 89.23 89.8392C 89.546 90.378 89.8417 90.8824 89.9 91.1155C 90 91.5154 90.2 91.8154 90.5 91.9155L 93.7 93.2154C 94 93.3154 94.4 93.3154 94.7 93.1155C 94.9058 93.0126 95.3765 92.8832 95.8939 92.7409L 95.8958 92.7404C 96.3834 92.6063 96.9122 92.4609 97.3 92.3154L 98 93.0154C 97.8 93.8154 97.4 95.2154 97.2 95.6155C 97 95.9155 96.9 96.3154 97.1 96.6155L 98.4 99.8154C 98.5 100.115 98.9 100.415 99.2 100.415C 99.3657 100.498 99.6687 100.667 100.024 100.865C 100.526 101.144 101.131 101.481 101.6 101.715L 101.6 102.715C 101.267 102.882 100.866 103.117 100.481 103.343ZM 42.1 73.7154L 44.2 72.9155L 42.3 67.7154L 40.2 68.5154L 42.1 73.7154ZM 128.7 79.7154C 126 79.7154 123.8 81.9155 123.8 84.7154C 123.8 87.5154 126 89.7154 128.7 89.7154C 131.4 89.7154 133.6 87.5154 133.6 84.7154C 133.6 81.9155 131.4 79.7154 128.7 79.7154ZM 126.1 84.7154C 126.1 86.1154 127.3 87.3154 128.7 87.3154C 130.1 87.3154 131.3 86.1154 131.3 84.7154C 131.3 83.3154 130.1 82.1154 128.7 82.1154C 127.2 82.1154 126.1 83.3154 126.1 84.7154ZM 5.20001 15.4155L 4.90002 15.7154L 2.5 17.0154L 4.90002 18.3154L 5.20001 18.6154L 6.5 21.0154L 7.79999 18.6154L 8.09998 18.3154L 10.5 17.0154L 8.09998 15.7154L 7.79999 15.4155L 6.5 13.0154L 5.20001 15.4155ZM 180.3 99.9154L 175.4 91.4154C 175.2 91.1154 174.8 90.9154 174.4 90.9154C 174 90.9154 173.6 91.1154 173.4 91.4154L 168.8 99.5154C 168 100.615 167.6 101.915 167.6 103.315C 167.6 107.015 170.6 110.115 174.4 110.115C 178.2 110.115 181.2 107.115 181.2 103.315C 181.2 102.215 180.9 101.115 180.4 100.115C 180.3 100.015 180.3 99.9154 180.3 99.9154ZM 169.8 103.215C 169.8 105.815 171.9 107.815 174.4 107.815C 176.9 107.815 178.9 105.715 178.9 103.115C 178.9 102.415 178.7 101.615 178.3 100.915C 178.25 100.915 178.225 100.915 178.213 100.903C 178.2 100.89 178.2 100.865 178.2 100.815L 174.3 94.1154L 170.6 100.515L 170.6 100.615C 170.1 101.415 169.8 102.315 169.8 103.215ZM 63.5 11.9155L 65.4 12.2154C 65.9 12.3154 66.3 12.8154 66.2 13.3154C 66.1 13.8154 65.6 14.2154 65.1 14.1155L 63.2 13.8154C 62.7 13.7154 62.3 13.2154 62.4 12.7154C 62.5 12.2154 63 11.8154 63.5 11.9155ZM 61.2 5.71539C 60.8 6.01544 60.7 6.61541 61 7.01544C 61.4 7.4154 62 7.51544 62.3 7.21539L 63.9 6.11541C 64.3 5.81542 64.4 5.21539 64.1 4.81542C 63.8 4.4154 63.2 4.31542 62.8 4.61541L 61.2 5.71539ZM 91.8 47.9154C 91.6 47.6154 91.3 47.4154 90.9 47.4154C 90.5 47.4154 90.2 47.6154 90 47.9154L 85.9 55.1154C 85.9 55.1154 85.9 55.2154 85.8 55.2154C 85.3 56.1154 85.1 57.0154 85.1 58.0154C 85.1 61.2154 87.7 63.8154 90.9 63.8154C 94.1 63.8154 96.7 61.2154 96.7 58.0154C 96.7 56.8154 96.4 55.7154 95.7 54.7154L 95.7 54.6154L 91.8 47.9154ZM 87.2 57.9155C 87.2 59.9155 88.9 61.6154 90.9 61.6154C 92.9 61.6154 94.5 60.0154 94.6 57.9155C 94.6 57.1154 94.4 56.4155 93.9 55.7154L 90.9 50.5154L 87.8 55.9155L 87.7 56.1154C 87.4 56.6154 87.2 57.3154 87.2 57.9155ZM 210.6 21.4155C 211.5 24.1154 210 26.9155 207.4 27.8154C 204.8 28.6154 201.9 27.3154 201 24.6154C 200.1 21.9155 201.6 19.1154 204.2 18.2154C 206.9 17.3154 209.7 18.7154 210.6 21.4155ZM 205 20.3154C 206.5 19.8154 208.1 20.6154 208.5 22.1154C 209 23.6154 208.2 25.2154 206.7 25.6154C 205.2 26.1154 203.6 25.3154 203.2 23.8154C 202.7 22.4155 203.5 20.8154 205 20.3154ZM 168.9 85.5154C 169.3 86.3154 169.5 87.1155 169.5 87.9155C 169.5 90.7154 167.2 93.0154 164.1 93.0154C 161.3 93.0154 159 90.7154 159 87.9155C 159 86.9155 159.3 85.9155 159.9 85.0154L 161.6 82.0154C 161.6 81.9155 161.5 81.9155 161.5 81.9155L 161.1 81.6155L 145.8 83.0154C 142.3 83.2154 140 82.7154 138.3 81.5154C 136.1 79.9155 135.6 77.1155 135.4 75.1155L 135.1 71.6155C 135 68.0154 138.6 64.1155 145.2 60.5154C 150.8 57.4155 157.6 55.2154 163.4 54.5154L 164.7 54.3154L 162.8 32.4155C 162.7 31.4155 162.7 30.3154 162.8 29.3154C 160.9 27.5154 159.4 25.2154 158.5 22.5154C 155.8 14.0154 160.4 4.91546 168.9 2.21545C 176.5 -0.284552 184.6 3.21545 188.2 10.1155C 191.9 9.81542 195.3 12.0154 196.5 15.6155C 197.5 18.6155 196.6 21.8154 194.4 23.8154C 195.3 25.6155 195.8 27.5154 196 29.5154L 196.3 33.0154C 200.8 32.9155 205 35.7154 206.4 40.2154C 208.2 45.7154 205.2 51.5154 199.7 53.3154C 199.2 53.5153 198.701 53.6153 198.201 53.7153L 198.2 53.7154L 199 62.5154L 199.9 62.8154C 201.2 63.2154 202.3 64.1155 202.9 65.3154L 203.3 66.1155L 210.7 65.4155L 211.9 79.4155L 186.9 81.6155L 185.7 67.6155L 193.1 66.9155L 193.4 66.0154C 193.8 64.7154 194.7 63.6155 195.9 63.0154L 196.7 62.6155L 195.9 53.8154C 191.8 53.5154 188.1 50.8154 186.7 46.6155C 184.9 41.1155 187.9 35.3154 193.4 33.5154C 193.5 33.4655 193.624 33.4405 193.749 33.4156L 193.75 33.4155L 193.751 33.4153C 193.875 33.3903 194 33.3654 194.1 33.3154L 193.8 29.7154C 193.6 28.1155 193.2 26.6155 192.6 25.2154C 192.4 25.2654 192.225 25.3404 192.05 25.4155C 191.875 25.4905 191.7 25.5655 191.5 25.6155C 190.3 26.0154 189 26.1154 187.8 25.9155C 185.9 29.1154 182.8 31.7154 179 32.9155C 174.2 34.5154 169.2 33.6155 165.3 31.1155L 165.3 32.2154L 167.3 54.2154L 168.5 54.3154C 171.4 54.5154 173.8 55.2154 175.7 56.4155C 178.4 58.2154 180.1 61.1155 180.5 64.8154L 181.1 71.1155C 181.5 76.3154 178.9 79.7154 173.8 80.5154L 173.3 80.6155L 173 80.9155C 171.6 82.4155 169.7 83.3154 167.7 83.5154L 168.8 85.4155C 168.85 85.4155 168.875 85.4155 168.887 85.428C 168.9 85.4404 168.9 85.4654 168.9 85.5154ZM 203.2 69.2154L 203.5 68.3154L 208.6 67.8154L 209.4 77.2154L 189.1 79.0154L 188.2 69.7154L 193.3 69.2154L 193.7 70.0154C 194.7 71.8154 196.7 72.9154 198.7 72.7154C 200.8 72.6154 202.5 71.2154 203.2 69.2154ZM 200.5 69.5154C 200.9 68.9155 201.2 68.2154 201.1 67.4155C 201 65.8154 199.6 64.7154 198.1 64.8154C 196.5 65.0154 195.4 66.3154 195.5 67.9155C 195.6 69.4155 196.9 70.5154 198.3 70.5154L 198.6 70.5154C 199.3 70.4155 200 70.1154 200.5 69.5154ZM 204.3 41.0154C 205.7 45.3154 203.3 49.9155 199 51.3154C 198.85 51.3654 198.676 51.4153 198.501 51.4652L 198.5 51.4656C 198.325 51.5155 198.15 51.5655 198 51.6154L 196.6 35.4155C 200 35.3154 203.2 37.5154 204.3 41.0154ZM 188.8 46.0154C 189.8 49.2154 192.6 51.3154 195.7 51.6154L 194.3 35.6154C 194.3 35.7154 194.2 35.7154 194.1 35.7154C 189.8 37.1154 187.4 41.7154 188.8 46.0154ZM 194.5 16.4154C 195.1 18.4154 194.6 20.4154 193.4 21.9154C 192.5 20.6154 191.5 19.4154 190.2 18.4154C 190.3 16.5154 190 14.6154 189.4 12.8154C 189.4 12.7654 189.375 12.7405 189.35 12.7154C 189.325 12.6904 189.3 12.6655 189.3 12.6154C 191.6 12.5154 193.7 14.0154 194.5 16.4154ZM 191.5 23.2154C 191 22.5154 190.4 21.8154 189.8 21.1154C 189.6 22.0154 189.3 22.9154 188.9 23.8154C 189.6 23.8154 190.2 23.7154 190.8 23.5154C 190.9 23.4654 191.025 23.4154 191.15 23.3654C 191.275 23.3154 191.4 23.2654 191.5 23.2154ZM 178.3 30.8154C 173.8 32.3154 169 31.3154 165.5 28.5154C 165.9 26.1154 167 23.8154 168.6 21.8154C 171 18.9155 174.5 17.1154 178.3 16.7154C 181.7 16.4155 185 17.3154 187.8 19.3154C 187.1 24.6154 183.6 29.1154 178.3 30.8154ZM 160.9 21.9155C 161.5 23.7154 162.4 25.3154 163.6 26.7154C 164.2 24.4155 165.3 22.3154 166.9 20.4155C 169.7 17.0154 173.7 14.9155 178.1 14.5154C 181.6 14.2154 184.9 15.0154 187.9 16.7154C 187.9 15.6155 187.7 14.4155 187.3 13.3154C 184.9 6.11547 177.1 2.01544 169.8 4.41546C 162.6 6.81542 158.5 14.6155 160.9 21.9155ZM 140.6 66.7154C 142.1 65.3154 144.2 63.9154 146.6 62.6154C 148.8 61.4154 151.2 60.3154 153.7 59.4154L 156.6 58.4154L 155.5 61.2154C 153.8 65.6154 151.1 68.3154 147.9 68.5154L 137.6 69.4154L 140.6 66.7154ZM 158.7 77.8154C 158.4 77.1154 158.3 76.4154 158.2 75.7154C 158 73.4154 158.8 71.3154 160.3 69.5154C 161.8 67.7154 163.9 66.6154 166.2 66.4154C 168.5 66.2154 170.7 66.9154 172.5 68.4154C 174.3 69.9154 175.4 72.0154 175.6 74.3154L 175.6 74.9154L 175.7 80.0154L 178.2 75.5154C 178.8 74.4154 179 73.0154 178.9 71.4154L 178.3 65.1154C 178 62.1154 176.7 59.8154 174.5 58.4154C 172.3 56.9154 169 56.3154 165 56.7154L 164.7 56.7154C 163.1 56.9154 161.4 57.2154 159.6 57.6154L 158.7 57.8154L 158.5 58.7154C 158.2 60.6154 157.4 62.8154 156.4 64.6154C 154.3 68.3154 151.3 70.5154 148 70.8154L 137.7 71.7154L 138 74.8154C 138.2 77.3154 138.9 78.7154 140 79.6154C 140.9 80.3154 142.4 80.7154 144.5 80.7154L 145.9 80.7154L 159.3 79.5154L 158.7 77.8154ZM 164.4 90.8154C 162.8 90.8154 161.5 89.5154 161.5 87.9155C 161.5 87.3154 161.7 86.7154 162 86.2154L 162 86.1154L 163.8 83.0154C 164.135 83.1829 164.54 83.2803 164.898 83.3662L 164.911 83.3694C 164.976 83.385 165.039 83.4002 165.1 83.4155L 166.8 86.4155C 166.8 86.4155 166.8 86.5154 166.9 86.5154C 167.1 86.9155 167.3 87.4155 167.3 87.9155C 167.3 89.5154 166 90.8154 164.4 90.8154ZM 166.8 81.2154L 167.4 81.2154C 170.9 80.9154 173.5 77.8154 173.1 74.4154C 172.8 71.0154 169.7 68.4154 166.2 68.7154C 164.5 68.8154 163 69.6154 161.9 70.9154C 160.8 72.2154 160.3 73.8154 160.4 75.5154C 160.5 77.3154 161.5 79.0154 162.9 80.0154L 163.3 79.3154C 163.5 79.0154 163.9 78.8154 164.3 78.8154C 164.7 78.8154 165.1 79.0154 165.3 79.3154L 166.4 81.2154L 166.8 81.2154ZM 47.8 3.61541C 47.5 3.21545 47.6 2.61541 48 2.31542C 48.4 2.01544 49 2.11541 49.3 2.51544L 50.4 4.11541C 50.7 4.51544 50.6 5.11541 50.2 5.4154C 49.8 5.71545 49.2 5.61541 48.9 5.21545L 47.8 3.61541ZM 155.5 45.1154C 126.4 42.0154 97 42.0154 67.9 45.1154C 67.5 45.1154 67.2 45.0154 67.1 44.7154C 66.9 44.5154 66.8 44.1154 66.8 43.8154L 72.1 5.71545C 72.1 5.21545 72.5 4.91546 73 4.81542C 85.8 3.31542 98.8 2.51544 111.7 2.51544C 124.6 2.51544 137.6 3.31542 150.4 4.81542C 150.8 4.81542 151.2 5.21545 151.3 5.71545L 156.7 43.9155C 156.7 44.2154 156.6 44.6154 156.4 44.8154C 156.2 45.0154 155.8 45.1154 155.5 45.1154ZM 74 6.81542L 74.5 6.71545C 79.1 6.21545 83.9 5.71545 88.6 5.41546L 89.8 5.31542L 87.1 10.8154L 78 13.7154C 77.7 13.8154 77.5 14.0154 77.4 14.2154C 77.3896 14.2467 77.3792 14.277 77.369 14.3063L 77.3671 14.3116L 77.3642 14.32L 77.3617 14.3272C 77.2775 14.5688 77.213 14.7543 77.3 15.0154C 77.5 15.6154 78.1 15.9155 78.7 15.7154L 85.9 13.4155L 82.8 19.8154C 82.7 20.1154 82.7 20.4155 82.8 20.7154C 82.9 21.0154 83.2 21.2154 83.5 21.3154L 88.2 22.4155L 83.8 27.2154C 83.6 27.4155 83.5 27.7154 83.5 28.0154C 83.5 28.3154 83.6 28.6154 83.9 28.7154C 84.3 29.1154 85 29.0154 85.4 28.6154L 91 22.4155C 91.3 22.1154 91.3 21.7154 91.2 21.4155C 91.1 21.0154 90.8 20.8154 90.4 20.7154L 85.2 19.5154L 92.2 5.11541L 92.6 5.11541C 98.3 4.81542 103.9 4.61541 109.6 4.51544L 110.1 4.51544L 110.1 9.71545L 103.3 9.71545C 102.1 9.71545 101.1 10.3154 101.1 11.5154L 101.1 14.9155C 101.1 16.1154 102.1 16.7154 103.3 16.7154L 119.8 16.7154C 121 16.7154 122.1 16.1154 122.1 14.9155L 122.1 11.5154C 122.1 10.3154 121 9.71545 119.8 9.71545L 113.2 9.71545L 113.2 4.61541L 113.7 4.61541C 125.5 4.71545 137.2 5.41546 148.9 6.71545L 149.4 6.81542L 154.4 42.8154L 153.5 42.7154C 145.9 41.9155 138.2 41.4155 130.6 41.0154L 126.4 40.8154L 137.1 37.7154L 145.7 37.7154C 146.3 37.7154 146.8 37.3154 146.8 36.7154C 146.8 36.1154 146.3 35.7154 145.7 35.7154L 120.6 35.7154C 120 35.7154 119.5 36.1154 119.5 36.7154C 119.5 37.3154 120 37.7154 120.6 37.7154L 129.4 37.7154L 119.2 40.7154L 119.1 40.7154C 110.3 40.5154 101.5 40.7154 92.7 41.1154L 86.9 41.4155L 99.2 37.7154L 107.8 37.7154C 108.4 37.7154 108.9 37.3154 108.9 36.7154C 108.9 36.1154 108.4 35.7154 107.8 35.7154L 82.7 35.7154C 82.1 35.7154 81.6 36.1154 81.6 36.7154C 81.6 37.3154 82.1 37.7154 82.7 37.7154L 91.4 37.7154L 76.3 42.1154C 75.2024 42.2152 74.1296 42.315 73.0569 42.4148L 73.049 42.4155C 71.9744 42.5155 70.8997 42.6155 69.8 42.7154L 68.9 42.8154L 74 6.81542ZM 120.2 14.7154L 120.2 11.7154L 103.2 11.7154L 103.2 14.7154L 120.2 14.7154ZM 5.29999 18.5154L 6.5 20.7154L 7.70001 18.5154C 7.73291 18.4825 7.76575 18.4388 7.79865 18.395L 7.79993 18.3933C 7.86658 18.3044 7.93329 18.2154 8 18.2154L 10.2 17.0154L 8 15.8154C 7.9671 15.7825 7.92334 15.7497 7.87952 15.7168L 7.87787 15.7155C 7.78894 15.6488 7.70001 15.5821 7.70001 15.5154L 6.5 13.3154L 5.29999 15.5154C 5.26666 15.5488 5.23334 15.5932 5.20001 15.6376C 5.13336 15.7265 5.06665 15.8154 5 15.8154L 2.79999 17.0154L 5 18.2154C 5.06665 18.2154 5.13336 18.3044 5.20007 18.3933L 5.20135 18.395C 5.23425 18.4388 5.26709 18.4825 5.29999 18.5154ZM 5.40002 15.5154C 5.29999 15.7154 5.20001 15.8154 5 15.9155L 3 17.0154L 5 18.1154C 5.20001 18.2154 5.29999 18.3154 5.40002 18.5154L 6.5 20.5154L 7.59998 18.5154C 7.70001 18.3154 7.79999 18.2154 8 18.1154L 10 17.0154L 8 15.9155C 7.79999 15.8154 7.70001 15.7154 7.59998 15.5154L 6.5 13.5154L 5.40002 15.5154ZM 43.4 9.81542C 43.5 9.31542 44 8.9154 44.5 9.01544L 46.4 9.31542C 46.9 9.4154 47.3 9.9154 47.2 10.4154C 47.1 10.9154 46.6 11.3154 46.1 11.2154L 44.2 10.9154C 43.7 10.8154 43.4 10.3154 43.4 9.81542ZM 17.7 14.0154L 13.4 11.6155L 17.8 14.0154L 20.2 18.4154C 20.4 18.6154 20.7 18.8154 21 18.8154C 20.6 18.8154 20.3 18.6155 20.1 18.3154L 17.7 14.0154ZM 21 18.8154C 21.3304 18.8154 21.5243 18.7472 21.6945 18.5544C 21.5123 18.7169 21.2808 18.8154 21 18.8154ZM 21.6945 18.5544C 21.7719 18.4854 21.8404 18.4048 21.9 18.3154L 24.3 14.0154L 28.6 11.6155C 28.9 11.4155 29.1 11.1155 29.1 10.7154C 29.1 10.3154 28.9 10.0154 28.6 9.81542L 24.2 7.51544L 21.8 3.21545C 21.6 2.91546 21.3 2.71545 20.9 2.71545C 20.5 2.71545 20.2 2.91546 20 3.21545L 17.6 7.51544L 13.3 9.91546C 13 10.1155 12.8 10.4155 12.8 10.8154C 12.8837 11.0666 13.0375 11.3177 13.2614 11.5102C 13.0683 11.34 13 11.146 13 10.8154C 13 10.4154 13.2 10.1154 13.4 10.0154L 17.8 7.61541L 20.2 3.21545C 20.4 2.9154 20.6 2.81542 21 2.81542C 21.3 2.81542 21.6 3.01544 21.8 3.21545L 24.2 7.61541L 28.6 10.0154C 28.9 10.2154 29 10.4154 29 10.8154C 29 11.1154 28.8 11.4154 28.6 11.6155L 24.2 14.0154L 21.8 18.4154C 21.7652 18.4676 21.7303 18.5138 21.6945 18.5544ZM 21 16.0154L 19.2 12.8154C 19.1769 12.7924 19.1539 12.7641 19.1297 12.7341L 19.1288 12.733L 19.1279 12.7319C 19.0472 12.6321 18.9528 12.5154 18.8 12.5154L 15.6 10.7154L 18.9 8.9154C 18.9667 8.9154 19.0333 8.82647 19.1 8.7376C 19.1333 8.69317 19.1666 8.64874 19.2 8.61541L 20.9 5.4154L 22.7 8.61541C 22.7 8.68206 22.7889 8.74877 22.8778 8.81548C 22.9222 8.84875 22.9667 8.88207 23 8.9154L 26.2 10.7154L 23.1 12.5154C 23.0333 12.5154 22.9666 12.6043 22.8999 12.6932C 22.8666 12.7377 22.8333 12.7821 22.8 12.8154L 21 16.0154ZM 18.9 9.11547C 19.1 9.01544 19.2 8.91546 19.3 8.71545L 20.9 5.71545L 22.5 8.71545C 22.6 8.91546 22.7 9.01544 22.9 9.11547L 25.9 10.7154L 22.9 12.3154C 22.7 12.4155 22.6 12.5154 22.5 12.7154L 20.9 15.7154L 19.3 12.7154C 19.2 12.5154 19.1 12.4155 18.9 12.3154L 15.9 10.7154L 18.9 9.11547ZM 20.3 18.2154L 17.9 13.8154L 13.5 11.3154C 13.2 11.2154 13.1 10.9154 13.1 10.7154C 13.1 10.5154 13.3 10.2154 13.5 10.1154L 17.9 7.71539L 20.4 3.31542C 20.5 3.01537 20.7 2.9154 21 2.9154C 21.2 2.9154 21.5 3.11541 21.6 3.31542L 24 7.71539L 28.3 10.2154C 28.6 10.3154 28.7 10.6154 28.7 10.8154C 28.7 11.0154 28.5 11.3154 28.3 11.4154L 23.9 13.8154L 21.5 18.2154C 21.4 18.5154 21.2 18.6154 20.9 18.6154C 20.7 18.6154 20.4 18.4154 20.3 18.2154ZM 18.8 8.81542L 19.1 8.51544L 21 5.11541L 22.9 8.51544L 23.2 8.81542L 26.6 10.7154L 23.2 12.6154L 22.9 12.9154L 21 16.3154L 19.1 12.9154L 18.8 12.6154L 15.4 10.7154L 18.8 8.81542ZM 34.6 27.8154L 31.8 27.4155C 31.3 27.4155 31 26.9155 31 26.3154L 33.1 13.0154C 33.2 12.5154 33.7 12.1154 34.2 12.2154C 34.3991 12.2653 36.6548 12.6123 38.9196 12.9607L 38.9477 12.9651C 41.2234 13.3152 43.4999 13.6654 43.7 13.7154C 43.7958 13.7018 43.944 13.6824 44.1334 13.6578C 45.328 13.5022 48.16 13.1334 49.8 12.6154C 51.5 12.1154 53.3 8.81542 53.7 6.51544C 53.8 6.01544 54.3 5.61541 54.8 5.71545C 56.1 5.91546 57.2 6.71545 57.9 7.81542C 58.6 8.91546 58.8 10.2154 58.4 11.5154C 58 12.7154 57.4 14.4155 56.7 15.7154L 60.9 16.3154C 62.5 16.6154 63.5 18.0154 63.3 19.6154C 63.2 20.3154 62.8 21.0154 62.3 21.4155C 62.6 22.0154 62.8 22.7154 62.7 23.4155C 62.5 24.7154 61.5 25.7154 60.2 25.8154C 60.2 25.9525 60.2117 26.0779 60.2231 26.1995L 60.2232 26.1999C 60.2451 26.4331 60.2657 26.6527 60.2 26.9155C 60 28.2154 59 29.2154 57.7 29.3154C 57.7 29.4525 57.7117 29.5779 57.7231 29.6995L 57.7232 29.6999C 57.7451 29.9331 57.7657 30.1527 57.7 30.4155C 57.4 32.0154 56 33.0154 54.4 32.8154L 48.7 31.9155C 48.65 31.9155 48.625 31.8904 48.6 31.8654C 48.575 31.8404 48.55 31.8154 48.5 31.8154L 42.1 29.1154C 41.5 30.0154 40.4 30.6154 39.2 30.4155L 35.3 29.8154C 34.8 29.7154 34.4 29.2154 34.5 28.7154L 34.6 27.8154ZM 45 15.4398L 45.0558 15.4314L 45.0564 15.4313C 46.5056 15.2139 48.9123 14.853 50.4 14.4154C 52.8 13.6154 54.6 10.4154 55.3 7.9154C 55.7 8.11541 56 8.4154 56.2 8.81542C 56.6 9.4154 56.7 10.2154 56.5 10.9154C 55.6 13.8154 54.8 15.0154 54.2 15.9154C 54 16.2154 54 16.5154 54.1 16.8154C 54.2 17.1154 54.5 17.3154 54.8 17.4154L 60.5 18.3154C 61 18.4154 61.4 18.9154 61.3 19.4154C 61.2 19.9154 60.7 20.3154 60.2 20.2154L 54.5 19.3154C 54 19.2154 53.5 19.6154 53.4 20.1154C 53.3 20.6154 53.7 21.1154 54.2 21.2154L 59.9 22.1154C 60.4 22.2154 60.8 22.7154 60.7 23.2154C 60.6 23.7154 60.1 24.1154 59.6 24.0154C 58.9 23.9154 54.5 23.2154 53.9 23.1154C 53.4 23.0154 52.9 23.4154 52.8 23.9154C 52.7 24.4154 53.1 24.9154 53.6 25.0154L 57.4 25.6154C 57.9 25.7154 58.3 26.2154 58.2 26.7154C 58.1 27.2154 57.6 27.6154 57.1 27.5154C 56.9 27.4654 56.05 27.3404 55.2 27.2154C 54.35 27.0904 53.5 26.9654 53.3 26.9154C 52.8 26.8154 52.3 27.2154 52.2 27.7154C 52.1 28.2154 52.5 28.7154 53 28.8154L 54.9 29.1154C 55.4 29.2154 55.8 29.7154 55.7 30.2154C 55.6 30.7154 55.1 31.1154 54.6 31.0154L 49.2 30.1154L 42.7 27.4154L 44.5 15.5154C 44.6408 15.4937 44.8004 15.4697 44.9752 15.4435L 45 15.4398ZM 40.7 27.8154L 42.6 15.5154L 38.7 14.8154L 36.6 28.1154L 39.6 28.6154C 40.1 28.7154 40.6 28.3154 40.7 27.8154ZM 34.8 14.3154L 36.7 14.6154L 34.9 26.0154L 33.1 25.7154L 34.8 14.3154ZM 4.10004 37.9154C 4.29999 37.7154 4.70001 37.5154 5.10004 37.6154L 11.6 38.8154L 13.7 35.8154L 12.6 32.1154L 6.20001 31.1154C 5.79999 31.0154 5.5 30.8154 5.29999 30.4154C 5.20001 30.0154 5.20001 29.6154 5.40002 29.3154C 8 25.3154 12.8 23.3154 17.5 24.1154L 17.6 24.1154C 20.8 24.7154 23.7 26.5154 25.5 29.1154C 26.2 30.1154 26.8 31.2154 27.2 32.4154L 27.5 32.9154L 54.2 37.4154C 57.3 37.9154 59.4 40.9154 58.9 44.0154C 58.6 45.5154 57.8 46.8154 56.5 47.7154C 55.2 48.6154 53.7 48.9154 52.2 48.7154L 42.4 47.1154C 41.8 48.4154 40.4 49.4154 38.8 49.4154C 36.8 49.4154 35.1 47.8154 34.9 45.8154L 25.1 44.1154L 24.8 44.4154C 24.6849 44.5305 24.5698 44.6493 24.4532 44.7697L 24.4433 44.78C 23.9554 45.2839 23.4421 45.8141 22.8 46.2154C 20.1 48.0154 16.8 48.8154 13.6 48.2154C 10.3 47.6154 7.5 45.8154 5.60004 43.2154C 4.79999 42.0154 4.20001 40.7154 3.79999 38.9154C 3.70001 38.6154 3.79999 38.2154 4.10004 37.9154ZM 38.8 47.4154C 37.9 47.4154 37.2 46.8154 36.9 46.1154L 40.4 46.7154C 39.9 47.1154 39.4 47.4154 38.8 47.4154ZM 38.8 41.4154L 37.3 43.9154L 40.6 44.5154C 40.5 44.4154 40.5 44.3154 40.5 44.3154L 38.8 41.4154ZM 13 40.7154L 15.9 36.7154C 16.1 36.4154 16.2 36.0154 16.1 35.7154L 14.6 30.7154C 14.5 30.3154 14.1 30.0154 13.7 29.9154L 8.39996 29.0154L 9.70001 28.0154C 11.9 26.4154 14.6 25.8154 17.2 26.2154C 19.8 26.7154 22.2 28.2154 23.7 30.3154C 24.5 31.4154 25 32.7154 25.3 33.9154C 25.4 34.3154 25.8 34.7154 26.2 34.8154L 53.6 39.4154C 55.5 39.7154 56.8 41.5154 56.5 43.4154C 56.2 45.1154 54.7 46.3154 53 46.3154L 52.5 46.3154L 42.6 44.6154C 42.5 44.0154 42.3 43.5154 42 43.0154L 39.6 38.8154C 39.4 38.5154 39.1 38.3154 38.8 38.3154C 38.5 38.3154 38.1 38.5154 38 38.8154L 35.4 43.3154L 35.4 43.4154L 24.7 41.7154C 24.4 41.6154 24.1 41.7154 23.8 41.9154L 23.5 42.2154C 22.9 43.0154 22.1 43.8154 21.3 44.4154C 19.2 45.9154 16.4 46.5154 13.9 46.1154C 11.3 45.6154 8.89996 44.1154 7.39996 42.0154C 7.35028 41.9159 7.30054 41.8412 7.25085 41.7666L 7.24994 41.7653C 7.19995 41.6903 7.14996 41.6154 7.09998 41.5154L 6.29999 40.2154L 11.8 41.2154C 12.3 41.2154 12.7 41.0154 13 40.7154ZM 162.5 18.6154C 162.5 18.6154 161.8 14.5154 164 12.0154C 164.2 11.8154 164.1 11.4154 163.9 11.2154C 163.7 11.0154 163.3 11.0154 163.2 11.1154C 160.897 13.7869 161.31 17.816 161.389 18.5909C 161.396 18.6572 161.4 18.6997 161.4 18.7154C 161.4 19.0154 161.7 19.3154 162 19.2154L 162.1 19.2154C 162.4 19.1154 162.5 18.9154 162.5 18.6154Z"/>
</defs>
</svg>
