<svg width="269" height="121" viewBox="0 0 269 121" version="1.1" xmlns="http://www.w3.org/2000/svg" xmlns:xlink="http://www.w3.org/1999/xlink">
<title>Shape</title>
<desc>Created using Figma</desc>
<g id="Canvas" transform="translate(-734 -566)">
<g id="Shape">
<use xlink:href="#path0_fill" transform="translate(734.221 566.3)" fill="url(#paint0_linear)"/>
</g>
</g>
<defs>
<linearGradient id="paint0_linear" x1="0" y1="0" x2="1" y2="0" gradientUnits="userSpaceOnUse" gradientTransform="matrix(-21.0137 -119.014 265.957 -9.40346 163.523 107.304)">
<stop offset="0" stop-color="#FF9619"/>
<stop offset="1" stop-color="#FFC23B"/>
</linearGradient>
<path id="path0_fill" fill-rule="evenodd" d="M 110.279 26.6C 110.396 26.5126 110.521 26.4251 110.649 26.3352C 110.962 26.1166 111.296 25.8834 111.579 25.6L 112.079 25.2L 112.179 25.4C 112.879 25.1 113.579 24.7 114.279 24.3C 117.679 22.1 120.379 19.2 121.879 16.2C 123.279 13.2 123.279 10.2 121.879 7.90002C 119.679 4.20001 114.579 2.90002 108.879 4.5L 108.579 4.59998L 108.379 4.40002C 105.479 1.5 102.279 0 99.2789 0C 97.879 0 96.579 0.299988 95.379 1C 92.9789 2.40002 91.579 5 91.2789 8.29999C 90.9789 11.7 91.9789 15.5 93.9789 19C 98.179 26.2 105.279 29.5 110.279 26.6ZM 208.779 94.7L 217.879 94.7C 218.479 94.7 218.779 95.1 218.779 95.7L 218.779 117.4C 218.779 118 218.479 118.6 217.879 118.6L 153.679 118.6C 153.079 118.6 152.679 118 152.679 117.4L 152.679 95.7C 152.679 95.1 153.079 94.7 153.679 94.7L 162.679 94.7L 162.679 74.3C 162.629 74.3 162.554 74.2751 162.48 74.2502L 162.479 74.25L 162.478 74.2498C 162.403 74.2249 162.329 74.2 162.279 74.2L 161.279 73.9L 160.879 74.8C 159.679 77.4 157.379 81 152.879 83.9L 152.179 84.3L 151.579 83.7L 151.572 83.6932C 151.283 83.4052 146.187 78.3286 147.079 70.7L 147.179 69.6L 146.079 69.4C 143.679 69.1 139.479 68 135.579 65.2C 134.879 70.1 133.179 74.6 130.479 78.6C 131.179 79.8 131.779 81.4 132.279 83.7L 132.479 84.7L 133.479 84.5C 139.179 83.2 141.679 84.8 142.179 85.2C 144.679 86.8 146.379 89.3 147.279 92.1C 147.979 95.1 147.379 98.2 145.779 100.7C 142.279 106.2 136.679 109.9 130.579 110.9L 129.979 111L 129.779 111.6C 129.659 112.019 129.539 112.456 129.417 112.904L 129.415 112.909C 129.129 113.953 128.829 115.051 128.479 116.1C 128.279 116.7 127.679 117.1 127.079 116.9C 126.979 116.9 126.879 116.9 126.779 116.8C 126.279 116.6 126.179 116.1 126.279 115.6L 126.379 115.4C 126.512 114.957 126.625 114.513 126.736 114.079C 126.876 113.533 127.012 113.001 127.179 112.5L 127.479 111.4L 126.279 111.3C 123.179 111.2 120.079 110.2 117.479 108.5C 114.879 106.8 112.679 104.4 111.279 101.6L 110.779 100.5L 110.679 100.5L 109.879 101.2C 109.337 101.606 108.841 102.058 108.329 102.525L 108.328 102.527L 108.321 102.533L 108.32 102.534L 108.318 102.536L 108.317 102.537C 108.077 102.756 107.833 102.978 107.579 103.2L 107.379 103.3C 106.879 103.7 106.179 103.6 105.779 103.2C 105.379 102.7 105.379 102 105.879 101.6L 106.379 101.1L 97.279 102.6C 97.079 102.7 96.679 102.7 96.379 102.5C 96.079 102.3 95.9789 101.9 95.9789 101.7L 94.4789 92.4L 92.779 91.8C 80.279 87.7 71.679 77.7 69.679 65.1C 69.579 64.9 69.579 64.5 69.779 64.2C 69.8961 64.0829 70.0818 64 70.2358 63.9314C 70.3446 63.8829 70.4375 63.8414 70.4789 63.8L 88.279 61L 88.779 59.1C 89.579 55.6 93.4789 54.1 93.879 54L 94.379 53.9L 94.879 53.6C 94.9789 53.5 95.379 53.7 95.779 54L 95.779 54.4L 91.779 60L 102.879 58.2L 103.379 56.4C 104.179 53.4 107.879 51.5 108.579 51.2L 108.979 51.1C 109.379 51 110.179 51.3 110.479 51.7C 110.579 52.1 110.579 52.4 110.579 52.6L 106.579 58.2L 134.179 53.8C 134.979 53.6 135.379 53.9 135.479 54.7C 135.779 56.6 135.879 58.5 135.879 60.4C 137.679 58.7 140.479 56.4 143.979 55.4L 144.879 55.1L 144.779 54.2C 144.679 52.4 144.579 48.6 145.579 45.3C 143.779 47 140.779 47 138.979 45.2L 138.379 44.7L 135.479 41.9L 160.679 16L 164.179 19.4C 164.179 19.4999 164.279 19.5997 164.379 19.6996L 164.379 19.7L 194.879 9.20001C 195.079 9.09998 195.179 9.09998 195.379 9.09998C 195.479 9.09998 195.679 9.09998 195.779 9.20001C 196.031 9.36835 196.142 9.60742 196.231 9.79822L 196.234 9.80542L 196.236 9.80969L 196.237 9.8114C 196.251 9.84253 196.265 9.87225 196.279 9.90002C 196.635 11.0558 196.911 12.4486 197.179 13.7975C 197.212 13.9659 197.246 14.1335 197.279 14.3L 197.579 15.6L 198.879 15.3C 200.179 15 201.379 14.9 202.379 15L 202.079 14.8C 201.879 14.7 201.479 14.4 201.479 13.8C 201.379 11.9 201.779 10.3 202.779 8.5C 204.279 5.90002 206.679 4.09998 209.579 3.40002C 210.479 3.20001 211.279 3.09998 212.179 3.09998C 214.279 3.09998 216.279 3.70001 218.079 4.90002L 218.879 5.40002L 219.579 4.90002C 222.979 2.29999 227.579 2 231.279 4.09998C 234.979 6.20001 237.079 10.3 236.679 14.5L 236.579 15.4L 237.379 15.8C 239.079 16.6 240.479 17.9 241.579 19.4L 241.179 15.9L 239.279 16L 238.979 10.7L 241.079 10.6L 241.679 7.29999L 263.879 5.90002L 264.879 9.09998L 266.979 9L 267.279 14.3L 265.379 14.4L 265.379 19.3L 266.379 19.2L 266.579 37.5L 265.579 37.6L 265.679 44.6L 244.779 45.9L 243.979 38.9L 242.879 39.1L 241.979 31.2C 241.079 32.7 239.879 33.8 238.179 34.4C 237.579 34.7 237.179 34.5 236.979 34.4L 232.779 32L 218.779 47.8C 218.279 48.4 217.679 48.2 217.379 48L 212.579 45.4L 212.379 45.5L 212.779 46C 216.979 50.6 217.379 57.3 213.679 61.4C 211.679 63.6 208.879 64.8 205.779 64.8C 202.579 64.8 199.479 63.6 196.979 61.4C 197.079 61.7 197.079 62.1 197.079 62.4C 197.079 65 195.879 67.3 193.079 69.9L 189.979 72.7L 207.579 72.7C 208.179 72.7 208.779 73.4 208.779 74L 208.779 94.7ZM 142.579 26.9C 144.279 26.6 145.479 25.3 145.779 23.7C 146.279 21.2 148.179 19.3 150.579 18.8C 152.279 18.5 153.479 17.2 153.779 15.6L 154.379 12.2C 154.379 11.9 154.579 11.7 154.779 11.5C 154.979 11.4 155.179 11.3 155.379 11.3L 155.579 11.3C 156.079 11.4 156.479 11.9 156.379 12.5L 155.779 15.9C 155.579 17.1 154.979 18.2 154.179 19.1C 153.379 19.9 152.279 20.5 151.079 20.8C 149.379 21.1 148.179 22.4 147.879 24C 147.379 26.5 145.479 28.4 143.079 28.9C 141.379 29.2 140.179 30.5 139.879 32.1C 139.379 34.6 137.479 36.5 135.079 37L 131.779 37.8C 131.479 37.9 131.179 37.9 130.979 37.7C 130.679 37.5 130.579 37.3 130.479 37C 130.379 36.7 130.379 36.4 130.579 36.2C 130.779 35.9 130.979 35.8 131.279 35.7L 134.579 35C 136.279 34.7 137.479 33.4 137.779 31.8C 138.279 29.3 140.179 27.4 142.579 26.9ZM 263.379 42.6L 246.579 43.7L 245.979 38.8L 246.079 38.8L 263.379 37.7L 263.379 42.6ZM 243.579 26.1L 244.779 36.8L 264.479 35.5L 264.379 21.4L 243.279 22.7L 243.179 22.7C 243.479 23.8 243.679 25 243.579 26.1ZM 243.379 15.7L 263.279 14.5L 263.279 19.4L 243.979 20.6L 243.379 15.7ZM 262.379 8L 243.479 9.20001L 243.279 10.3L 262.679 9.09998L 262.379 8ZM 241.379 14L 241.279 12.7L 241.379 12.6L 264.979 11.3L 265.079 12.7L 264.979 12.7L 241.379 14ZM 111.179 95.2L 111.479 96.8L 112.679 95.9C 114.679 94.4 116.579 93 118.479 91.7L 117.879 87.8C 117.779 87.4 117.979 87 117.979 87L 118.379 86.8C 121.979 84.6 125.079 81.8 127.479 78.5C 127.279 78.2 127.079 78.1 127.079 78.1C 124.979 76.8 122.479 76.3 120.079 76.8C 117.679 77.3 115.579 78.7 114.279 80.8C 111.479 85.2 110.379 90.3 111.179 95.2ZM 128.979 80.7C 129.479 81.7 129.879 82.9 130.179 84.6L 130.279 85.4L 129.579 85.7C 126.879 86.7 123.879 88.2 120.779 90.2L 120.479 88.2L 121.979 87.2C 124.679 85.3 126.979 83.1 128.979 80.7ZM 113.579 97.9L 119.379 97L 118.879 94C 117.179 95.2 115.379 96.5 113.579 97.9ZM 132.879 87.7L 132.779 86.9L 133.579 86.7C 138.072 85.6217 140.304 86.562 140.783 86.7639C 140.837 86.7866 140.869 86.8 140.879 86.8C 145.079 89.6 146.279 95.3 143.579 99.5C 140.779 103.9 136.579 107.1 131.779 108.4L 130.279 108.8L 130.679 107.3C 132.479 99.6 133.179 93 132.879 87.7ZM 130.679 89L 130.679 87.6L 129.379 88.1C 126.879 89.2 124.079 90.6 121.179 92.5L 121.979 97.5C 122.079 97.7 122.079 98.1 121.879 98.4C 121.679 98.7 121.279 98.8 121.079 98.8L 112.779 100.1C 114.079 102.7 115.979 105 118.479 106.5C 119.779 107.3 121.179 108 122.679 108.4C 124.079 108.8 125.679 109 127.179 109L 127.879 109L 128.079 108.3C 129.979 100.7 130.879 94.2 130.679 89ZM 133.779 59.7C 133.779 60.8133 133.693 61.8406 133.601 62.9415L 133.579 63.2L 133.379 63.4L 133.479 63.5C 132.879 68.2 131.279 72.6 128.779 76.5C 128.479 76.2 128.279 76.1 128.179 76.1C 125.579 74.4 122.479 73.9 119.579 74.5C 116.579 75.1 114.079 76.9 112.479 79.5C 108.979 85 107.879 91.6 109.579 97.6L 109.779 98.2L 109.279 98.6L 97.779 100.5L 96.279 91.3C 96.179 90.8 95.9789 90.6 95.879 90.5L 95.379 90.4C 84.179 87.5 75.679 79.6 72.779 69.3L 71.879 66.2L 89.079 63.2L 90.079 64.7C 90.2324 64.8841 90.367 65.0588 90.4943 65.2241L 90.4951 65.2251C 90.7823 65.598 91.0327 65.923 91.379 66.2L 91.679 66.5C 91.9789 66.8 92.9789 66.8 93.279 66.5L 93.379 66.4C 93.4789 66.3 93.679 66.1 93.579 65.6L 93.079 62.7L 104.079 60.9L 105.079 62.4C 105.232 62.584 105.367 62.7587 105.494 62.9239L 105.495 62.9249C 105.782 63.2979 106.033 63.6229 106.379 63.9L 106.679 64.2C 106.779 64.3 107.079 64.4 107.479 64.4C 107.879 64.4 108.179 64.3 108.279 64.2L 108.379 64.1C 108.479 64 108.679 63.8 108.579 63.3L 108.079 60.4L 133.779 56.3L 133.779 59.7ZM 206.779 82.4L 206.779 74.7L 171.179 74.7C 169.579 75.1 167.479 75.3 164.879 74.8L 164.879 82.4L 166.579 82.5C 170.579 82.8 173.079 83.6 175.379 84.5C 177.979 85.5 180.679 86.5 185.879 86.5C 191.079 86.5 193.779 85.5 196.379 84.5L 196.658 84.4026L 196.747 84.3716C 198.939 83.606 201.292 82.7841 205.079 82.5L 206.779 82.4ZM 164.779 84.5L 166.779 84.6C 170.179 84.9 172.479 85.7 174.479 86.5L 174.732 86.5906C 177.456 87.5653 180.348 88.6 185.779 88.6C 191.21 88.6 194.102 87.5653 196.825 86.5906L 197.079 86.5C 199.179 85.7 201.379 84.9 204.879 84.6L 206.779 84.5L 206.779 94.7L 164.779 94.7L 164.779 84.5ZM 185.779 72.7L 186.679 72.1C 192.279 68.5 194.879 65.5 194.879 62.5C 194.879 59.6 192.879 58 190.879 58C 188.479 58 187.179 60.1 186.779 61.3C 186.679 61.8 186.279 62.1 185.779 62.1C 185.279 62.1 184.979 61.8 184.779 61.3C 184.179 59.8 182.879 58 180.679 58C 178.779 58 176.679 59.6 176.679 62.5C 176.679 65.5 179.279 68.6 184.879 72.1L 185.779 72.7ZM 214.279 53.2C 214.679 55.8 213.979 58.2 212.379 60C 210.779 61.8 208.479 62.7 205.879 62.7L 205.779 62.7C 203.179 62.7 200.479 61.7 198.379 59.9C 193.979 56 193.179 49.9 196.479 46.1C 199.779 42.3 206.079 42.4 210.479 46.3C 212.479 48.1 213.879 50.6 214.279 53.2ZM 209.179 38.2C 208.679 38.9 208.479 39.6 208.479 40.4C 208.479 40.4425 208.479 40.4669 208.487 40.4886C 208.497 40.5181 208.521 40.5425 208.579 40.6L 210.779 41.9C 210.796 41.8143 210.813 41.7316 210.83 41.6514C 210.91 41.263 210.979 40.9315 210.979 40.6C 210.979 39.7 210.579 38.9 209.979 38.1L 209.579 37.6L 209.179 38.2ZM 217.879 45.9L 215.379 44.5C 216.379 44.5 217.379 44.8 218.179 45.5L 217.879 45.9ZM 213.079 43.1C 215.279 42.3 217.679 42.7 219.479 44.1L 231.079 31.1L 208.479 18.4L 207.179 22.7C 206.979 23.9 206.679 25.1 206.079 26.3L 202.779 37.4L 206.679 39.6C 206.779 38.1 207.579 36.8 208.779 35.7L 209.279 35.2L 209.879 35.6C 211.679 36.8 212.679 38.6 212.679 40.6C 212.679 41.1 212.579 41.7 212.379 42.4L 212.279 42.7L 212.979 43.1L 213.079 43.1ZM 205.779 16.9L 206.279 17.2L 206.179 17.5L 206.179 17.4995C 206.079 17.2997 205.979 17.0999 205.779 16.9ZM 204.779 9.70001C 204.279 10.6 203.979 11.9 203.879 12.4L 203.679 13.4L 237.879 32.5L 238.579 31.9C 238.674 31.7733 238.839 31.5964 239.037 31.3852L 239.038 31.3836C 239.464 30.9283 240.038 30.3142 240.379 29.7C 240.979 28.6 241.279 27.5 241.379 26.3L 240.979 23L 240.679 22.1C 239.579 19.8 237.479 18.1 234.879 17.5C 234.279 17.3 233.679 16.7 233.979 16C 235.179 12.1 233.679 8 230.179 6.10004C 226.779 4.20001 222.479 4.90002 219.879 7.70001C 219.579 8 219.179 8.20001 218.879 8.20001C 218.579 8.20001 218.379 8.10004 218.079 7.80005C 216.179 6 213.479 5.10004 210.879 5.5C 208.279 5.90002 206.079 7.40002 204.779 9.70001ZM 197.679 28.6C 197.715 28.2026 197.753 27.8067 197.79 27.412L 197.79 27.4114C 198.064 24.5289 198.331 21.7145 197.979 18.9L 197.879 17.8L 198.879 17.5C 201.179 16.9 202.479 16.9 203.479 17.5C 204.479 18.1 204.779 19.2 204.979 20.1C 205.079 20.4 205.079 20.8 205.079 21.2L 203.479 26.5C 202.479 27.9 201.079 29.1 199.479 29.8L 197.479 30.7L 197.679 28.6ZM 194.679 11.7L 165.479 21.8C 165.779 22.9 165.579 24.2 164.979 25.3C 167.879 30.9 173.279 37 178.579 40.5C 179.179 41 179.879 41.2 180.579 41.2C 180.979 41.2 181.379 41.1 181.779 41L 191.479 37.6C 191.513 37.5864 191.552 37.5713 191.596 37.5546C 192.192 37.3261 193.606 36.7839 193.979 35.2C 196.379 27.8 196.279 18.7 194.979 13.1L 194.679 11.7ZM 177.379 42.2C 178.979 43.1 180.979 43.4 182.479 42.9L 192.379 39.5C 194.079 38.9 195.379 37.6 195.979 35.8C 196.079 35.4 196.179 35 196.379 34.7C 196.479 34.4 196.579 34.1 196.679 33.7L 196.879 33.1L 199.679 32.1C 200.579 31.8 201.379 31.3 202.179 30.8L 200.179 37.4C 199.979 38.2 200.379 38.6 200.679 38.7L 206.479 41.9L 205.979 41.8C 204.879 41.5 203.879 41.4 202.779 41.4C 199.679 41.4 196.779 42.6 194.879 44.8C 192.979 47 192.079 49.9 192.479 53.1C 192.579 54.2 192.879 55.3 193.379 56.3C 192.579 56 191.779 55.8 190.879 55.8C 189.379 55.8 187.979 56.3 186.879 57.4L 185.779 58.4L 184.679 57.4C 183.579 56.4 182.179 55.9 180.679 55.9C 177.179 55.9 174.479 58.8 174.479 62.5C 174.479 65.1 175.779 67.4 178.479 69.9L 181.579 72.7L 175.179 72.7L 175.279 72.6L 175.579 72.3L 175.579 71.9C 175.879 68.8 174.579 65.6 171.879 62.6C 171.716 62.4369 171.553 62.2632 171.386 62.0858C 171.042 61.7192 170.683 61.3369 170.279 61L 169.479 60.3L 170.079 59.5C 174.109 53.7994 174.081 47.2296 174.079 46.721L 174.079 46.7L 174.079 46L 173.379 45.8C 167.679 43.7 162.679 46.3 160.179 48L 159.179 48.7L 158.579 47.7L 158.578 47.6993C 158.079 46.9996 157.579 46.2999 157.079 45.8C 154.279 42.7 151.179 41.6 149.479 41.3L 163.379 27.1C 166.779 32.7 172.079 38.7 177.379 42.2ZM 142.379 44.6C 143.079 44.6 143.779 44.3 144.279 43.7L 162.379 25.1C 162.285 24.8934 162.191 24.6904 162.099 24.4903C 161.698 23.6245 161.323 22.8123 161.079 22C 160.979 21.7 160.879 21.4 161.079 21.1C 161.247 20.8475 161.486 20.7367 161.677 20.6483L 161.684 20.645L 161.689 20.6429L 161.69 20.6422C 161.721 20.6277 161.751 20.614 161.779 20.6L 162.279 20.4L 160.779 19L 139.679 40.7L 139.079 41.3L 139.679 41.9L 139.079 42.5L 140.479 43.8C 140.979 44.3 141.679 44.6 142.379 44.6ZM 160.879 71.5L 159.779 70.9L 159.579 72C 159.379 73 157.779 77.4 153.379 80.9L 152.379 81.7L 151.679 80.7C 150.279 78.7 148.079 74.4 149.479 69L 149.779 67.7L 148.479 67.7C 147.879 67.7 142.279 67.4 137.279 64L 136.179 63.2L 137.179 62.2C 139.179 60.2 142.379 57.6 146.179 57.2L 147.279 57.1L 147.179 56C 146.879 53.9 146.579 47.7 148.479 44.1L 148.879 43.3L 149.779 43.5C 151.079 43.9 153.479 44.8 155.679 47.2C 156.579 48.2 157.379 49.4 158.079 50.8L 158.679 52.1L 159.679 51.1C 159.703 51.0798 159.734 51.0535 159.771 51.0216L 159.783 51.0115C 160.7 50.2277 165.246 46.34 170.979 47.2L 172.079 47.4L 171.879 48.4C 171.579 50.9 170.679 55.8 167.179 59.7L 166.379 60.6L 167.479 61.4C 167.515 61.4291 167.555 61.4608 167.599 61.4951L 167.602 61.4977L 167.62 61.5115L 167.648 61.5336C 168.216 61.9824 169.288 62.8289 170.279 64C 171.679 65.5 173.279 67.9 173.479 70.6L 173.479 71.3L 172.879 71.7C 172.379 72 171.579 72.4 170.379 72.7L 164.879 72.7C 163.679 72.5 162.279 72.1 160.879 71.5ZM 154.779 96.7L 154.779 116.7L 216.779 116.7L 216.779 96.7L 154.779 96.7ZM 120.479 9.80005L 120.379 9.40002L 119.979 9.5C 118.679 9.70001 116.179 10.3 113.679 12L 113.379 12.2L 113.479 12.6C 114.379 15.4 114.579 18.2 114.079 20.7L 113.779 22L 114.879 21.2C 119.379 17.9 121.679 13.2 120.479 9.80005ZM 110.879 6.09998C 113.679 5.59998 116.279 5.89996 118.079 7L 119.079 7.59998L 117.879 7.89996C 116.079 8.39996 114.479 9.09998 112.979 10L 112.579 10.3L 112.379 9.79999C 112.331 9.70471 112.284 9.60388 112.235 9.50006L 112.232 9.49396C 112.076 9.16315 111.906 8.80292 111.679 8.5C 111.379 8 111.079 7.5 110.579 6.79999L 110.079 6.19995L 110.879 6.09998ZM 109.779 9.5C 106.679 4.10004 101.179 0.900024 97.279 2.20001L 96.879 2.30005L 96.9789 2.70001C 97.279 4.60004 98.4789 9.5 103.379 12.7C 107.679 15.5 109.479 19.5 110.279 22.4L 110.579 23.6L 111.179 22.6C 113.079 19.4 112.479 14.1 109.779 9.5ZM 94.3789 4.69995L 94.9789 3.59998L 95.2789 4.79999C 96.0789 7.69995 97.8789 11.7 102.179 14.5C 106.979 17.7 108.279 22.5 108.579 24.5L 108.679 24.9L 108.279 25.1C 107.679 25.3 107.079 25.4 106.479 25.4C 102.879 25.4 98.4789 22.4 95.7789 17.8C 93.0789 13.2 92.5789 8 94.3789 4.69995ZM 175.979 7.60004L 174.779 7.10004C 173.779 6.70001 173.079 5.90002 172.779 5C 172.479 4.10004 172.579 3 173.179 2.10004C 173.379 1.90002 173.779 1.70001 174.179 1.70001C 174.379 1.70001 174.579 1.70001 174.679 1.79999L 174.879 1.90002C 175.079 2 175.179 2.20001 175.279 2.40002C 175.379 2.70001 175.279 2.90002 175.179 3.10004L 174.279 4.40002L 175.679 5C 176.679 5.40002 177.379 6.20001 177.679 7.10004C 177.979 8 177.879 9.10004 177.279 10C 177.179 10.2 176.879 10.3 176.479 10.3C 176.179 10.4 175.879 10.3 175.679 10.2C 175.279 9.90002 175.179 9.10004 175.379 8.79999L 175.979 7.60004ZM 32.5789 107.1C 34.0789 107 35.4789 106.3 36.5789 105.2C 37.679 104 38.179 102.6 38.179 101.1C 38.179 99.6 37.379 98.2 36.2789 97.1C 35.0789 96 33.679 95.5 32.179 95.5C 30.679 95.6 29.2789 96.3 28.179 97.4C 25.879 99.8 26.0789 103.3 28.4789 105.5C 29.679 106.6 31.0789 107.1 32.5789 107.1ZM 32.2789 97.7C 31.379 97.7 30.4789 98.2 29.7789 98.9C 29.0789 99.6 28.679 100.5 28.879 101.5C 28.879 102.4 29.379 103.3 30.0789 104C 30.7789 104.7 31.5789 105 32.4789 105C 33.379 105 34.379 104.6 35.0789 103.8C 36.4789 102.3 36.379 100 34.879 98.7C 34.0789 98 33.179 97.7 32.2789 97.7ZM 89.579 104C 83.2789 104.5 77.379 102.2 73.379 97.7C 69.2789 93.3 67.379 87.3 68.2789 81.2C 68.4789 79.8 67.879 78.3 66.7789 77.6C 66.179 77.2 65.4789 77 64.879 77C 64.2789 77 63.679 77.2 63.179 77.5L 63.079 77.7C 57.4789 81.2 53.7789 87 52.9789 93.6C 52.179 100.1 54.2789 106.6 58.879 111.4C 63.379 116.2 69.679 118.8 76.179 118.4C 82.7789 118 88.7789 114.8 92.679 109.5C 93.579 108.4 93.679 107.1 92.9789 105.8C 92.379 104.7 90.879 103.9 89.579 104ZM 61.2789 81.7C 57.879 84.8 55.7789 88.9 55.179 93.3L 54.9789 94.4L 68.179 94.9L 67.5789 93.4C 65.3787 88.4256 65.6493 83.5428 65.7645 81.4651C 65.7697 81.3709 65.7746 81.2825 65.7789 81.2C 65.879 80.4 65.879 80.1 65.5789 79.7L 65.2789 79.4L 64.5789 79.4L 64.379 79.5C 63.179 80.2 62.179 80.9 61.2789 81.7ZM 59.5789 109.1L 58.9789 108.2C 56.5789 104.9 55.3789 101.4 55.2789 98L 55.2789 96.9L 70.0789 97.4L 71.2789 98.7L 59.5789 109.1ZM 72.0789 115.9L 73.179 116.1L 73.9789 101.5L 72.7789 100.2L 61.4789 110.8L 62.2789 111.5C 64.7789 113.7 68.2789 115.3 72.0789 115.9ZM 76.5789 116.1L 75.4789 116.2L 75.9789 102.8L 77.4789 103.7C 80.9789 105.8 85.179 106.8 89.4789 106.4L 89.4789 106.3L 90.179 106.3L 90.179 107.4L 90.879 107.9C 87.7789 112.6 82.5789 115.6 76.5789 116.1ZM 29.179 46.3L 3.97894 50.2C 3.27893 50.3 2.87896 50 2.77893 49.3L 0.17895 31.6C -0.921025 24.7 3.07897 17.6 11.379 11.6L 11.4789 11.5C 11.4789 11.4 11.679 11.4 11.7789 11.4C 11.9789 11.4 12.2789 11.5 12.4789 11.6L 18.4789 14.2L 18.9789 13.6C 19.7789 12.8 20.7789 12.3 22.079 12.1C 23.379 12 24.7789 12.3 25.879 13C 26.2789 12.1 27.179 10.6 28.9789 9.5L 30.179 8.89996L 30.379 8.79999L 30.2789 8.59998C 29.579 7.09998 28.579 4.19995 30.179 1.19995L 30.4789 0.599976L 31.079 0.699951C 31.2789 0.699951 34.879 1.19995 37.679 4L 37.879 4.19995L 38.079 4.09998C 38.2289 4.00006 38.4037 3.87518 38.5785 3.75024L 38.5798 3.74933C 38.7545 3.62457 38.9292 3.49982 39.079 3.39996C 40.9789 2.19995 42.879 1.79999 44.579 2.19995L 44.879 2.29999L 45.079 2.59998C 45.079 2.59998 47.079 5.39996 44.7789 9.89996L 44.679 10.1L 44.879 10.2C 46.179 11.1 47.9789 12.7 49.079 15.4L 49.379 16.1L 48.7789 16.3C 48.679 16.4 45.379 18.8 41.2789 17.6L 41.079 17.5L 40.9789 17.7C 40.579 19 39.579 21.3 37.579 23.2L 40.7789 24.7L 40.879 24.7C 40.9789 24.7 41.2789 25 41.2789 25.3L 43.9789 43C 43.9789 43.2 43.9789 43.5 43.7789 43.8C 43.579 44.1 43.179 44.2 42.9789 44.2L 31.679 45.9L 31.679 46C 31.7789 46.2 31.879 46.6 31.7789 46.9C 31.679 47.3 31.379 47.5 31.179 47.6C 30.4789 48 29.879 47.8 29.579 47.1L 29.179 46.3ZM 41.679 42.3L 39.9789 42.6C 39.9789 42.4001 39.8791 42.2004 39.7792 42.0005L 39.7789 42L 37.7789 37.9C 37.679 37.7 37.4789 37.4 37.0789 37.3L 36.7789 37.3C 36.5789 37.3 36.2789 37.4 36.179 37.5C 35.4789 37.8 35.2789 38.3 35.679 39L 37.5789 42.9L 30.679 44C 30.4789 43.5 30.0789 43.3 29.679 43.3C 29.4789 43.3 29.2789 43.4 29.0789 43.5C 28.8789 43.6 28.5789 43.8 28.4789 44.2L 28.4789 44.3L 4.77893 47.9L 3.77893 41.4L 40.679 35.8L 41.679 42.3ZM 29.879 11.4C 28.5789 12.3 27.879 13.4 27.5789 14L 27.4789 14.2L 27.679 14.3C 29.2789 15.5 32.4789 15.9 33.5789 15.9L 34.4789 15.9L 34.4789 16.8C 34.379 18.8 35.5789 20.7 36.2789 21.7L 36.4789 21.9L 36.679 21.7C 38.7789 19.5 39.379 16.7 39.379 16.3L 39.5789 15.2L 40.679 15.7C 43.379 16.9 45.679 16.1 46.7789 15.6L 47.0789 15.4L 46.9789 15.2C 45.379 12.4 43.0789 11.4 43.0789 11.4L 42.0789 11L 42.679 10.1C 44.5789 7.10004 44.0789 5 43.7789 4.20001L 43.679 4.10004L 43.4789 4.10004C 42.179 3.90002 40.879 4.5 39.9789 5.10004C 39.179 5.60004 38.5789 6.20001 38.379 6.40002L 37.679 7.10004L 36.9789 6.30005C 35.2789 4.20001 32.9789 3.30005 31.679 3L 31.4789 2.90002L 31.379 3.10004C 30.379 5.90002 32.179 8.70001 32.379 9L 33.0789 10.1L 31.879 10.5C 31.179 10.7 30.4789 11 29.879 11.4ZM 28.179 16.3C 29.679 16.9 31.379 17.2 32.4789 17.3L 32.679 17.3L 32.679 17.5C 32.879 19.1 33.579 20.5 34.179 21.6L 28.179 18.8L 28.2789 18C 28.379 17.4 28.2789 16.8 28.179 16.3ZM 26.0789 17C 25.7789 15.2 24.0789 13.9 22.2789 14.2C 20.679 14.4 19.2789 16.3 19.4789 18C 19.7789 19.6 21.179 20.8 22.7789 20.8L 23.2789 20.8C 25.0789 20.5 26.379 18.8 26.0789 17ZM 2.17895 28.8C 2.37896 23.8 5.67895 18.6 11.579 14.2L 12.079 13.8L 17.479 16.2L 17.379 17C 17.179 18.6 17.779 20.2 18.979 21.4C 20.179 22.6 21.979 23.1 23.579 22.9C 24.779 22.7 25.879 22.1 26.679 21.3L 27.179 20.7L 36.579 24.8L 2.07897 30.1L 2.17895 28.8ZM 39.2789 26.7L 2.47894 32.3L 3.47894 39.2L 40.379 33.6L 39.2789 26.7ZM 62.679 71.5L 61.579 66.2L 62.379 65.8C 68.179 63 69.9789 57.4 69.7789 53.2C 69.579 49.6 67.879 46.7 65.379 45.8C 62.9789 45 60.579 45.8 58.9789 46.5L 57.9789 47L 56.379 43.8C 56.279 43.6 56.079 43.3 55.679 43.2L 55.379 43.2C 55.179 43.2 54.879 43.3 54.779 43.4L 30.079 55.7C 29.9789 55.7 29.879 55.8 29.779 55.9C 27.379 54 24.179 52.6 20.579 52.6C 18.179 52.6 15.679 53.2 13.179 54.7C 9.87896 56.7 7.47894 59.9 6.47894 63.7C 5.47894 67.5 5.97894 71.5 7.97894 74.8C 9.67895 77.6 12.079 79.8 15.079 81L 15.879 81.3L 13.779 89.3L 4.07897 89.6C 3.57897 89.6 3.17895 90 3.07897 90.3C 2.97894 90.5 2.87896 91 3.37896 91.4L 12.879 100.1L 7.77899 105.7C 7.27899 106.2 7.27899 106.8 7.87896 107.2C 8.37896 107.7 8.97894 107.7 9.37896 107.1L 14.4789 101.5L 19.779 106.3L 11.879 115C 11.379 115.5 11.379 116.1 11.9789 116.5C 12.4789 117 13.079 117 13.4789 116.4L 21.379 107.7L 34.379 119.6C 34.879 120.1 35.579 120.1 36.079 119.5C 43.579 111.6 46.779 100.8 46.779 89.4C 46.779 88.7 46.179 88.3 45.4789 88.4L 16.379 89.2L 18.279 82L 19.179 82.1C 22.379 82.5 25.579 81.8 28.379 80.2C 31.379 78.4 33.679 75.5 34.779 72.1C 35.4789 70.1 35.679 68.1 35.579 66.4C 41.079 71.1 42.279 72.3 45.9789 76.7L 45.9866 76.7089C 46.584 77.4059 47.1819 78.1035 47.879 78.9C 48.279 79.4 48.779 79.5 49.379 79.2L 61.9789 72.9C 62.579 72.6 62.779 72.1 62.679 71.5ZM 44.4789 91.9L 44.4789 90.6L 15.779 91.4L 15.179 93.7C 15.079 94.1 14.9789 94.3 14.679 94.5C 14.379 94.7 14.079 94.7 13.679 94.6C 12.879 94.4 12.579 93.9 12.779 93.1L 13.179 91.5L 6.87896 91.7L 35.179 117.6L 36.079 116.5C 41.4789 109.5 44.379 101 44.4789 91.9ZM 15.2789 70.7C 17.0789 73.8 20.7789 74.8 23.879 72.9L 23.9789 72.9C 24.7789 72.5 26.7789 71 26.2789 68.2C 26.179 67.8 25.9789 67.5 25.7789 67.3C 25.5789 67.1 25.2789 67.1 25.0789 67.2L 24.879 67.2C 24.4789 67.2 24.179 67.4 23.9789 67.7C 23.879 67.9 23.7789 68.2 23.879 68.4L 23.879 68.6C 23.9789 69.9 23.179 70.4 22.5789 70.7C 21.679 71.2 20.679 71.4 19.679 71.1C 18.679 70.8 17.879 70.2 17.2789 69.3C 16.179 67.5 16.7789 65.1 18.679 64C 21.2789 62.4 24.679 62.4 27.5789 63.9C 30.379 65.4 32.0789 68 32.2789 71.2L 32.2789 71.4L 32.179 71.6C 31.2789 74.2 29.379 76.5 26.9789 77.8C 24.9789 78.9 22.879 79.5 20.679 79.5C 19.5789 79.5 18.4789 79.4 17.379 79.1C 14.2789 78.2 11.679 76.2 10.0789 73.4C 8.37896 70.5 7.87896 67.1 8.77893 63.9C 9.67895 60.8 11.679 58.2 14.4789 56.7C 20.379 53.2 27.7789 55.2 31.2789 61.1L 33.4789 64.9L 29.879 62.5C 26.0789 59.9 21.2789 59.7 17.379 62C 15.9789 62.8 14.879 64.1 14.4789 65.6C 14.179 67.4 14.379 69.2 15.2789 70.7ZM 47.579 74.7L 49.179 76.7L 60.179 71.2L 59.9789 70.4C 59.679 69.1 59.4789 68.1 59.2789 67.1C 59.2267 66.8326 59.1758 66.5737 59.1262 66.3215L 59.118 66.2798C 58.4116 62.6878 57.9652 60.4183 57.7789 53.9C 57.679 51.3 56.879 49.7 55.879 47.9C 55.779 47.75 55.704 47.6 55.629 47.4501C 55.554 47.3 55.479 47.15 55.379 47L 54.879 46L 32.179 57.3L 32.679 58.3C 32.879 58.6 33.079 58.9 33.179 59.2L 33.2828 59.4079C 34.1425 61.131 34.9561 62.7617 36.879 64.3C 42.7548 69.02 44.0842 70.5852 47.2128 74.2689L 47.579 74.7ZM 60.0027 55.7106L 60.0027 55.7098L 59.9985 55.6366L 59.9789 55.3C 59.9681 55.0947 59.9585 54.8965 59.9492 54.7035L 59.9483 54.6861C 59.8715 53.1019 59.8122 51.8774 59.2789 50.1L 58.9789 49.1L 59.9789 48.7C 61.9789 48 63.379 47.6 64.4789 48.1C 65.879 48.6 66.9789 50.2 67.2789 52.4C 67.879 56 66.4789 60.7 62.379 63.2L 60.9789 64.1L 60.679 62.5C 60.2184 59.4607 60.0973 57.3544 60.0029 55.7126L 60.0029 55.712L 60.0028 55.7113L 60.0027 55.7106ZM 45.2789 35.4C 45.4789 35.3 45.679 35.2 45.879 35.2C 46.2789 35.2 46.679 35.4 46.879 35.9L 47.879 37.9C 48.2789 38.6 48.0789 39.2 47.379 39.5C 47.179 39.6 46.7789 39.7 46.4789 39.6C 46.0789 39.5 45.879 39.2 45.7789 39L 44.7789 37C 44.4789 36.3 44.679 35.7 45.2789 35.4ZM 98.779 41.1L 61.9789 36.6C 61.179 36.6 60.579 37 60.379 37.7C 60.4789 38.5 60.879 39 61.579 39.2L 95.4789 43.3L 79.679 50.1C 79.079 50.5 78.879 51.1 78.9789 51.9C 79.379 52.4 80.079 52.6 80.879 52.4L 99.279 43.6L 119.979 46.3C 119.979 46.3 120.179 46.3 120.379 46.1C 120.679 45.9 120.779 45.6 120.779 45.4L 120.879 44.9C 120.879 44.9 120.879 44.7 120.679 44.5C 120.479 44.2 120.179 44.1 119.979 44.1L 119.679 44.1L 103.279 41.7L 125.379 31.5C 125.979 32.4 126.679 33.3 127.479 34.1L 128.179 34.8L 153.379 8.90002L 152.679 8.20001C 150.179 5.79999 147.079 4.5 143.679 4.5C 143.079 4.5 142.479 4.5 141.879 4.59998C 137.779 5.09998 133.479 7.5 129.779 11.2C 126.179 14.9 123.979 19.3 123.579 23.4C 123.379 25.5 123.579 27.4 124.279 29.3L 98.779 41.1ZM 128.279 30.7L 128.879 31.2L 131.179 28.8L 126.979 30.7L 127.579 31.3L 128.279 30.7ZM 131.179 12.8C 136.079 7.79999 143.579 4.59998 149.479 8.5L 150.279 9.09998L 134.179 25.8C 133.779 25.4 133.279 25.2 132.779 25.3L 126.079 28.4C 124.379 23.1 127.179 17 131.179 12.8ZM 223.779 11.3C 223.979 11.3 224.179 11.4 224.379 11.5C 225.779 12.3 226.779 13.5 227.179 15C 227.579 16.5 227.379 18 226.679 19.3C 226.579 19.5 226.379 19.8 226.079 19.9C 225.779 19.9 225.479 19.8 225.279 19.7C 224.679 19.3 224.579 18.8 224.879 18.2C 225.379 17.4 225.379 16.3 225.079 15.4C 224.779 14.6 224.179 13.8 223.379 13.4C 223.179 13.3 222.879 13.1 222.779 12.7C 222.779 12.4 222.879 12.1 222.979 11.9C 223.079 11.7 223.279 11.4 223.579 11.3L 223.779 11.3ZM 34.179 13.4L 36.2789 12.8L 36.2789 15.5L 38.079 15.6L 38.179 13L 40.4789 14.1L 41.2789 12.4L 38.7789 11.3L 40.179 9.5L 38.679 8.39996L 37.379 10.1L 35.9789 7.79999L 34.379 8.79999L 35.7789 11L 33.679 11.6L 34.179 13.4ZM 156.979 59.5L 160.879 56L 162.279 57.6L 158.379 61.1L 162.179 63.2L 161.179 65L 157.379 62.9L 155.979 68.1L 153.979 67.6L 155.279 62.5L 150.079 63.3L 149.779 61.2L 155.179 60.4L 153.379 56.4L 155.279 55.6L 156.979 59.5ZM 267.279 91.8L 253.179 83.3L 248.979 85.7L 248.479 85.2C 247.979 84.8 247.479 84.5 246.879 84.2L 246.079 83.9L 247.579 76.6C 247.679 76 247.279 75.4 246.679 75.3C 246.379 75.2 246.079 75.3 245.879 75.5C 245.679 75.7 245.479 75.9 245.379 76.2L 243.779 84L 243.279 84.2C 241.979 84.7 240.979 85.5 240.279 86.6L 237.979 84.4L 238.579 83.6C 242.679 77.8 242.079 70.1 237.079 65.6L 236.979 65.5C 236.5 64.9408 235.063 64.1263 233.536 63.2604C 233.151 63.0425 232.761 62.8212 232.379 62.6L 229.079 60.8C 228.579 60.7 227.979 60.8 227.679 61.1L 223.379 65.6L 221.879 60.5L 224.479 54.7C 224.579 54.5 224.779 53.7 223.879 53.3C 223.379 53.1 222.879 53 222.479 53.9L 219.579 60C 219.479 60.3 219.379 60.6 219.479 61L 221.579 67.3L 212.579 76.7C 212.279 77 212.279 77.6 212.379 78.1L 213.479 80L 213.48 80.0012C 215.34 83.0772 215.869 83.9523 216.495 84.7507C 216.745 85.0681 217.009 85.3734 217.379 85.8C 222.179 90.6 229.979 91 235.579 86.6L 236.379 86L 239.579 89.1L 239.579 89.5C 239.579 89.7 239.579 89.8 239.679 90L 239.879 90.8L 227.379 97.8L 228.179 114.3L 268.079 108.2L 267.279 91.8ZM 234.579 66.4L 228.479 63.3L 224.079 67.9L 226.279 75L 234.579 66.4ZM 222.279 69.7L 224.479 76.8L 218.079 83.5L 214.779 77.5L 222.279 69.7ZM 226.979 87.6C 230.079 87.6 233.279 86.3 235.679 83.8C 239.579 79.7 240.079 73.3 236.879 68.9L 236.079 67.8L 226.979 77.3L 228.279 81.4C 228.379 82 227.979 82.5 227.479 82.8C 226.879 82.9 226.379 82.5 226.079 82L 225.279 79L 219.679 84.9L 220.679 85.6C 222.579 86.9 224.779 87.6 226.979 87.6ZM 229.279 99.1L 237.379 94.7C 236.979 95.2 237.079 95.8 237.479 96.2C 237.511 96.2321 237.543 96.2665 237.575 96.3018L 237.575 96.3021L 237.576 96.3025L 237.576 96.3029L 237.578 96.3054L 237.579 96.3058L 237.579 96.3062L 237.579 96.3065L 237.58 96.3069L 237.582 96.3094L 237.582 96.3098L 237.583 96.3102L 237.585 96.3127L 237.586 96.3131L 237.588 96.3156L 237.59 96.3182L 237.592 96.3207L 237.595 96.3233L 237.597 96.3259L 237.597 96.3262C 237.761 96.5062 237.938 96.7 238.179 96.7C 238.479 96.7 238.779 96.3 238.879 96.1L 241.479 93.4C 242.579 94.2 243.779 94.7 245.079 94.6C 246.479 94.5 247.779 93.9 248.779 92.9C 249.779 91.8 250.279 90.5 250.179 89C 250.179 88.8 250.179 88.7 250.079 88.5L 249.879 87.7L 252.979 86L 264.979 93.2L 265.179 97.9L 229.479 103.5L 229.279 99.1ZM 229.779 105.7L 230.079 111.7L 265.779 106.3L 265.479 100.1L 229.779 105.7ZM 205.479 53.2C 205.179 53.2 204.979 53.3 204.779 53.5C 204.479 53.9 204.479 54.5 204.879 54.8C 205.079 55 205.279 55.1 205.579 55C 205.879 55 206.079 54.9 206.179 54.7C 206.279 54.5 206.379 54.3 206.379 54C 206.379 53.7 206.279 53.5 206.079 53.4C 205.879 53.2 205.679 53.2 205.479 53.2ZM 208.979 55.2C 209.179 55 209.379 54.9 209.679 54.9C 209.879 54.9 210.079 54.9 210.279 55.1C 210.679 55.5 210.679 56.1 210.379 56.4C 210.279 56.6 210.079 56.7 209.779 56.7C 209.479 56.8 209.279 56.7 209.079 56.5C 208.679 56.2 208.679 55.6 208.979 55.2ZM 254.179 23.5L 253.779 23.5C 252.279 23.6 250.879 24.3 249.879 25.4C 248.879 26.6 248.379 28 248.479 29.6C 248.579 31.1 249.279 32.5 250.379 33.5C 251.579 34.4 253.079 35 254.579 34.9C 256.079 34.8 257.479 34.1 258.479 33C 259.479 31.8 259.979 30.4 259.879 28.8C 259.779 27.3 259.079 25.9 257.979 24.9C 256.879 24 255.579 23.5 254.179 23.5ZM 254.379 32.7C 255.379 32.7 256.279 32.2 256.879 31.5C 257.479 30.8 257.879 29.9 257.779 28.9C 257.779 27.9 257.279 27 256.579 26.4C 255.879 25.8 254.979 25.4 253.979 25.5C 251.979 25.6 250.479 27.3 250.579 29.3C 250.579 30.3 251.079 31.2 251.779 31.8C 252.479 32.4 253.279 32.7 254.179 32.7L 254.379 32.7ZM 57.9789 27.2L 58.679 27.7L 57.779 30C 57.679 30.2 57.679 30.5 57.779 30.8C 57.879 31 58.079 31.3 58.679 31.4L 98.779 34.3C 98.8005 34.3 98.8254 34.3011 98.8533 34.3025L 98.8552 34.3026C 99.0876 34.3135 99.5229 34.334 99.879 33.8C 100.179 33.2 99.879 32.8 99.779 32.7L 73.579 2C 73.379 1.69995 73.079 1.59998 72.679 1.59998C 72.379 1.59998 72.079 1.89996 71.879 2.19995L 71.779 2.39996L 70.679 4L 69.879 3.69995C 68.4789 3.19995 67.079 3 65.679 3C 60.879 3 56.079 5.69995 53.679 10.3C 50.679 16.2 52.579 23.5 57.9789 27.2ZM 80.579 13.3L 72.9789 4.5L 60.379 29.4L 71.9789 30.3L 70.079 24.6C 69.879 24 70.079 23.5 70.779 23.3C 70.9789 23.2 71.279 23.2 71.579 23.3C 71.8314 23.4683 71.9423 23.7074 72.0306 23.8982L 72.034 23.9054L 72.036 23.9097L 72.0368 23.9114C 72.0512 23.9425 72.065 23.9722 72.079 24L 74.179 30.4L 96.279 32.3L 87.779 22.3L 81.579 24.3C 81.379 24.4 81.079 24.4 80.779 24.3C 80.5264 24.1316 80.4156 23.8924 80.3272 23.7017C 80.3106 23.6658 80.2948 23.6316 80.279 23.6C 80.179 23.4 80.179 23.1 80.279 22.8C 80.4472 22.5476 80.6863 22.4368 80.877 22.3484C 80.913 22.3317 80.9472 22.3159 80.9789 22.3L 86.379 20.5L 81.879 15.1L 74.879 17.4C 74.679 17.5 74.379 17.5 74.079 17.4C 73.8264 17.2316 73.7156 16.9924 73.6272 16.8016C 73.6106 16.7657 73.5948 16.7316 73.579 16.7C 73.4789 16.5 73.4789 16.2 73.579 15.9C 73.7474 15.6475 73.9866 15.5366 74.1773 15.4482C 74.2132 15.4316 74.2474 15.4158 74.279 15.4L 80.579 13.3ZM 55.579 11.4C 57.9789 6.59998 63.379 4.29999 68.679 5.59998L 69.9789 5.89996L 59.779 26.2L 58.679 25.4C 54.4789 21.9 53.179 16.2 55.579 11.4ZM 210.279 51.7C 210.279 52 210.279 52.2 210.079 52.4C 209.779 52.8 209.179 52.8 208.779 52.5C 208.379 52.1 208.279 51.5 208.679 51.2C 208.779 51 208.979 50.9 209.279 50.9L 209.379 50.9C 209.579 50.9 209.779 50.9 209.979 51.1C 210.179 51.2 210.279 51.4 210.279 51.7ZM 100.679 65.5C 100.479 65.3 100.279 65.2 100.079 65.2C 99.879 65.2 99.579 65.3 99.4789 65.5L 98.779 66.2C 97.9789 67 97.579 68.1 97.579 69.2L 97.579 69.3C 96.279 69 94.879 69.3 93.879 70.3L 90.579 73.6C 89.579 74.6 89.279 76 89.579 77.3C 88.4789 77.3 87.279 77.6 86.379 78.5L 85.679 79.2C 85.279 79.6 85.279 80.1 85.679 80.5L 90.379 85.2C 90.579 85.4 90.779 85.5 90.9789 85.5C 91.179 85.5 91.4789 85.4 91.579 85.2L 92.279 84.5C 93.179 83.6 93.579 82.4 93.579 81.3C 93.879 81.4 94.279 81.4 94.579 81.4C 95.579 81.4 96.579 81 97.379 80.3L 100.679 77C 101.579 76 101.879 74.6 101.579 73.4L 101.779 73.4C 102.879 73.4 103.979 73 104.779 72.2L 105.479 71.5C 105.679 71.1 105.679 70.5 105.379 70.2L 100.679 65.5ZM 87.579 79.9L 91.079 83.2C 91.779 82.4 91.879 81.4 91.579 80.5L 91.279 80.8C 91.179 81 90.879 81.1 90.679 81.1C 90.479 81.1 90.279 81 90.079 80.8C 89.679 80.4 89.679 79.9 90.079 79.5L 90.279 79.3C 89.379 79 88.379 79.1 87.679 79.8L 87.579 79.9ZM 99.2789 75.8L 95.9789 79.1C 95.179 79.9 93.7789 79.9 92.9789 79.1L 91.7789 77.9C 90.9789 77.1 90.9789 75.7 91.7789 74.9L 95.079 71.6C 95.4789 71.2 95.9789 71 96.579 71C 97.079 71 97.679 71.2 98.079 71.6L 99.2789 72.8C 100.079 73.6 100.079 74.9 99.2789 75.8ZM 100.879 71.2L 100.679 71.4C 101.579 71.7 102.679 71.6 103.379 70.9L 100.079 67.4L 99.9789 67.5C 99.5789 67.9 99.2789 68.6 99.2789 69.2C 99.2789 69.5 99.3789 69.8 99.4789 70.1L 99.679 69.9C 100.079 69.5 100.579 69.5 100.979 69.9C 101.279 70.2 101.279 70.8 100.879 71.2ZM 257.679 71.5L 258.979 72.3C 259.179 72.4 259.479 72.5 259.779 72.4C 260.079 72.3 260.279 72.2 260.379 71.9L 265.579 63.2C 265.679 63 265.779 62.7 265.679 62.4C 265.579 62.1 265.479 61.9 265.179 61.8L 263.879 61C 262.879 60.4 261.879 60.1 260.779 60.1C 260.279 60.1 259.779 60.2 259.279 60.3C 258.179 60.6 257.179 61.1 256.479 61.9C 256.779 61.9 257.079 62 257.379 62.1L 258.479 62.9C 258.879 62.6 259.279 62.4 259.779 62.3C 260.879 62 261.879 62.2 262.879 62.8L 263.379 63.1L 259.179 70L 258.679 69.7C 257.779 69.1 257.079 68.3 256.879 67.2C 256.779 66.7 256.779 66.3 256.779 65.8L 255.579 65.1C 255.279 64.9 255.079 64.7 254.979 64.4C 254.679 65.5 254.579 66.6 254.879 67.7C 255.279 69.3 256.279 70.6 257.679 71.5ZM 256.679 60.8C 256.779 60.3 256.779 59.8 256.679 59.3C 256.479 58.4 255.879 57.6 255.079 57.1L 248.879 53.4C 248.079 52.9 247.079 52.8 246.179 53C 245.679 53.1 245.179 53.4 244.779 53.7C 244.879 52.9 244.879 52.1 244.679 51.3L 245.579 51C 245.652 50.9854 245.722 50.9709 245.792 50.9566C 246.198 50.873 246.552 50.8 246.979 50.8C 247.979 50.8 248.979 51.1 249.879 51.6L 256.079 55.3C 257.379 56.1 258.279 57.3 258.679 58.7C 258.679 58.9144 258.708 59.1 258.734 59.2723C 258.757 59.4215 258.779 59.5607 258.779 59.7C 257.979 60 257.279 60.3 256.679 60.8ZM 243.679 54.5C 244.079 53.4 244.079 52.2 243.779 51.1C 243.379 49.5 242.379 48.2 240.979 47.3L 239.679 46.5C 239.479 46.4 239.379 46.4 239.179 46.4L 238.879 46.4C 238.579 46.5 238.379 46.6 238.279 46.9L 233.079 55.6C 232.979 55.8 232.879 56.1 232.979 56.4C 233.079 56.7 233.179 56.9 233.479 57L 234.779 57.8C 237.279 59.3 240.379 58.8 242.379 56.8L 242.179 56.8C 241.879 56.8 241.579 56.7 241.279 56.5L 240.179 55.9C 239.779 56.2 239.379 56.4 238.879 56.5C 238.579 56.6 238.179 56.6 237.879 56.6C 237.179 56.6 236.479 56.4 235.779 56L 235.279 55.7L 239.479 48.8L 239.979 49.1C 241.379 49.9 242.079 51.5 241.879 53L 242.979 53.6C 243.279 53.8 243.579 54.1 243.679 54.5ZM 248.879 67.3L 242.679 63.6C 241.379 62.8 240.479 61.6 240.079 60.1C 240.079 59.8856 240.05 59.7 240.024 59.5277C 240 59.3785 239.979 59.2393 239.979 59.1C 240.069 59.0613 240.161 59.0226 240.254 58.9835C 240.882 58.7193 241.556 58.4355 242.079 58C 241.879 59.4 242.479 60.9 243.779 61.7L 249.979 65.5C 250.479 65.8 251.179 66 251.779 66C 252.579 66 253.379 65.7 253.979 65.2C 253.879 66 253.879 66.8 254.079 67.6C 252.479 68.3 250.479 68.3 248.879 67.3ZM 242.579 54.2L 240.879 53.2C 240.679 53.1 240.579 53.1 240.379 53.1L 240.079 53.1C 239.779 53.2 239.579 53.3 239.479 53.6C 239.379 53.8 239.279 54.1 239.379 54.4C 239.479 54.7 239.579 54.9 239.879 55L 241.579 56C 241.879 56.1 242.179 56.1 242.379 56.1C 242.679 56 242.879 55.9 242.979 55.6C 243.279 55.1 243.079 54.5 242.579 54.2ZM 255.979 64.5C 255.679 64.4 255.579 64.2 255.479 63.9C 255.379 63.6 255.479 63.3 255.579 63.1C 255.779 62.8 256.079 62.6 256.479 62.6C 256.52 62.6 256.579 62.6171 256.648 62.6372C 256.745 62.6656 256.862 62.7 256.979 62.7L 258.779 63.8C 259.079 63.9 259.179 64.1 259.279 64.4C 259.379 64.7 259.279 65 259.179 65.2C 259.079 65.5 258.879 65.6 258.579 65.7C 258.279 65.8 257.979 65.7 257.779 65.6L 255.979 64.5Z"/>
</defs>
</svg>
