<svg width="269" height="121" viewBox="0 0 269 121" version="1.1" xmlns="http://www.w3.org/2000/svg" xmlns:xlink="http://www.w3.org/1999/xlink">
<g id="Canvas" transform="translate(-734 -567)">
<g id="PatternCafe Copy">
<g id="Shape">
<use xlink:href="#path0_fill" transform="translate(886.9 623.1)" fill="#3A3A3A" fill-opacity="0.870754"/>
</g>
<g id="Group">
<g id="Shape">
<use xlink:href="#path1_fill" transform="translate(864.634 578.6)" fill="#3A3A3A" fill-opacity="0.870754"/>
</g>
<g id="Shape">
<use xlink:href="#path2_fill" transform="translate(857.729 571.8)" fill="#3A3A3A" fill-opacity="0.870754"/>
</g>
<g id="Shape">
<use xlink:href="#path3_fill" transform="translate(869.7 583.3)" fill="#3A3A3A" fill-opacity="0.870754"/>
</g>
<g id="Shape">
<use xlink:href="#path4_fill" transform="translate(895.185 576.4)" fill="#3A3A3A" fill-opacity="0.870754"/>
</g>
<g id="Shape">
<use xlink:href="#path5_fill" transform="translate(906.836 569)" fill="#3A3A3A" fill-opacity="0.870754"/>
</g>
</g>
<g id="Shape">
<use xlink:href="#path6_fill" transform="translate(825.448 567.3)" fill="#3A3A3A" fill-opacity="0.870754"/>
</g>
<g id="Group">
<g id="Shape">
<use xlink:href="#path7_fill" transform="translate(737.218 655.685)" fill="#3A3A3A" fill-opacity="0.870754"/>
</g>
<g id="Shape">
<use xlink:href="#path8_fill" transform="translate(760.783 662.8)" fill="#3A3A3A" fill-opacity="0.870754"/>
</g>
</g>
<g id="Shape">
<use xlink:href="#path9_fill" transform="translate(734.221 578.7)" fill="#3A3A3A" fill-opacity="0.870754"/>
</g>
<g id="Shape">
<use xlink:href="#path10_fill" transform="translate(740.2 619.9)" fill="#3A3A3A" fill-opacity="0.870754"/>
</g>
<g id="Shape">
<use xlink:href="#path11_fill" transform="translate(787.033 644.3)" fill="#3A3A3A" fill-opacity="0.870754"/>
</g>
<g id="Shape">
<use xlink:href="#path12_fill" transform="translate(946.54 620.465)" fill="#3A3A3A" fill-opacity="0.870754"/>
</g>
<g id="Group">
<g id="Shape">
<use xlink:href="#path13_fill" transform="translate(763.596 610.5)" fill="#3A3A3A" fill-opacity="0.870754"/>
</g>
<g id="Shape">
<use xlink:href="#path14_fill" transform="translate(762.659 610.6)" fill="#3A3A3A" fill-opacity="0.870754"/>
</g>
<g id="Shape">
<use xlink:href="#path15_fill" transform="translate(769.696 604.6)" fill="#3A3A3A" fill-opacity="0.870754"/>
</g>
<g id="Shape">
<use xlink:href="#path16_fill" transform="translate(778.862 602.5)" fill="#3A3A3A" fill-opacity="0.870754"/>
</g>
</g>
<g id="Group">
<g id="Shape">
<use xlink:href="#path17_fill" transform="translate(803.834 618.381)" fill="#3A3A3A" fill-opacity="0.870754"/>
</g>
<g id="Shape">
<use xlink:href="#path18_fill" transform="translate(794.6 592.575)" fill="#3A3A3A" fill-opacity="0.870754"/>
</g>
</g>
<g id="Group">
<g id="Shape">
<use xlink:href="#path19_fill" transform="translate(934.346 570.013)" fill="#3A3A3A" fill-opacity="0.870754"/>
</g>
<g id="Shape">
<use xlink:href="#path20_fill" transform="translate(957 578.6)" fill="#3A3A3A" fill-opacity="0.870754"/>
</g>
</g>
<g id="Shape">
<use xlink:href="#path21_fill" transform="translate(839.711 641.557)" fill="#3A3A3A" fill-opacity="0.870754"/>
</g>
<g id="Group">
<g id="Shape">
<use xlink:href="#path22_fill" transform="translate(759.7 567.9)" fill="#3A3A3A" fill-opacity="0.870754"/>
</g>
<g id="Shape">
<use xlink:href="#path23_fill" transform="translate(767.9 575.1)" fill="#3A3A3A" fill-opacity="0.870754"/>
</g>
</g>
<g id="Group">
<g id="Shape">
<use xlink:href="#path24_fill" transform="translate(867.6 608.4)" fill="#3A3A3A" fill-opacity="0.870754"/>
</g>
<g id="Shape">
<use xlink:href="#path25_fill" transform="translate(884 622.9)" fill="#3A3A3A" fill-opacity="0.870754"/>
</g>
</g>
<g id="Shape">
<use xlink:href="#path26_fill" transform="translate(961.6 642.561)" fill="#3A3A3A" fill-opacity="0.870754"/>
</g>
<g id="Group">
<g id="Shape">
<use xlink:href="#path27_fill" transform="translate(926.607 602.5)" fill="#3A3A3A" fill-opacity="0.870754"/>
</g>
<g id="Shape">
<use xlink:href="#path28_fill" transform="translate(942.645 618.2)" fill="#3A3A3A" fill-opacity="0.870754"/>
</g>
<g id="Shape">
<use xlink:href="#path29_fill" transform="translate(942.986 622.2)" fill="#3A3A3A" fill-opacity="0.870754"/>
</g>
<g id="Shape">
<use xlink:href="#path30_fill" transform="translate(938.786 620.5)" fill="#3A3A3A" fill-opacity="0.870754"/>
</g>
</g>
<g id="Shape">
<use xlink:href="#path31_fill" transform="translate(786.479 568.9)" fill="#3A3A3A" fill-opacity="0.870754"/>
</g>
<g id="Group">
<g id="Shape">
<use xlink:href="#path32_fill" transform="translate(982.687 590.8)" fill="#3A3A3A" fill-opacity="0.870754"/>
</g>
<g id="Shape">
<use xlink:href="#path33_fill" transform="translate(973.2 573.2)" fill="#3A3A3A" fill-opacity="0.870754"/>
</g>
</g>
<g id="Group">
<g id="Shape">
<use xlink:href="#path34_fill" transform="translate(823.675 636.475)" fill="#3A3A3A" fill-opacity="0.870754"/>
</g>
<g id="Shape">
<use xlink:href="#path35_fill" transform="translate(831.8 632.5)" fill="#3A3A3A" fill-opacity="0.870754"/>
</g>
<g id="Shape">
<use xlink:href="#path36_fill" transform="translate(819.6 644.6)" fill="#3A3A3A" fill-opacity="0.870754"/>
</g>
<g id="Shape">
<use xlink:href="#path37_fill" transform="translate(832.6 636.9)" fill="#3A3A3A" fill-opacity="0.870754"/>
</g>
<g id="Shape">
<use xlink:href="#path38_fill" transform="translate(824 645.6)" fill="#3A3A3A" fill-opacity="0.870754"/>
</g>
</g>
<g id="Group">
<g id="Shape">
<use xlink:href="#path39_fill" transform="translate(974.2 625.3)" fill="#3A3A3A" fill-opacity="0.870754"/>
</g>
<g id="Shape">
<use xlink:href="#path40_fill" transform="translate(978.9 618.1)" fill="#3A3A3A" fill-opacity="0.870754"/>
</g>
<g id="Shape">
<use xlink:href="#path41_fill" transform="translate(988.919 627.4)" fill="#3A3A3A" fill-opacity="0.870754"/>
</g>
<g id="Shape">
<use xlink:href="#path42_fill" transform="translate(967.159 613.7)" fill="#3A3A3A" fill-opacity="0.870754"/>
</g>
<g id="Shape">
<use xlink:href="#path43_fill" transform="translate(989.659 629.9)" fill="#3A3A3A" fill-opacity="0.870754"/>
</g>
<g id="Shape">
<use xlink:href="#path44_fill" transform="translate(973.559 620.4)" fill="#3A3A3A" fill-opacity="0.870754"/>
</g>
</g>
</g>
</g>
<defs>
<path id="path0_fill" fill-rule="evenodd" d="M 65.2 38.9L 56.1 38.9L 56.1 18.2C 56.1 17.6 55.5 16.9 54.9 16.9L 37.3 16.9L 40.4 14.1C 43.2 11.5 44.4 9.20001 44.4 6.59998C 44.4 2.90002 41.7 0 38.2 0C 36.7 0 35.3 0.5 34.2 1.59998L 33.1 2.59998L 32 1.59998C 30.9 0.599976 29.5 0.0999756 28 0.0999756C 24.5 0.0999756 21.8 3 21.8 6.70001C 21.8 9.29999 23.1 11.6 25.8 14.1L 28.9 16.9L 11.3 16.9C 10.7 16.9 10 17.6 10 18.2L 10 38.9L 1 38.9C 0.400024 38.9 0 39.3 0 39.9L 0 61.6C 0 62.2 0.400024 62.8 1 62.8L 65.2 62.8C 65.8 62.8 66.1 62.2 66.1 61.6L 66.1 39.9C 66.1 39.3 65.8 38.9 65.2 38.9ZM 24 6.70001C 24 3.79999 26.1 2.20001 28 2.20001C 30.2 2.20001 31.5 4 32.1 5.5C 32.3 6 32.6 6.29999 33.1 6.29999C 33.6 6.29999 34 6 34.1 5.5C 34.5 4.29999 35.8 2.20001 38.2 2.20001C 40.2 2.20001 42.2 3.79999 42.2 6.70001C 42.2 9.70001 39.6 12.7 34 16.3L 33.1 16.9L 32.2 16.3C 26.6 12.8 24 9.70001 24 6.70001ZM 54.1 18.9L 12.2 18.9L 12.2 26.6L 13.9 26.7C 17.9 27 20.4 27.8 22.7 28.7C 25.3 29.7 28 30.7 33.2 30.7C 38.4 30.7 41.1 29.7 43.7 28.7C 43.8223 28.6575 43.945 28.6146 44.0682 28.5716L 44.0686 28.5714C 46.2603 27.8058 48.613 26.984 52.4 26.7L 54.1 26.6L 54.1 18.9ZM 12.1 28.7L 14.1 28.8C 17.5 29.1 19.8 29.9 21.8 30.7L 22.0534 30.7906C 24.7772 31.7653 27.6687 32.8 33.1 32.8C 38.5312 32.8 41.4228 31.7653 44.1465 30.7906L 44.4 30.7C 46.5 29.9 48.7 29.1 52.2 28.8L 54.1 28.7L 54.1 38.9L 12.1 38.9L 12.1 28.7ZM 2.09998 40.9L 2.09998 60.9L 64.1 60.9L 64.1 40.9L 2.09998 40.9Z"/>
<path id="path1_fill" d="M 4.66569 25.7C 7.06569 25.2 8.96569 23.3 9.46569 20.8C 9.76569 19.2 10.9657 17.9 12.6657 17.6C 15.0657 17.1 16.9657 15.2 17.4657 12.7C 17.7657 11.1 18.9657 9.8 20.6657 9.5C 21.8657 9.2 22.9657 8.6 23.7657 7.8C 24.5657 6.9 25.1657 5.8 25.3657 4.6L 25.9657 1.2C 26.0657 0.6 25.6657 0.1 25.1657 0C 25.0657 0 25.0657 0 24.9657 0C 24.7657 0 24.5657 0.1 24.3657 0.2C 24.1657 0.4 23.9657 0.6 23.9657 0.9L 23.3657 4.3C 23.0657 5.9 21.8657 7.2 20.1657 7.5C 17.7657 8 15.8657 9.9 15.3657 12.4C 15.0657 14 13.8657 15.3 12.1657 15.6C 9.76569 16.1 7.86569 18 7.36569 20.5C 7.06569 22.1 5.86569 23.4 4.16569 23.7L 0.865685 24.4C 0.565685 24.5 0.365685 24.6 0.165685 24.9C -0.0343146 25.1 -0.0343146 25.4 0.0656854 25.7C 0.165685 26 0.265685 26.2 0.565685 26.4C 0.765685 26.6 1.06569 26.6 1.36569 26.5L 4.66569 25.7Z"/>
<path id="path2_fill" fill-rule="evenodd" d="M 20.1706 0C 23.5706 0 26.6706 1.29999 29.1706 3.70001L 29.8706 4.40002L 4.67059 30.3L 3.97058 29.6C 0.970581 26.8 -0.329407 23 0.0706177 18.9C 0.470581 14.8 2.67059 10.4 6.27057 6.70001C 9.97058 3 14.2706 0.599976 18.3706 0.0999756C 18.9706 0 19.5706 0 20.1706 0ZM 4.77057 26.2L 5.37061 26.7L 26.7706 4.59998L 25.9706 4C 20.0706 0.0999756 12.5706 3.29999 7.67059 8.29999C 3.07056 13.1 0.0705566 20.4 3.57056 26.1L 3.47058 26.2L 4.07056 26.8L 4.77057 26.2Z"/>
<path id="path3_fill" fill-rule="evenodd" d="M 28.7 3.40002C 30.6 5.20001 30.7 8.29999 28.8 10.2L 10.3 29.1C 8.5 31 5.40002 31.1 3.5 29.2L 2.90002 28.7L 0 25.9L 25.2 0L 28.7 3.40002ZM 5 27.8C 5.5 28.3 6.19995 28.6 6.89996 28.6C 7.59998 28.6 8.29999 28.3 8.79999 27.7L 27.3 8.70001C 27.8 8.20001 28.1 7.5 28.1 6.79999C 28.1 6.09998 27.8 5.40002 27.3 4.90002L 25.3 3L 4.19995 24.7L 3.59998 25.3L 4.19995 25.9L 3.59998 26.5L 5 27.8Z"/>
<path id="path4_fill" fill-rule="evenodd" d="M 46.0154 10.5C 45.6155 8.70001 44.7155 7.29999 43.5154 6.59998C 42.1155 5.70001 40.2155 5.59998 37.9155 6.20001L 36.6155 6.5L 36.3155 5.20001L 36.2319 4.78015L 36.2155 4.69733C 35.9476 3.34845 35.6711 1.95569 35.3155 0.799988C 35.3007 0.770447 35.2859 0.738647 35.2705 0.705383L 35.2672 0.698181C 35.1788 0.507385 35.0679 0.268311 34.8155 0.0999756C 34.7155 0 34.5154 0 34.4155 0C 34.2155 0 34.1155 0 33.9155 0.0999756L 0.815491 11.5C 0.783875 11.5158 0.749756 11.5316 0.713928 11.5482C 0.523132 11.6366 0.283875 11.7474 0.115479 12C -0.0845337 12.3 0.0154419 12.6 0.115479 12.9C 2.51544 19.8 9.51544 28.5 16.4155 33.1C 18.0154 34 20.0154 34.3 21.5154 33.8L 31.4155 30.4C 33.1155 29.8 34.4155 28.5 35.0154 26.7C 35.1155 26.3 35.2155 25.9 35.4155 25.6L 35.416 25.5983C 35.5158 25.2989 35.6157 24.9993 35.7155 24.6L 35.9155 24L 38.7155 23C 43.8155 21.2 47.1155 15.5 46.0154 10.5ZM 33.0154 26.1C 32.6428 27.6838 31.2285 28.2261 30.6326 28.4545C 30.5889 28.4713 30.5496 28.4863 30.5154 28.5L 20.8154 31.9C 20.4155 32 20.0154 32.1 19.6155 32.1C 18.9155 32.1 18.2155 31.9 17.6155 31.4C 11.8154 27.5 5.81543 20.6 3.21545 14.5L 2.71545 13.3L 33.7155 2.59998L 34.0154 4C 35.3154 9.59998 35.4155 18.7 33.0154 26.1ZM 36.7155 19.5L 36.5154 21.6L 38.5154 20.7C 42.3154 19.1 44.7155 14.8 44.0154 11C 43.8154 10.1 43.5154 9 42.5154 8.40002C 41.5154 7.79999 40.2155 7.79999 37.9155 8.40002L 36.9155 8.70001L 37.0154 9.79999C 37.3673 12.6147 37.1002 15.4294 36.8266 18.3121C 36.7891 18.7067 36.7516 19.1027 36.7155 19.5Z"/>
<path id="path5_fill" d="M 4.66382 8.3C 5.26382 7.4 5.36382 6.3 5.06382 5.4C 4.76382 4.5 4.06382 3.7 3.06382 3.3L 1.66382 2.7L 2.56382 1.4C 2.66382 1.2 2.76382 1 2.66382 0.7C 2.56382 0.5 2.46382 0.3 2.26382 0.2L 2.06382 0.1C 1.96382 0 1.76382 0 1.56382 0C 1.16382 0 0.763816 0.2 0.563816 0.4C -0.036184 1.3 -0.136184 2.4 0.163816 3.3C 0.463816 4.2 1.16382 5 2.16382 5.4L 3.36382 5.9L 2.76382 7.1C 2.56382 7.4 2.66382 8.2 3.06382 8.5C 3.26382 8.6 3.56382 8.7 3.86382 8.6C 4.26382 8.6 4.56382 8.5 4.66382 8.3Z"/>
<path id="path6_fill" fill-rule="evenodd" d="M 30.6524 16.2C 32.0524 13.2 32.0524 10.2 30.6524 7.90002C 28.4524 4.20001 23.3524 2.90002 17.6524 4.5L 17.3524 4.59998L 17.1524 4.40002C 14.2524 1.5 11.0524 0 8.05237 0C 6.6524 0 5.35242 0.299988 4.1524 1C 1.75238 2.40002 0.352417 5 0.0523682 8.29999C -0.24762 11.7 0.75238 15.5 2.75238 19C 6.95239 26.2 14.0524 29.5 19.0524 26.6C 19.1689 26.5126 19.294 26.4251 19.4226 26.3352C 19.7354 26.1166 20.069 25.8834 20.3524 25.6L 20.8524 25.2L 20.9524 25.4C 21.6524 25.1 22.3524 24.7 23.0524 24.3C 26.4524 22.1 29.1524 19.2 30.6524 16.2ZM 17.0524 25.1C 16.4524 25.3 15.8524 25.4 15.2524 25.4C 11.6523 25.4 7.25238 22.4 4.55237 17.8C 1.85236 13.2 1.35236 8 3.15234 4.69995L 3.75238 3.59998L 4.05237 4.79999C 4.85236 7.69995 6.65234 11.7 10.9524 14.5C 15.7524 17.7 17.0524 22.5 17.3524 24.5L 17.4524 24.9L 17.0524 25.1ZM 19.3524 23.6L 19.9524 22.6C 21.8524 19.4 21.2524 14.1 18.5524 9.5C 15.4524 4.10004 9.95239 0.900024 6.05243 2.20001L 5.6524 2.30005L 5.75238 2.70001C 6.05243 4.60004 7.25238 9.5 12.1524 12.7C 16.4524 15.5 18.2524 19.5 19.0524 22.4L 19.3524 23.6ZM 21.3524 10.3L 21.1524 9.79999C 21.1048 9.70471 21.0572 9.60388 21.0082 9.50006L 21.0054 9.49396C 20.8494 9.16315 20.6796 8.80292 20.4524 8.5C 20.1524 8 19.8524 7.5 19.3524 6.79999L 18.8524 6.19995L 19.6524 6.09998C 22.4524 5.59998 25.0524 5.89996 26.8524 7L 27.8524 7.59998L 26.6524 7.89996C 24.8524 8.39996 23.2524 9.09998 21.7524 10L 21.3524 10.3ZM 22.5524 22L 23.6524 21.2C 28.1524 17.9 30.4524 13.2 29.2524 9.80005L 29.1524 9.40002L 28.7524 9.5C 27.4524 9.70001 24.9524 10.3 22.4524 12L 22.1524 12.2L 22.2524 12.6C 23.1524 15.4 23.3524 18.2 22.8524 20.7L 22.5524 22Z"/>
<path id="path7_fill" fill-rule="evenodd" d="M 42.4816 0.0151978C 43.1816 -0.0847778 43.7817 0.315186 43.7817 1.0152C 43.7817 12.4152 40.5817 23.2152 33.0817 31.1152C 32.5817 31.7152 31.8817 31.7152 31.3817 31.2152L 18.3817 19.3152L 10.4816 28.0152C 10.0817 28.6152 9.48163 28.6152 8.98163 28.1152C 8.38165 27.7152 8.38165 27.1152 8.88165 26.6152L 16.7817 17.9152L 11.4816 13.1152L 6.38165 18.7152C 5.98163 19.3152 5.38165 19.3152 4.88165 18.8152C 4.28168 18.4152 4.28168 17.8152 4.78168 17.3152L 9.88165 11.7152L 0.381653 3.0152C -0.118347 2.61523 -0.0183716 2.11523 0.081665 1.91522C 0.181641 1.61523 0.581665 1.21521 1.08167 1.21521L 42.4816 0.0151978ZM 3.88165 3.31519L 32.1816 29.2152L 33.0817 28.1152C 38.4816 21.1152 41.3817 12.6152 41.4816 3.5152L 41.4816 2.21521L 3.88165 3.31519Z"/>
<path id="path8_fill" fill-rule="evenodd" d="M 6.01746 11.6C 4.51746 11.6 3.11749 11.1 1.91748 10C -0.482544 7.79999 -0.682495 4.29999 1.61749 1.90002C 2.71747 0.799988 4.11749 0.0999756 5.61749 0C 7.11749 0 8.51746 0.5 9.71747 1.59998C 10.8175 2.70001 11.6175 4.09998 11.6175 5.59998C 11.6175 7.09998 11.1175 8.5 10.0175 9.70001C 8.91748 10.8 7.51746 11.5 6.01746 11.6ZM 5.71747 2.20001C 4.8175 2.20001 3.91748 2.70001 3.21747 3.40002C 2.51746 4.10004 2.11749 5 2.3175 6C 2.3175 6.90002 2.8175 7.79999 3.51746 8.5C 4.21747 9.20001 5.01746 9.5 5.91748 9.5C 6.8175 9.5 7.8175 9.10004 8.51746 8.29999C 9.91748 6.79999 9.8175 4.5 8.3175 3.20001C 7.51746 2.5 6.61749 2.20001 5.71747 2.20001Z"/>
<path id="path9_fill" fill-rule="evenodd" d="M 41.2789 13.9C 41.2789 13.6 40.9789 13.3 40.879 13.3L 40.7789 13.3L 28.179 7.40002L 28.2789 6.59998C 28.4789 5 27.879 3.29999 26.679 2.20001C 25.4789 1 23.679 0.5 22.079 0.700012C 20.7789 0.900024 19.7789 1.40002 18.9789 2.20001L 18.4789 2.79999L 12.4789 0.200012C 12.2789 0.0999756 11.9789 0 11.7789 0C 11.679 0 11.4789 0 11.4789 0.0999756L 11.379 0.200012C 3.07898 6.20001 -0.921021 13.3 0.178955 20.2L 2.77893 37.9C 2.87897 38.6 3.27893 38.9 3.97894 38.8L 42.9789 32.8C 43.179 32.8 43.579 32.7 43.7789 32.4C 43.9789 32.1 43.9789 31.8 43.9789 31.6L 41.2789 13.9ZM 22.2789 2.79999C 24.0789 2.5 25.7789 3.79999 26.0789 5.59998C 26.379 7.39996 25.0789 9.09998 23.2789 9.39996L 22.7789 9.39996C 21.179 9.39996 19.7789 8.19995 19.4789 6.59998C 19.2789 4.89996 20.679 3 22.2789 2.79999ZM 11.579 2.80005C 5.67896 7.20001 2.37897 12.4 2.17896 17.4L 2.07898 18.7L 36.579 13.4L 27.179 9.30005L 26.679 9.90002C 25.879 10.7 24.779 11.3 23.579 11.5C 21.979 11.7 20.179 11.2 18.979 10C 17.779 8.80005 17.179 7.20001 17.379 5.60004L 17.479 4.80005L 12.079 2.40002L 11.579 2.80005ZM 2.47894 20.9L 39.2789 15.3L 40.379 22.2L 3.47894 27.8L 2.47894 20.9ZM 3.77893 30L 4.77893 36.5L 41.679 30.9L 40.679 24.4L 3.77893 30Z"/>
<path id="path10_fill" fill-rule="evenodd" d="M 14.6 0C 18.4 0 21.7 1.5 24.1 3.5C 28 6.59998 31.2 12.4 28.8 19.5C 27.7 22.9 25.4 25.8 22.4 27.6C 19.6 29.2 16.4 29.9 13.2 29.5L 12.3 29.4L 9.20001 41.1C 9.09998 41.5 9 41.7 8.70001 41.9C 8.40002 42.1 8.09998 42.1 7.70001 42C 6.90002 41.8 6.59998 41.3 6.79999 40.5L 9.90002 28.7L 9.09998 28.4C 6.09998 27.2 3.70001 25 2 22.2C 0 18.9 -0.5 14.9 0.5 11.1C 1.5 7.29999 3.90002 4.09998 7.20001 2.09998C 9.70001 0.599976 12.2 0 14.6 0ZM 17.9 20.3C 14.8 22.2 11.1 21.2 9.29999 18.1C 8.40002 16.6 8.20001 14.8 8.5 13C 8.90002 11.5 10 10.2 11.4 9.40002C 15.3 7.10004 20.1 7.30005 23.9 9.90002L 27.5 12.3L 25.3 8.5C 21.8 2.60004 14.4 0.600037 8.5 4.10004C 5.70001 5.60004 3.70001 8.20001 2.79999 11.3C 1.90002 14.5 2.40002 17.9 4.09998 20.8C 5.70001 23.6 8.29999 25.6 11.4 26.5C 12.5 26.8 13.6 26.9 14.7 26.9C 16.9 26.9 19 26.3 21 25.2C 23.4 23.9 25.3 21.6 26.2 19L 26.3 18.8L 26.3 18.6C 26.1 15.4 24.4 12.8 21.6 11.3C 18.7 9.80005 15.3 9.80005 12.7 11.4C 10.8 12.5 10.2 14.9 11.3 16.7C 11.9 17.6 12.7 18.2 13.7 18.5C 14.7 18.8 15.7 18.6 16.6 18.1C 17.2 17.8 18 17.3 17.9 16L 17.9 15.8C 17.8 15.6 17.9 15.3 18 15.1C 18.2 14.8 18.5 14.6 18.9 14.6L 19.1 14.6C 19.3 14.5 19.6 14.5 19.8 14.7C 20 14.9 20.2 15.2 20.3 15.6C 20.8 18.4 18.8 19.9 18 20.3L 17.9 20.3Z"/>
<path id="path11_fill" fill-rule="evenodd" d="M 36.7666 27C 30.4666 27.5 24.5666 25.2 20.5666 20.7C 16.4666 16.3 14.5666 10.3 15.4666 4.20001C 15.6666 2.79999 15.0666 1.29999 13.9666 0.599976C 13.3666 0.200012 12.6666 0 12.0666 0C 11.4666 0 10.8666 0.200012 10.3666 0.5L 10.2666 0.700012C 4.66656 4.20001 0.966553 10 0.166565 16.6C -0.633423 23.1 1.46655 29.6 6.06659 34.4C 10.5666 39.2 16.8666 41.8 23.3666 41.4C 29.9666 41 35.9666 37.8 39.8666 32.5C 40.7666 31.4 40.8666 30.1 40.1666 28.8C 39.5666 27.7 38.0666 26.9 36.7666 27ZM 2.36658 16.3C 2.96655 11.9 5.06659 7.80005 8.46655 4.70001C 9.36658 3.90002 10.3666 3.20001 11.5666 2.5L 11.7665 2.40002L 12.4666 2.40002L 12.7665 2.70001C 13.0666 3.10004 13.0666 3.40002 12.9666 4.20001C 12.9622 4.28247 12.9573 4.37091 12.9521 4.46515C 12.837 6.54279 12.5663 11.4256 14.7665 16.4L 15.3666 17.9L 2.16656 17.4L 2.36658 16.3ZM 6.16656 31.2L 6.76654 32.1L 18.4666 21.7L 17.2665 20.4L 2.46655 19.9L 2.46655 21C 2.56653 24.4 3.76654 27.9 6.16656 31.2ZM 20.3666 39.1L 19.2665 38.9C 15.4666 38.3 11.9666 36.7 9.46655 34.5L 8.66656 33.8L 19.9666 23.2L 21.1666 24.5L 20.3666 39.1ZM 22.6666 39.2L 23.7665 39.1C 29.7665 38.6 34.9666 35.6 38.0666 30.9L 37.3666 30.4L 37.3666 29.3L 36.6666 29.3L 36.6666 29.4C 32.3666 29.8 28.1666 28.8 24.6666 26.7L 23.1666 25.8L 22.6666 39.2Z"/>
<path id="path12_fill" fill-rule="evenodd" d="M 35.8598 32.6354C 35.9598 33.0353 35.7598 33.2354 35.5598 33.4354L 26.5598 42.9354C 26.4598 43.1354 26.1598 43.5353 25.8598 43.5353C 25.6187 43.5353 25.4421 43.3415 25.2783 43.1616L 25.2776 43.1608C 25.2378 43.1171 25.1988 43.0743 25.1598 43.0353C 24.6598 42.5353 24.6598 41.8353 25.1598 41.3353L 28.8598 37.4354L 24.0598 32.8353L 23.2598 33.4354C 17.6598 37.8353 9.8598 37.4354 5.05981 32.6354C 4.69006 32.2087 4.42548 31.9034 4.17633 31.5861C 3.54956 30.7876 3.02045 29.9125 1.16052 26.8365L 1.15979 26.8353L 0.0598145 24.9354C -0.0402222 24.4354 -0.0402222 23.8353 0.259827 23.5353L 9.25983 14.1354L 7.15979 7.83533C 7.05981 7.43536 7.15979 7.13538 7.25983 6.83533L 10.1598 0.735352C 10.5598 -0.164673 11.0598 -0.0646362 11.5598 0.135376C 12.4598 0.535339 12.2598 1.33533 12.1598 1.53534L 9.55981 7.33533L 11.0598 12.4354L 15.3598 7.93536C 15.6598 7.63538 16.2598 7.53534 16.7598 7.63538L 20.0598 9.43536C 20.4419 9.65656 20.8321 9.87781 21.2166 10.0958C 22.7438 10.9616 24.1805 11.7761 24.6598 12.3353L 24.7598 12.4354C 29.7598 16.9354 30.3598 24.6354 26.2598 30.4354L 25.6598 31.2354L 30.3598 35.7354L 34.0598 31.8353C 34.1598 31.6354 34.4598 31.4354 34.7598 31.4354C 35.0598 31.4354 35.2598 31.6354 35.4598 31.8353C 35.6598 32.0353 35.8598 32.3353 35.8598 32.6354ZM 22.2598 13.2354L 16.1599 10.1354L 11.7598 14.7354L 13.9598 21.8354L 22.2598 13.2354ZM 2.45978 24.3353L 9.95978 16.5353L 12.1598 23.6353L 5.75977 30.3353L 2.45978 24.3353ZM 14.6598 34.4354C 17.7598 34.4354 20.9598 33.1354 23.3598 30.6354C 27.2598 26.5354 27.7598 20.1354 24.5598 15.7354L 23.7598 14.6354L 14.6598 24.1354L 15.9598 28.2354C 16.0598 28.8354 15.6598 29.3354 15.1598 29.6354C 14.5598 29.7354 14.0598 29.3354 13.7598 28.8354L 12.9598 25.8354L 7.3598 31.7354L 8.3598 32.4354C 10.2598 33.7354 12.4598 34.4354 14.6598 34.4354Z"/>
<path id="path13_fill" fill-rule="evenodd" d="M 40.4039 10C 40.2039 6.40002 38.5038 3.5 36.0038 2.59998C 33.6039 1.79999 31.2039 2.59998 29.6039 3.29999L 28.6039 3.79999L 27.0038 0.599976C 26.9039 0.400024 26.7039 0.0999756 26.3039 0L 26.0038 0C 25.8039 0 25.5038 0.0999756 25.4039 0.200012L 0.703857 12.5C 0.00384521 12.8 -0.196106 13.4 0.203857 14.1L 0.90387 15.5L 1.0636 15.8197C 2.57294 18.8416 3.58807 20.8741 6.00385 23C 11.7039 27.8 12.8039 29 16.6039 33.5C 17.2039 34.2 17.8039 34.9 18.5038 35.7C 18.9039 36.2 19.4039 36.3 20.0038 36L 32.6039 29.7C 33.2039 29.4 33.4039 28.9 33.3039 28.3L 32.2039 23L 33.0038 22.6C 38.8039 19.8 40.6039 14.2 40.4039 10ZM 19.8039 33.5L 18.2039 31.5L 17.8377 31.0689C 14.7091 27.3852 13.3798 25.8199 7.50391 21.1C 5.58105 19.5617 4.76746 17.931 3.90771 16.2079L 3.80389 16C 3.70392 15.7 3.50391 15.4 3.30389 15.1L 2.80389 14.1L 25.5039 2.79999L 26.0039 3.79999C 26.1039 3.95001 26.179 4.10004 26.254 4.25006C 26.3289 4.40002 26.4039 4.54999 26.5039 4.70001C 27.5039 6.5 28.3039 8.09998 28.4039 10.7C 28.5901 17.2183 29.0365 19.4878 29.743 23.0798L 29.7512 23.1215C 29.8008 23.3737 29.8517 23.6326 29.9039 23.9C 30.1039 24.9 30.3039 25.9 30.6039 27.2L 30.8039 28L 19.8039 33.5ZM 31.6039 20.9L 33.0039 20C 37.1039 17.5 38.5039 12.8 37.9039 9.19995C 37.6039 7 36.5039 5.39996 35.1039 4.89996C 34.0039 4.39996 32.6039 4.79999 30.6039 5.5L 29.6039 5.89996L 29.9039 6.89996C 30.4371 8.67737 30.4965 9.90192 30.5732 11.4861C 30.5829 11.6845 30.5928 11.8885 30.6039 12.1C 30.6118 12.2334 30.6196 12.3699 30.6276 12.5098C 30.722 14.1521 30.8431 16.259 31.3039 19.3L 31.6039 20.9Z"/>
<path id="path14_fill" d="M 1.14142 3.8C 1.44142 4.5 2.04142 4.7 2.74142 4.3C 2.94142 4.2 3.24142 4 3.34142 3.6C 3.44142 3.3 3.34142 2.9 3.24142 2.7L 2.24142 0.7C 2.04142 0.2 1.64142 0 1.24142 0C 1.04142 0 0.841421 0.1 0.641421 0.2C 0.441421 0.3 0.141421 0.5 0.0414214 0.9C -0.0585786 1.2 0.0414214 1.6 0.141421 1.8L 1.14142 3.8Z"/>
<path id="path15_fill" d="M 0.203867 1.7L 2.20387 5.8C 2.50387 6.5 3.10387 6.7 3.80387 6.3C 4.50387 6 4.70387 5.4 4.30387 4.7L 2.30387 0.6C 2.20387 0.4 2.00387 0.1 1.60387 0C 1.50387 0 1.40387 0 1.30387 0C 1.10387 0 0.803867 0.1 0.703867 0.2C 0.00386721 0.5 -0.196133 1 0.203867 1.7Z"/>
<path id="path16_fill" d="M 0.137829 1.8L 1.13783 3.8C 1.23783 4 1.43783 4.3 1.83783 4.4C 2.13783 4.5 2.53783 4.4 2.73783 4.3C 3.43783 4 3.63783 3.4 3.23783 2.7L 2.23783 0.7C 2.03783 0.2 1.63783 0 1.23783 0C 1.03783 0 0.837829 0.1 0.637829 0.2C 0.0378293 0.5 -0.162171 1.1 0.137829 1.8Z"/>
<path id="path17_fill" fill-rule="evenodd" d="M 0.0656738 14.0194C -0.0343018 13.8194 -0.0343018 13.4194 0.16571 13.1194C 0.282837 13.0023 0.468567 12.9194 0.622498 12.8508C 0.731323 12.8022 0.824219 12.7608 0.865662 12.7194L 18.6657 9.91937L 19.1657 8.01941C 19.9657 4.51941 23.8657 3.01941 24.2657 2.91937L 24.7657 2.8194L 25.2657 2.51941C 25.3657 2.41937 25.7657 2.61938 26.1657 2.91937L 26.1657 3.3194L 22.1657 8.91937L 33.2657 7.11938L 33.7657 5.3194C 34.5657 2.3194 38.2657 0.419373 38.9657 0.119385L 39.3657 0.0194092C 39.7657 -0.0806274 40.5657 0.21936 40.8657 0.619385C 40.9657 1.01941 40.9657 1.3194 40.9657 1.51941L 36.9657 7.11938L 64.5657 2.71936C 65.3657 2.51941 65.7657 2.8194 65.8657 3.61938C 67.9657 16.4194 62.7657 28.9194 52.3657 36.1194L 50.8657 37.1194L 52.3657 46.4194C 52.4657 46.6194 52.4657 47.0194 52.2657 47.3194C 52.0657 47.6194 51.6657 47.7194 51.4657 47.7194L 27.6657 51.5194C 27.4657 51.6194 27.0657 51.6194 26.7657 51.4194C 26.4657 51.2194 26.3657 50.8194 26.3657 50.6194L 24.8657 41.3194L 23.1657 40.7194C 10.6657 36.6194 2.06567 26.6194 0.0656738 14.0194ZM 20.4657 13.6194L 19.4657 12.1194L 2.26569 15.1194L 3.16571 18.2194C 6.06567 28.5193 14.5657 36.4194 25.7657 39.3193L 26.2657 39.4194C 26.3657 39.5193 26.5657 39.7194 26.6657 40.2194L 28.1657 49.4194L 49.7657 45.9194L 48.2657 36.7194C 48.1657 36.3193 48.3657 35.9194 48.3657 35.9194L 48.7657 35.7194C 58.3657 29.8193 64.0657 19.7194 64.1657 8.61938L 64.1657 5.21936L 38.4657 9.31934L 38.9657 12.2194C 39.0657 12.7194 38.8657 12.9194 38.7657 13.0193L 38.6657 13.1194C 38.5657 13.2194 38.2657 13.3193 37.8657 13.3193C 37.4657 13.3193 37.1657 13.2194 37.0657 13.1194L 36.7657 12.8193C 36.4194 12.5423 36.169 12.2173 35.8817 11.8443C 35.7542 11.6788 35.6194 11.5038 35.4657 11.3193L 34.4657 9.81934L 23.4657 11.6194L 23.9657 14.5193C 24.0657 15.0193 23.8657 15.2194 23.7657 15.3193L 23.6657 15.4194C 23.3657 15.7194 22.3657 15.7194 22.0657 15.4194L 21.7657 15.1194C 21.4194 14.8423 21.1691 14.5174 20.8818 14.1445C 20.7543 13.9789 20.6194 13.8038 20.4657 13.6194Z"/>
<path id="path18_fill" d="M 35.1 18.025L 19.3 24.825C 18.7 25.225 18.5 25.825 18.6 26.625C 19 27.125 19.7 27.325 20.5 27.125L 38.9 18.325L 59.6 21.025C 59.6 21.025 59.8 21.025 60 20.825C 60.3 20.625 60.4 20.325 60.4 20.125L 60.5 19.625C 60.5 19.625 60.5 19.425 60.3 19.225C 60.1 18.925 59.8 18.825 59.6 18.825L 59.3 18.825L 42.9 16.425L 73.2 2.425C 73.8 2.025 74 1.325 73.9 0.625C 73.5 0.125 72.9 -0.075 72.4 0.025L 38.4 15.825L 1.6 11.325C 0.8 11.325 0.2 11.725 0 12.425C 0.1 13.225 0.5 13.725 1.2 13.925L 35.1 18.025Z"/>
<path id="path19_fill" fill-rule="evenodd" d="M 42.1538 27.9866C 43.5538 25.3866 43.8538 22.3866 42.9539 19.5866C 42.0538 16.7866 39.9539 14.3866 37.2538 13.0866L 36.4539 12.6866L 36.5538 11.7866C 36.9539 7.58661 34.8538 3.48663 31.1538 1.3866C 27.4539 -0.713379 22.8538 -0.413391 19.4539 2.18665L 18.7538 2.68665L 17.9539 2.18665C 16.1538 0.986633 14.1538 0.386597 12.0538 0.386597C 11.1538 0.386597 10.3538 0.486633 9.45386 0.686646C 6.55383 1.3866 4.15381 3.18665 2.65381 5.78662C 1.65381 7.58661 1.25385 9.18665 1.35382 11.0866C 1.35382 11.6866 1.75385 11.9866 1.95386 12.0866L 6.15381 14.4866L 0.053833 34.6866C -0.146179 35.4866 0.253845 35.8866 0.553833 35.9866L 17.2538 45.2866C 17.5538 45.4866 18.1538 45.6866 18.6538 45.0866L 32.6538 29.2866L 36.8538 31.6866C 37.0538 31.7866 37.4539 31.9866 38.0538 31.6866C 39.9539 30.9866 41.1538 29.7866 42.1538 27.9866ZM 17.7538 43.1866L 2.65381 34.6866L 8.25378 15.6866L 30.8538 28.3867L 17.7538 43.1866ZM 3.75385 9.68665L 3.55383 10.5866L 37.7538 29.6866L 38.4539 29.0866C 38.5491 28.9596 38.715 28.7822 38.913 28.5704C 39.3385 28.1151 39.9126 27.5009 40.2538 26.8867C 41.5538 24.5866 41.6538 21.7866 40.5538 19.3867C 39.4539 17.0866 37.3538 15.3867 34.7538 14.7866C 34.1538 14.5866 33.5538 13.9866 33.8538 13.2866C 35.0538 9.38666 33.5538 5.28662 30.0538 3.38666C 26.6538 1.48663 22.3538 2.18665 19.7538 4.98663C 19.4539 5.28662 19.0538 5.48663 18.7538 5.48663C 18.4539 5.48663 18.2538 5.38666 17.9539 5.08667C 16.0538 3.28662 13.3538 2.38666 10.7538 2.78662C 8.15381 3.18665 5.95386 4.68665 4.65381 6.98663C 4.15381 7.88666 3.85382 9.18665 3.75385 9.68665Z"/>
<path id="path20_fill" d="M 0.6 2.1C 1.4 2.5 2 3.3 2.3 4.1C 2.6 5 2.6 6.1 2.1 6.9C 1.8 7.5 1.9 8 2.5 8.4C 2.7 8.5 3 8.6 3.3 8.6C 3.6 8.5 3.8 8.2 3.9 8C 4.6 6.7 4.8 5.2 4.4 3.7C 4 2.2 3 1 1.6 0.2C 1.4 0.1 1.2 0 1 0C 0.9 0 0.9 0 0.8 0C 0.5 0.1 0.3 0.4 0.2 0.6C 0.1 0.8 0 1.1 0 1.4C 0.1 1.8 0.4 2 0.6 2.1Z"/>
<path id="path21_fill" fill-rule="evenodd" d="M 27.9885 10.1434C 33.6885 8.84344 36.1885 10.4435 36.6885 10.8434C 39.1885 12.4435 40.8885 14.9435 41.7886 17.7435C 42.4885 20.7435 41.8885 23.8434 40.2886 26.3434C 36.7886 31.8434 31.1885 35.5435 25.0886 36.5435L 24.4885 36.6434L 24.2886 37.2435C 24.1705 37.6566 24.0525 38.0872 23.9318 38.5275L 23.9248 38.5532C 23.6388 39.5971 23.3381 40.6948 22.9885 41.7435C 22.7886 42.3434 22.1885 42.7435 21.5886 42.5435C 21.4885 42.5435 21.3885 42.5435 21.2886 42.4435C 20.7886 42.2435 20.6885 41.7435 20.7886 41.2435L 20.8885 41.0435C 21.0212 40.6014 21.1342 40.1592 21.2451 39.7258L 21.2454 39.7245L 21.246 39.7222L 21.2463 39.7209C 21.3857 39.1757 21.5217 38.6441 21.6885 38.1434L 21.9885 37.0435L 20.7886 36.9435C 17.6885 36.8434 14.5886 35.8434 11.9885 34.1434C 9.38855 32.4435 7.18854 30.0435 5.78857 27.2435L 5.28857 26.1434L 4.38855 26.9435C 3.84686 27.3497 3.35095 27.8019 2.83887 28.2689L 2.8371 28.2705L 2.83099 28.2761C 2.58942 28.4963 2.34412 28.7199 2.08856 28.9435L 1.88855 29.0435C 1.38855 29.4435 0.688538 29.3434 0.288574 28.9435C -0.11145 28.4435 -0.11145 27.7435 0.38855 27.3434C 1.04877 26.7383 1.7392 26.1634 2.39337 25.6187L 2.39471 25.6176C 2.92902 25.1727 3.43909 24.7479 3.88855 24.3434L 4.38855 23.9435L 4.18854 23.3434C 2.48853 17.3434 3.58856 10.7435 7.08856 5.24347C 8.68854 2.64343 11.1885 0.843445 14.1885 0.243469C 17.0886 -0.356567 20.1885 0.143433 22.7886 1.84344C 22.8885 1.84344 25.5886 3.34344 26.7886 9.34344L 26.9885 10.3434L 27.9885 10.1434ZM 5.68854 20.9435L 5.98853 22.5435L 7.18854 21.6435C 13.4885 16.7435 19.0886 13.3434 24.0886 11.4435L 24.7886 11.1435L 24.6885 10.3434C 23.7528 5.57117 21.9414 4.12622 21.6306 3.8783C 21.6093 3.86127 21.595 3.84985 21.5886 3.84344C 19.4885 2.54346 16.9885 2.04346 14.5886 2.54346C 12.1885 3.04346 10.0886 4.44348 8.78857 6.54346C 5.98853 10.9435 4.88855 16.0435 5.68854 20.9435ZM 21.6886 34.7435C 20.1886 34.7435 18.5886 34.5435 17.1886 34.1434C 15.6886 33.7435 14.2886 33.0435 12.9886 32.2435C 10.3885 30.6434 8.38855 28.2435 7.08856 25.4434L 6.78857 24.7435L 7.38855 24.2435C 13.4886 19.3434 19.0886 15.8434 23.8885 13.8434L 25.1886 13.3434L 25.1886 14.7435C 25.3885 19.9434 24.4886 26.4434 22.5886 34.0435L 22.3885 34.7435L 21.6886 34.7435ZM 26.2886 34.1434C 31.0886 32.8434 35.2886 29.6434 38.0886 25.2435C 40.7886 21.0435 39.5886 15.3434 35.3885 12.5435C 35.3784 12.5435 35.3467 12.5301 35.2926 12.5073C 34.8135 12.3055 32.5815 11.3652 28.0886 12.4435L 27.2886 12.6434L 27.3885 13.4435C 27.6886 18.7435 26.9886 25.3434 25.1886 33.0435L 24.7886 34.5435L 26.2886 34.1434Z"/>
<path id="path22_fill" fill-rule="evenodd" d="M 23.6 14.8L 23.9 15.5L 23.3 15.7C 23.2 15.8 19.9 18.2 15.8 17L 15.6 16.9L 15.5 17.1C 15 18.5 13.9 21.1 11.5 23.1L 10.8 23.6L 10.2 23C 10.2 23 7.59998 20.3 7.20001 16.9L 7.20001 16.7L 7 16.7C 5.20001 16.5 1.90002 15.9 0.299988 14L 0 13.7L 0.0999756 13.3C 0.0999756 13.2 0.700012 10.7 3.5 8.90002L 4.70001 8.29999L 4.90002 8.20001L 4.79999 8C 4.09998 6.5 3.09998 3.59998 4.70001 0.599976L 5 0L 5.59998 0.0999756C 5.79999 0.0999756 9.40002 0.599976 12.2 3.40002L 12.4 3.59998L 12.6 3.5C 12.7501 3.3999 12.9253 3.27478 13.1004 3.14972C 13.2753 3.02478 13.4501 2.8999 13.6 2.79999C 15.5 1.59998 17.4 1.20001 19.1 1.59998L 19.4 1.70001L 19.6 2C 19.6 2 21.6 4.79999 19.3 9.29999L 19.2 9.5L 19.4 9.59998C 20.7 10.5 22.5 12.1 23.6 14.8ZM 15.2 15.1C 17.9 16.3 20.2 15.5 21.3 15L 21.6 14.8L 21.5 14.6C 19.9 11.8 17.6 10.8 17.6 10.8L 16.6 10.4L 17.2 9.5C 19.1 6.5 18.6 4.39996 18.3 3.59998L 18.2 3.5L 18 3.5C 16.7 3.29999 15.4 3.89996 14.5 4.5C 13.7 5 13.1 5.59998 12.9 5.79999L 12.2 6.5L 11.5 5.70001C 9.79999 3.59998 7.5 2.70001 6.20001 2.39996L 6 2.29999L 5.90002 2.5C 4.90002 5.29999 6.70001 8.09998 6.90002 8.39996L 7.59998 9.5L 6.40002 9.89996C 5.70001 10.1 5 10.4 4.40002 10.8C 3.09998 11.7 2.40002 12.8 2.09998 13.4L 2 13.6L 2.20001 13.7C 3.79999 14.9 7 15.3 8.09998 15.3L 9 15.3L 9 16.2C 8.90002 18.2 10.1 20.1 10.8 21.1L 11 21.3L 11.2 21.1C 13.3 18.9 13.9 16.1 13.9 15.7L 14.1 14.6L 15.2 15.1Z"/>
<path id="path23_fill" d="M 7.6 4.6L 5.1 3.5L 6.5 1.7L 5 0.6L 3.7 2.3L 2.3 0L 0.7 1L 2.1 3.2L 0 3.8L 0.5 5.6L 2.6 5L 2.6 7.7L 4.4 7.8L 4.5 5.2L 6.8 6.3L 7.6 4.6Z"/>
<path id="path24_fill" fill-rule="evenodd" d="M 25.8 7.59998L 26.8 6.90002C 29.3 5.20001 34.3 2.59998 40 4.70001L 40.7 4.90002L 40.7 5.59998L 40.7001 5.62103C 40.7022 6.12952 40.7297 12.6994 36.7 18.4L 36.1 19.2L 36.9 19.9C 37.3043 20.2369 37.6631 20.6191 38.0071 20.9857C 38.1738 21.1631 38.3369 21.3369 38.5 21.5C 41.2 24.5 42.5 27.7 42.2 30.8L 42.2 31.2L 41.9 31.5C 41.9 31.5 37.5 35.9 28.9 33.1L 27.9 32.8L 27.5 33.7C 26.3 36.3 24 39.9 19.5 42.8L 18.8 43.2L 18.2 42.6L 18.1933 42.5933C 17.9054 42.3065 12.8082 37.2296 13.7 29.6L 13.8 28.5L 12.7 28.3C 10 27.9 4.90002 26.6 0.700012 22.9L 0 22.3L 0.599976 21.5C 0.599976 21.5 4.70001 16 10.6 14.3L 11.5 14L 11.4 13.1C 11.2 10.5 11.1 3.90002 14.2 0.400024L 14.5 0L 15 0C 15.1 0 19.8 0.299988 23.7 4.70001C 24.1999 5.19989 24.6997 5.8996 25.1996 6.59937L 25.2 6.59998L 25.8 7.59998ZM 33.8 18.6C 37.3 14.7 38.2 9.79999 38.5 7.29999L 38.7 6.29999L 37.6 6.10004C 31.8669 5.24005 27.3207 9.12775 26.4042 9.9115C 26.3615 9.948 26.3267 9.97778 26.3 10L 25.3 11L 24.7 9.70001C 24 8.29999 23.2 7.10004 22.3 6.10004C 20.1 3.70001 17.7 2.79999 16.4 2.40002L 15.5 2.20001L 15.1 3C 13.2 6.60004 13.5 12.8 13.8 14.9L 13.9 16L 12.8 16.1C 9 16.5 5.79999 19.1 3.79999 21.1L 2.79999 22.1L 3.89996 22.9C 8.89996 26.3 14.5 26.6 15.1 26.6L 16.4 26.6L 16.1 27.9C 14.7 33.3 16.9 37.6 18.3 39.6L 19 40.6L 20 39.8C 24.4 36.3 26 31.9 26.2 30.9L 26.4 29.8L 27.5 30.4C 34.1 33.1 38.1 31.5 39.5 30.6L 40.1 30.2L 40.1 29.5C 39.9 26.8 38.3 24.4 36.9 22.9C 35.9091 21.7289 34.837 20.8824 34.2686 20.4337C 34.2061 20.3842 34.1495 20.3397 34.1 20.3L 33 19.5L 33.8 18.6Z"/>
<path id="path25_fill" d="M 11.4 9.4L 12.4 7.6L 8.6 5.5L 12.5 2L 11.1 0.4L 7.2 3.9L 5.5 0L 3.6 0.8L 5.4 4.8L 0 5.6L 0.3 7.7L 5.5 6.9L 4.2 12L 6.2 12.5L 7.6 7.3L 11.4 9.4Z"/>
<path id="path26_fill" fill-rule="evenodd" d="M 40.7 32.9392L 39.9 16.5392L 25.8 8.03925L 21.6 10.4392L 21.1 9.93921C 20.6 9.53925 20.1 9.23926 19.5 8.93921L 18.7 8.63922L 20.2 1.33923C 20.3 0.739258 19.9 0.139221 19.3 0.0392456C 19 -0.060791 18.7 0.0392456 18.5 0.239258C 18.3 0.439209 18.1 0.639221 18 0.939209L 16.4 8.73926L 15.9 8.93921C 13.6 9.73926 12.1 11.8392 12.2 14.2393C 12.2 14.4392 12.2 14.5392 12.3 14.7393L 12.5 15.5392L 0 22.5392L 0.799988 39.0392L 40.7 32.9392ZM 38.4 31.0392L 2.70001 36.4392L 2.40002 30.4392L 38.1 24.8392L 38.4 31.0392ZM 13.9 18.0392L 13.4 17.5392L 1.90002 23.8392L 2.10004 28.2393L 37.8 22.6393L 37.6 17.9393L 25.6 10.7393L 22.5 12.4393L 22.7 13.2393C 22.8 13.4393 22.8 13.5392 22.8 13.7393C 22.9 15.2393 22.4 16.5392 21.4 17.6393C 20.4 18.6393 19.1 19.2393 17.7 19.3392C 16.3 19.4393 15 18.9393 13.9 18.0392Z"/>
<path id="path27_fill" fill-rule="evenodd" d="M 27.6934 9.79999C 27.6934 9.5 27.5934 9.29999 27.3934 9.20001C 25.5934 7.59998 22.9934 7.09998 20.6934 7.90002L 19.6934 8.20001L 19.9934 7.20001C 20.1934 6.5 20.2935 5.90002 20.2935 5.40002C 20.2935 3.40002 19.2935 1.59998 17.4934 0.400024L 16.8934 0L 16.3934 0.5C 14.9934 1.79999 14.1934 3.40002 14.1934 5.09998C 14.1934 5.25 14.2184 5.40002 14.2435 5.55005L 14.2436 5.55096C 14.2686 5.70062 14.2935 5.85034 14.2935 6L 14.3934 6.79999L 13.5934 6.59998C 12.4934 6.29999 11.4934 6.20001 10.3934 6.20001C 7.29346 6.20001 4.39343 7.40002 2.49341 9.59998C 0.593445 11.8 -0.30658 14.7 0.0934448 17.9C 0.493408 21 2.09344 24 4.59344 26.2C 7.09344 28.4 10.1934 29.6 13.3934 29.6C 16.4934 29.6 19.2935 28.4 21.2935 26.2C 24.9934 22.1 24.5934 15.4 20.3934 10.8L 19.9934 10.3L 20.4934 10C 22.2935 8.90002 24.5934 9.09998 26.0934 10.5C 26.2935 10.7 26.4934 10.7 26.7935 10.7C 27.0934 10.7 27.2935 10.6 27.3934 10.4C 27.6934 10.2 27.7935 10 27.6934 9.79999ZM 16.7935 3L 17.1934 2.40002L 17.5934 2.90002C 18.1934 3.70001 18.5934 4.5 18.5934 5.40002C 18.5934 6.10004 18.3934 6.90002 17.8934 7.60004L 17.4935 8.20001L 17.0934 7.70001C 16.4935 6.90002 16.0934 6.10004 16.0934 5.20001C 16.0934 4.40002 16.2935 3.70001 16.7935 3ZM 19.9934 24.8C 21.5934 23 22.2935 20.6 21.8934 18C 21.4934 15.4 20.0934 12.9 18.0934 11.1C 13.6934 7.20001 7.39343 7.09998 4.09344 10.9C 0.793457 14.7 1.59344 20.8 5.99341 24.7C 8.09344 26.5 10.7935 27.5 13.3934 27.5L 13.4934 27.5C 16.0934 27.5 18.3934 26.6 19.9934 24.8Z"/>
<path id="path28_fill" d="M 0.35464 1.6C 0.75464 1.9 1.35464 1.9 1.65464 1.5C 1.85464 1.3 1.85464 1.1 1.85464 0.8C 1.85464 0.5 1.75464 0.3 1.55464 0.2C 1.35464 0 1.15464 0 0.95464 0C 0.95464 0 0.95464 0 0.85464 0C 0.55464 0 0.35464 0.1 0.25464 0.3C -0.14536 0.6 -0.0453602 1.2 0.35464 1.6Z"/>
<path id="path29_fill" d="M 1.51384 0.2C 1.31384 0 1.11384 0 0.913844 0C 0.613844 0 0.413844 0.1 0.213844 0.3C -0.0861561 0.7 -0.0861561 1.3 0.313844 1.6C 0.513844 1.8 0.713844 1.9 1.01384 1.8C 1.31384 1.8 1.51384 1.7 1.61384 1.5C 1.91384 1.2 1.91384 0.6 1.51384 0.2Z"/>
<path id="path30_fill" d="M 1.81384 0.8C 1.81384 0.5 1.71384 0.3 1.51384 0.2C 1.31384 0 1.11384 0 0.913844 0C 0.613844 0 0.413844 0.1 0.213844 0.3C -0.0861561 0.7 -0.0861561 1.3 0.313844 1.6C 0.513844 1.8 0.713844 1.9 1.01384 1.8C 1.31384 1.8 1.51384 1.7 1.61384 1.5C 1.71384 1.3 1.81384 1.1 1.81384 0.8Z"/>
<path id="path31_fill" fill-rule="evenodd" d="M 21.3206 0.400024C 21.1206 0.0999756 20.8206 0 20.4206 0C 20.1206 0 19.8206 0.299988 19.6206 0.599976L 19.5206 0.799988L 18.4206 2.40002L 17.6206 2.09998C 16.2206 1.59998 14.8206 1.40002 13.4206 1.40002C 8.62061 1.40002 3.82062 4.09998 1.42059 8.70001C -1.57941 14.6 0.320618 21.9 5.72058 25.6L 6.42059 26.1L 5.52063 28.4C 5.42059 28.6 5.42059 28.9 5.52063 29.2C 5.62061 29.4 5.82062 29.7 6.42059 29.8L 46.5206 32.7C 46.5421 32.7 46.5671 32.7012 46.595 32.7025L 46.5969 32.7026C 46.8293 32.7136 47.2645 32.7341 47.6206 32.2C 47.9206 31.6 47.6206 31.2 47.5206 31.1L 21.3206 0.400024ZM 6.42059 23.8C 2.22058 20.3 0.920593 14.6 3.32062 9.79999C 5.72058 5 11.1206 2.70001 16.4206 4L 17.7206 4.29999L 7.52063 24.6L 6.42059 23.8ZM 19.8206 22.4L 21.9206 28.8L 44.0206 30.7L 35.5206 20.7L 29.3206 22.7C 29.1206 22.8 28.8206 22.8 28.5206 22.7C 28.2681 22.5316 28.1572 22.2924 28.0688 22.1017C 28.0522 22.0658 28.0364 22.0316 28.0206 22C 27.9206 21.8 27.9206 21.5 28.0206 21.2C 28.1888 20.9476 28.428 20.8368 28.6187 20.7484C 28.6546 20.7318 28.6888 20.7159 28.7206 20.7L 34.1206 18.9L 29.6206 13.5L 22.6206 15.8C 22.4206 15.9 22.1206 15.9 21.8206 15.8C 21.5681 15.6317 21.4572 15.3924 21.3688 15.2016C 21.3522 15.1658 21.3364 15.1317 21.3206 15.1C 21.2206 14.9 21.2206 14.6 21.3206 14.3C 21.489 14.0475 21.7282 13.9366 21.9189 13.8483C 21.9548 13.8317 21.989 13.8159 22.0206 13.8L 28.3206 11.7L 20.7206 2.90002L 8.12061 27.8L 19.7206 28.7L 17.8206 23C 17.6206 22.4 17.8206 21.9 18.5206 21.7C 18.7206 21.6 19.0206 21.6 19.3206 21.7C 19.5731 21.8683 19.6839 22.1074 19.7723 22.2982C 19.7889 22.3341 19.8047 22.3683 19.8206 22.4Z"/>
<path id="path32_fill" fill-rule="evenodd" d="M 10.0126 9.5C 9.01257 10.6 7.61255 11.3 6.11255 11.4C 4.61255 11.5 3.11255 10.9 1.91254 10C 0.812561 9 0.112549 7.59998 0.0125732 6.09998C -0.0874634 4.5 0.412537 3.09998 1.41254 1.90002C 2.41254 0.799988 3.81256 0.0999756 5.31256 0L 5.71259 0C 7.11255 0 8.41254 0.5 9.51257 1.40002C 10.6125 2.40002 11.3126 3.79999 11.4125 5.29999C 11.5126 6.90002 11.0126 8.29999 10.0126 9.5ZM 8.11255 2.90002C 7.4126 2.29999 6.51257 1.90002 5.51257 2C 3.51257 2.09998 2.01257 3.79999 2.11255 5.79999C 2.11255 6.79999 2.61255 7.70001 3.31256 8.29999C 4.01257 8.90002 4.81256 9.20001 5.71259 9.20001L 5.9126 9.20001C 6.9126 9.20001 7.81256 8.70001 8.4126 8C 9.01257 7.29999 9.4126 6.40002 9.31256 5.40002C 9.31256 4.40002 8.81256 3.5 8.11255 2.90002Z"/>
<path id="path33_fill" fill-rule="evenodd" d="M 5.79999 40L 5 33L 3.90002 33.2L 1.79999 15L 2.79999 14.9L 2.20001 10L 0.299988 10.1L 0 4.79999L 2.09998 4.70001L 2.70001 1.40002L 24.9 0L 25.9 3.20001L 28 3.09998L 28.3 8.40002L 26.4 8.5L 26.4 13.4L 27.4 13.3L 27.6 31.6L 26.6 31.7L 26.7 38.7L 5.79999 40ZM 7 32.9L 7.59998 37.8L 24.4 36.7L 24.4 31.8L 7.09998 32.9L 7 32.9ZM 5.79999 30.9L 4.20001 16.8L 4.29999 16.8L 25.4 15.5L 25.5 29.6L 5.79999 30.9ZM 4.5 9.79999L 4.40002 9.79999L 5 14.7L 24.3 13.5L 24.3 8.59998L 4.5 9.79999ZM 4.5 3.29999L 23.4 2.09998L 23.7 3.19995L 4.29999 4.39996L 4.5 3.29999ZM 2.29999 6.80005L 2.39996 8.10004L 26 6.80005L 26.1 6.80005L 26 5.40002L 2.39996 6.70001L 2.29999 6.80005Z"/>
<path id="path34_fill" fill-rule="evenodd" d="M 9.92499 1.125L 11.125 2.32501C 12.625 3.82501 12.625 6.32501 11.225 7.82501L 7.92499 11.125C 7.125 11.825 6.125 12.225 5.125 12.225C 4.125 12.225 3.125 11.925 2.32501 11.125L 1.125 9.92499C -0.375 8.42499 -0.375 5.92499 1.125 4.42499L 4.42499 1.125C 5.92499 -0.375 8.42499 -0.375 9.92499 1.125ZM 6.52496 9.92499L 9.82495 6.625C 10.625 5.72504 10.625 4.42499 9.82495 3.625L 8.625 2.42499C 8.22498 2.02502 7.625 1.82501 7.125 1.82501C 6.52496 1.82501 6.02496 2.02502 5.625 2.42499L 2.32495 5.72504C 1.52496 6.52502 1.52496 7.92499 2.32495 8.72504L 3.52496 9.92499C 4.32495 10.725 5.72498 10.725 6.52496 9.92499Z"/>
<path id="path35_fill" fill-rule="evenodd" d="M 3.09998 0.299988L 7.79999 5C 8.09998 5.29999 8.09998 5.90002 7.90002 6.29999L 7.20001 7C 6.40002 7.79999 5.29999 8.20001 4.20001 8.20001C 3.09998 8.20001 2 7.79999 1.20001 7C 0.400024 6.20001 0 5.09998 0 4C 0 2.90002 0.400024 1.79999 1.20001 1L 1.90002 0.299988C 2 0.0999756 2.29999 0 2.5 0C 2.70001 0 2.90002 0.0999756 3.09998 0.299988ZM 2.40002 5.70001C 3.29999 6.60004 4.90002 6.60004 5.79999 5.70001L 2.5 2.20001L 2.40002 2.29999C 2 2.70001 1.70001 3.40002 1.70001 4C 1.70001 4.60004 1.90002 5.20001 2.40002 5.70001Z"/>
<path id="path36_fill" fill-rule="evenodd" d="M 1 1.20001C 2.70001 -0.400024 5.40002 -0.400024 7 1.20001C 8.59998 2.79999 8.59998 5.5 6.90002 7.20001L 6.20001 7.90002C 6.09998 8.09998 5.79999 8.20001 5.59998 8.20001C 5.40002 8.20001 5.20001 8.09998 5 7.90002L 0.299988 3.20001C -0.0999756 2.79999 -0.0999756 2.29999 0.299988 1.90002L 1 1.20001ZM 2.20001 2.60004L 5.70001 5.90002C 6.60004 4.90002 6.60004 3.40002 5.70001 2.5C 4.79999 1.60004 3.20001 1.60004 2.29999 2.5L 2.20001 2.60004Z"/>
<path id="path37_fill" d="M 2.6 0.3C 2.2 -0.1 1.7 -0.1 1.3 0.3L 0.3 1.3C -0.1 1.7 -0.1 2.2 0.3 2.6C 0.5 2.8 0.7 2.9 0.9 2.9C 1.1 2.9 1.4 2.8 1.5 2.6L 2.5 1.6C 2.9 1.2 2.9 0.6 2.6 0.3Z"/>
<path id="path38_fill" d="M 2.5 0.3C 2.1 -0.1 1.6 -0.1 1.2 0.3L 0.3 1.2C -0.1 1.6 -0.1 2.1 0.3 2.5C 0.5 2.7 0.7 2.8 0.9 2.8C 1.1 2.8 1.4 2.7 1.5 2.5L 2.4 1.6C 2.8 1.2 2.8 0.6 2.5 0.3Z"/>
<path id="path39_fill" d="M 10 7.5L 3.8 3.7C 2.5 2.9 1.9 1.4 2.1 0C 1.5 0.5 0.7 0.8 0 1.1C 0 1.4 0.1 1.7 0.1 2.1C 0.5 3.6 1.4 4.8 2.7 5.6L 8.9 9.3C 10.5 10.3 12.5 10.3 14.1 9.6C 13.9 8.8 13.9 8 14 7.2C 13.4 7.7 12.6 8 11.8 8C 11.2 8 10.5 7.8 10 7.5Z"/>
<path id="path40_fill" d="M 11.4 4.5L 5.2 0.8C 4.3 0.3 3.3 0 2.3 0C 1.8 0 1.4 0.1 0.9 0.2C 0.6 0.3 0.3 0.4 0 0.5C 0.2 1.3 0.2 2.1 0.1 2.9C 0.5 2.6 1 2.3 1.5 2.2C 2.4 2 3.4 2.1 4.2 2.6L 10.4 6.3C 11.2 6.8 11.8 7.6 12 8.5C 12.1 9 12.1 9.5 12 10C 12.6 9.5 13.3 9.2 14.1 8.9C 14.1 8.6 14 8.3 14 7.9C 13.6 6.5 12.7 5.3 11.4 4.5Z"/>
<path id="path41_fill" d="M 3.78114 2.8C 4.18114 2.5 4.58114 2.3 5.08114 2.2C 6.18114 1.9 7.18114 2.1 8.18114 2.7L 8.68114 3L 4.48114 9.9L 3.98114 9.6C 3.08114 9 2.38114 8.2 2.18114 7.1C 2.08114 6.6 2.08114 6.2 2.08114 5.7L 0.881139 5C 0.581139 4.8 0.381139 4.6 0.281139 4.3C -0.0188612 5.4 -0.118861 6.5 0.181139 7.6C 0.581139 9.2 1.58114 10.5 2.98114 11.4L 4.28114 12.2C 4.48114 12.3 4.78114 12.4 5.08114 12.3C 5.38114 12.2 5.58114 12.1 5.68114 11.8L 10.8811 3.1C 10.9811 2.9 11.0811 2.6 10.9811 2.3C 10.8811 2 10.7811 1.8 10.4811 1.7L 9.18114 0.9C 8.18114 0.3 7.18114 0 6.08114 0C 5.58114 0 5.08114 0.1 4.58114 0.2C 3.48114 0.5 2.48114 1 1.78114 1.8C 2.08114 1.8 2.38114 1.9 2.68114 2L 3.78114 2.8Z"/>
<path id="path42_fill" d="M 8.34142 10.1L 7.24142 9.5C 6.84142 9.8 6.44142 10 5.94142 10.1C 5.64142 10.2 5.24142 10.2 4.94142 10.2C 4.24142 10.2 3.54142 10 2.84142 9.6L 2.34142 9.3L 6.54142 2.4L 7.04142 2.7C 8.44142 3.5 9.14142 5.1 8.94142 6.6L 10.0414 7.2C 10.3414 7.4 10.6414 7.7 10.7414 8.1C 11.1414 7 11.1414 5.8 10.8414 4.7C 10.4414 3.1 9.44142 1.8 8.04142 0.9L 6.74142 0.1C 6.54142 0 6.44142 0 6.24142 0C 6.14142 0 6.04142 0 5.94142 0C 5.64142 0.1 5.44142 0.2 5.34142 0.5L 0.141421 9.2C 0.0414214 9.4 -0.0585786 9.7 0.0414214 10C 0.141421 10.3 0.241421 10.5 0.541421 10.6L 1.84142 11.4C 4.34142 12.9 7.44142 12.4 9.44142 10.4C 9.34142 10.4 9.24142 10.4 9.24142 10.4C 8.94142 10.4 8.64142 10.3 8.34142 10.1Z"/>
<path id="path43_fill" d="M 1.04142 0C 0.641421 0 0.341421 0.2 0.141421 0.5C 0.0414214 0.7 -0.0585786 1 0.0414214 1.3C 0.141421 1.6 0.241421 1.8 0.541421 1.9L 2.34142 3C 2.54142 3.1 2.84142 3.2 3.14142 3.1C 3.44142 3 3.64142 2.9 3.74142 2.6C 3.84142 2.4 3.94142 2.1 3.84142 1.8C 3.74142 1.5 3.64142 1.3 3.34142 1.2L 1.54142 0.1C 1.34142 0.1 1.14142 0 1.04142 0Z"/>
<path id="path44_fill" d="M 3.04142 3C 3.34142 2.9 3.54142 2.8 3.64142 2.5C 3.94142 2 3.74142 1.4 3.24142 1.1L 1.54142 0.1C 1.34142 0 1.24142 0 1.04142 0C 0.941421 0 0.841421 0 0.741421 0C 0.441421 0.1 0.241421 0.2 0.141421 0.5C 0.0414214 0.7 -0.0585786 1 0.0414214 1.3C 0.141421 1.6 0.241421 1.8 0.541421 1.9L 2.24142 2.9C 2.54142 3 2.84142 3 3.04142 3Z"/>
</defs>
</svg>
