<svg width="33" height="19" viewBox="0 0 33 19" version="1.1" xmlns="http://www.w3.org/2000/svg" xmlns:xlink="http://www.w3.org/1999/xlink">
<title>Shape</title>
<desc>Created using Figma</desc>
<g id="Canvas" transform="translate(19253 -2193)">
<g id="Shape">
<use xlink:href="#path0_fill" transform="translate(-19253 2193)" fill="#FFFFFF"/>
</g>
</g>
<defs>
<path id="path0_fill" fill-rule="evenodd" d="M 31.0246 0.804962L 25.7845 0.804962C 25.3487 0.804959 24.9482 1.04455 24.7422 1.42852C 24.7422 1.42852 22.6522 5.2775 21.9809 6.57391C 20.1749 10.0614 19.0054 8.96655 19.0054 7.34798L 19.0054 1.76711C 19.0054 0.795971 18.2181 0.00870969 17.247 0.00870969L 13.3071 0.00870969C 12.2162 -0.0724018 11.1611 0.417197 10.5187 1.30262C 10.5187 1.30262 12.5193 0.979151 12.5193 3.67478C 12.5193 4.34322 12.5537 6.26616 12.5851 7.879C 12.5972 8.36581 12.3044 8.80851 11.8516 8.98786C 11.3989 9.16721 10.8824 9.04515 10.5578 8.68211C 8.94516 6.43921 7.60935 4.00971 6.5794 1.44642C 6.39878 1.05486 6.00668 0.804335 5.57547 0.804962C 4.43906 0.804962 2.16499 0.804962 0.814503 0.804962C 0.548668 0.803153 0.29891 0.932063 0.146392 1.1498C -0.00612667 1.36754 -0.0419386 1.64631 0.0505937 1.89553C 1.49625 5.86096 7.7237 18.3225 14.8317 18.3225L 17.8235 18.3225C 18.4762 18.3225 19.0054 17.7933 19.0054 17.1406L 19.0054 15.3341C 19.0054 14.8709 19.2806 14.452 19.7057 14.2681C 20.1308 14.0842 20.6245 14.1705 20.9621 14.4876L 24.543 17.8521C 24.8646 18.1543 25.2893 18.3225 25.7305 18.3225L 30.4329 18.3225C 32.7009 18.3225 32.7009 16.7487 31.4643 15.531C 30.5941 14.6739 27.4539 11.364 27.4539 11.364C 26.8983 10.7883 26.8453 9.89356 27.3291 9.25639C 28.3441 7.92066 30.0043 5.73416 30.7084 4.79748C 31.6708 3.51721 33.4126 0.804962 31.0246 0.804962Z"/>
</defs>
</svg>
